<?xml version="1.0" encoding="utf-8" standalone="no"?>
<!DOCTYPE svg PUBLIC "-//W3C//DTD SVG 1.1//EN"
  "http://www.w3.org/Graphics/SVG/1.1/DTD/svg11.dtd">
<svg xmlns:xlink="http://www.w3.org/1999/xlink" width="584.434375pt" height="488.495937pt" viewBox="0 0 584.434375 488.495937" xmlns="http://www.w3.org/2000/svg" version="1.1">
 <metadata>
  <rdf:RDF xmlns:dc="http://purl.org/dc/elements/1.1/" xmlns:cc="http://creativecommons.org/ns#" xmlns:rdf="http://www.w3.org/1999/02/22-rdf-syntax-ns#">
   <cc:Work>
    <dc:type rdf:resource="http://purl.org/dc/dcmitype/StillImage"/>
    <dc:date>2026-06-20T20:53:06.112359</dc:date>
    <dc:format>image/svg+xml</dc:format>
    <dc:creator>
     <cc:Agent>
      <dc:title>Matplotlib v3.10.0, https://matplotlib.org/</dc:title>
     </cc:Agent>
    </dc:creator>
   </cc:Work>
  </rdf:RDF>
 </metadata>
 <defs>
  <style type="text/css">*{stroke-linejoin: round; stroke-linecap: butt}</style>
 </defs>
 <g id="figure_1">
  <g id="patch_1">
   <path d="M 0 488.495937 
L 584.434375 488.495937 
L 584.434375 0 
L 0 0 
z
" style="fill: #ffffff"/>
  </g>
  <g id="axes_1">
   <g id="patch_2">
    <path d="M 158.734375 450.72 
L 577.234375 450.72 
L 577.234375 7.2 
L 158.734375 7.2 
z
" style="fill: #ffffff"/>
   </g>
   <g id="matplotlib.axis_1">
    <g id="xtick_1">
     <g id="line2d_1">
      <defs>
       <path id="m001dda7dcf" d="M 0 0 
L 0 3.5 
" style="stroke: #000000; stroke-width: 0.8"/>
      </defs>
      <g>
       <use xlink:href="#m001dda7dcf" x="169.644901" y="450.72" style="stroke: #000000; stroke-width: 0.8"/>
      </g>
     </g>
     <g id="text_1">
      <!-- −0.4 -->
      <g transform="translate(159.774588 464.966875) scale(0.1 -0.1)">
       <defs>
        <path id="LiberationSans-2212" d="M 316 1900 
L 316 2356 
L 3425 2356 
L 3425 1900 
L 316 1900 
z
" transform="scale(0.015625)"/>
        <path id="LiberationSans-30" d="M 3309 2203 
Q 3309 1569 3189 1136 
Q 3069 703 2861 436 
Q 2653 169 2372 53 
Q 2091 -63 1772 -63 
Q 1450 -63 1172 53 
Q 894 169 689 434 
Q 484 700 367 1133 
Q 250 1566 250 2203 
Q 250 2869 367 3305 
Q 484 3741 690 4000 
Q 897 4259 1178 4364 
Q 1459 4469 1791 4469 
Q 2106 4469 2382 4364 
Q 2659 4259 2865 4000 
Q 3072 3741 3190 3305 
Q 3309 2869 3309 2203 
z
M 2738 2203 
Q 2738 2728 2675 3076 
Q 2613 3425 2491 3633 
Q 2369 3841 2192 3927 
Q 2016 4013 1791 4013 
Q 1553 4013 1372 3925 
Q 1191 3838 1067 3630 
Q 944 3422 881 3073 
Q 819 2725 819 2203 
Q 819 1697 883 1350 
Q 947 1003 1070 792 
Q 1194 581 1372 489 
Q 1550 397 1778 397 
Q 2000 397 2178 489 
Q 2356 581 2479 792 
Q 2603 1003 2670 1350 
Q 2738 1697 2738 2203 
z
" transform="scale(0.015625)"/>
        <path id="LiberationSans-2e" d="M 584 0 
L 584 684 
L 1194 684 
L 1194 0 
L 584 0 
z
" transform="scale(0.015625)"/>
        <path id="LiberationSans-34" d="M 2753 997 
L 2753 0 
L 2222 0 
L 2222 997 
L 147 997 
L 147 1434 
L 2163 4403 
L 2753 4403 
L 2753 1441 
L 3372 1441 
L 3372 997 
L 2753 997 
z
M 2222 3769 
Q 2216 3753 2191 3708 
Q 2166 3663 2134 3606 
Q 2103 3550 2070 3492 
Q 2038 3434 2013 3397 
L 884 1734 
Q 869 1709 839 1668 
Q 809 1628 778 1586 
Q 747 1544 715 1503 
Q 684 1463 666 1441 
L 2222 1441 
L 2222 3769 
z
" transform="scale(0.015625)"/>
       </defs>
       <use xlink:href="#LiberationSans-2212"/>
       <use xlink:href="#LiberationSans-30" transform="translate(58.398438 0)"/>
       <use xlink:href="#LiberationSans-2e" transform="translate(114.013672 0)"/>
       <use xlink:href="#LiberationSans-34" transform="translate(141.796875 0)"/>
      </g>
     </g>
    </g>
    <g id="xtick_2">
     <g id="line2d_2">
      <g>
       <use xlink:href="#m001dda7dcf" x="247.294001" y="450.72" style="stroke: #000000; stroke-width: 0.8"/>
      </g>
     </g>
     <g id="text_2">
      <!-- −0.2 -->
      <g transform="translate(237.423688 464.966875) scale(0.1 -0.1)">
       <defs>
        <path id="LiberationSans-32" d="M 322 0 
L 322 397 
Q 481 763 711 1042 
Q 941 1322 1194 1548 
Q 1447 1775 1695 1969 
Q 1944 2163 2144 2356 
Q 2344 2550 2467 2762 
Q 2591 2975 2591 3244 
Q 2591 3431 2534 3573 
Q 2478 3716 2372 3812 
Q 2266 3909 2117 3957 
Q 1969 4006 1788 4006 
Q 1619 4006 1470 3959 
Q 1322 3913 1206 3819 
Q 1091 3725 1017 3586 
Q 944 3447 922 3263 
L 347 3316 
Q 375 3553 478 3762 
Q 581 3972 762 4130 
Q 944 4288 1198 4378 
Q 1453 4469 1788 4469 
Q 2116 4469 2372 4391 
Q 2628 4313 2804 4159 
Q 2981 4006 3075 3781 
Q 3169 3556 3169 3263 
Q 3169 3041 3089 2841 
Q 3009 2641 2876 2459 
Q 2744 2278 2569 2109 
Q 2394 1941 2203 1780 
Q 2013 1619 1819 1461 
Q 1625 1303 1454 1143 
Q 1284 984 1150 820 
Q 1016 656 941 478 
L 3238 478 
L 3238 0 
L 322 0 
z
" transform="scale(0.015625)"/>
       </defs>
       <use xlink:href="#LiberationSans-2212"/>
       <use xlink:href="#LiberationSans-30" transform="translate(58.398438 0)"/>
       <use xlink:href="#LiberationSans-2e" transform="translate(114.013672 0)"/>
       <use xlink:href="#LiberationSans-32" transform="translate(141.796875 0)"/>
      </g>
     </g>
    </g>
    <g id="xtick_3">
     <g id="line2d_3">
      <g>
       <use xlink:href="#m001dda7dcf" x="324.9431" y="450.72" style="stroke: #000000; stroke-width: 0.8"/>
      </g>
     </g>
     <g id="text_3">
      <!-- 0.0 -->
      <g transform="translate(317.9931 464.966875) scale(0.1 -0.1)">
       <use xlink:href="#LiberationSans-30"/>
       <use xlink:href="#LiberationSans-2e" transform="translate(55.615234 0)"/>
       <use xlink:href="#LiberationSans-30" transform="translate(83.398438 0)"/>
      </g>
     </g>
    </g>
    <g id="xtick_4">
     <g id="line2d_4">
      <g>
       <use xlink:href="#m001dda7dcf" x="402.5922" y="450.72" style="stroke: #000000; stroke-width: 0.8"/>
      </g>
     </g>
     <g id="text_4">
      <!-- 0.2 -->
      <g transform="translate(395.6422 464.966875) scale(0.1 -0.1)">
       <use xlink:href="#LiberationSans-30"/>
       <use xlink:href="#LiberationSans-2e" transform="translate(55.615234 0)"/>
       <use xlink:href="#LiberationSans-32" transform="translate(83.398438 0)"/>
      </g>
     </g>
    </g>
    <g id="xtick_5">
     <g id="line2d_5">
      <g>
       <use xlink:href="#m001dda7dcf" x="480.2413" y="450.72" style="stroke: #000000; stroke-width: 0.8"/>
      </g>
     </g>
     <g id="text_5">
      <!-- 0.4 -->
      <g transform="translate(473.2913 464.966875) scale(0.1 -0.1)">
       <use xlink:href="#LiberationSans-30"/>
       <use xlink:href="#LiberationSans-2e" transform="translate(55.615234 0)"/>
       <use xlink:href="#LiberationSans-34" transform="translate(83.398438 0)"/>
      </g>
     </g>
    </g>
    <g id="xtick_6">
     <g id="line2d_6">
      <g>
       <use xlink:href="#m001dda7dcf" x="557.8904" y="450.72" style="stroke: #000000; stroke-width: 0.8"/>
      </g>
     </g>
     <g id="text_6">
      <!-- 0.6 -->
      <g transform="translate(550.9404 464.966875) scale(0.1 -0.1)">
       <defs>
        <path id="LiberationSans-36" d="M 3278 1441 
Q 3278 1109 3186 832 
Q 3094 556 2914 357 
Q 2734 159 2468 48 
Q 2203 -63 1856 -63 
Q 1472 -63 1184 84 
Q 897 231 706 507 
Q 516 784 420 1186 
Q 325 1588 325 2100 
Q 325 2688 433 3131 
Q 541 3575 744 3872 
Q 947 4169 1239 4319 
Q 1531 4469 1900 4469 
Q 2125 4469 2322 4422 
Q 2519 4375 2680 4270 
Q 2841 4166 2962 3994 
Q 3084 3822 3156 3572 
L 2619 3475 
Q 2531 3759 2339 3886 
Q 2147 4013 1894 4013 
Q 1663 4013 1475 3903 
Q 1288 3794 1156 3576 
Q 1025 3359 954 3031 
Q 884 2703 884 2266 
Q 1038 2550 1316 2698 
Q 1594 2847 1953 2847 
Q 2253 2847 2497 2750 
Q 2741 2653 2914 2470 
Q 3088 2288 3183 2027 
Q 3278 1766 3278 1441 
z
M 2706 1416 
Q 2706 1644 2650 1828 
Q 2594 2013 2481 2142 
Q 2369 2272 2203 2342 
Q 2038 2413 1819 2413 
Q 1666 2413 1509 2367 
Q 1353 2322 1226 2220 
Q 1100 2119 1020 1953 
Q 941 1788 941 1550 
Q 941 1306 1003 1095 
Q 1066 884 1183 728 
Q 1300 572 1465 481 
Q 1631 391 1838 391 
Q 2041 391 2202 461 
Q 2363 531 2475 664 
Q 2588 797 2647 987 
Q 2706 1178 2706 1416 
z
" transform="scale(0.015625)"/>
       </defs>
       <use xlink:href="#LiberationSans-30"/>
       <use xlink:href="#LiberationSans-2e" transform="translate(55.615234 0)"/>
       <use xlink:href="#LiberationSans-36" transform="translate(83.398438 0)"/>
      </g>
     </g>
    </g>
    <g id="text_7">
     <!-- Coeficiente padronizado (IC 95%) -->
     <g transform="translate(285.443984 479.013437) scale(0.11 -0.11)">
      <defs>
       <path id="LiberationSans-43" d="M 2475 3981 
Q 2100 3981 1811 3856 
Q 1522 3731 1326 3500 
Q 1131 3269 1031 2944 
Q 931 2619 931 2222 
Q 931 1825 1039 1495 
Q 1147 1166 1348 928 
Q 1550 691 1842 559 
Q 2134 428 2500 428 
Q 2756 428 2967 495 
Q 3178 563 3348 684 
Q 3519 806 3653 973 
Q 3788 1141 3891 1344 
L 4378 1100 
Q 4259 853 4084 640 
Q 3909 428 3673 272 
Q 3438 116 3139 26 
Q 2841 -63 2472 -63 
Q 1938 -63 1536 107 
Q 1134 278 864 583 
Q 594 888 459 1306 
Q 325 1725 325 2222 
Q 325 2738 467 3153 
Q 609 3569 882 3861 
Q 1156 4153 1556 4311 
Q 1956 4469 2469 4469 
Q 3172 4469 3644 4194 
Q 4116 3919 4338 3378 
L 3772 3191 
Q 3709 3347 3603 3489 
Q 3497 3631 3337 3740 
Q 3178 3850 2964 3915 
Q 2750 3981 2475 3981 
z
" transform="scale(0.015625)"/>
       <path id="LiberationSans-6f" d="M 3291 1694 
Q 3291 806 2900 371 
Q 2509 -63 1766 -63 
Q 1413 -63 1134 43 
Q 856 150 664 369 
Q 472 588 370 917 
Q 269 1247 269 1694 
Q 269 3444 1784 3444 
Q 2178 3444 2464 3334 
Q 2750 3225 2933 3006 
Q 3116 2788 3203 2459 
Q 3291 2131 3291 1694 
z
M 2700 1694 
Q 2700 2088 2639 2344 
Q 2578 2600 2461 2753 
Q 2344 2906 2175 2967 
Q 2006 3028 1794 3028 
Q 1578 3028 1404 2964 
Q 1231 2900 1109 2745 
Q 988 2591 923 2334 
Q 859 2078 859 1694 
Q 859 1300 928 1042 
Q 997 784 1117 631 
Q 1238 478 1402 415 
Q 1566 353 1759 353 
Q 1975 353 2150 414 
Q 2325 475 2447 628 
Q 2569 781 2634 1040 
Q 2700 1300 2700 1694 
z
" transform="scale(0.015625)"/>
       <path id="LiberationSans-65" d="M 863 1572 
Q 863 1306 917 1082 
Q 972 859 1086 698 
Q 1200 538 1378 448 
Q 1556 359 1806 359 
Q 2172 359 2392 506 
Q 2613 653 2691 878 
L 3184 738 
Q 3131 597 3036 455 
Q 2941 313 2781 198 
Q 2622 84 2383 10 
Q 2144 -63 1806 -63 
Q 1056 -63 664 384 
Q 272 831 272 1713 
Q 272 2188 390 2517 
Q 509 2847 715 3053 
Q 922 3259 1197 3351 
Q 1472 3444 1784 3444 
Q 2209 3444 2495 3306 
Q 2781 3169 2954 2926 
Q 3128 2684 3201 2356 
Q 3275 2028 3275 1647 
L 3275 1572 
L 863 1572 
z
M 2694 2003 
Q 2647 2538 2422 2783 
Q 2197 3028 1775 3028 
Q 1634 3028 1479 2983 
Q 1325 2938 1194 2822 
Q 1063 2706 972 2507 
Q 881 2309 869 2003 
L 2694 2003 
z
" transform="scale(0.015625)"/>
       <path id="LiberationSans-66" d="M 1128 2972 
L 1128 0 
L 566 0 
L 566 2972 
L 91 2972 
L 91 3381 
L 566 3381 
L 566 3763 
Q 566 3947 600 4105 
Q 634 4263 726 4380 
Q 819 4497 978 4564 
Q 1138 4631 1391 4631 
Q 1491 4631 1598 4622 
Q 1706 4613 1788 4594 
L 1788 4166 
Q 1734 4175 1664 4183 
Q 1594 4191 1538 4191 
Q 1413 4191 1333 4156 
Q 1253 4122 1208 4058 
Q 1163 3994 1145 3900 
Q 1128 3806 1128 3684 
L 1128 3381 
L 1788 3381 
L 1788 2972 
L 1128 2972 
z
" transform="scale(0.015625)"/>
       <path id="LiberationSans-69" d="M 428 4100 
L 428 4638 
L 991 4638 
L 991 4100 
L 428 4100 
z
M 428 0 
L 428 3381 
L 991 3381 
L 991 0 
L 428 0 
z
" transform="scale(0.015625)"/>
       <path id="LiberationSans-63" d="M 859 1706 
Q 859 1416 901 1172 
Q 944 928 1044 751 
Q 1144 575 1308 478 
Q 1472 381 1713 381 
Q 2013 381 2214 543 
Q 2416 706 2463 1044 
L 3031 1006 
Q 3003 797 2909 603 
Q 2816 409 2655 262 
Q 2494 116 2262 26 
Q 2031 -63 1728 -63 
Q 1331 -63 1053 71 
Q 775 206 601 442 
Q 428 678 350 998 
Q 272 1319 272 1694 
Q 272 2034 328 2295 
Q 384 2556 486 2751 
Q 588 2947 725 3080 
Q 863 3213 1023 3292 
Q 1184 3372 1362 3408 
Q 1541 3444 1722 3444 
Q 2006 3444 2228 3366 
Q 2450 3288 2611 3152 
Q 2772 3016 2872 2831 
Q 2972 2647 3013 2434 
L 2434 2391 
Q 2391 2672 2212 2837 
Q 2034 3003 1706 3003 
Q 1466 3003 1305 2923 
Q 1144 2844 1044 2683 
Q 944 2522 901 2278 
Q 859 2034 859 1706 
z
" transform="scale(0.015625)"/>
       <path id="LiberationSans-6e" d="M 2578 0 
L 2578 2144 
Q 2578 2391 2542 2556 
Q 2506 2722 2425 2823 
Q 2344 2925 2211 2967 
Q 2078 3009 1881 3009 
Q 1681 3009 1520 2939 
Q 1359 2869 1245 2736 
Q 1131 2603 1068 2408 
Q 1006 2213 1006 1959 
L 1006 0 
L 444 0 
L 444 2659 
Q 444 2766 442 2883 
Q 441 3000 437 3104 
Q 434 3209 431 3284 
Q 428 3359 425 3381 
L 956 3381 
Q 959 3366 962 3297 
Q 966 3228 970 3139 
Q 975 3050 978 2958 
Q 981 2866 981 2803 
L 991 2803 
Q 1072 2950 1169 3069 
Q 1266 3188 1394 3270 
Q 1522 3353 1687 3398 
Q 1853 3444 2072 3444 
Q 2353 3444 2556 3375 
Q 2759 3306 2890 3162 
Q 3022 3019 3083 2792 
Q 3144 2566 3144 2253 
L 3144 0 
L 2578 0 
z
" transform="scale(0.015625)"/>
       <path id="LiberationSans-74" d="M 1731 25 
Q 1603 -9 1470 -29 
Q 1338 -50 1163 -50 
Q 488 -50 488 716 
L 488 2972 
L 97 2972 
L 97 3381 
L 509 3381 
L 675 4138 
L 1050 4138 
L 1050 3381 
L 1675 3381 
L 1675 2972 
L 1050 2972 
L 1050 838 
Q 1050 594 1129 495 
Q 1209 397 1406 397 
Q 1488 397 1564 409 
Q 1641 422 1731 441 
L 1731 25 
z
" transform="scale(0.015625)"/>
       <path id="LiberationSans-20" transform="scale(0.015625)"/>
       <path id="LiberationSans-70" d="M 3291 1706 
Q 3291 1322 3228 997 
Q 3166 672 3020 437 
Q 2875 203 2636 70 
Q 2397 -63 2047 -63 
Q 1684 -63 1412 75 
Q 1141 213 997 525 
L 981 525 
Q 984 519 986 469 
Q 988 419 989 344 
Q 991 269 992 176 
Q 994 84 994 -6 
L 994 -1328 
L 431 -1328 
L 431 2691 
Q 431 2813 429 2925 
Q 428 3038 425 3130 
Q 422 3222 419 3287 
Q 416 3353 413 3381 
L 956 3381 
Q 959 3372 964 3315 
Q 969 3259 973 3179 
Q 978 3100 983 3009 
Q 988 2919 988 2838 
L 1000 2838 
Q 1078 3000 1178 3114 
Q 1278 3228 1406 3301 
Q 1534 3375 1692 3408 
Q 1850 3441 2047 3441 
Q 2397 3441 2636 3316 
Q 2875 3191 3020 2964 
Q 3166 2738 3228 2417 
Q 3291 2097 3291 1706 
z
M 2700 1694 
Q 2700 2006 2662 2250 
Q 2625 2494 2533 2662 
Q 2441 2831 2287 2918 
Q 2134 3006 1903 3006 
Q 1716 3006 1550 2953 
Q 1384 2900 1261 2750 
Q 1138 2600 1066 2336 
Q 994 2072 994 1650 
Q 994 1291 1053 1042 
Q 1113 794 1227 641 
Q 1341 488 1509 420 
Q 1678 353 1897 353 
Q 2131 353 2286 443 
Q 2441 534 2533 706 
Q 2625 878 2662 1126 
Q 2700 1375 2700 1694 
z
" transform="scale(0.015625)"/>
       <path id="LiberationSans-61" d="M 1294 -63 
Q 784 -63 528 206 
Q 272 475 272 944 
Q 272 1278 398 1492 
Q 525 1706 729 1828 
Q 934 1950 1196 1997 
Q 1459 2044 1731 2050 
L 2491 2063 
L 2491 2247 
Q 2491 2456 2447 2603 
Q 2403 2750 2312 2840 
Q 2222 2931 2086 2973 
Q 1950 3016 1766 3016 
Q 1603 3016 1472 2992 
Q 1341 2969 1244 2908 
Q 1147 2847 1087 2742 
Q 1028 2638 1009 2478 
L 422 2531 
Q 453 2731 540 2898 
Q 628 3066 789 3187 
Q 950 3309 1192 3376 
Q 1434 3444 1778 3444 
Q 2416 3444 2737 3151 
Q 3059 2859 3059 2306 
L 3059 850 
Q 3059 600 3125 473 
Q 3191 347 3375 347 
Q 3422 347 3469 353 
Q 3516 359 3559 369 
L 3559 19 
Q 3453 -6 3348 -18 
Q 3244 -31 3125 -31 
Q 2966 -31 2852 11 
Q 2738 53 2666 139 
Q 2594 225 2556 351 
Q 2519 478 2509 647 
L 2491 647 
Q 2400 484 2292 353 
Q 2184 222 2040 130 
Q 1897 38 1714 -12 
Q 1531 -63 1294 -63 
z
M 1422 359 
Q 1691 359 1892 457 
Q 2094 556 2226 709 
Q 2359 863 2425 1044 
Q 2491 1225 2491 1391 
L 2491 1669 
L 1875 1656 
Q 1669 1653 1483 1626 
Q 1297 1600 1156 1522 
Q 1016 1444 933 1303 
Q 850 1163 850 934 
Q 850 659 998 509 
Q 1147 359 1422 359 
z
" transform="scale(0.015625)"/>
       <path id="LiberationSans-64" d="M 2566 544 
Q 2409 219 2151 78 
Q 1894 -63 1513 -63 
Q 872 -63 570 368 
Q 269 800 269 1675 
Q 269 3444 1513 3444 
Q 1897 3444 2153 3303 
Q 2409 3163 2566 2856 
L 2572 2856 
Q 2572 2888 2570 2955 
Q 2569 3022 2567 3095 
Q 2566 3169 2566 3234 
Q 2566 3300 2566 3328 
L 2566 4638 
L 3128 4638 
L 3128 697 
Q 3128 575 3129 462 
Q 3131 350 3134 256 
Q 3138 163 3141 95 
Q 3144 28 3147 0 
L 2609 0 
Q 2603 31 2598 89 
Q 2594 147 2589 222 
Q 2584 297 2581 380 
Q 2578 463 2578 544 
L 2566 544 
z
M 859 1694 
Q 859 1344 903 1094 
Q 947 844 1044 683 
Q 1141 522 1291 447 
Q 1441 372 1656 372 
Q 1878 372 2048 444 
Q 2219 516 2333 677 
Q 2447 838 2506 1097 
Q 2566 1356 2566 1731 
Q 2566 2091 2506 2339 
Q 2447 2588 2331 2741 
Q 2216 2894 2048 2961 
Q 1881 3028 1663 3028 
Q 1456 3028 1306 2956 
Q 1156 2884 1056 2725 
Q 956 2566 907 2311 
Q 859 2056 859 1694 
z
" transform="scale(0.015625)"/>
       <path id="LiberationSans-72" d="M 444 0 
L 444 2594 
Q 444 2700 442 2811 
Q 441 2922 437 3025 
Q 434 3128 431 3218 
Q 428 3309 425 3381 
L 956 3381 
Q 959 3309 964 3217 
Q 969 3125 973 3028 
Q 978 2931 979 2842 
Q 981 2753 981 2691 
L 994 2691 
Q 1053 2884 1120 3026 
Q 1188 3169 1278 3261 
Q 1369 3353 1494 3398 
Q 1619 3444 1797 3444 
Q 1866 3444 1928 3433 
Q 1991 3422 2025 3413 
L 2025 2897 
Q 1969 2913 1894 2920 
Q 1819 2928 1725 2928 
Q 1531 2928 1395 2840 
Q 1259 2753 1173 2598 
Q 1088 2444 1047 2230 
Q 1006 2016 1006 1763 
L 1006 0 
L 444 0 
z
" transform="scale(0.015625)"/>
       <path id="LiberationSans-7a" d="M 153 0 
L 153 428 
L 2219 2947 
L 278 2947 
L 278 3381 
L 2853 3381 
L 2853 2953 
L 784 434 
L 2969 434 
L 2969 0 
L 153 0 
z
" transform="scale(0.015625)"/>
       <path id="LiberationSans-28" d="M 397 1663 
Q 397 2097 462 2494 
Q 528 2891 668 3256 
Q 809 3622 1028 3965 
Q 1247 4309 1550 4638 
L 2094 4638 
Q 1800 4309 1586 3964 
Q 1372 3619 1234 3251 
Q 1097 2884 1030 2487 
Q 963 2091 963 1656 
Q 963 1222 1030 825 
Q 1097 428 1234 59 
Q 1372 -309 1586 -653 
Q 1800 -997 2094 -1325 
L 1550 -1325 
Q 1247 -997 1028 -653 
Q 809 -309 668 56 
Q 528 422 462 817 
Q 397 1213 397 1650 
L 397 1663 
z
" transform="scale(0.015625)"/>
       <path id="LiberationSans-49" d="M 591 0 
L 591 4403 
L 1188 4403 
L 1188 0 
L 591 0 
z
" transform="scale(0.015625)"/>
       <path id="LiberationSans-39" d="M 3256 2291 
Q 3256 1703 3145 1261 
Q 3034 819 2828 525 
Q 2622 231 2326 84 
Q 2031 -63 1663 -63 
Q 1409 -63 1206 -11 
Q 1003 41 843 150 
Q 684 259 571 434 
Q 459 609 391 856 
L 928 941 
Q 1016 656 1202 523 
Q 1388 391 1672 391 
Q 1900 391 2089 498 
Q 2278 606 2411 822 
Q 2544 1038 2619 1363 
Q 2694 1688 2700 2125 
Q 2634 1978 2520 1862 
Q 2406 1747 2261 1667 
Q 2116 1588 1947 1545 
Q 1778 1503 1606 1503 
Q 1306 1503 1064 1611 
Q 822 1719 653 1912 
Q 484 2106 392 2379 
Q 300 2653 300 2988 
Q 300 3328 398 3603 
Q 497 3878 684 4070 
Q 872 4263 1145 4366 
Q 1419 4469 1766 4469 
Q 2500 4469 2878 3925 
Q 3256 3381 3256 2291 
z
M 2644 2834 
Q 2644 3078 2586 3293 
Q 2528 3509 2414 3668 
Q 2300 3828 2133 3920 
Q 1966 4013 1747 4013 
Q 1544 4013 1381 3941 
Q 1219 3869 1106 3736 
Q 994 3603 933 3412 
Q 872 3222 872 2988 
Q 872 2766 926 2575 
Q 981 2384 1090 2245 
Q 1200 2106 1362 2026 
Q 1525 1947 1741 1947 
Q 1897 1947 2058 2000 
Q 2219 2053 2348 2162 
Q 2478 2272 2561 2439 
Q 2644 2606 2644 2834 
z
" transform="scale(0.015625)"/>
       <path id="LiberationSans-35" d="M 3291 1434 
Q 3291 1103 3191 828 
Q 3091 553 2894 354 
Q 2697 156 2405 46 
Q 2113 -63 1728 -63 
Q 1381 -63 1123 18 
Q 866 100 687 242 
Q 509 384 404 575 
Q 300 766 256 984 
L 825 1050 
Q 859 925 921 808 
Q 984 691 1092 598 
Q 1200 506 1358 451 
Q 1516 397 1741 397 
Q 1959 397 2137 464 
Q 2316 531 2442 662 
Q 2569 794 2637 984 
Q 2706 1175 2706 1422 
Q 2706 1625 2640 1795 
Q 2575 1966 2453 2089 
Q 2331 2213 2154 2281 
Q 1978 2350 1753 2350 
Q 1613 2350 1494 2325 
Q 1375 2300 1273 2256 
Q 1172 2213 1089 2155 
Q 1006 2097 934 2034 
L 384 2034 
L 531 4403 
L 3034 4403 
L 3034 3925 
L 1044 3925 
L 959 2528 
Q 1109 2644 1334 2726 
Q 1559 2809 1869 2809 
Q 2197 2809 2459 2709 
Q 2722 2609 2906 2426 
Q 3091 2244 3191 1991 
Q 3291 1738 3291 1434 
z
" transform="scale(0.015625)"/>
       <path id="LiberationSans-25" d="M 5463 1356 
Q 5463 966 5383 698 
Q 5303 431 5167 267 
Q 5031 103 4850 32 
Q 4669 -38 4463 -38 
Q 4256 -38 4076 32 
Q 3897 103 3764 265 
Q 3631 428 3554 695 
Q 3478 963 3478 1356 
Q 3478 1772 3553 2044 
Q 3628 2316 3762 2477 
Q 3897 2638 4080 2702 
Q 4263 2766 4475 2766 
Q 4681 2766 4861 2702 
Q 5041 2638 5173 2477 
Q 5306 2316 5384 2044 
Q 5463 1772 5463 1356 
z
M 1647 0 
L 1163 0 
L 4044 4403 
L 4534 4403 
L 1647 0 
z
M 1231 4441 
Q 1431 4441 1609 4377 
Q 1788 4313 1922 4153 
Q 2056 3994 2132 3725 
Q 2209 3456 2209 3047 
Q 2209 2653 2131 2384 
Q 2053 2116 1920 1948 
Q 1788 1781 1606 1709 
Q 1425 1638 1219 1638 
Q 1009 1638 828 1709 
Q 647 1781 514 1947 
Q 381 2113 304 2381 
Q 228 2650 228 3047 
Q 228 3456 304 3725 
Q 381 3994 515 4153 
Q 650 4313 834 4377 
Q 1019 4441 1231 4441 
z
M 5000 1356 
Q 5000 1666 4965 1870 
Q 4931 2075 4864 2197 
Q 4797 2319 4698 2369 
Q 4600 2419 4475 2419 
Q 4344 2419 4244 2367 
Q 4144 2316 4075 2194 
Q 4006 2072 3972 1867 
Q 3938 1663 3938 1356 
Q 3938 1059 3973 859 
Q 4009 659 4076 536 
Q 4144 413 4242 359 
Q 4341 306 4469 306 
Q 4591 306 4689 359 
Q 4788 413 4856 536 
Q 4925 659 4962 859 
Q 5000 1059 5000 1356 
z
M 1750 3047 
Q 1750 3353 1715 3556 
Q 1681 3759 1615 3881 
Q 1550 4003 1453 4053 
Q 1356 4103 1231 4103 
Q 1097 4103 995 4051 
Q 894 4000 825 3878 
Q 756 3756 722 3553 
Q 688 3350 688 3047 
Q 688 2750 723 2547 
Q 759 2344 826 2220 
Q 894 2097 994 2044 
Q 1094 1991 1225 1991 
Q 1344 1991 1441 2044 
Q 1538 2097 1606 2220 
Q 1675 2344 1712 2547 
Q 1750 2750 1750 3047 
z
" transform="scale(0.015625)"/>
       <path id="LiberationSans-29" d="M 1734 1650 
Q 1734 1213 1668 817 
Q 1603 422 1462 56 
Q 1322 -309 1103 -653 
Q 884 -997 581 -1325 
L 38 -1325 
Q 331 -997 545 -653 
Q 759 -309 896 59 
Q 1034 428 1101 825 
Q 1169 1222 1169 1656 
Q 1169 2091 1101 2487 
Q 1034 2884 896 3251 
Q 759 3619 545 3964 
Q 331 4309 38 4638 
L 581 4638 
Q 884 4309 1103 3965 
Q 1322 3622 1462 3256 
Q 1603 2891 1668 2494 
Q 1734 2097 1734 1663 
L 1734 1650 
z
" transform="scale(0.015625)"/>
      </defs>
      <use xlink:href="#LiberationSans-43"/>
      <use xlink:href="#LiberationSans-6f" transform="translate(72.216797 0)"/>
      <use xlink:href="#LiberationSans-65" transform="translate(127.832031 0)"/>
      <use xlink:href="#LiberationSans-66" transform="translate(183.447266 0)"/>
      <use xlink:href="#LiberationSans-69" transform="translate(211.230469 0)"/>
      <use xlink:href="#LiberationSans-63" transform="translate(233.447266 0)"/>
      <use xlink:href="#LiberationSans-69" transform="translate(283.447266 0)"/>
      <use xlink:href="#LiberationSans-65" transform="translate(305.664062 0)"/>
      <use xlink:href="#LiberationSans-6e" transform="translate(361.279297 0)"/>
      <use xlink:href="#LiberationSans-74" transform="translate(416.894531 0)"/>
      <use xlink:href="#LiberationSans-65" transform="translate(444.677734 0)"/>
      <use xlink:href="#LiberationSans-20" transform="translate(500.292969 0)"/>
      <use xlink:href="#LiberationSans-70" transform="translate(528.076172 0)"/>
      <use xlink:href="#LiberationSans-61" transform="translate(583.691406 0)"/>
      <use xlink:href="#LiberationSans-64" transform="translate(639.306641 0)"/>
      <use xlink:href="#LiberationSans-72" transform="translate(694.921875 0)"/>
      <use xlink:href="#LiberationSans-6f" transform="translate(728.222656 0)"/>
      <use xlink:href="#LiberationSans-6e" transform="translate(783.837891 0)"/>
      <use xlink:href="#LiberationSans-69" transform="translate(839.453125 0)"/>
      <use xlink:href="#LiberationSans-7a" transform="translate(861.669922 0)"/>
      <use xlink:href="#LiberationSans-61" transform="translate(911.669922 0)"/>
      <use xlink:href="#LiberationSans-64" transform="translate(967.285156 0)"/>
      <use xlink:href="#LiberationSans-6f" transform="translate(1022.900391 0)"/>
      <use xlink:href="#LiberationSans-20" transform="translate(1078.515625 0)"/>
      <use xlink:href="#LiberationSans-28" transform="translate(1106.298828 0)"/>
      <use xlink:href="#LiberationSans-49" transform="translate(1139.599609 0)"/>
      <use xlink:href="#LiberationSans-43" transform="translate(1167.382812 0)"/>
      <use xlink:href="#LiberationSans-20" transform="translate(1239.599609 0)"/>
      <use xlink:href="#LiberationSans-39" transform="translate(1267.382812 0)"/>
      <use xlink:href="#LiberationSans-35" transform="translate(1322.998047 0)"/>
      <use xlink:href="#LiberationSans-25" transform="translate(1378.613281 0)"/>
      <use xlink:href="#LiberationSans-29" transform="translate(1467.529297 0)"/>
     </g>
    </g>
   </g>
   <g id="matplotlib.axis_2">
    <g id="ytick_1">
     <g id="line2d_7">
      <defs>
       <path id="m6390579c34" d="M 0 0 
L -3.5 0 
" style="stroke: #000000; stroke-width: 0.8"/>
      </defs>
      <g>
       <use xlink:href="#m6390579c34" x="158.734375" y="427.038603" style="stroke: #000000; stroke-width: 0.8"/>
      </g>
     </g>
     <g id="text_8">
      <!-- IN_QUADRA_ESPORTES -->
      <g transform="translate(45.362813 430.299696) scale(0.09 -0.09)">
       <defs>
        <path id="LiberationSans-4e" d="M 3381 0 
L 1025 3750 
Q 1031 3597 1041 3447 
Q 1047 3319 1051 3176 
Q 1056 3034 1056 2925 
L 1056 0 
L 525 0 
L 525 4403 
L 1219 4403 
L 3600 628 
Q 3591 781 3581 934 
Q 3575 1066 3569 1220 
Q 3563 1375 3563 1516 
L 3563 4403 
L 4100 4403 
L 4100 0 
L 3381 0 
z
" transform="scale(0.015625)"/>
        <path id="LiberationSans-5f" d="M -97 -1272 
L -97 -866 
L 3631 -866 
L 3631 -1272 
L -97 -1272 
z
" transform="scale(0.015625)"/>
        <path id="LiberationSans-51" d="M 4672 2222 
Q 4672 1756 4551 1370 
Q 4431 984 4204 693 
Q 3978 403 3648 220 
Q 3319 38 2900 -19 
Q 2966 -219 3048 -359 
Q 3131 -500 3237 -589 
Q 3344 -678 3473 -720 
Q 3603 -763 3763 -763 
Q 3850 -763 3950 -750 
Q 4050 -738 4122 -722 
L 4122 -1141 
Q 4003 -1169 3861 -1189 
Q 3719 -1209 3566 -1209 
Q 3297 -1209 3097 -1129 
Q 2897 -1050 2745 -901 
Q 2594 -753 2484 -537 
Q 2375 -322 2291 -50 
Q 1797 -25 1423 154 
Q 1050 334 801 636 
Q 553 938 428 1342 
Q 303 1747 303 2222 
Q 303 2738 447 3153 
Q 591 3569 869 3861 
Q 1147 4153 1555 4311 
Q 1963 4469 2491 4469 
Q 3016 4469 3423 4309 
Q 3831 4150 4107 3856 
Q 4384 3563 4528 3147 
Q 4672 2731 4672 2222 
z
M 4063 2222 
Q 4063 2619 3961 2944 
Q 3859 3269 3661 3500 
Q 3463 3731 3169 3856 
Q 2875 3981 2491 3981 
Q 2097 3981 1800 3856 
Q 1503 3731 1304 3500 
Q 1106 3269 1007 2944 
Q 909 2619 909 2222 
Q 909 1825 1011 1495 
Q 1113 1166 1311 927 
Q 1509 688 1804 555 
Q 2100 422 2484 422 
Q 2897 422 3195 556 
Q 3494 691 3686 930 
Q 3878 1169 3970 1500 
Q 4063 1831 4063 2222 
z
" transform="scale(0.015625)"/>
        <path id="LiberationSans-55" d="M 2284 -63 
Q 1922 -63 1597 34 
Q 1272 131 1026 336 
Q 781 541 637 855 
Q 494 1169 494 1600 
L 494 4403 
L 1091 4403 
L 1091 1650 
Q 1091 1316 1180 1083 
Q 1269 850 1428 703 
Q 1588 556 1805 489 
Q 2022 422 2281 422 
Q 2538 422 2766 490 
Q 2994 559 3166 709 
Q 3338 859 3436 1101 
Q 3534 1344 3534 1691 
L 3534 4403 
L 4128 4403 
L 4128 1656 
Q 4128 1216 3983 892 
Q 3838 569 3588 356 
Q 3338 144 3002 40 
Q 2666 -63 2284 -63 
z
" transform="scale(0.015625)"/>
        <path id="LiberationSans-41" d="M 3647 0 
L 3144 1288 
L 1138 1288 
L 631 0 
L 13 0 
L 1809 4403 
L 2488 4403 
L 4256 0 
L 3647 0 
z
M 2400 3206 
Q 2350 3331 2304 3459 
Q 2259 3588 2225 3692 
Q 2191 3797 2167 3867 
Q 2144 3938 2141 3953 
Q 2134 3938 2112 3866 
Q 2091 3794 2055 3687 
Q 2019 3581 1973 3453 
Q 1928 3325 1881 3200 
L 1319 1753 
L 2966 1753 
L 2400 3206 
z
" transform="scale(0.015625)"/>
        <path id="LiberationSans-44" d="M 4316 2247 
Q 4316 1697 4150 1276 
Q 3984 856 3696 573 
Q 3409 291 3017 145 
Q 2625 0 2172 0 
L 525 0 
L 525 4403 
L 1981 4403 
Q 2491 4403 2920 4276 
Q 3350 4150 3659 3886 
Q 3969 3622 4142 3215 
Q 4316 2809 4316 2247 
z
M 3716 2247 
Q 3716 2694 3587 3011 
Q 3459 3328 3228 3531 
Q 2997 3734 2675 3829 
Q 2353 3925 1969 3925 
L 1122 3925 
L 1122 478 
L 2103 478 
Q 2450 478 2745 590 
Q 3041 703 3256 925 
Q 3472 1147 3594 1478 
Q 3716 1809 3716 2247 
z
" transform="scale(0.015625)"/>
        <path id="LiberationSans-52" d="M 3638 0 
L 2494 1828 
L 1122 1828 
L 1122 0 
L 525 0 
L 525 4403 
L 2597 4403 
Q 2972 4403 3261 4317 
Q 3550 4231 3747 4068 
Q 3944 3906 4047 3672 
Q 4150 3438 4150 3144 
Q 4150 2934 4089 2731 
Q 4028 2528 3897 2359 
Q 3766 2191 3562 2069 
Q 3359 1947 3075 1897 
L 4325 0 
L 3638 0 
z
M 3550 3138 
Q 3550 3338 3481 3484 
Q 3413 3631 3281 3729 
Q 3150 3828 2962 3876 
Q 2775 3925 2538 3925 
L 1122 3925 
L 1122 2300 
L 2563 2300 
Q 2819 2300 3006 2364 
Q 3194 2428 3314 2540 
Q 3434 2653 3492 2806 
Q 3550 2959 3550 3138 
z
" transform="scale(0.015625)"/>
        <path id="LiberationSans-45" d="M 525 0 
L 525 4403 
L 3866 4403 
L 3866 3916 
L 1122 3916 
L 1122 2503 
L 3678 2503 
L 3678 2022 
L 1122 2022 
L 1122 488 
L 3994 488 
L 3994 0 
L 525 0 
z
" transform="scale(0.015625)"/>
        <path id="LiberationSans-53" d="M 3975 1216 
Q 3975 938 3867 703 
Q 3759 469 3534 298 
Q 3309 128 2967 32 
Q 2625 -63 2156 -63 
Q 1334 -63 875 225 
Q 416 513 291 1056 
L 869 1172 
Q 913 1000 1003 859 
Q 1094 719 1248 617 
Q 1403 516 1631 459 
Q 1859 403 2178 403 
Q 2444 403 2666 448 
Q 2888 494 3047 587 
Q 3206 681 3295 829 
Q 3384 978 3384 1184 
Q 3384 1400 3286 1534 
Q 3188 1669 3009 1756 
Q 2831 1844 2584 1903 
Q 2338 1963 2038 2031 
Q 1853 2072 1667 2120 
Q 1481 2169 1311 2236 
Q 1141 2303 991 2393 
Q 841 2484 731 2611 
Q 622 2738 559 2905 
Q 497 3072 497 3291 
Q 497 3603 623 3826 
Q 750 4050 975 4194 
Q 1200 4338 1506 4403 
Q 1813 4469 2169 4469 
Q 2578 4469 2868 4405 
Q 3159 4341 3359 4212 
Q 3559 4084 3679 3895 
Q 3800 3706 3872 3456 
L 3284 3353 
Q 3241 3513 3158 3638 
Q 3075 3763 2940 3847 
Q 2806 3931 2614 3975 
Q 2422 4019 2163 4019 
Q 1856 4019 1648 3964 
Q 1441 3909 1314 3815 
Q 1188 3722 1133 3595 
Q 1078 3469 1078 3322 
Q 1078 3125 1176 2998 
Q 1275 2872 1444 2787 
Q 1613 2703 1834 2647 
Q 2056 2591 2306 2534 
Q 2509 2488 2711 2439 
Q 2913 2391 3097 2323 
Q 3281 2256 3442 2165 
Q 3603 2075 3722 1944 
Q 3841 1813 3908 1634 
Q 3975 1456 3975 1216 
z
" transform="scale(0.015625)"/>
        <path id="LiberationSans-50" d="M 3931 3078 
Q 3931 2791 3836 2542 
Q 3741 2294 3552 2111 
Q 3363 1928 3078 1822 
Q 2794 1716 2416 1716 
L 1122 1716 
L 1122 0 
L 525 0 
L 525 4403 
L 2378 4403 
Q 2769 4403 3059 4308 
Q 3350 4213 3544 4039 
Q 3738 3866 3834 3620 
Q 3931 3375 3931 3078 
z
M 3331 3072 
Q 3331 3491 3075 3708 
Q 2819 3925 2306 3925 
L 1122 3925 
L 1122 2188 
L 2331 2188 
Q 2847 2188 3089 2416 
Q 3331 2644 3331 3072 
z
" transform="scale(0.015625)"/>
        <path id="LiberationSans-4f" d="M 4672 2222 
Q 4672 1706 4523 1284 
Q 4375 863 4094 563 
Q 3813 263 3406 100 
Q 3000 -63 2484 -63 
Q 1941 -63 1531 107 
Q 1122 278 850 583 
Q 578 888 440 1306 
Q 303 1725 303 2222 
Q 303 2738 447 3153 
Q 591 3569 869 3861 
Q 1147 4153 1555 4311 
Q 1963 4469 2491 4469 
Q 3016 4469 3423 4309 
Q 3831 4150 4107 3856 
Q 4384 3563 4528 3147 
Q 4672 2731 4672 2222 
z
M 4063 2222 
Q 4063 2619 3961 2944 
Q 3859 3269 3661 3500 
Q 3463 3731 3169 3856 
Q 2875 3981 2491 3981 
Q 2097 3981 1800 3856 
Q 1503 3731 1304 3500 
Q 1106 3269 1007 2944 
Q 909 2619 909 2222 
Q 909 1825 1011 1495 
Q 1113 1166 1311 927 
Q 1509 688 1804 555 
Q 2100 422 2484 422 
Q 2897 422 3195 556 
Q 3494 691 3686 930 
Q 3878 1169 3970 1500 
Q 4063 1831 4063 2222 
z
" transform="scale(0.015625)"/>
        <path id="LiberationSans-54" d="M 2250 3916 
L 2250 0 
L 1656 0 
L 1656 3916 
L 144 3916 
L 144 4403 
L 3763 4403 
L 3763 3916 
L 2250 3916 
z
" transform="scale(0.015625)"/>
       </defs>
       <use xlink:href="#LiberationSans-49"/>
       <use xlink:href="#LiberationSans-4e" transform="translate(27.783203 0)"/>
       <use xlink:href="#LiberationSans-5f" transform="translate(100 0)"/>
       <use xlink:href="#LiberationSans-51" transform="translate(155.615234 0)"/>
       <use xlink:href="#LiberationSans-55" transform="translate(233.398438 0)"/>
       <use xlink:href="#LiberationSans-41" transform="translate(305.615234 0)"/>
       <use xlink:href="#LiberationSans-44" transform="translate(372.314453 0)"/>
       <use xlink:href="#LiberationSans-52" transform="translate(444.53125 0)"/>
       <use xlink:href="#LiberationSans-41" transform="translate(516.748047 0)"/>
       <use xlink:href="#LiberationSans-5f" transform="translate(583.447266 0)"/>
       <use xlink:href="#LiberationSans-45" transform="translate(639.0625 0)"/>
       <use xlink:href="#LiberationSans-53" transform="translate(705.761719 0)"/>
       <use xlink:href="#LiberationSans-50" transform="translate(772.460938 0)"/>
       <use xlink:href="#LiberationSans-4f" transform="translate(839.160156 0)"/>
       <use xlink:href="#LiberationSans-52" transform="translate(916.943359 0)"/>
       <use xlink:href="#LiberationSans-54" transform="translate(987.410156 0)"/>
       <use xlink:href="#LiberationSans-45" transform="translate(1048.494141 0)"/>
       <use xlink:href="#LiberationSans-53" transform="translate(1115.193359 0)"/>
      </g>
     </g>
    </g>
    <g id="ytick_2">
     <g id="line2d_8">
      <g>
       <use xlink:href="#m6390579c34" x="158.734375" y="405.029869" style="stroke: #000000; stroke-width: 0.8"/>
      </g>
     </g>
     <g id="text_9">
      <!-- QT_DESKTOP_ALUNO -->
      <g transform="translate(55.366875 408.290963) scale(0.09 -0.09)">
       <defs>
        <path id="LiberationSans-4b" d="M 3456 0 
L 1697 2125 
L 1122 1688 
L 1122 0 
L 525 0 
L 525 4403 
L 1122 4403 
L 1122 2197 
L 3244 4403 
L 3947 4403 
L 2072 2491 
L 4197 0 
L 3456 0 
z
" transform="scale(0.015625)"/>
        <path id="LiberationSans-4c" d="M 525 0 
L 525 4403 
L 1122 4403 
L 1122 488 
L 3347 488 
L 3347 0 
L 525 0 
z
" transform="scale(0.015625)"/>
       </defs>
       <use xlink:href="#LiberationSans-51"/>
       <use xlink:href="#LiberationSans-54" transform="translate(77.783203 0)"/>
       <use xlink:href="#LiberationSans-5f" transform="translate(138.867188 0)"/>
       <use xlink:href="#LiberationSans-44" transform="translate(194.482422 0)"/>
       <use xlink:href="#LiberationSans-45" transform="translate(266.699219 0)"/>
       <use xlink:href="#LiberationSans-53" transform="translate(333.398438 0)"/>
       <use xlink:href="#LiberationSans-4b" transform="translate(400.097656 0)"/>
       <use xlink:href="#LiberationSans-54" transform="translate(466.796875 0)"/>
       <use xlink:href="#LiberationSans-4f" transform="translate(526.130859 0)"/>
       <use xlink:href="#LiberationSans-50" transform="translate(603.914062 0)"/>
       <use xlink:href="#LiberationSans-5f" transform="translate(670.613281 0)"/>
       <use xlink:href="#LiberationSans-41" transform="translate(726.228516 0)"/>
       <use xlink:href="#LiberationSans-4c" transform="translate(792.927734 0)"/>
       <use xlink:href="#LiberationSans-55" transform="translate(848.542969 0)"/>
       <use xlink:href="#LiberationSans-4e" transform="translate(920.759766 0)"/>
       <use xlink:href="#LiberationSans-4f" transform="translate(992.976562 0)"/>
      </g>
     </g>
    </g>
    <g id="ytick_3">
     <g id="line2d_9">
      <g>
       <use xlink:href="#m6390579c34" x="158.734375" y="383.021135" style="stroke: #000000; stroke-width: 0.8"/>
      </g>
     </g>
     <g id="text_10">
      <!-- IN_BANDA_LARGA -->
      <g transform="translate(71.204063 386.282229) scale(0.09 -0.09)">
       <defs>
        <path id="LiberationSans-42" d="M 3931 1241 
Q 3931 906 3800 670 
Q 3669 434 3447 286 
Q 3225 138 2931 69 
Q 2638 0 2313 0 
L 525 0 
L 525 4403 
L 2125 4403 
Q 2491 4403 2778 4342 
Q 3066 4281 3266 4150 
Q 3466 4019 3570 3817 
Q 3675 3616 3675 3334 
Q 3675 3150 3623 2987 
Q 3572 2825 3467 2692 
Q 3363 2559 3205 2464 
Q 3047 2369 2838 2322 
Q 3103 2291 3308 2200 
Q 3513 2109 3650 1968 
Q 3788 1828 3859 1642 
Q 3931 1456 3931 1241 
z
M 3075 3263 
Q 3075 3619 2831 3772 
Q 2588 3925 2125 3925 
L 1122 3925 
L 1122 2531 
L 2125 2531 
Q 2388 2531 2569 2582 
Q 2750 2634 2862 2729 
Q 2975 2825 3025 2959 
Q 3075 3094 3075 3263 
z
M 3328 1288 
Q 3328 1497 3251 1644 
Q 3175 1791 3031 1884 
Q 2888 1978 2686 2022 
Q 2484 2066 2234 2066 
L 1122 2066 
L 1122 478 
L 2281 478 
Q 2509 478 2701 515 
Q 2894 553 3033 647 
Q 3172 741 3250 897 
Q 3328 1053 3328 1288 
z
" transform="scale(0.015625)"/>
        <path id="LiberationSans-47" d="M 322 2222 
Q 322 2738 461 3153 
Q 600 3569 876 3861 
Q 1153 4153 1562 4311 
Q 1972 4469 2513 4469 
Q 2919 4469 3225 4397 
Q 3531 4325 3756 4190 
Q 3981 4056 4137 3864 
Q 4294 3672 4403 3431 
L 3834 3263 
Q 3753 3425 3639 3558 
Q 3525 3691 3362 3784 
Q 3200 3878 2986 3929 
Q 2772 3981 2497 3981 
Q 2097 3981 1801 3856 
Q 1506 3731 1312 3500 
Q 1119 3269 1023 2944 
Q 928 2619 928 2222 
Q 928 1825 1031 1495 
Q 1134 1166 1337 927 
Q 1541 688 1842 555 
Q 2144 422 2541 422 
Q 2800 422 3019 465 
Q 3238 509 3414 579 
Q 3591 650 3725 736 
Q 3859 822 3950 909 
L 3950 1703 
L 2634 1703 
L 2634 2203 
L 4500 2203 
L 4500 684 
Q 4353 534 4154 398 
Q 3956 263 3709 159 
Q 3463 56 3169 -3 
Q 2875 -63 2541 -63 
Q 1984 -63 1568 107 
Q 1153 278 876 583 
Q 600 888 461 1306 
Q 322 1725 322 2222 
z
" transform="scale(0.015625)"/>
       </defs>
       <use xlink:href="#LiberationSans-49"/>
       <use xlink:href="#LiberationSans-4e" transform="translate(27.783203 0)"/>
       <use xlink:href="#LiberationSans-5f" transform="translate(100 0)"/>
       <use xlink:href="#LiberationSans-42" transform="translate(155.615234 0)"/>
       <use xlink:href="#LiberationSans-41" transform="translate(222.314453 0)"/>
       <use xlink:href="#LiberationSans-4e" transform="translate(289.013672 0)"/>
       <use xlink:href="#LiberationSans-44" transform="translate(361.230469 0)"/>
       <use xlink:href="#LiberationSans-41" transform="translate(433.447266 0)"/>
       <use xlink:href="#LiberationSans-5f" transform="translate(500.146484 0)"/>
       <use xlink:href="#LiberationSans-4c" transform="translate(555.761719 0)"/>
       <use xlink:href="#LiberationSans-41" transform="translate(611.376953 0)"/>
       <use xlink:href="#LiberationSans-52" transform="translate(678.076172 0)"/>
       <use xlink:href="#LiberationSans-47" transform="translate(750.292969 0)"/>
       <use xlink:href="#LiberationSans-41" transform="translate(828.076172 0)"/>
      </g>
     </g>
    </g>
    <g id="ytick_4">
     <g id="line2d_10">
      <g>
       <use xlink:href="#m6390579c34" x="158.734375" y="361.012402" style="stroke: #000000; stroke-width: 0.8"/>
      </g>
     </g>
     <g id="text_11">
      <!-- IN_ESGOTO_REDE_PUBLICA -->
      <g transform="translate(25.8525 364.273495) scale(0.09 -0.09)">
       <use xlink:href="#LiberationSans-49"/>
       <use xlink:href="#LiberationSans-4e" transform="translate(27.783203 0)"/>
       <use xlink:href="#LiberationSans-5f" transform="translate(100 0)"/>
       <use xlink:href="#LiberationSans-45" transform="translate(155.615234 0)"/>
       <use xlink:href="#LiberationSans-53" transform="translate(222.314453 0)"/>
       <use xlink:href="#LiberationSans-47" transform="translate(289.013672 0)"/>
       <use xlink:href="#LiberationSans-4f" transform="translate(366.796875 0)"/>
       <use xlink:href="#LiberationSans-54" transform="translate(444.580078 0)"/>
       <use xlink:href="#LiberationSans-4f" transform="translate(503.914062 0)"/>
       <use xlink:href="#LiberationSans-5f" transform="translate(581.697266 0)"/>
       <use xlink:href="#LiberationSans-52" transform="translate(637.3125 0)"/>
       <use xlink:href="#LiberationSans-45" transform="translate(709.529297 0)"/>
       <use xlink:href="#LiberationSans-44" transform="translate(776.228516 0)"/>
       <use xlink:href="#LiberationSans-45" transform="translate(848.445312 0)"/>
       <use xlink:href="#LiberationSans-5f" transform="translate(915.144531 0)"/>
       <use xlink:href="#LiberationSans-50" transform="translate(970.759766 0)"/>
       <use xlink:href="#LiberationSans-55" transform="translate(1037.458984 0)"/>
       <use xlink:href="#LiberationSans-42" transform="translate(1109.675781 0)"/>
       <use xlink:href="#LiberationSans-4c" transform="translate(1176.375 0)"/>
       <use xlink:href="#LiberationSans-49" transform="translate(1231.990234 0)"/>
       <use xlink:href="#LiberationSans-43" transform="translate(1259.773438 0)"/>
       <use xlink:href="#LiberationSans-41" transform="translate(1331.990234 0)"/>
      </g>
     </g>
    </g>
    <g id="ytick_5">
     <g id="line2d_11">
      <g>
       <use xlink:href="#m6390579c34" x="158.734375" y="339.003668" style="stroke: #000000; stroke-width: 0.8"/>
      </g>
     </g>
     <g id="text_12">
      <!-- IN_EQUIP_MULTIMIDIA -->
      <g transform="translate(53.382656 342.264762) scale(0.09 -0.09)">
       <defs>
        <path id="LiberationSans-4d" d="M 4269 0 
L 4269 2938 
Q 4269 3097 4272 3262 
Q 4275 3428 4281 3566 
Q 4288 3725 4297 3875 
Q 4253 3716 4206 3559 
Q 4166 3425 4117 3273 
Q 4069 3122 4022 3000 
L 2884 0 
L 2466 0 
L 1313 3000 
Q 1294 3047 1273 3109 
Q 1253 3172 1229 3242 
Q 1206 3313 1182 3386 
Q 1159 3459 1138 3531 
Q 1084 3697 1034 3875 
Q 1038 3700 1044 3528 
Q 1050 3381 1053 3220 
Q 1056 3059 1056 2938 
L 1056 0 
L 525 0 
L 525 4403 
L 1309 4403 
L 2481 1350 
Q 2503 1288 2534 1189 
Q 2566 1091 2594 987 
Q 2622 884 2645 792 
Q 2669 700 2678 650 
Q 2688 700 2713 794 
Q 2738 888 2770 991 
Q 2803 1094 2834 1191 
Q 2866 1288 2891 1350 
L 4041 4403 
L 4806 4403 
L 4806 0 
L 4269 0 
z
" transform="scale(0.015625)"/>
       </defs>
       <use xlink:href="#LiberationSans-49"/>
       <use xlink:href="#LiberationSans-4e" transform="translate(27.783203 0)"/>
       <use xlink:href="#LiberationSans-5f" transform="translate(100 0)"/>
       <use xlink:href="#LiberationSans-45" transform="translate(155.615234 0)"/>
       <use xlink:href="#LiberationSans-51" transform="translate(222.314453 0)"/>
       <use xlink:href="#LiberationSans-55" transform="translate(300.097656 0)"/>
       <use xlink:href="#LiberationSans-49" transform="translate(372.314453 0)"/>
       <use xlink:href="#LiberationSans-50" transform="translate(400.097656 0)"/>
       <use xlink:href="#LiberationSans-5f" transform="translate(466.796875 0)"/>
       <use xlink:href="#LiberationSans-4d" transform="translate(522.412109 0)"/>
       <use xlink:href="#LiberationSans-55" transform="translate(605.712891 0)"/>
       <use xlink:href="#LiberationSans-4c" transform="translate(677.929688 0)"/>
       <use xlink:href="#LiberationSans-54" transform="translate(726.169922 0)"/>
       <use xlink:href="#LiberationSans-49" transform="translate(787.253906 0)"/>
       <use xlink:href="#LiberationSans-4d" transform="translate(815.037109 0)"/>
       <use xlink:href="#LiberationSans-49" transform="translate(898.337891 0)"/>
       <use xlink:href="#LiberationSans-44" transform="translate(926.121094 0)"/>
       <use xlink:href="#LiberationSans-49" transform="translate(998.337891 0)"/>
       <use xlink:href="#LiberationSans-41" transform="translate(1026.121094 0)"/>
      </g>
     </g>
    </g>
    <g id="ytick_6">
     <g id="line2d_12">
      <g>
       <use xlink:href="#m6390579c34" x="158.734375" y="316.994934" style="stroke: #000000; stroke-width: 0.8"/>
      </g>
     </g>
     <g id="text_13">
      <!-- IN_REFEITORIO -->
      <g transform="translate(82.885781 320.256028) scale(0.09 -0.09)">
       <defs>
        <path id="LiberationSans-46" d="M 1122 3916 
L 1122 2278 
L 3578 2278 
L 3578 1784 
L 1122 1784 
L 1122 0 
L 525 0 
L 525 4403 
L 3653 4403 
L 3653 3916 
L 1122 3916 
z
" transform="scale(0.015625)"/>
       </defs>
       <use xlink:href="#LiberationSans-49"/>
       <use xlink:href="#LiberationSans-4e" transform="translate(27.783203 0)"/>
       <use xlink:href="#LiberationSans-5f" transform="translate(100 0)"/>
       <use xlink:href="#LiberationSans-52" transform="translate(155.615234 0)"/>
       <use xlink:href="#LiberationSans-45" transform="translate(227.832031 0)"/>
       <use xlink:href="#LiberationSans-46" transform="translate(294.53125 0)"/>
       <use xlink:href="#LiberationSans-45" transform="translate(355.615234 0)"/>
       <use xlink:href="#LiberationSans-49" transform="translate(422.314453 0)"/>
       <use xlink:href="#LiberationSans-54" transform="translate(450.097656 0)"/>
       <use xlink:href="#LiberationSans-4f" transform="translate(509.431641 0)"/>
       <use xlink:href="#LiberationSans-52" transform="translate(587.214844 0)"/>
       <use xlink:href="#LiberationSans-49" transform="translate(659.431641 0)"/>
       <use xlink:href="#LiberationSans-4f" transform="translate(687.214844 0)"/>
      </g>
     </g>
    </g>
    <g id="ytick_7">
     <g id="line2d_13">
      <g>
       <use xlink:href="#m6390579c34" x="158.734375" y="294.986201" style="stroke: #000000; stroke-width: 0.8"/>
      </g>
     </g>
     <g id="text_14">
      <!-- IN_ENERGIA_REDE_PUBLICA -->
      <g transform="translate(23.689687 298.247295) scale(0.09 -0.09)">
       <use xlink:href="#LiberationSans-49"/>
       <use xlink:href="#LiberationSans-4e" transform="translate(27.783203 0)"/>
       <use xlink:href="#LiberationSans-5f" transform="translate(100 0)"/>
       <use xlink:href="#LiberationSans-45" transform="translate(155.615234 0)"/>
       <use xlink:href="#LiberationSans-4e" transform="translate(222.314453 0)"/>
       <use xlink:href="#LiberationSans-45" transform="translate(294.53125 0)"/>
       <use xlink:href="#LiberationSans-52" transform="translate(361.230469 0)"/>
       <use xlink:href="#LiberationSans-47" transform="translate(433.447266 0)"/>
       <use xlink:href="#LiberationSans-49" transform="translate(511.230469 0)"/>
       <use xlink:href="#LiberationSans-41" transform="translate(539.013672 0)"/>
       <use xlink:href="#LiberationSans-5f" transform="translate(605.712891 0)"/>
       <use xlink:href="#LiberationSans-52" transform="translate(661.328125 0)"/>
       <use xlink:href="#LiberationSans-45" transform="translate(733.544922 0)"/>
       <use xlink:href="#LiberationSans-44" transform="translate(800.244141 0)"/>
       <use xlink:href="#LiberationSans-45" transform="translate(872.460938 0)"/>
       <use xlink:href="#LiberationSans-5f" transform="translate(939.160156 0)"/>
       <use xlink:href="#LiberationSans-50" transform="translate(994.775391 0)"/>
       <use xlink:href="#LiberationSans-55" transform="translate(1061.474609 0)"/>
       <use xlink:href="#LiberationSans-42" transform="translate(1133.691406 0)"/>
       <use xlink:href="#LiberationSans-4c" transform="translate(1200.390625 0)"/>
       <use xlink:href="#LiberationSans-49" transform="translate(1256.005859 0)"/>
       <use xlink:href="#LiberationSans-43" transform="translate(1283.789062 0)"/>
       <use xlink:href="#LiberationSans-41" transform="translate(1356.005859 0)"/>
      </g>
     </g>
    </g>
    <g id="ytick_8">
     <g id="line2d_14">
      <g>
       <use xlink:href="#m6390579c34" x="158.734375" y="272.977467" style="stroke: #000000; stroke-width: 0.8"/>
      </g>
     </g>
     <g id="text_15">
      <!-- IN_SALA_MULTIUSO -->
      <g transform="translate(63.871875 276.238561) scale(0.09 -0.09)">
       <use xlink:href="#LiberationSans-49"/>
       <use xlink:href="#LiberationSans-4e" transform="translate(27.783203 0)"/>
       <use xlink:href="#LiberationSans-5f" transform="translate(100 0)"/>
       <use xlink:href="#LiberationSans-53" transform="translate(155.615234 0)"/>
       <use xlink:href="#LiberationSans-41" transform="translate(222.314453 0)"/>
       <use xlink:href="#LiberationSans-4c" transform="translate(289.013672 0)"/>
       <use xlink:href="#LiberationSans-41" transform="translate(344.628906 0)"/>
       <use xlink:href="#LiberationSans-5f" transform="translate(411.328125 0)"/>
       <use xlink:href="#LiberationSans-4d" transform="translate(466.943359 0)"/>
       <use xlink:href="#LiberationSans-55" transform="translate(550.244141 0)"/>
       <use xlink:href="#LiberationSans-4c" transform="translate(622.460938 0)"/>
       <use xlink:href="#LiberationSans-54" transform="translate(670.701172 0)"/>
       <use xlink:href="#LiberationSans-49" transform="translate(731.785156 0)"/>
       <use xlink:href="#LiberationSans-55" transform="translate(759.568359 0)"/>
       <use xlink:href="#LiberationSans-53" transform="translate(831.785156 0)"/>
       <use xlink:href="#LiberationSans-4f" transform="translate(898.484375 0)"/>
      </g>
     </g>
    </g>
    <g id="ytick_9">
     <g id="line2d_15">
      <g>
       <use xlink:href="#m6390579c34" x="158.734375" y="250.968734" style="stroke: #000000; stroke-width: 0.8"/>
      </g>
     </g>
     <g id="text_16">
      <!-- IN_SALA_LEITURA -->
      <g transform="translate(71.701875 254.229827) scale(0.09 -0.09)">
       <use xlink:href="#LiberationSans-49"/>
       <use xlink:href="#LiberationSans-4e" transform="translate(27.783203 0)"/>
       <use xlink:href="#LiberationSans-5f" transform="translate(100 0)"/>
       <use xlink:href="#LiberationSans-53" transform="translate(155.615234 0)"/>
       <use xlink:href="#LiberationSans-41" transform="translate(222.314453 0)"/>
       <use xlink:href="#LiberationSans-4c" transform="translate(289.013672 0)"/>
       <use xlink:href="#LiberationSans-41" transform="translate(344.628906 0)"/>
       <use xlink:href="#LiberationSans-5f" transform="translate(411.328125 0)"/>
       <use xlink:href="#LiberationSans-4c" transform="translate(466.943359 0)"/>
       <use xlink:href="#LiberationSans-45" transform="translate(522.558594 0)"/>
       <use xlink:href="#LiberationSans-49" transform="translate(589.257812 0)"/>
       <use xlink:href="#LiberationSans-54" transform="translate(617.041016 0)"/>
       <use xlink:href="#LiberationSans-55" transform="translate(678.125 0)"/>
       <use xlink:href="#LiberationSans-52" transform="translate(750.341797 0)"/>
       <use xlink:href="#LiberationSans-41" transform="translate(822.558594 0)"/>
      </g>
     </g>
    </g>
    <g id="ytick_10">
     <g id="line2d_16">
      <g>
       <use xlink:href="#m6390579c34" x="158.734375" y="228.96" style="stroke: #000000; stroke-width: 0.8"/>
      </g>
     </g>
     <g id="text_17">
      <!-- IN_LABORATORIO_INFORMATICA -->
      <g transform="translate(7.2 232.221094) scale(0.09 -0.09)">
       <use xlink:href="#LiberationSans-49"/>
       <use xlink:href="#LiberationSans-4e" transform="translate(27.783203 0)"/>
       <use xlink:href="#LiberationSans-5f" transform="translate(100 0)"/>
       <use xlink:href="#LiberationSans-4c" transform="translate(155.615234 0)"/>
       <use xlink:href="#LiberationSans-41" transform="translate(211.230469 0)"/>
       <use xlink:href="#LiberationSans-42" transform="translate(277.929688 0)"/>
       <use xlink:href="#LiberationSans-4f" transform="translate(344.628906 0)"/>
       <use xlink:href="#LiberationSans-52" transform="translate(422.412109 0)"/>
       <use xlink:href="#LiberationSans-41" transform="translate(494.628906 0)"/>
       <use xlink:href="#LiberationSans-54" transform="translate(553.953125 0)"/>
       <use xlink:href="#LiberationSans-4f" transform="translate(613.287109 0)"/>
       <use xlink:href="#LiberationSans-52" transform="translate(691.070312 0)"/>
       <use xlink:href="#LiberationSans-49" transform="translate(763.287109 0)"/>
       <use xlink:href="#LiberationSans-4f" transform="translate(791.070312 0)"/>
       <use xlink:href="#LiberationSans-5f" transform="translate(868.853516 0)"/>
       <use xlink:href="#LiberationSans-49" transform="translate(924.46875 0)"/>
       <use xlink:href="#LiberationSans-4e" transform="translate(952.251953 0)"/>
       <use xlink:href="#LiberationSans-46" transform="translate(1024.46875 0)"/>
       <use xlink:href="#LiberationSans-4f" transform="translate(1085.552734 0)"/>
       <use xlink:href="#LiberationSans-52" transform="translate(1163.335938 0)"/>
       <use xlink:href="#LiberationSans-4d" transform="translate(1235.552734 0)"/>
       <use xlink:href="#LiberationSans-41" transform="translate(1318.853516 0)"/>
       <use xlink:href="#LiberationSans-54" transform="translate(1378.177734 0)"/>
       <use xlink:href="#LiberationSans-49" transform="translate(1439.261719 0)"/>
       <use xlink:href="#LiberationSans-43" transform="translate(1467.044922 0)"/>
       <use xlink:href="#LiberationSans-41" transform="translate(1539.261719 0)"/>
      </g>
     </g>
    </g>
    <g id="ytick_11">
     <g id="line2d_17">
      <g>
       <use xlink:href="#m6390579c34" x="158.734375" y="206.951266" style="stroke: #000000; stroke-width: 0.8"/>
      </g>
     </g>
     <g id="text_18">
      <!-- IN_EQUIP_LOUSA_DIGITAL -->
      <g transform="translate(34.859531 210.21236) scale(0.09 -0.09)">
       <use xlink:href="#LiberationSans-49"/>
       <use xlink:href="#LiberationSans-4e" transform="translate(27.783203 0)"/>
       <use xlink:href="#LiberationSans-5f" transform="translate(100 0)"/>
       <use xlink:href="#LiberationSans-45" transform="translate(155.615234 0)"/>
       <use xlink:href="#LiberationSans-51" transform="translate(222.314453 0)"/>
       <use xlink:href="#LiberationSans-55" transform="translate(300.097656 0)"/>
       <use xlink:href="#LiberationSans-49" transform="translate(372.314453 0)"/>
       <use xlink:href="#LiberationSans-50" transform="translate(400.097656 0)"/>
       <use xlink:href="#LiberationSans-5f" transform="translate(466.796875 0)"/>
       <use xlink:href="#LiberationSans-4c" transform="translate(522.412109 0)"/>
       <use xlink:href="#LiberationSans-4f" transform="translate(578.027344 0)"/>
       <use xlink:href="#LiberationSans-55" transform="translate(655.810547 0)"/>
       <use xlink:href="#LiberationSans-53" transform="translate(728.027344 0)"/>
       <use xlink:href="#LiberationSans-41" transform="translate(794.726562 0)"/>
       <use xlink:href="#LiberationSans-5f" transform="translate(861.425781 0)"/>
       <use xlink:href="#LiberationSans-44" transform="translate(917.041016 0)"/>
       <use xlink:href="#LiberationSans-49" transform="translate(989.257812 0)"/>
       <use xlink:href="#LiberationSans-47" transform="translate(1017.041016 0)"/>
       <use xlink:href="#LiberationSans-49" transform="translate(1094.824219 0)"/>
       <use xlink:href="#LiberationSans-54" transform="translate(1122.607422 0)"/>
       <use xlink:href="#LiberationSans-41" transform="translate(1176.316406 0)"/>
       <use xlink:href="#LiberationSans-4c" transform="translate(1243.015625 0)"/>
      </g>
     </g>
    </g>
    <g id="ytick_12">
     <g id="line2d_18">
      <g>
       <use xlink:href="#m6390579c34" x="158.734375" y="184.942533" style="stroke: #000000; stroke-width: 0.8"/>
      </g>
     </g>
     <g id="text_19">
      <!-- IN_AGUA_POTAVEL -->
      <g transform="translate(67.030313 188.203627) scale(0.09 -0.09)">
       <defs>
        <path id="LiberationSans-56" d="M 2444 0 
L 1825 0 
L 28 4403 
L 656 4403 
L 1875 1303 
Q 1922 1163 1969 1023 
Q 2016 884 2053 775 
Q 2097 647 2138 525 
Q 2175 641 2219 769 
Q 2256 878 2301 1015 
Q 2347 1153 2400 1303 
L 3613 4403 
L 4241 4403 
L 2444 0 
z
" transform="scale(0.015625)"/>
       </defs>
       <use xlink:href="#LiberationSans-49"/>
       <use xlink:href="#LiberationSans-4e" transform="translate(27.783203 0)"/>
       <use xlink:href="#LiberationSans-5f" transform="translate(100 0)"/>
       <use xlink:href="#LiberationSans-41" transform="translate(155.615234 0)"/>
       <use xlink:href="#LiberationSans-47" transform="translate(222.314453 0)"/>
       <use xlink:href="#LiberationSans-55" transform="translate(300.097656 0)"/>
       <use xlink:href="#LiberationSans-41" transform="translate(372.314453 0)"/>
       <use xlink:href="#LiberationSans-5f" transform="translate(439.013672 0)"/>
       <use xlink:href="#LiberationSans-50" transform="translate(494.628906 0)"/>
       <use xlink:href="#LiberationSans-4f" transform="translate(561.328125 0)"/>
       <use xlink:href="#LiberationSans-54" transform="translate(639.111328 0)"/>
       <use xlink:href="#LiberationSans-41" transform="translate(692.820312 0)"/>
       <use xlink:href="#LiberationSans-56" transform="translate(752.144531 0)"/>
       <use xlink:href="#LiberationSans-45" transform="translate(818.84375 0)"/>
       <use xlink:href="#LiberationSans-4c" transform="translate(885.542969 0)"/>
      </g>
     </g>
    </g>
    <g id="ytick_13">
     <g id="line2d_19">
      <g>
       <use xlink:href="#m6390579c34" x="158.734375" y="162.933799" style="stroke: #000000; stroke-width: 0.8"/>
      </g>
     </g>
     <g id="text_20">
      <!-- IN_LABORATORIO_CIENCIAS -->
      <g transform="translate(26.024062 166.194893) scale(0.09 -0.09)">
       <use xlink:href="#LiberationSans-49"/>
       <use xlink:href="#LiberationSans-4e" transform="translate(27.783203 0)"/>
       <use xlink:href="#LiberationSans-5f" transform="translate(100 0)"/>
       <use xlink:href="#LiberationSans-4c" transform="translate(155.615234 0)"/>
       <use xlink:href="#LiberationSans-41" transform="translate(211.230469 0)"/>
       <use xlink:href="#LiberationSans-42" transform="translate(277.929688 0)"/>
       <use xlink:href="#LiberationSans-4f" transform="translate(344.628906 0)"/>
       <use xlink:href="#LiberationSans-52" transform="translate(422.412109 0)"/>
       <use xlink:href="#LiberationSans-41" transform="translate(494.628906 0)"/>
       <use xlink:href="#LiberationSans-54" transform="translate(553.953125 0)"/>
       <use xlink:href="#LiberationSans-4f" transform="translate(613.287109 0)"/>
       <use xlink:href="#LiberationSans-52" transform="translate(691.070312 0)"/>
       <use xlink:href="#LiberationSans-49" transform="translate(763.287109 0)"/>
       <use xlink:href="#LiberationSans-4f" transform="translate(791.070312 0)"/>
       <use xlink:href="#LiberationSans-5f" transform="translate(868.853516 0)"/>
       <use xlink:href="#LiberationSans-43" transform="translate(924.46875 0)"/>
       <use xlink:href="#LiberationSans-49" transform="translate(996.685547 0)"/>
       <use xlink:href="#LiberationSans-45" transform="translate(1024.46875 0)"/>
       <use xlink:href="#LiberationSans-4e" transform="translate(1091.167969 0)"/>
       <use xlink:href="#LiberationSans-43" transform="translate(1163.384766 0)"/>
       <use xlink:href="#LiberationSans-49" transform="translate(1235.601562 0)"/>
       <use xlink:href="#LiberationSans-41" transform="translate(1263.384766 0)"/>
       <use xlink:href="#LiberationSans-53" transform="translate(1330.083984 0)"/>
      </g>
     </g>
    </g>
    <g id="ytick_14">
     <g id="line2d_20">
      <g>
       <use xlink:href="#m6390579c34" x="158.734375" y="140.925066" style="stroke: #000000; stroke-width: 0.8"/>
      </g>
     </g>
     <g id="text_21">
      <!-- QT_COMP_PORTATIL_ALUNO -->
      <g transform="translate(23.693906 144.186159) scale(0.09 -0.09)">
       <use xlink:href="#LiberationSans-51"/>
       <use xlink:href="#LiberationSans-54" transform="translate(77.783203 0)"/>
       <use xlink:href="#LiberationSans-5f" transform="translate(138.867188 0)"/>
       <use xlink:href="#LiberationSans-43" transform="translate(194.482422 0)"/>
       <use xlink:href="#LiberationSans-4f" transform="translate(266.699219 0)"/>
       <use xlink:href="#LiberationSans-4d" transform="translate(344.482422 0)"/>
       <use xlink:href="#LiberationSans-50" transform="translate(427.783203 0)"/>
       <use xlink:href="#LiberationSans-5f" transform="translate(494.482422 0)"/>
       <use xlink:href="#LiberationSans-50" transform="translate(550.097656 0)"/>
       <use xlink:href="#LiberationSans-4f" transform="translate(616.796875 0)"/>
       <use xlink:href="#LiberationSans-52" transform="translate(694.580078 0)"/>
       <use xlink:href="#LiberationSans-54" transform="translate(765.046875 0)"/>
       <use xlink:href="#LiberationSans-41" transform="translate(818.755859 0)"/>
       <use xlink:href="#LiberationSans-54" transform="translate(878.080078 0)"/>
       <use xlink:href="#LiberationSans-49" transform="translate(939.164062 0)"/>
       <use xlink:href="#LiberationSans-4c" transform="translate(966.947266 0)"/>
       <use xlink:href="#LiberationSans-5f" transform="translate(1022.5625 0)"/>
       <use xlink:href="#LiberationSans-41" transform="translate(1078.177734 0)"/>
       <use xlink:href="#LiberationSans-4c" transform="translate(1144.876953 0)"/>
       <use xlink:href="#LiberationSans-55" transform="translate(1200.492188 0)"/>
       <use xlink:href="#LiberationSans-4e" transform="translate(1272.708984 0)"/>
       <use xlink:href="#LiberationSans-4f" transform="translate(1344.925781 0)"/>
      </g>
     </g>
    </g>
    <g id="ytick_15">
     <g id="line2d_21">
      <g>
       <use xlink:href="#m6390579c34" x="158.734375" y="118.916332" style="stroke: #000000; stroke-width: 0.8"/>
      </g>
     </g>
     <g id="text_22">
      <!-- QT_TABLET_ALUNO -->
      <g transform="translate(64.874531 122.177426) scale(0.09 -0.09)">
       <use xlink:href="#LiberationSans-51"/>
       <use xlink:href="#LiberationSans-54" transform="translate(77.783203 0)"/>
       <use xlink:href="#LiberationSans-5f" transform="translate(138.867188 0)"/>
       <use xlink:href="#LiberationSans-54" transform="translate(194.482422 0)"/>
       <use xlink:href="#LiberationSans-41" transform="translate(248.191406 0)"/>
       <use xlink:href="#LiberationSans-42" transform="translate(314.890625 0)"/>
       <use xlink:href="#LiberationSans-4c" transform="translate(381.589844 0)"/>
       <use xlink:href="#LiberationSans-45" transform="translate(437.205078 0)"/>
       <use xlink:href="#LiberationSans-54" transform="translate(503.904297 0)"/>
       <use xlink:href="#LiberationSans-5f" transform="translate(564.988281 0)"/>
       <use xlink:href="#LiberationSans-41" transform="translate(620.603516 0)"/>
       <use xlink:href="#LiberationSans-4c" transform="translate(687.302734 0)"/>
       <use xlink:href="#LiberationSans-55" transform="translate(742.917969 0)"/>
       <use xlink:href="#LiberationSans-4e" transform="translate(815.134766 0)"/>
       <use xlink:href="#LiberationSans-4f" transform="translate(887.351562 0)"/>
      </g>
     </g>
    </g>
    <g id="ytick_16">
     <g id="line2d_22">
      <g>
       <use xlink:href="#m6390579c34" x="158.734375" y="96.907598" style="stroke: #000000; stroke-width: 0.8"/>
      </g>
     </g>
     <g id="text_23">
      <!-- TP_LOCALIZACAO -->
      <g transform="translate(72.212344 100.168692) scale(0.09 -0.09)">
       <defs>
        <path id="LiberationSans-5a" d="M 3709 0 
L 203 0 
L 203 447 
L 2884 3916 
L 431 3916 
L 431 4403 
L 3563 4403 
L 3563 3969 
L 881 488 
L 3709 488 
L 3709 0 
z
" transform="scale(0.015625)"/>
       </defs>
       <use xlink:href="#LiberationSans-54"/>
       <use xlink:href="#LiberationSans-50" transform="translate(61.083984 0)"/>
       <use xlink:href="#LiberationSans-5f" transform="translate(127.783203 0)"/>
       <use xlink:href="#LiberationSans-4c" transform="translate(183.398438 0)"/>
       <use xlink:href="#LiberationSans-4f" transform="translate(239.013672 0)"/>
       <use xlink:href="#LiberationSans-43" transform="translate(316.796875 0)"/>
       <use xlink:href="#LiberationSans-41" transform="translate(389.013672 0)"/>
       <use xlink:href="#LiberationSans-4c" transform="translate(455.712891 0)"/>
       <use xlink:href="#LiberationSans-49" transform="translate(511.328125 0)"/>
       <use xlink:href="#LiberationSans-5a" transform="translate(539.111328 0)"/>
       <use xlink:href="#LiberationSans-41" transform="translate(600.195312 0)"/>
       <use xlink:href="#LiberationSans-43" transform="translate(666.894531 0)"/>
       <use xlink:href="#LiberationSans-41" transform="translate(739.111328 0)"/>
       <use xlink:href="#LiberationSans-4f" transform="translate(805.810547 0)"/>
      </g>
     </g>
    </g>
    <g id="ytick_17">
     <g id="line2d_23">
      <g>
       <use xlink:href="#m6390579c34" x="158.734375" y="74.898865" style="stroke: #000000; stroke-width: 0.8"/>
      </g>
     </g>
     <g id="text_24">
      <!-- QT_MAT_FUND_AF -->
      <g transform="translate(69.392813 78.159958) scale(0.09 -0.09)">
       <use xlink:href="#LiberationSans-51"/>
       <use xlink:href="#LiberationSans-54" transform="translate(77.783203 0)"/>
       <use xlink:href="#LiberationSans-5f" transform="translate(138.867188 0)"/>
       <use xlink:href="#LiberationSans-4d" transform="translate(194.482422 0)"/>
       <use xlink:href="#LiberationSans-41" transform="translate(277.783203 0)"/>
       <use xlink:href="#LiberationSans-54" transform="translate(337.107422 0)"/>
       <use xlink:href="#LiberationSans-5f" transform="translate(398.191406 0)"/>
       <use xlink:href="#LiberationSans-46" transform="translate(453.806641 0)"/>
       <use xlink:href="#LiberationSans-55" transform="translate(514.890625 0)"/>
       <use xlink:href="#LiberationSans-4e" transform="translate(587.107422 0)"/>
       <use xlink:href="#LiberationSans-44" transform="translate(659.324219 0)"/>
       <use xlink:href="#LiberationSans-5f" transform="translate(731.541016 0)"/>
       <use xlink:href="#LiberationSans-41" transform="translate(787.15625 0)"/>
       <use xlink:href="#LiberationSans-46" transform="translate(853.855469 0)"/>
      </g>
     </g>
    </g>
    <g id="ytick_18">
     <g id="line2d_24">
      <g>
       <use xlink:href="#m6390579c34" x="158.734375" y="52.890131" style="stroke: #000000; stroke-width: 0.8"/>
      </g>
     </g>
     <g id="text_25">
      <!-- QT_DOC_FUND_AF -->
      <g transform="translate(67.726406 56.151225) scale(0.09 -0.09)">
       <use xlink:href="#LiberationSans-51"/>
       <use xlink:href="#LiberationSans-54" transform="translate(77.783203 0)"/>
       <use xlink:href="#LiberationSans-5f" transform="translate(138.867188 0)"/>
       <use xlink:href="#LiberationSans-44" transform="translate(194.482422 0)"/>
       <use xlink:href="#LiberationSans-4f" transform="translate(266.699219 0)"/>
       <use xlink:href="#LiberationSans-43" transform="translate(344.482422 0)"/>
       <use xlink:href="#LiberationSans-5f" transform="translate(416.699219 0)"/>
       <use xlink:href="#LiberationSans-46" transform="translate(472.314453 0)"/>
       <use xlink:href="#LiberationSans-55" transform="translate(533.398438 0)"/>
       <use xlink:href="#LiberationSans-4e" transform="translate(605.615234 0)"/>
       <use xlink:href="#LiberationSans-44" transform="translate(677.832031 0)"/>
       <use xlink:href="#LiberationSans-5f" transform="translate(750.048828 0)"/>
       <use xlink:href="#LiberationSans-41" transform="translate(805.664062 0)"/>
       <use xlink:href="#LiberationSans-46" transform="translate(872.363281 0)"/>
      </g>
     </g>
    </g>
    <g id="ytick_19">
     <g id="line2d_25">
      <g>
       <use xlink:href="#m6390579c34" x="158.734375" y="30.881397" style="stroke: #000000; stroke-width: 0.8"/>
      </g>
     </g>
     <g id="text_26">
      <!-- MEDIA_INSE -->
      <g transform="translate(97.219687 34.142491) scale(0.09 -0.09)">
       <use xlink:href="#LiberationSans-4d"/>
       <use xlink:href="#LiberationSans-45" transform="translate(83.300781 0)"/>
       <use xlink:href="#LiberationSans-44" transform="translate(150 0)"/>
       <use xlink:href="#LiberationSans-49" transform="translate(222.216797 0)"/>
       <use xlink:href="#LiberationSans-41" transform="translate(250 0)"/>
       <use xlink:href="#LiberationSans-5f" transform="translate(316.699219 0)"/>
       <use xlink:href="#LiberationSans-49" transform="translate(372.314453 0)"/>
       <use xlink:href="#LiberationSans-4e" transform="translate(400.097656 0)"/>
       <use xlink:href="#LiberationSans-53" transform="translate(472.314453 0)"/>
       <use xlink:href="#LiberationSans-45" transform="translate(539.013672 0)"/>
      </g>
     </g>
    </g>
   </g>
   <g id="LineCollection_1">
    <path d="M 314.14584 430.56 
L 334.941142 430.56 
" clip-path="url(#p5af3815b9c)" style="fill: none; stroke: #440154; stroke-width: 1.4"/>
    <path d="M 313.086676 408.551266 
L 332.523526 408.551266 
" clip-path="url(#p5af3815b9c)" style="fill: none; stroke: #440154; stroke-width: 1.4"/>
    <path d="M 321.539786 386.542533 
L 340.879699 386.542533 
" clip-path="url(#p5af3815b9c)" style="fill: none; stroke: #440154; stroke-width: 1.4"/>
    <path d="M 321.621368 364.533799 
L 342.605078 364.533799 
" clip-path="url(#p5af3815b9c)" style="fill: none; stroke: #440154; stroke-width: 1.4"/>
    <path d="M 307.88597 342.525066 
L 327.544406 342.525066 
" clip-path="url(#p5af3815b9c)" style="fill: none; stroke: #440154; stroke-width: 1.4"/>
    <path d="M 322.5648 320.516332 
L 342.265451 320.516332 
" clip-path="url(#p5af3815b9c)" style="fill: none; stroke: #440154; stroke-width: 1.4"/>
    <path d="M 304.15136 298.507598 
L 325.446276 298.507598 
" clip-path="url(#p5af3815b9c)" style="fill: none; stroke: #440154; stroke-width: 1.4"/>
    <path d="M 326.027721 276.498865 
L 345.576433 276.498865 
" clip-path="url(#p5af3815b9c)" style="fill: none; stroke: #440154; stroke-width: 1.4"/>
    <path d="M 326.14207 254.490131 
L 346.548174 254.490131 
" clip-path="url(#p5af3815b9c)" style="fill: none; stroke: #440154; stroke-width: 1.4"/>
    <path d="M 300.899669 232.481397 
L 321.159328 232.481397 
" clip-path="url(#p5af3815b9c)" style="fill: none; stroke: #440154; stroke-width: 1.4"/>
    <path d="M 329.750219 210.472664 
L 349.568294 210.472664 
" clip-path="url(#p5af3815b9c)" style="fill: none; stroke: #440154; stroke-width: 1.4"/>
    <path d="M 323.464041 188.46393 
L 357.520947 188.46393 
" clip-path="url(#p5af3815b9c)" style="fill: none; stroke: #440154; stroke-width: 1.4"/>
    <path d="M 331.475028 166.455197 
L 352.366251 166.455197 
" clip-path="url(#p5af3815b9c)" style="fill: none; stroke: #440154; stroke-width: 1.4"/>
    <path d="M 332.679485 144.446463 
L 353.286446 144.446463 
" clip-path="url(#p5af3815b9c)" style="fill: none; stroke: #440154; stroke-width: 1.4"/>
    <path d="M 285.245937 122.437729 
L 305.82704 122.437729 
" clip-path="url(#p5af3815b9c)" style="fill: none; stroke: #440154; stroke-width: 1.4"/>
    <path d="M 278.806315 100.428996 
L 303.008557 100.428996 
" clip-path="url(#p5af3815b9c)" style="fill: none; stroke: #440154; stroke-width: 1.4"/>
    <path d="M 359.781379 78.420262 
L 394.309178 78.420262 
" clip-path="url(#p5af3815b9c)" style="fill: none; stroke: #440154; stroke-width: 1.4"/>
    <path d="M 182.668315 56.411528 
L 215.920414 56.411528 
" clip-path="url(#p5af3815b9c)" style="fill: none; stroke: #440154; stroke-width: 1.4"/>
    <path d="M 529.701458 34.402795 
L 551.13734 34.402795 
" clip-path="url(#p5af3815b9c)" style="fill: none; stroke: #440154; stroke-width: 1.4"/>
   </g>
   <g id="line2d_26">
    <defs>
     <path id="m4c891ece95" d="M 0 2 
L 0 -2 
" style="stroke: #440154"/>
    </defs>
    <g clip-path="url(#p5af3815b9c)">
     <use xlink:href="#m4c891ece95" x="314.14584" y="430.56" style="fill: #440154; stroke: #440154"/>
     <use xlink:href="#m4c891ece95" x="313.086676" y="408.551266" style="fill: #440154; stroke: #440154"/>
     <use xlink:href="#m4c891ece95" x="321.539786" y="386.542533" style="fill: #440154; stroke: #440154"/>
     <use xlink:href="#m4c891ece95" x="321.621368" y="364.533799" style="fill: #440154; stroke: #440154"/>
     <use xlink:href="#m4c891ece95" x="307.88597" y="342.525066" style="fill: #440154; stroke: #440154"/>
     <use xlink:href="#m4c891ece95" x="322.5648" y="320.516332" style="fill: #440154; stroke: #440154"/>
     <use xlink:href="#m4c891ece95" x="304.15136" y="298.507598" style="fill: #440154; stroke: #440154"/>
     <use xlink:href="#m4c891ece95" x="326.027721" y="276.498865" style="fill: #440154; stroke: #440154"/>
     <use xlink:href="#m4c891ece95" x="326.14207" y="254.490131" style="fill: #440154; stroke: #440154"/>
     <use xlink:href="#m4c891ece95" x="300.899669" y="232.481397" style="fill: #440154; stroke: #440154"/>
     <use xlink:href="#m4c891ece95" x="329.750219" y="210.472664" style="fill: #440154; stroke: #440154"/>
     <use xlink:href="#m4c891ece95" x="323.464041" y="188.46393" style="fill: #440154; stroke: #440154"/>
     <use xlink:href="#m4c891ece95" x="331.475028" y="166.455197" style="fill: #440154; stroke: #440154"/>
     <use xlink:href="#m4c891ece95" x="332.679485" y="144.446463" style="fill: #440154; stroke: #440154"/>
     <use xlink:href="#m4c891ece95" x="285.245937" y="122.437729" style="fill: #440154; stroke: #440154"/>
     <use xlink:href="#m4c891ece95" x="278.806315" y="100.428996" style="fill: #440154; stroke: #440154"/>
     <use xlink:href="#m4c891ece95" x="359.781379" y="78.420262" style="fill: #440154; stroke: #440154"/>
     <use xlink:href="#m4c891ece95" x="182.668315" y="56.411528" style="fill: #440154; stroke: #440154"/>
     <use xlink:href="#m4c891ece95" x="529.701458" y="34.402795" style="fill: #440154; stroke: #440154"/>
    </g>
   </g>
   <g id="line2d_27">
    <g clip-path="url(#p5af3815b9c)">
     <use xlink:href="#m4c891ece95" x="334.941142" y="430.56" style="fill: #440154; stroke: #440154"/>
     <use xlink:href="#m4c891ece95" x="332.523526" y="408.551266" style="fill: #440154; stroke: #440154"/>
     <use xlink:href="#m4c891ece95" x="340.879699" y="386.542533" style="fill: #440154; stroke: #440154"/>
     <use xlink:href="#m4c891ece95" x="342.605078" y="364.533799" style="fill: #440154; stroke: #440154"/>
     <use xlink:href="#m4c891ece95" x="327.544406" y="342.525066" style="fill: #440154; stroke: #440154"/>
     <use xlink:href="#m4c891ece95" x="342.265451" y="320.516332" style="fill: #440154; stroke: #440154"/>
     <use xlink:href="#m4c891ece95" x="325.446276" y="298.507598" style="fill: #440154; stroke: #440154"/>
     <use xlink:href="#m4c891ece95" x="345.576433" y="276.498865" style="fill: #440154; stroke: #440154"/>
     <use xlink:href="#m4c891ece95" x="346.548174" y="254.490131" style="fill: #440154; stroke: #440154"/>
     <use xlink:href="#m4c891ece95" x="321.159328" y="232.481397" style="fill: #440154; stroke: #440154"/>
     <use xlink:href="#m4c891ece95" x="349.568294" y="210.472664" style="fill: #440154; stroke: #440154"/>
     <use xlink:href="#m4c891ece95" x="357.520947" y="188.46393" style="fill: #440154; stroke: #440154"/>
     <use xlink:href="#m4c891ece95" x="352.366251" y="166.455197" style="fill: #440154; stroke: #440154"/>
     <use xlink:href="#m4c891ece95" x="353.286446" y="144.446463" style="fill: #440154; stroke: #440154"/>
     <use xlink:href="#m4c891ece95" x="305.82704" y="122.437729" style="fill: #440154; stroke: #440154"/>
     <use xlink:href="#m4c891ece95" x="303.008557" y="100.428996" style="fill: #440154; stroke: #440154"/>
     <use xlink:href="#m4c891ece95" x="394.309178" y="78.420262" style="fill: #440154; stroke: #440154"/>
     <use xlink:href="#m4c891ece95" x="215.920414" y="56.411528" style="fill: #440154; stroke: #440154"/>
     <use xlink:href="#m4c891ece95" x="551.13734" y="34.402795" style="fill: #440154; stroke: #440154"/>
    </g>
   </g>
   <g id="LineCollection_2">
    <path d="M 312.241126 423.517205 
L 336.845856 423.517205 
" clip-path="url(#p5af3815b9c)" style="fill: none; stroke: #21918c; stroke-width: 1.4"/>
    <path d="M 311.572029 401.508472 
L 334.038172 401.508472 
" clip-path="url(#p5af3815b9c)" style="fill: none; stroke: #21918c; stroke-width: 1.4"/>
    <path d="M 320.204359 379.499738 
L 342.215126 379.499738 
" clip-path="url(#p5af3815b9c)" style="fill: none; stroke: #21918c; stroke-width: 1.4"/>
    <path d="M 315.729077 357.491004 
L 348.497369 357.491004 
" clip-path="url(#p5af3815b9c)" style="fill: none; stroke: #21918c; stroke-width: 1.4"/>
    <path d="M 307.21166 335.482271 
L 328.218715 335.482271 
" clip-path="url(#p5af3815b9c)" style="fill: none; stroke: #21918c; stroke-width: 1.4"/>
    <path d="M 320.84796 313.473537 
L 343.982291 313.473537 
" clip-path="url(#p5af3815b9c)" style="fill: none; stroke: #21918c; stroke-width: 1.4"/>
    <path d="M 308.473962 291.464803 
L 321.123674 291.464803 
" clip-path="url(#p5af3815b9c)" style="fill: none; stroke: #21918c; stroke-width: 1.4"/>
    <path d="M 324.780456 269.45607 
L 346.823698 269.45607 
" clip-path="url(#p5af3815b9c)" style="fill: none; stroke: #21918c; stroke-width: 1.4"/>
    <path d="M 326.567058 247.447336 
L 346.123187 247.447336 
" clip-path="url(#p5af3815b9c)" style="fill: none; stroke: #21918c; stroke-width: 1.4"/>
    <path d="M 298.871396 225.438603 
L 323.1876 225.438603 
" clip-path="url(#p5af3815b9c)" style="fill: none; stroke: #21918c; stroke-width: 1.4"/>
    <path d="M 328.795967 203.429869 
L 350.522547 203.429869 
" clip-path="url(#p5af3815b9c)" style="fill: none; stroke: #21918c; stroke-width: 1.4"/>
    <path d="M 330.316285 181.421135 
L 350.668704 181.421135 
" clip-path="url(#p5af3815b9c)" style="fill: none; stroke: #21918c; stroke-width: 1.4"/>
    <path d="M 330.28955 159.412402 
L 353.551729 159.412402 
" clip-path="url(#p5af3815b9c)" style="fill: none; stroke: #21918c; stroke-width: 1.4"/>
    <path d="M 330.601686 137.403668 
L 355.364246 137.403668 
" clip-path="url(#p5af3815b9c)" style="fill: none; stroke: #21918c; stroke-width: 1.4"/>
    <path d="M 284.915901 115.394934 
L 306.157076 115.394934 
" clip-path="url(#p5af3815b9c)" style="fill: none; stroke: #21918c; stroke-width: 1.4"/>
    <path d="M 277.135268 93.386201 
L 304.679604 93.386201 
" clip-path="url(#p5af3815b9c)" style="fill: none; stroke: #21918c; stroke-width: 1.4"/>
    <path d="M 349.727744 71.377467 
L 404.362813 71.377467 
" clip-path="url(#p5af3815b9c)" style="fill: none; stroke: #21918c; stroke-width: 1.4"/>
    <path d="M 177.757102 49.368734 
L 220.831627 49.368734 
" clip-path="url(#p5af3815b9c)" style="fill: none; stroke: #21918c; stroke-width: 1.4"/>
    <path d="M 522.627151 27.36 
L 558.211648 27.36 
" clip-path="url(#p5af3815b9c)" style="fill: none; stroke: #21918c; stroke-width: 1.4"/>
   </g>
   <g id="line2d_28">
    <defs>
     <path id="mecac582837" d="M 0 2 
L 0 -2 
" style="stroke: #21918c"/>
    </defs>
    <g clip-path="url(#p5af3815b9c)">
     <use xlink:href="#mecac582837" x="312.241126" y="423.517205" style="fill: #21918c; stroke: #21918c"/>
     <use xlink:href="#mecac582837" x="311.572029" y="401.508472" style="fill: #21918c; stroke: #21918c"/>
     <use xlink:href="#mecac582837" x="320.204359" y="379.499738" style="fill: #21918c; stroke: #21918c"/>
     <use xlink:href="#mecac582837" x="315.729077" y="357.491004" style="fill: #21918c; stroke: #21918c"/>
     <use xlink:href="#mecac582837" x="307.21166" y="335.482271" style="fill: #21918c; stroke: #21918c"/>
     <use xlink:href="#mecac582837" x="320.84796" y="313.473537" style="fill: #21918c; stroke: #21918c"/>
     <use xlink:href="#mecac582837" x="308.473962" y="291.464803" style="fill: #21918c; stroke: #21918c"/>
     <use xlink:href="#mecac582837" x="324.780456" y="269.45607" style="fill: #21918c; stroke: #21918c"/>
     <use xlink:href="#mecac582837" x="326.567058" y="247.447336" style="fill: #21918c; stroke: #21918c"/>
     <use xlink:href="#mecac582837" x="298.871396" y="225.438603" style="fill: #21918c; stroke: #21918c"/>
     <use xlink:href="#mecac582837" x="328.795967" y="203.429869" style="fill: #21918c; stroke: #21918c"/>
     <use xlink:href="#mecac582837" x="330.316285" y="181.421135" style="fill: #21918c; stroke: #21918c"/>
     <use xlink:href="#mecac582837" x="330.28955" y="159.412402" style="fill: #21918c; stroke: #21918c"/>
     <use xlink:href="#mecac582837" x="330.601686" y="137.403668" style="fill: #21918c; stroke: #21918c"/>
     <use xlink:href="#mecac582837" x="284.915901" y="115.394934" style="fill: #21918c; stroke: #21918c"/>
     <use xlink:href="#mecac582837" x="277.135268" y="93.386201" style="fill: #21918c; stroke: #21918c"/>
     <use xlink:href="#mecac582837" x="349.727744" y="71.377467" style="fill: #21918c; stroke: #21918c"/>
     <use xlink:href="#mecac582837" x="177.757102" y="49.368734" style="fill: #21918c; stroke: #21918c"/>
     <use xlink:href="#mecac582837" x="522.627151" y="27.36" style="fill: #21918c; stroke: #21918c"/>
    </g>
   </g>
   <g id="line2d_29">
    <g clip-path="url(#p5af3815b9c)">
     <use xlink:href="#mecac582837" x="336.845856" y="423.517205" style="fill: #21918c; stroke: #21918c"/>
     <use xlink:href="#mecac582837" x="334.038172" y="401.508472" style="fill: #21918c; stroke: #21918c"/>
     <use xlink:href="#mecac582837" x="342.215126" y="379.499738" style="fill: #21918c; stroke: #21918c"/>
     <use xlink:href="#mecac582837" x="348.497369" y="357.491004" style="fill: #21918c; stroke: #21918c"/>
     <use xlink:href="#mecac582837" x="328.218715" y="335.482271" style="fill: #21918c; stroke: #21918c"/>
     <use xlink:href="#mecac582837" x="343.982291" y="313.473537" style="fill: #21918c; stroke: #21918c"/>
     <use xlink:href="#mecac582837" x="321.123674" y="291.464803" style="fill: #21918c; stroke: #21918c"/>
     <use xlink:href="#mecac582837" x="346.823698" y="269.45607" style="fill: #21918c; stroke: #21918c"/>
     <use xlink:href="#mecac582837" x="346.123187" y="247.447336" style="fill: #21918c; stroke: #21918c"/>
     <use xlink:href="#mecac582837" x="323.1876" y="225.438603" style="fill: #21918c; stroke: #21918c"/>
     <use xlink:href="#mecac582837" x="350.522547" y="203.429869" style="fill: #21918c; stroke: #21918c"/>
     <use xlink:href="#mecac582837" x="350.668704" y="181.421135" style="fill: #21918c; stroke: #21918c"/>
     <use xlink:href="#mecac582837" x="353.551729" y="159.412402" style="fill: #21918c; stroke: #21918c"/>
     <use xlink:href="#mecac582837" x="355.364246" y="137.403668" style="fill: #21918c; stroke: #21918c"/>
     <use xlink:href="#mecac582837" x="306.157076" y="115.394934" style="fill: #21918c; stroke: #21918c"/>
     <use xlink:href="#mecac582837" x="304.679604" y="93.386201" style="fill: #21918c; stroke: #21918c"/>
     <use xlink:href="#mecac582837" x="404.362813" y="71.377467" style="fill: #21918c; stroke: #21918c"/>
     <use xlink:href="#mecac582837" x="220.831627" y="49.368734" style="fill: #21918c; stroke: #21918c"/>
     <use xlink:href="#mecac582837" x="558.211648" y="27.36" style="fill: #21918c; stroke: #21918c"/>
    </g>
   </g>
   <g id="line2d_30">
    <path d="M 324.9431 450.72 
L 324.9431 7.2 
" clip-path="url(#p5af3815b9c)" style="fill: none; stroke-dasharray: 3.7,1.6; stroke-dashoffset: 0; stroke: #4d4d4d"/>
   </g>
   <g id="line2d_31">
    <defs>
     <path id="md24c50a3df" d="M 0 2.5 
C 0.663008 2.5 1.29895 2.236584 1.767767 1.767767 
C 2.236584 1.29895 2.5 0.663008 2.5 0 
C 2.5 -0.663008 2.236584 -1.29895 1.767767 -1.767767 
C 1.29895 -2.236584 0.663008 -2.5 0 -2.5 
C -0.663008 -2.5 -1.29895 -2.236584 -1.767767 -1.767767 
C -2.236584 -1.29895 -2.5 -0.663008 -2.5 0 
C -2.5 0.663008 -2.236584 1.29895 -1.767767 1.767767 
C -1.29895 2.236584 -0.663008 2.5 0 2.5 
z
" style="stroke: #440154"/>
    </defs>
    <g clip-path="url(#p5af3815b9c)">
     <use xlink:href="#md24c50a3df" x="324.543491" y="430.56" style="fill: #440154; stroke: #440154"/>
     <use xlink:href="#md24c50a3df" x="322.805101" y="408.551266" style="fill: #440154; stroke: #440154"/>
     <use xlink:href="#md24c50a3df" x="331.209743" y="386.542533" style="fill: #440154; stroke: #440154"/>
     <use xlink:href="#md24c50a3df" x="332.113223" y="364.533799" style="fill: #440154; stroke: #440154"/>
     <use xlink:href="#md24c50a3df" x="317.715188" y="342.525066" style="fill: #440154; stroke: #440154"/>
     <use xlink:href="#md24c50a3df" x="332.415125" y="320.516332" style="fill: #440154; stroke: #440154"/>
     <use xlink:href="#md24c50a3df" x="314.798818" y="298.507598" style="fill: #440154; stroke: #440154"/>
     <use xlink:href="#md24c50a3df" x="335.802077" y="276.498865" style="fill: #440154; stroke: #440154"/>
     <use xlink:href="#md24c50a3df" x="336.345122" y="254.490131" style="fill: #440154; stroke: #440154"/>
     <use xlink:href="#md24c50a3df" x="311.029498" y="232.481397" style="fill: #440154; stroke: #440154"/>
     <use xlink:href="#md24c50a3df" x="339.659257" y="210.472664" style="fill: #440154; stroke: #440154"/>
     <use xlink:href="#md24c50a3df" x="340.492494" y="188.46393" style="fill: #440154; stroke: #440154"/>
     <use xlink:href="#md24c50a3df" x="341.92064" y="166.455197" style="fill: #440154; stroke: #440154"/>
     <use xlink:href="#md24c50a3df" x="342.982966" y="144.446463" style="fill: #440154; stroke: #440154"/>
     <use xlink:href="#md24c50a3df" x="295.536489" y="122.437729" style="fill: #440154; stroke: #440154"/>
     <use xlink:href="#md24c50a3df" x="290.907436" y="100.428996" style="fill: #440154; stroke: #440154"/>
     <use xlink:href="#md24c50a3df" x="377.045279" y="78.420262" style="fill: #440154; stroke: #440154"/>
     <use xlink:href="#md24c50a3df" x="199.294365" y="56.411528" style="fill: #440154; stroke: #440154"/>
     <use xlink:href="#md24c50a3df" x="540.419399" y="34.402795" style="fill: #440154; stroke: #440154"/>
    </g>
   </g>
   <g id="line2d_32">
    <defs>
     <path id="m187dbbaff8" d="M 0 2.5 
C 0.663008 2.5 1.29895 2.236584 1.767767 1.767767 
C 2.236584 1.29895 2.5 0.663008 2.5 0 
C 2.5 -0.663008 2.236584 -1.29895 1.767767 -1.767767 
C 1.29895 -2.236584 0.663008 -2.5 0 -2.5 
C -0.663008 -2.5 -1.29895 -2.236584 -1.767767 -1.767767 
C -2.236584 -1.29895 -2.5 -0.663008 -2.5 0 
C -2.5 0.663008 -2.236584 1.29895 -1.767767 1.767767 
C -1.29895 2.236584 -0.663008 2.5 0 2.5 
z
" style="stroke: #21918c"/>
    </defs>
    <g clip-path="url(#p5af3815b9c)">
     <use xlink:href="#m187dbbaff8" x="324.543491" y="423.517205" style="fill: #21918c; stroke: #21918c"/>
     <use xlink:href="#m187dbbaff8" x="322.805101" y="401.508472" style="fill: #21918c; stroke: #21918c"/>
     <use xlink:href="#m187dbbaff8" x="331.209743" y="379.499738" style="fill: #21918c; stroke: #21918c"/>
     <use xlink:href="#m187dbbaff8" x="332.113223" y="357.491004" style="fill: #21918c; stroke: #21918c"/>
     <use xlink:href="#m187dbbaff8" x="317.715188" y="335.482271" style="fill: #21918c; stroke: #21918c"/>
     <use xlink:href="#m187dbbaff8" x="332.415125" y="313.473537" style="fill: #21918c; stroke: #21918c"/>
     <use xlink:href="#m187dbbaff8" x="314.798818" y="291.464803" style="fill: #21918c; stroke: #21918c"/>
     <use xlink:href="#m187dbbaff8" x="335.802077" y="269.45607" style="fill: #21918c; stroke: #21918c"/>
     <use xlink:href="#m187dbbaff8" x="336.345122" y="247.447336" style="fill: #21918c; stroke: #21918c"/>
     <use xlink:href="#m187dbbaff8" x="311.029498" y="225.438603" style="fill: #21918c; stroke: #21918c"/>
     <use xlink:href="#m187dbbaff8" x="339.659257" y="203.429869" style="fill: #21918c; stroke: #21918c"/>
     <use xlink:href="#m187dbbaff8" x="340.492494" y="181.421135" style="fill: #21918c; stroke: #21918c"/>
     <use xlink:href="#m187dbbaff8" x="341.92064" y="159.412402" style="fill: #21918c; stroke: #21918c"/>
     <use xlink:href="#m187dbbaff8" x="342.982966" y="137.403668" style="fill: #21918c; stroke: #21918c"/>
     <use xlink:href="#m187dbbaff8" x="295.536489" y="115.394934" style="fill: #21918c; stroke: #21918c"/>
     <use xlink:href="#m187dbbaff8" x="290.907436" y="93.386201" style="fill: #21918c; stroke: #21918c"/>
     <use xlink:href="#m187dbbaff8" x="377.045279" y="71.377467" style="fill: #21918c; stroke: #21918c"/>
     <use xlink:href="#m187dbbaff8" x="199.294365" y="49.368734" style="fill: #21918c; stroke: #21918c"/>
     <use xlink:href="#m187dbbaff8" x="540.419399" y="27.36" style="fill: #21918c; stroke: #21918c"/>
    </g>
   </g>
   <g id="patch_3">
    <path d="M 158.734375 450.72 
L 158.734375 7.2 
" style="fill: none; stroke: #000000; stroke-width: 1.5; stroke-linejoin: miter; stroke-linecap: square"/>
   </g>
   <g id="patch_4">
    <path d="M 158.734375 450.72 
L 577.234375 450.72 
" style="fill: none; stroke: #000000; stroke-width: 1.5; stroke-linejoin: miter; stroke-linecap: square"/>
   </g>
   <g id="legend_1">
    <g id="LineCollection_3">
     <path d="M 390.407969 418.933437 
L 401.407969 418.933437 
" style="fill: none; stroke: #440154; stroke-width: 1.4"/>
    </g>
    <g id="line2d_33">
     <g>
      <use xlink:href="#m4c891ece95" x="390.407969" y="418.933437" style="fill: #440154; stroke: #440154"/>
     </g>
    </g>
    <g id="line2d_34">
     <g>
      <use xlink:href="#m4c891ece95" x="401.407969" y="418.933437" style="fill: #440154; stroke: #440154"/>
     </g>
    </g>
    <g id="line2d_35"/>
    <g id="line2d_36">
     <g>
      <use xlink:href="#md24c50a3df" x="395.907969" y="418.933437" style="fill: #440154; stroke: #440154"/>
     </g>
    </g>
    <g id="text_27">
     <!-- HC3 -->
     <g transform="translate(415.707969 422.783437) scale(0.11 -0.11)">
      <defs>
       <path id="LiberationSans-48" d="M 3503 0 
L 3503 2041 
L 1122 2041 
L 1122 0 
L 525 0 
L 525 4403 
L 1122 4403 
L 1122 2541 
L 3503 2541 
L 3503 4403 
L 4100 4403 
L 4100 0 
L 3503 0 
z
" transform="scale(0.015625)"/>
       <path id="LiberationSans-33" d="M 3278 1216 
Q 3278 913 3179 675 
Q 3081 438 2892 273 
Q 2703 109 2423 23 
Q 2144 -63 1784 -63 
Q 1375 -63 1095 39 
Q 816 141 634 308 
Q 453 475 362 689 
Q 272 903 244 1131 
L 825 1184 
Q 850 1009 917 865 
Q 984 722 1100 619 
Q 1216 516 1384 459 
Q 1553 403 1784 403 
Q 2209 403 2451 612 
Q 2694 822 2694 1234 
Q 2694 1478 2586 1626 
Q 2478 1775 2317 1858 
Q 2156 1941 1967 1969 
Q 1778 1997 1619 1997 
L 1300 1997 
L 1300 2484 
L 1606 2484 
Q 1766 2484 1937 2517 
Q 2109 2550 2251 2636 
Q 2394 2722 2486 2869 
Q 2578 3016 2578 3244 
Q 2578 3597 2370 3801 
Q 2163 4006 1753 4006 
Q 1381 4006 1151 3815 
Q 922 3625 884 3278 
L 319 3322 
Q 353 3613 478 3828 
Q 603 4044 795 4186 
Q 988 4328 1234 4398 
Q 1481 4469 1759 4469 
Q 2128 4469 2393 4376 
Q 2659 4284 2828 4126 
Q 2997 3969 3076 3756 
Q 3156 3544 3156 3303 
Q 3156 3109 3103 2940 
Q 3050 2772 2937 2637 
Q 2825 2503 2651 2406 
Q 2478 2309 2234 2259 
L 2234 2247 
Q 2500 2219 2697 2126 
Q 2894 2034 3022 1896 
Q 3150 1759 3214 1584 
Q 3278 1409 3278 1216 
z
" transform="scale(0.015625)"/>
      </defs>
      <use xlink:href="#LiberationSans-48"/>
      <use xlink:href="#LiberationSans-43" transform="translate(72.216797 0)"/>
      <use xlink:href="#LiberationSans-33" transform="translate(144.433594 0)"/>
     </g>
    </g>
    <g id="LineCollection_4">
     <path d="M 390.407969 434.6875 
L 401.407969 434.6875 
" style="fill: none; stroke: #21918c; stroke-width: 1.4"/>
    </g>
    <g id="line2d_37">
     <g>
      <use xlink:href="#mecac582837" x="390.407969" y="434.6875" style="fill: #21918c; stroke: #21918c"/>
     </g>
    </g>
    <g id="line2d_38">
     <g>
      <use xlink:href="#mecac582837" x="401.407969" y="434.6875" style="fill: #21918c; stroke: #21918c"/>
     </g>
    </g>
    <g id="line2d_39"/>
    <g id="line2d_40">
     <g>
      <use xlink:href="#m187dbbaff8" x="395.907969" y="434.6875" style="fill: #21918c; stroke: #21918c"/>
     </g>
    </g>
    <g id="text_28">
     <!-- Agrupado (Diretoria de Ensino) -->
     <g transform="translate(415.707969 438.5375) scale(0.11 -0.11)">
      <defs>
       <path id="LiberationSans-67" d="M 1713 -1328 
Q 1422 -1328 1197 -1268 
Q 972 -1209 812 -1098 
Q 653 -988 553 -834 
Q 453 -681 409 -494 
L 975 -413 
Q 1031 -647 1223 -773 
Q 1416 -900 1728 -900 
Q 1919 -900 2075 -847 
Q 2231 -794 2340 -676 
Q 2450 -559 2509 -371 
Q 2569 -184 2569 84 
L 2569 628 
L 2563 628 
Q 2500 500 2408 383 
Q 2316 266 2183 175 
Q 2050 84 1875 29 
Q 1700 -25 1475 -25 
Q 1153 -25 923 83 
Q 694 191 548 406 
Q 403 622 336 942 
Q 269 1263 269 1684 
Q 269 2091 336 2416 
Q 403 2741 554 2967 
Q 706 3194 948 3314 
Q 1191 3434 1538 3434 
Q 1897 3434 2161 3270 
Q 2425 3106 2569 2803 
L 2575 2803 
Q 2575 2881 2579 2978 
Q 2584 3075 2589 3161 
Q 2594 3247 2600 3309 
Q 2606 3372 2613 3381 
L 3147 3381 
Q 3144 3353 3141 3286 
Q 3138 3219 3134 3125 
Q 3131 3031 3129 2917 
Q 3128 2803 3128 2681 
L 3128 97 
Q 3128 -613 2779 -970 
Q 2431 -1328 1713 -1328 
z
M 2569 1691 
Q 2569 2044 2492 2295 
Q 2416 2547 2291 2706 
Q 2166 2866 2005 2941 
Q 1844 3016 1675 3016 
Q 1459 3016 1304 2941 
Q 1150 2866 1048 2705 
Q 947 2544 898 2292 
Q 850 2041 850 1691 
Q 850 1325 898 1076 
Q 947 828 1047 675 
Q 1147 522 1300 456 
Q 1453 391 1666 391 
Q 1834 391 1995 462 
Q 2156 534 2284 690 
Q 2413 847 2491 1094 
Q 2569 1341 2569 1691 
z
" transform="scale(0.015625)"/>
       <path id="LiberationSans-75" d="M 981 3381 
L 981 1238 
Q 981 991 1017 825 
Q 1053 659 1134 557 
Q 1216 456 1348 414 
Q 1481 372 1678 372 
Q 1878 372 2039 442 
Q 2200 513 2314 645 
Q 2428 778 2490 973 
Q 2553 1169 2553 1422 
L 2553 3381 
L 3116 3381 
L 3116 722 
Q 3116 616 3117 498 
Q 3119 381 3122 276 
Q 3125 172 3128 97 
Q 3131 22 3134 0 
L 2603 0 
Q 2600 16 2597 84 
Q 2594 153 2589 242 
Q 2584 331 2581 423 
Q 2578 516 2578 578 
L 2569 578 
Q 2488 431 2391 312 
Q 2294 194 2166 111 
Q 2038 28 1872 -17 
Q 1706 -63 1488 -63 
Q 1206 -63 1003 6 
Q 800 75 669 219 
Q 538 363 477 588 
Q 416 813 416 1128 
L 416 3381 
L 981 3381 
z
" transform="scale(0.015625)"/>
       <path id="LiberationSans-73" d="M 2969 934 
Q 2969 697 2876 511 
Q 2784 325 2609 198 
Q 2434 72 2179 4 
Q 1925 -63 1597 -63 
Q 1303 -63 1067 -17 
Q 831 28 653 128 
Q 475 228 354 392 
Q 234 556 178 794 
L 675 891 
Q 747 619 972 492 
Q 1197 366 1597 366 
Q 1778 366 1929 391 
Q 2081 416 2190 477 
Q 2300 538 2361 639 
Q 2422 741 2422 891 
Q 2422 1044 2350 1142 
Q 2278 1241 2150 1306 
Q 2022 1372 1839 1420 
Q 1656 1469 1438 1528 
Q 1234 1581 1034 1647 
Q 834 1713 673 1820 
Q 513 1928 413 2087 
Q 313 2247 313 2488 
Q 313 2950 642 3192 
Q 972 3434 1603 3434 
Q 2163 3434 2492 3237 
Q 2822 3041 2909 2606 
L 2403 2544 
Q 2375 2675 2300 2764 
Q 2225 2853 2119 2908 
Q 2013 2963 1880 2986 
Q 1747 3009 1603 3009 
Q 1222 3009 1040 2893 
Q 859 2778 859 2544 
Q 859 2406 926 2317 
Q 994 2228 1114 2167 
Q 1234 2106 1403 2061 
Q 1572 2016 1775 1966 
Q 1909 1931 2050 1892 
Q 2191 1853 2323 1798 
Q 2456 1744 2573 1670 
Q 2691 1597 2778 1494 
Q 2866 1391 2917 1253 
Q 2969 1116 2969 934 
z
" transform="scale(0.015625)"/>
      </defs>
      <use xlink:href="#LiberationSans-41"/>
      <use xlink:href="#LiberationSans-67" transform="translate(66.699219 0)"/>
      <use xlink:href="#LiberationSans-72" transform="translate(122.314453 0)"/>
      <use xlink:href="#LiberationSans-75" transform="translate(155.615234 0)"/>
      <use xlink:href="#LiberationSans-70" transform="translate(211.230469 0)"/>
      <use xlink:href="#LiberationSans-61" transform="translate(266.845703 0)"/>
      <use xlink:href="#LiberationSans-64" transform="translate(322.460938 0)"/>
      <use xlink:href="#LiberationSans-6f" transform="translate(378.076172 0)"/>
      <use xlink:href="#LiberationSans-20" transform="translate(433.691406 0)"/>
      <use xlink:href="#LiberationSans-28" transform="translate(461.474609 0)"/>
      <use xlink:href="#LiberationSans-44" transform="translate(494.775391 0)"/>
      <use xlink:href="#LiberationSans-69" transform="translate(566.992188 0)"/>
      <use xlink:href="#LiberationSans-72" transform="translate(589.208984 0)"/>
      <use xlink:href="#LiberationSans-65" transform="translate(622.509766 0)"/>
      <use xlink:href="#LiberationSans-74" transform="translate(678.125 0)"/>
      <use xlink:href="#LiberationSans-6f" transform="translate(705.908203 0)"/>
      <use xlink:href="#LiberationSans-72" transform="translate(761.523438 0)"/>
      <use xlink:href="#LiberationSans-69" transform="translate(794.824219 0)"/>
      <use xlink:href="#LiberationSans-61" transform="translate(817.041016 0)"/>
      <use xlink:href="#LiberationSans-20" transform="translate(872.65625 0)"/>
      <use xlink:href="#LiberationSans-64" transform="translate(900.439453 0)"/>
      <use xlink:href="#LiberationSans-65" transform="translate(956.054688 0)"/>
      <use xlink:href="#LiberationSans-20" transform="translate(1011.669922 0)"/>
      <use xlink:href="#LiberationSans-45" transform="translate(1039.453125 0)"/>
      <use xlink:href="#LiberationSans-6e" transform="translate(1106.152344 0)"/>
      <use xlink:href="#LiberationSans-73" transform="translate(1161.767578 0)"/>
      <use xlink:href="#LiberationSans-69" transform="translate(1211.767578 0)"/>
      <use xlink:href="#LiberationSans-6e" transform="translate(1233.984375 0)"/>
      <use xlink:href="#LiberationSans-6f" transform="translate(1289.599609 0)"/>
      <use xlink:href="#LiberationSans-29" transform="translate(1345.214844 0)"/>
     </g>
    </g>
   </g>
  </g>
 </g>
 <defs>
  <clipPath id="p5af3815b9c">
   <rect x="158.734375" y="7.2" width="418.5" height="443.52"/>
  </clipPath>
 </defs>
</svg>
