<?xml version="1.0" encoding="utf-8" standalone="no"?>
<!DOCTYPE svg PUBLIC "-//W3C//DTD SVG 1.1//EN"
  "http://www.w3.org/Graphics/SVG/1.1/DTD/svg11.dtd">
<svg xmlns:xlink="http://www.w3.org/1999/xlink" width="521.621462pt" height="412.5032pt" viewBox="0 0 521.621462 412.5032" xmlns="http://www.w3.org/2000/svg" version="1.1">
 <metadata>
  <rdf:RDF xmlns:dc="http://purl.org/dc/elements/1.1/" xmlns:cc="http://creativecommons.org/ns#" xmlns:rdf="http://www.w3.org/1999/02/22-rdf-syntax-ns#">
   <cc:Work>
    <dc:type rdf:resource="http://purl.org/dc/dcmitype/StillImage"/>
    <dc:date>2026-06-20T20:53:06.697577</dc:date>
    <dc:format>image/svg+xml</dc:format>
    <dc:creator>
     <cc:Agent>
      <dc:title>Matplotlib v3.10.0, https://matplotlib.org/</dc:title>
     </cc:Agent>
    </dc:creator>
   </cc:Work>
  </rdf:RDF>
 </metadata>
 <defs>
  <style type="text/css">*{stroke-linejoin: round; stroke-linecap: butt}</style>
 </defs>
 <g id="figure_1">
  <g id="patch_1">
   <path d="M 0 412.5032 
L 521.621462 412.5032 
L 521.621462 0 
L 0 0 
z
" style="fill: #ffffff"/>
  </g>
  <g id="axes_1">
   <g id="patch_2">
    <path d="M 397.399063 225.1232 
C 397.399063 201.462179 392.738357 178.031232 383.683677 156.171299 
C 374.628996 134.311366 361.356431 114.447568 344.625562 97.7167 
C 327.894694 80.985832 308.030896 67.713266 286.170963 58.658586 
C 264.311031 49.603905 240.880083 44.9432 217.219063 44.9432 
C 193.558042 44.9432 170.127094 49.603905 148.267162 58.658586 
C 126.407229 67.713266 106.543431 80.985832 89.812563 97.7167 
C 73.081694 114.447568 59.809129 134.311366 50.754448 156.171299 
C 41.699768 178.031232 37.039063 201.462179 37.039063 225.1232 
C 37.039063 248.784221 41.699768 272.215168 50.754448 294.075101 
C 59.809129 315.935034 73.081694 335.798832 89.812563 352.5297 
C 106.543431 369.260568 126.407229 382.533134 148.267162 391.587814 
C 170.127094 400.642495 193.558042 405.3032 217.219063 405.3032 
C 240.880083 405.3032 264.311031 400.642495 286.170963 391.587814 
C 308.030896 382.533134 327.894694 369.260568 344.625562 352.5297 
C 361.356431 335.798832 374.628996 315.935034 383.683677 294.075101 
C 392.738357 272.215168 397.399063 248.784221 397.399063 225.1232 
M 217.219063 225.1232 
C 217.219063 225.1232 217.219063 225.1232 217.219063 225.1232 
C 217.219063 225.1232 217.219063 225.1232 217.219063 225.1232 
C 217.219063 225.1232 217.219063 225.1232 217.219063 225.1232 
C 217.219063 225.1232 217.219063 225.1232 217.219063 225.1232 
C 217.219063 225.1232 217.219063 225.1232 217.219063 225.1232 
C 217.219063 225.1232 217.219063 225.1232 217.219063 225.1232 
C 217.219063 225.1232 217.219063 225.1232 217.219063 225.1232 
C 217.219063 225.1232 217.219063 225.1232 217.219063 225.1232 
C 217.219063 225.1232 217.219063 225.1232 217.219063 225.1232 
C 217.219063 225.1232 217.219063 225.1232 217.219063 225.1232 
C 217.219063 225.1232 217.219063 225.1232 217.219063 225.1232 
C 217.219063 225.1232 217.219063 225.1232 217.219063 225.1232 
C 217.219063 225.1232 217.219063 225.1232 217.219063 225.1232 
C 217.219063 225.1232 217.219063 225.1232 217.219063 225.1232 
C 217.219063 225.1232 217.219063 225.1232 217.219063 225.1232 
C 217.219063 225.1232 217.219063 225.1232 217.219063 225.1232 
z
" style="fill: #ffffff"/>
   </g>
   <g id="patch_3">
    <path d="M 295.818167 225.1232 
L 303.019063 76.513241 
L 131.419063 76.513241 
L 45.619063 225.1232 
L 131.419062 373.733159 
L 303.019062 373.733159 
z
" clip-path="url(#pfcd3d5a95e)" style="fill: #440154; opacity: 0.12; stroke: #440154; stroke-linejoin: miter"/>
   </g>
   <g id="patch_4">
    <path d="M 388.819062 225.1232 
L 217.219063 225.1232 
L 217.219063 225.1232 
L 217.219063 225.1232 
L 153.770323 335.01964 
L 217.219063 225.1232 
z
" clip-path="url(#pfcd3d5a95e)" style="fill: #21918c; opacity: 0.12; stroke: #21918c; stroke-linejoin: miter"/>
   </g>
   <g id="patch_5">
    <path d="M 217.219063 225.1232 
L 288.951365 100.879208 
L 141.854292 94.587589 
L 82.23647 225.1232 
L 217.219063 225.1232 
L 303.019062 373.733159 
z
" clip-path="url(#pfcd3d5a95e)" style="fill: #dce319; opacity: 0.12; stroke: #dce319; stroke-linejoin: miter"/>
   </g>
   <g id="matplotlib.axis_1">
    <g id="xtick_1">
     <g id="line2d_1">
      <path d="M 217.219063 225.1232 
L 397.399063 225.1232 
" clip-path="url(#pfcd3d5a95e)" style="fill: none; stroke: #b0b0b0; stroke-width: 0.8; stroke-linecap: square"/>
     </g>
     <g id="text_1">
      <!-- IDEB -->
      <g transform="translate(399.72875 227.709137) scale(0.1 -0.1)">
       <defs>
        <path id="LiberationSans-49" d="M 591 0 
L 591 4403 
L 1188 4403 
L 1188 0 
L 591 0 
z
" transform="scale(0.015625)"/>
        <path id="LiberationSans-44" d="M 4316 2247 
Q 4316 1697 4150 1276 
Q 3984 856 3696 573 
Q 3409 291 3017 145 
Q 2625 0 2172 0 
L 525 0 
L 525 4403 
L 1981 4403 
Q 2491 4403 2920 4276 
Q 3350 4150 3659 3886 
Q 3969 3622 4142 3215 
Q 4316 2809 4316 2247 
z
M 3716 2247 
Q 3716 2694 3587 3011 
Q 3459 3328 3228 3531 
Q 2997 3734 2675 3829 
Q 2353 3925 1969 3925 
L 1122 3925 
L 1122 478 
L 2103 478 
Q 2450 478 2745 590 
Q 3041 703 3256 925 
Q 3472 1147 3594 1478 
Q 3716 1809 3716 2247 
z
" transform="scale(0.015625)"/>
        <path id="LiberationSans-45" d="M 525 0 
L 525 4403 
L 3866 4403 
L 3866 3916 
L 1122 3916 
L 1122 2503 
L 3678 2503 
L 3678 2022 
L 1122 2022 
L 1122 488 
L 3994 488 
L 3994 0 
L 525 0 
z
" transform="scale(0.015625)"/>
        <path id="LiberationSans-42" d="M 3931 1241 
Q 3931 906 3800 670 
Q 3669 434 3447 286 
Q 3225 138 2931 69 
Q 2638 0 2313 0 
L 525 0 
L 525 4403 
L 2125 4403 
Q 2491 4403 2778 4342 
Q 3066 4281 3266 4150 
Q 3466 4019 3570 3817 
Q 3675 3616 3675 3334 
Q 3675 3150 3623 2987 
Q 3572 2825 3467 2692 
Q 3363 2559 3205 2464 
Q 3047 2369 2838 2322 
Q 3103 2291 3308 2200 
Q 3513 2109 3650 1968 
Q 3788 1828 3859 1642 
Q 3931 1456 3931 1241 
z
M 3075 3263 
Q 3075 3619 2831 3772 
Q 2588 3925 2125 3925 
L 1122 3925 
L 1122 2531 
L 2125 2531 
Q 2388 2531 2569 2582 
Q 2750 2634 2862 2729 
Q 2975 2825 3025 2959 
Q 3075 3094 3075 3263 
z
M 3328 1288 
Q 3328 1497 3251 1644 
Q 3175 1791 3031 1884 
Q 2888 1978 2686 2022 
Q 2484 2066 2234 2066 
L 1122 2066 
L 1122 478 
L 2281 478 
Q 2509 478 2701 515 
Q 2894 553 3033 647 
Q 3172 741 3250 897 
Q 3328 1053 3328 1288 
z
" transform="scale(0.015625)"/>
       </defs>
       <use xlink:href="#LiberationSans-49"/>
       <use xlink:href="#LiberationSans-44" transform="translate(27.783203 0)"/>
       <use xlink:href="#LiberationSans-45" transform="translate(100 0)"/>
       <use xlink:href="#LiberationSans-42" transform="translate(166.699219 0)"/>
      </g>
     </g>
    </g>
    <g id="xtick_2">
     <g id="line2d_2">
      <path d="M 217.219063 225.1232 
L 307.309063 69.082743 
" clip-path="url(#pfcd3d5a95e)" style="fill: none; stroke: #b0b0b0; stroke-width: 0.8; stroke-linecap: square"/>
     </g>
     <g id="text_2">
      <!-- INSE -->
      <g transform="translate(302.63875 59.544325) scale(0.1 -0.1)">
       <defs>
        <path id="LiberationSans-4e" d="M 3381 0 
L 1025 3750 
Q 1031 3597 1041 3447 
Q 1047 3319 1051 3176 
Q 1056 3034 1056 2925 
L 1056 0 
L 525 0 
L 525 4403 
L 1219 4403 
L 3600 628 
Q 3591 781 3581 934 
Q 3575 1066 3569 1220 
Q 3563 1375 3563 1516 
L 3563 4403 
L 4100 4403 
L 4100 0 
L 3381 0 
z
" transform="scale(0.015625)"/>
        <path id="LiberationSans-53" d="M 3975 1216 
Q 3975 938 3867 703 
Q 3759 469 3534 298 
Q 3309 128 2967 32 
Q 2625 -63 2156 -63 
Q 1334 -63 875 225 
Q 416 513 291 1056 
L 869 1172 
Q 913 1000 1003 859 
Q 1094 719 1248 617 
Q 1403 516 1631 459 
Q 1859 403 2178 403 
Q 2444 403 2666 448 
Q 2888 494 3047 587 
Q 3206 681 3295 829 
Q 3384 978 3384 1184 
Q 3384 1400 3286 1534 
Q 3188 1669 3009 1756 
Q 2831 1844 2584 1903 
Q 2338 1963 2038 2031 
Q 1853 2072 1667 2120 
Q 1481 2169 1311 2236 
Q 1141 2303 991 2393 
Q 841 2484 731 2611 
Q 622 2738 559 2905 
Q 497 3072 497 3291 
Q 497 3603 623 3826 
Q 750 4050 975 4194 
Q 1200 4338 1506 4403 
Q 1813 4469 2169 4469 
Q 2578 4469 2868 4405 
Q 3159 4341 3359 4212 
Q 3559 4084 3679 3895 
Q 3800 3706 3872 3456 
L 3284 3353 
Q 3241 3513 3158 3638 
Q 3075 3763 2940 3847 
Q 2806 3931 2614 3975 
Q 2422 4019 2163 4019 
Q 1856 4019 1648 3964 
Q 1441 3909 1314 3815 
Q 1188 3722 1133 3595 
Q 1078 3469 1078 3322 
Q 1078 3125 1176 2998 
Q 1275 2872 1444 2787 
Q 1613 2703 1834 2647 
Q 2056 2591 2306 2534 
Q 2509 2488 2711 2439 
Q 2913 2391 3097 2323 
Q 3281 2256 3442 2165 
Q 3603 2075 3722 1944 
Q 3841 1813 3908 1634 
Q 3975 1456 3975 1216 
z
" transform="scale(0.015625)"/>
       </defs>
       <use xlink:href="#LiberationSans-49"/>
       <use xlink:href="#LiberationSans-4e" transform="translate(27.783203 0)"/>
       <use xlink:href="#LiberationSans-53" transform="translate(100 0)"/>
       <use xlink:href="#LiberationSans-45" transform="translate(166.699219 0)"/>
      </g>
     </g>
    </g>
    <g id="xtick_3">
     <g id="line2d_3">
      <path d="M 217.219063 225.1232 
L 127.129063 69.082743 
" clip-path="url(#pfcd3d5a95e)" style="fill: none; stroke: #b0b0b0; stroke-width: 0.8; stroke-linecap: square"/>
     </g>
     <g id="text_3">
      <!-- Matrículas -->
      <g transform="translate(97.068906 59.544325) scale(0.1 -0.1)">
       <defs>
        <path id="LiberationSans-4d" d="M 4269 0 
L 4269 2938 
Q 4269 3097 4272 3262 
Q 4275 3428 4281 3566 
Q 4288 3725 4297 3875 
Q 4253 3716 4206 3559 
Q 4166 3425 4117 3273 
Q 4069 3122 4022 3000 
L 2884 0 
L 2466 0 
L 1313 3000 
Q 1294 3047 1273 3109 
Q 1253 3172 1229 3242 
Q 1206 3313 1182 3386 
Q 1159 3459 1138 3531 
Q 1084 3697 1034 3875 
Q 1038 3700 1044 3528 
Q 1050 3381 1053 3220 
Q 1056 3059 1056 2938 
L 1056 0 
L 525 0 
L 525 4403 
L 1309 4403 
L 2481 1350 
Q 2503 1288 2534 1189 
Q 2566 1091 2594 987 
Q 2622 884 2645 792 
Q 2669 700 2678 650 
Q 2688 700 2713 794 
Q 2738 888 2770 991 
Q 2803 1094 2834 1191 
Q 2866 1288 2891 1350 
L 4041 4403 
L 4806 4403 
L 4806 0 
L 4269 0 
z
" transform="scale(0.015625)"/>
        <path id="LiberationSans-61" d="M 1294 -63 
Q 784 -63 528 206 
Q 272 475 272 944 
Q 272 1278 398 1492 
Q 525 1706 729 1828 
Q 934 1950 1196 1997 
Q 1459 2044 1731 2050 
L 2491 2063 
L 2491 2247 
Q 2491 2456 2447 2603 
Q 2403 2750 2312 2840 
Q 2222 2931 2086 2973 
Q 1950 3016 1766 3016 
Q 1603 3016 1472 2992 
Q 1341 2969 1244 2908 
Q 1147 2847 1087 2742 
Q 1028 2638 1009 2478 
L 422 2531 
Q 453 2731 540 2898 
Q 628 3066 789 3187 
Q 950 3309 1192 3376 
Q 1434 3444 1778 3444 
Q 2416 3444 2737 3151 
Q 3059 2859 3059 2306 
L 3059 850 
Q 3059 600 3125 473 
Q 3191 347 3375 347 
Q 3422 347 3469 353 
Q 3516 359 3559 369 
L 3559 19 
Q 3453 -6 3348 -18 
Q 3244 -31 3125 -31 
Q 2966 -31 2852 11 
Q 2738 53 2666 139 
Q 2594 225 2556 351 
Q 2519 478 2509 647 
L 2491 647 
Q 2400 484 2292 353 
Q 2184 222 2040 130 
Q 1897 38 1714 -12 
Q 1531 -63 1294 -63 
z
M 1422 359 
Q 1691 359 1892 457 
Q 2094 556 2226 709 
Q 2359 863 2425 1044 
Q 2491 1225 2491 1391 
L 2491 1669 
L 1875 1656 
Q 1669 1653 1483 1626 
Q 1297 1600 1156 1522 
Q 1016 1444 933 1303 
Q 850 1163 850 934 
Q 850 659 998 509 
Q 1147 359 1422 359 
z
" transform="scale(0.015625)"/>
        <path id="LiberationSans-74" d="M 1731 25 
Q 1603 -9 1470 -29 
Q 1338 -50 1163 -50 
Q 488 -50 488 716 
L 488 2972 
L 97 2972 
L 97 3381 
L 509 3381 
L 675 4138 
L 1050 4138 
L 1050 3381 
L 1675 3381 
L 1675 2972 
L 1050 2972 
L 1050 838 
Q 1050 594 1129 495 
Q 1209 397 1406 397 
Q 1488 397 1564 409 
Q 1641 422 1731 441 
L 1731 25 
z
" transform="scale(0.015625)"/>
        <path id="LiberationSans-72" d="M 444 0 
L 444 2594 
Q 444 2700 442 2811 
Q 441 2922 437 3025 
Q 434 3128 431 3218 
Q 428 3309 425 3381 
L 956 3381 
Q 959 3309 964 3217 
Q 969 3125 973 3028 
Q 978 2931 979 2842 
Q 981 2753 981 2691 
L 994 2691 
Q 1053 2884 1120 3026 
Q 1188 3169 1278 3261 
Q 1369 3353 1494 3398 
Q 1619 3444 1797 3444 
Q 1866 3444 1928 3433 
Q 1991 3422 2025 3413 
L 2025 2897 
Q 1969 2913 1894 2920 
Q 1819 2928 1725 2928 
Q 1531 2928 1395 2840 
Q 1259 2753 1173 2598 
Q 1088 2444 1047 2230 
Q 1006 2016 1006 1763 
L 1006 0 
L 444 0 
z
" transform="scale(0.015625)"/>
        <path id="LiberationSans-ed" d="M 606 0 
L 606 3381 
L 1169 3381 
L 1169 0 
L 606 0 
z
M 425 3753 
L 425 3816 
L 1103 4713 
L 1750 4713 
L 1750 4622 
L 719 3753 
L 425 3753 
z
" transform="scale(0.015625)"/>
        <path id="LiberationSans-63" d="M 859 1706 
Q 859 1416 901 1172 
Q 944 928 1044 751 
Q 1144 575 1308 478 
Q 1472 381 1713 381 
Q 2013 381 2214 543 
Q 2416 706 2463 1044 
L 3031 1006 
Q 3003 797 2909 603 
Q 2816 409 2655 262 
Q 2494 116 2262 26 
Q 2031 -63 1728 -63 
Q 1331 -63 1053 71 
Q 775 206 601 442 
Q 428 678 350 998 
Q 272 1319 272 1694 
Q 272 2034 328 2295 
Q 384 2556 486 2751 
Q 588 2947 725 3080 
Q 863 3213 1023 3292 
Q 1184 3372 1362 3408 
Q 1541 3444 1722 3444 
Q 2006 3444 2228 3366 
Q 2450 3288 2611 3152 
Q 2772 3016 2872 2831 
Q 2972 2647 3013 2434 
L 2434 2391 
Q 2391 2672 2212 2837 
Q 2034 3003 1706 3003 
Q 1466 3003 1305 2923 
Q 1144 2844 1044 2683 
Q 944 2522 901 2278 
Q 859 2034 859 1706 
z
" transform="scale(0.015625)"/>
        <path id="LiberationSans-75" d="M 981 3381 
L 981 1238 
Q 981 991 1017 825 
Q 1053 659 1134 557 
Q 1216 456 1348 414 
Q 1481 372 1678 372 
Q 1878 372 2039 442 
Q 2200 513 2314 645 
Q 2428 778 2490 973 
Q 2553 1169 2553 1422 
L 2553 3381 
L 3116 3381 
L 3116 722 
Q 3116 616 3117 498 
Q 3119 381 3122 276 
Q 3125 172 3128 97 
Q 3131 22 3134 0 
L 2603 0 
Q 2600 16 2597 84 
Q 2594 153 2589 242 
Q 2584 331 2581 423 
Q 2578 516 2578 578 
L 2569 578 
Q 2488 431 2391 312 
Q 2294 194 2166 111 
Q 2038 28 1872 -17 
Q 1706 -63 1488 -63 
Q 1206 -63 1003 6 
Q 800 75 669 219 
Q 538 363 477 588 
Q 416 813 416 1128 
L 416 3381 
L 981 3381 
z
" transform="scale(0.015625)"/>
        <path id="LiberationSans-6c" d="M 431 0 
L 431 4638 
L 994 4638 
L 994 0 
L 431 0 
z
" transform="scale(0.015625)"/>
        <path id="LiberationSans-73" d="M 2969 934 
Q 2969 697 2876 511 
Q 2784 325 2609 198 
Q 2434 72 2179 4 
Q 1925 -63 1597 -63 
Q 1303 -63 1067 -17 
Q 831 28 653 128 
Q 475 228 354 392 
Q 234 556 178 794 
L 675 891 
Q 747 619 972 492 
Q 1197 366 1597 366 
Q 1778 366 1929 391 
Q 2081 416 2190 477 
Q 2300 538 2361 639 
Q 2422 741 2422 891 
Q 2422 1044 2350 1142 
Q 2278 1241 2150 1306 
Q 2022 1372 1839 1420 
Q 1656 1469 1438 1528 
Q 1234 1581 1034 1647 
Q 834 1713 673 1820 
Q 513 1928 413 2087 
Q 313 2247 313 2488 
Q 313 2950 642 3192 
Q 972 3434 1603 3434 
Q 2163 3434 2492 3237 
Q 2822 3041 2909 2606 
L 2403 2544 
Q 2375 2675 2300 2764 
Q 2225 2853 2119 2908 
Q 2013 2963 1880 2986 
Q 1747 3009 1603 3009 
Q 1222 3009 1040 2893 
Q 859 2778 859 2544 
Q 859 2406 926 2317 
Q 994 2228 1114 2167 
Q 1234 2106 1403 2061 
Q 1572 2016 1775 1966 
Q 1909 1931 2050 1892 
Q 2191 1853 2323 1798 
Q 2456 1744 2573 1670 
Q 2691 1597 2778 1494 
Q 2866 1391 2917 1253 
Q 2969 1116 2969 934 
z
" transform="scale(0.015625)"/>
       </defs>
       <use xlink:href="#LiberationSans-4d"/>
       <use xlink:href="#LiberationSans-61" transform="translate(83.300781 0)"/>
       <use xlink:href="#LiberationSans-74" transform="translate(138.916016 0)"/>
       <use xlink:href="#LiberationSans-72" transform="translate(166.699219 0)"/>
       <use xlink:href="#LiberationSans-ed" transform="translate(200 0)"/>
       <use xlink:href="#LiberationSans-63" transform="translate(227.783203 0)"/>
       <use xlink:href="#LiberationSans-75" transform="translate(277.783203 0)"/>
       <use xlink:href="#LiberationSans-6c" transform="translate(333.398438 0)"/>
       <use xlink:href="#LiberationSans-61" transform="translate(355.615234 0)"/>
       <use xlink:href="#LiberationSans-73" transform="translate(411.230469 0)"/>
      </g>
     </g>
    </g>
    <g id="xtick_4">
     <g id="line2d_4">
      <path d="M 217.219063 225.1232 
L 37.039062 225.1232 
" clip-path="url(#pfcd3d5a95e)" style="fill: none; stroke: #b0b0b0; stroke-width: 0.8; stroke-linecap: square"/>
     </g>
     <g id="text_4">
      <!-- Tablets -->
      <g transform="translate(7.2 227.709137) scale(0.1 -0.1)">
       <defs>
        <path id="LiberationSans-54" d="M 2250 3916 
L 2250 0 
L 1656 0 
L 1656 3916 
L 144 3916 
L 144 4403 
L 3763 4403 
L 3763 3916 
L 2250 3916 
z
" transform="scale(0.015625)"/>
        <path id="LiberationSans-62" d="M 3291 1706 
Q 3291 -63 2047 -63 
Q 1663 -63 1408 76 
Q 1153 216 994 525 
L 988 525 
Q 988 444 983 356 
Q 978 269 973 194 
Q 969 119 964 66 
Q 959 13 956 0 
L 413 0 
Q 416 28 419 95 
Q 422 163 425 256 
Q 428 350 429 462 
Q 431 575 431 697 
L 431 4638 
L 994 4638 
L 994 3316 
Q 994 3222 992 3136 
Q 991 3050 988 2984 
Q 984 2906 981 2838 
L 994 2838 
Q 1150 3163 1408 3303 
Q 1666 3444 2047 3444 
Q 2688 3444 2989 3012 
Q 3291 2581 3291 1706 
z
M 2700 1688 
Q 2700 2038 2656 2288 
Q 2613 2538 2516 2698 
Q 2419 2859 2269 2934 
Q 2119 3009 1903 3009 
Q 1681 3009 1511 2937 
Q 1341 2866 1227 2706 
Q 1113 2547 1053 2287 
Q 994 2028 994 1653 
Q 994 1291 1053 1044 
Q 1113 797 1227 642 
Q 1341 488 1509 420 
Q 1678 353 1897 353 
Q 2103 353 2253 425 
Q 2403 497 2503 656 
Q 2603 816 2651 1070 
Q 2700 1325 2700 1688 
z
" transform="scale(0.015625)"/>
        <path id="LiberationSans-65" d="M 863 1572 
Q 863 1306 917 1082 
Q 972 859 1086 698 
Q 1200 538 1378 448 
Q 1556 359 1806 359 
Q 2172 359 2392 506 
Q 2613 653 2691 878 
L 3184 738 
Q 3131 597 3036 455 
Q 2941 313 2781 198 
Q 2622 84 2383 10 
Q 2144 -63 1806 -63 
Q 1056 -63 664 384 
Q 272 831 272 1713 
Q 272 2188 390 2517 
Q 509 2847 715 3053 
Q 922 3259 1197 3351 
Q 1472 3444 1784 3444 
Q 2209 3444 2495 3306 
Q 2781 3169 2954 2926 
Q 3128 2684 3201 2356 
Q 3275 2028 3275 1647 
L 3275 1572 
L 863 1572 
z
M 2694 2003 
Q 2647 2538 2422 2783 
Q 2197 3028 1775 3028 
Q 1634 3028 1479 2983 
Q 1325 2938 1194 2822 
Q 1063 2706 972 2507 
Q 881 2309 869 2003 
L 2694 2003 
z
" transform="scale(0.015625)"/>
       </defs>
       <use xlink:href="#LiberationSans-54"/>
       <use xlink:href="#LiberationSans-61" transform="translate(49.958984 0)"/>
       <use xlink:href="#LiberationSans-62" transform="translate(105.574219 0)"/>
       <use xlink:href="#LiberationSans-6c" transform="translate(161.189453 0)"/>
       <use xlink:href="#LiberationSans-65" transform="translate(183.40625 0)"/>
       <use xlink:href="#LiberationSans-74" transform="translate(239.021484 0)"/>
       <use xlink:href="#LiberationSans-73" transform="translate(266.804688 0)"/>
      </g>
     </g>
    </g>
    <g id="xtick_5">
     <g id="line2d_5">
      <path d="M 217.219063 225.1232 
L 127.129062 381.163657 
" clip-path="url(#pfcd3d5a95e)" style="fill: none; stroke: #b0b0b0; stroke-width: 0.8; stroke-linecap: square"/>
     </g>
     <g id="text_5">
      <!-- Sala leitura -->
      <g transform="translate(95.115781 395.87395) scale(0.1 -0.1)">
       <defs>
        <path id="LiberationSans-20" transform="scale(0.015625)"/>
        <path id="LiberationSans-69" d="M 428 4100 
L 428 4638 
L 991 4638 
L 991 4100 
L 428 4100 
z
M 428 0 
L 428 3381 
L 991 3381 
L 991 0 
L 428 0 
z
" transform="scale(0.015625)"/>
       </defs>
       <use xlink:href="#LiberationSans-53"/>
       <use xlink:href="#LiberationSans-61" transform="translate(66.699219 0)"/>
       <use xlink:href="#LiberationSans-6c" transform="translate(122.314453 0)"/>
       <use xlink:href="#LiberationSans-61" transform="translate(144.53125 0)"/>
       <use xlink:href="#LiberationSans-20" transform="translate(200.146484 0)"/>
       <use xlink:href="#LiberationSans-6c" transform="translate(227.929688 0)"/>
       <use xlink:href="#LiberationSans-65" transform="translate(250.146484 0)"/>
       <use xlink:href="#LiberationSans-69" transform="translate(305.761719 0)"/>
       <use xlink:href="#LiberationSans-74" transform="translate(327.978516 0)"/>
       <use xlink:href="#LiberationSans-75" transform="translate(355.761719 0)"/>
       <use xlink:href="#LiberationSans-72" transform="translate(411.376953 0)"/>
       <use xlink:href="#LiberationSans-61" transform="translate(444.677734 0)"/>
      </g>
     </g>
    </g>
    <g id="xtick_6">
     <g id="line2d_6">
      <path d="M 217.219063 225.1232 
L 307.309062 381.163657 
" clip-path="url(#pfcd3d5a95e)" style="fill: none; stroke: #b0b0b0; stroke-width: 0.8; stroke-linecap: square"/>
     </g>
     <g id="text_6">
      <!-- Urbana -->
      <g transform="translate(297.911406 395.87395) scale(0.1 -0.1)">
       <defs>
        <path id="LiberationSans-55" d="M 2284 -63 
Q 1922 -63 1597 34 
Q 1272 131 1026 336 
Q 781 541 637 855 
Q 494 1169 494 1600 
L 494 4403 
L 1091 4403 
L 1091 1650 
Q 1091 1316 1180 1083 
Q 1269 850 1428 703 
Q 1588 556 1805 489 
Q 2022 422 2281 422 
Q 2538 422 2766 490 
Q 2994 559 3166 709 
Q 3338 859 3436 1101 
Q 3534 1344 3534 1691 
L 3534 4403 
L 4128 4403 
L 4128 1656 
Q 4128 1216 3983 892 
Q 3838 569 3588 356 
Q 3338 144 3002 40 
Q 2666 -63 2284 -63 
z
" transform="scale(0.015625)"/>
        <path id="LiberationSans-6e" d="M 2578 0 
L 2578 2144 
Q 2578 2391 2542 2556 
Q 2506 2722 2425 2823 
Q 2344 2925 2211 2967 
Q 2078 3009 1881 3009 
Q 1681 3009 1520 2939 
Q 1359 2869 1245 2736 
Q 1131 2603 1068 2408 
Q 1006 2213 1006 1959 
L 1006 0 
L 444 0 
L 444 2659 
Q 444 2766 442 2883 
Q 441 3000 437 3104 
Q 434 3209 431 3284 
Q 428 3359 425 3381 
L 956 3381 
Q 959 3366 962 3297 
Q 966 3228 970 3139 
Q 975 3050 978 2958 
Q 981 2866 981 2803 
L 991 2803 
Q 1072 2950 1169 3069 
Q 1266 3188 1394 3270 
Q 1522 3353 1687 3398 
Q 1853 3444 2072 3444 
Q 2353 3444 2556 3375 
Q 2759 3306 2890 3162 
Q 3022 3019 3083 2792 
Q 3144 2566 3144 2253 
L 3144 0 
L 2578 0 
z
" transform="scale(0.015625)"/>
       </defs>
       <use xlink:href="#LiberationSans-55"/>
       <use xlink:href="#LiberationSans-72" transform="translate(72.216797 0)"/>
       <use xlink:href="#LiberationSans-62" transform="translate(105.517578 0)"/>
       <use xlink:href="#LiberationSans-61" transform="translate(161.132812 0)"/>
       <use xlink:href="#LiberationSans-6e" transform="translate(216.748047 0)"/>
       <use xlink:href="#LiberationSans-61" transform="translate(272.363281 0)"/>
      </g>
     </g>
    </g>
   </g>
   <g id="matplotlib.axis_2">
    <g id="ytick_1">
     <g id="line2d_7">
      <path d="M 251.539062 225.1232 
C 251.539062 220.616339 250.651309 216.153301 248.926608 211.989505 
C 247.201907 207.825708 244.673799 204.042127 241.486967 200.855295 
C 238.300135 197.668463 234.516555 195.140356 230.352758 193.415654 
C 226.188961 191.690953 221.725924 190.8032 217.219063 190.8032 
C 212.712201 190.8032 208.249164 191.690953 204.085367 193.415654 
C 199.92157 195.140356 196.13799 197.668463 192.951158 200.855295 
C 189.764326 204.042127 187.236218 207.825708 185.511517 211.989505 
C 183.786816 216.153301 182.899063 220.616339 182.899063 225.1232 
C 182.899063 229.630061 183.786816 234.093099 185.511517 238.256895 
C 187.236218 242.420692 189.764326 246.204273 192.951158 249.391105 
C 196.13799 252.577937 199.92157 255.106044 204.085367 256.830746 
C 208.249164 258.555447 212.712201 259.4432 217.219063 259.4432 
C 221.725924 259.4432 226.188961 258.555447 230.352758 256.830746 
C 234.516555 255.106044 238.300135 252.577937 241.486967 249.391105 
C 244.673799 246.204273 247.201907 242.420692 248.926608 238.256895 
C 250.651309 234.093099 251.539062 229.630061 251.539062 225.1232 
" clip-path="url(#pfcd3d5a95e)" style="fill: none; stroke: #b0b0b0; stroke-width: 0.8; stroke-linecap: square"/>
     </g>
    </g>
    <g id="ytick_2">
     <g id="line2d_8">
      <path d="M 285.859062 225.1232 
C 285.859062 216.109478 284.083556 207.183403 280.634154 198.855809 
C 277.184751 190.528216 272.128536 182.961055 265.754872 176.587391 
C 259.381208 170.213726 251.814047 165.157511 243.486453 161.708109 
C 235.15886 158.258707 226.232785 156.4832 217.219063 156.4832 
C 208.20534 156.4832 199.279265 158.258707 190.951672 161.708109 
C 182.624078 165.157511 175.056917 170.213726 168.683253 176.587391 
C 162.309589 182.961055 157.253374 190.528216 153.803971 198.855809 
C 150.354569 207.183403 148.579063 216.109478 148.579063 225.1232 
C 148.579063 234.136922 150.354569 243.062997 153.803971 251.390591 
C 157.253374 259.718184 162.309589 267.285345 168.683253 273.659009 
C 175.056917 280.032674 182.624078 285.088889 190.951672 288.538291 
C 199.279265 291.987693 208.20534 293.7632 217.219063 293.7632 
C 226.232785 293.7632 235.15886 291.987693 243.486453 288.538291 
C 251.814047 285.088889 259.381208 280.032674 265.754872 273.659009 
C 272.128536 267.285345 277.184751 259.718184 280.634154 251.390591 
C 284.083556 243.062997 285.859062 234.136922 285.859062 225.1232 
" clip-path="url(#pfcd3d5a95e)" style="fill: none; stroke: #b0b0b0; stroke-width: 0.8; stroke-linecap: square"/>
     </g>
    </g>
    <g id="ytick_3">
     <g id="line2d_9">
      <path d="M 320.179062 225.1232 
C 320.179062 211.602617 317.515802 198.213504 312.341699 185.722114 
C 307.167596 173.230724 299.583273 161.879982 290.022777 152.319486 
C 280.462281 142.75899 269.111539 135.174667 256.620149 130.000563 
C 244.128759 124.82646 230.739646 122.1632 217.219063 122.1632 
C 203.698479 122.1632 190.309366 124.82646 177.817976 130.000563 
C 165.326586 135.174667 153.975844 142.75899 144.415348 152.319486 
C 134.854852 161.879982 127.270529 173.230724 122.096426 185.722114 
C 116.922323 198.213504 114.259062 211.602617 114.259062 225.1232 
C 114.259062 238.643783 116.922323 252.032896 122.096426 264.524286 
C 127.270529 277.015676 134.854852 288.366418 144.415348 297.926914 
C 153.975844 307.48741 165.326586 315.071733 177.817976 320.245837 
C 190.309366 325.41994 203.698479 328.0832 217.219062 328.0832 
C 230.739646 328.0832 244.128759 325.41994 256.620149 320.245837 
C 269.111539 315.071733 280.462281 307.48741 290.022777 297.926914 
C 299.583273 288.366418 307.167596 277.015676 312.341699 264.524286 
C 317.515802 252.032896 320.179062 238.643783 320.179062 225.1232 
" clip-path="url(#pfcd3d5a95e)" style="fill: none; stroke: #b0b0b0; stroke-width: 0.8; stroke-linecap: square"/>
     </g>
    </g>
    <g id="ytick_4">
     <g id="line2d_10">
      <path d="M 354.499063 225.1232 
C 354.499063 207.095756 350.948049 189.243605 344.049245 172.588418 
C 337.15044 155.933231 327.03801 140.798909 314.290681 128.051581 
C 301.543353 115.304253 286.409031 105.191822 269.753844 98.293018 
C 253.098657 91.394213 235.246507 87.8432 217.219063 87.8432 
C 199.191618 87.8432 181.339468 91.394213 164.684281 98.293018 
C 148.029094 105.191822 132.894772 115.304253 120.147444 128.051581 
C 107.400115 140.798909 97.287685 155.933231 90.38888 172.588418 
C 83.490076 189.243605 79.939063 207.095756 79.939063 225.1232 
C 79.939063 243.150644 83.490076 261.002795 90.38888 277.657982 
C 97.287685 294.313169 107.400115 309.447491 120.147444 322.194819 
C 132.894772 334.942147 148.029094 345.054578 164.684281 351.953382 
C 181.339468 358.852187 199.191618 362.4032 217.219062 362.4032 
C 235.246507 362.4032 253.098657 358.852187 269.753844 351.953382 
C 286.409031 345.054578 301.543353 334.942147 314.290681 322.194819 
C 327.03801 309.447491 337.15044 294.313169 344.049245 277.657982 
C 350.948049 261.002795 354.499063 243.150644 354.499063 225.1232 
" clip-path="url(#pfcd3d5a95e)" style="fill: none; stroke: #b0b0b0; stroke-width: 0.8; stroke-linecap: square"/>
     </g>
    </g>
    <g id="ytick_5">
     <g id="line2d_11">
      <path d="M 388.819062 225.1232 
C 388.819062 202.588894 384.380296 180.273707 375.75679 159.454723 
C 367.133285 138.635739 354.492746 119.717837 338.558586 103.783676 
C 322.624426 87.849516 303.706523 75.208978 282.887539 66.585472 
C 262.068556 57.961967 239.753368 53.5232 217.219063 53.5232 
C 194.684757 53.5232 172.369569 57.961967 151.550586 66.585472 
C 130.731602 75.208978 111.813699 87.849516 95.879539 103.783676 
C 79.945379 119.717837 67.30484 138.635739 58.681335 159.454723 
C 50.057829 180.273707 45.619063 202.588894 45.619063 225.1232 
C 45.619063 247.657506 50.057829 269.972693 58.681335 290.791677 
C 67.30484 311.610661 79.945379 330.528563 95.879539 346.462724 
C 111.813699 362.396884 130.731602 375.037422 151.550586 383.660928 
C 172.369569 392.284433 194.684757 396.7232 217.219062 396.7232 
C 239.753368 396.7232 262.068556 392.284433 282.887539 383.660928 
C 303.706523 375.037422 322.624426 362.396884 338.558586 346.462724 
C 354.492746 330.528563 367.133285 311.610661 375.75679 290.791677 
C 384.380296 269.972693 388.819062 247.657506 388.819062 225.1232 
" clip-path="url(#pfcd3d5a95e)" style="fill: none; stroke: #b0b0b0; stroke-width: 0.8; stroke-linecap: square"/>
     </g>
    </g>
   </g>
   <g id="line2d_12">
    <path d="M 295.818167 225.1232 
L 303.019063 76.513241 
L 131.419063 76.513241 
L 45.619063 225.1232 
L 131.419062 373.733159 
L 303.019062 373.733159 
L 295.818167 225.1232 
" clip-path="url(#pfcd3d5a95e)" style="fill: none; stroke: #440154; stroke-width: 2; stroke-linecap: square"/>
   </g>
   <g id="line2d_13">
    <path d="M 388.819062 225.1232 
L 217.219063 225.1232 
L 217.219063 225.1232 
L 217.219063 225.1232 
L 153.770323 335.01964 
L 217.219063 225.1232 
L 388.819062 225.1232 
" clip-path="url(#pfcd3d5a95e)" style="fill: none; stroke: #21918c; stroke-width: 2; stroke-linecap: square"/>
   </g>
   <g id="line2d_14">
    <path d="M 217.219063 225.1232 
L 288.951365 100.879208 
L 141.854292 94.587589 
L 82.23647 225.1232 
L 217.219063 225.1232 
L 303.019062 373.733159 
L 217.219063 225.1232 
" clip-path="url(#pfcd3d5a95e)" style="fill: none; stroke: #dce319; stroke-width: 2; stroke-linecap: square"/>
   </g>
   <g id="patch_6">
    <path d="M 397.399063 225.1232 
C 397.399063 201.462179 392.738357 178.031232 383.683677 156.171299 
C 374.628996 134.311366 361.356431 114.447568 344.625562 97.7167 
C 327.894694 80.985832 308.030896 67.713266 286.170963 58.658586 
C 264.311031 49.603905 240.880083 44.9432 217.219063 44.9432 
C 193.558042 44.9432 170.127094 49.603905 148.267162 58.658586 
C 126.407229 67.713266 106.543431 80.985832 89.812563 97.7167 
C 73.081694 114.447568 59.809129 134.311366 50.754448 156.171299 
C 41.699768 178.031232 37.039062 201.462179 37.039062 225.1232 
C 37.039062 248.784221 41.699768 272.215168 50.754448 294.075101 
C 59.809129 315.935034 73.081694 335.798832 89.812563 352.5297 
C 106.543431 369.260568 126.407229 382.533134 148.267162 391.587814 
C 170.127094 400.642495 193.558042 405.3032 217.219062 405.3032 
C 240.880083 405.3032 264.311031 400.642495 286.170963 391.587814 
C 308.030896 382.533134 327.894694 369.260568 344.625562 352.5297 
C 361.356431 335.798832 374.628996 315.935034 383.683677 294.075101 
C 392.738357 272.215168 397.399063 248.784221 397.399063 225.1232 
" style="fill: none; stroke: #000000; stroke-width: 1.5; stroke-linejoin: miter; stroke-linecap: square"/>
   </g>
   <g id="legend_1">
    <g id="line2d_15">
     <path d="M 386.898806 15.721562 
L 397.898806 15.721562 
L 408.898806 15.721562 
" style="fill: none; stroke: #440154; stroke-width: 2; stroke-linecap: square"/>
    </g>
    <g id="text_7">
     <!-- Urbano Referência -->
     <g transform="translate(417.698806 19.571562) scale(0.11 -0.11)">
      <defs>
       <path id="LiberationSans-6f" d="M 3291 1694 
Q 3291 806 2900 371 
Q 2509 -63 1766 -63 
Q 1413 -63 1134 43 
Q 856 150 664 369 
Q 472 588 370 917 
Q 269 1247 269 1694 
Q 269 3444 1784 3444 
Q 2178 3444 2464 3334 
Q 2750 3225 2933 3006 
Q 3116 2788 3203 2459 
Q 3291 2131 3291 1694 
z
M 2700 1694 
Q 2700 2088 2639 2344 
Q 2578 2600 2461 2753 
Q 2344 2906 2175 2967 
Q 2006 3028 1794 3028 
Q 1578 3028 1404 2964 
Q 1231 2900 1109 2745 
Q 988 2591 923 2334 
Q 859 2078 859 1694 
Q 859 1300 928 1042 
Q 997 784 1117 631 
Q 1238 478 1402 415 
Q 1566 353 1759 353 
Q 1975 353 2150 414 
Q 2325 475 2447 628 
Q 2569 781 2634 1040 
Q 2700 1300 2700 1694 
z
" transform="scale(0.015625)"/>
       <path id="LiberationSans-52" d="M 3638 0 
L 2494 1828 
L 1122 1828 
L 1122 0 
L 525 0 
L 525 4403 
L 2597 4403 
Q 2972 4403 3261 4317 
Q 3550 4231 3747 4068 
Q 3944 3906 4047 3672 
Q 4150 3438 4150 3144 
Q 4150 2934 4089 2731 
Q 4028 2528 3897 2359 
Q 3766 2191 3562 2069 
Q 3359 1947 3075 1897 
L 4325 0 
L 3638 0 
z
M 3550 3138 
Q 3550 3338 3481 3484 
Q 3413 3631 3281 3729 
Q 3150 3828 2962 3876 
Q 2775 3925 2538 3925 
L 1122 3925 
L 1122 2300 
L 2563 2300 
Q 2819 2300 3006 2364 
Q 3194 2428 3314 2540 
Q 3434 2653 3492 2806 
Q 3550 2959 3550 3138 
z
" transform="scale(0.015625)"/>
       <path id="LiberationSans-66" d="M 1128 2972 
L 1128 0 
L 566 0 
L 566 2972 
L 91 2972 
L 91 3381 
L 566 3381 
L 566 3763 
Q 566 3947 600 4105 
Q 634 4263 726 4380 
Q 819 4497 978 4564 
Q 1138 4631 1391 4631 
Q 1491 4631 1598 4622 
Q 1706 4613 1788 4594 
L 1788 4166 
Q 1734 4175 1664 4183 
Q 1594 4191 1538 4191 
Q 1413 4191 1333 4156 
Q 1253 4122 1208 4058 
Q 1163 3994 1145 3900 
Q 1128 3806 1128 3684 
L 1128 3381 
L 1788 3381 
L 1788 2972 
L 1128 2972 
z
" transform="scale(0.015625)"/>
       <path id="LiberationSans-ea" d="M 863 1572 
Q 863 1306 917 1082 
Q 972 859 1086 698 
Q 1200 538 1378 448 
Q 1556 359 1806 359 
Q 2172 359 2392 506 
Q 2613 653 2691 878 
L 3184 738 
Q 3131 597 3036 455 
Q 2941 313 2781 198 
Q 2622 84 2383 10 
Q 2144 -63 1806 -63 
Q 1056 -63 664 384 
Q 272 831 272 1713 
Q 272 2188 390 2517 
Q 509 2847 715 3053 
Q 922 3259 1197 3351 
Q 1472 3444 1784 3444 
Q 2209 3444 2495 3306 
Q 2781 3169 2954 2926 
Q 3128 2684 3201 2356 
Q 3275 2028 3275 1647 
L 3275 1572 
L 863 1572 
z
M 2694 2003 
Q 2647 2538 2422 2783 
Q 2197 3028 1775 3028 
Q 1634 3028 1479 2983 
Q 1325 2938 1194 2822 
Q 1063 2706 972 2507 
Q 881 2309 869 2003 
L 2694 2003 
z
M 2837 3816 
L 2837 3753 
L 2509 3753 
L 1824 4281 
L 1818 4281 
L 1093 3753 
L 768 3753 
L 768 3816 
L 1499 4659 
L 2137 4659 
L 2837 3816 
z
" transform="scale(0.015625)"/>
      </defs>
      <use xlink:href="#LiberationSans-55"/>
      <use xlink:href="#LiberationSans-72" transform="translate(72.216797 0)"/>
      <use xlink:href="#LiberationSans-62" transform="translate(105.517578 0)"/>
      <use xlink:href="#LiberationSans-61" transform="translate(161.132812 0)"/>
      <use xlink:href="#LiberationSans-6e" transform="translate(216.748047 0)"/>
      <use xlink:href="#LiberationSans-6f" transform="translate(272.363281 0)"/>
      <use xlink:href="#LiberationSans-20" transform="translate(327.978516 0)"/>
      <use xlink:href="#LiberationSans-52" transform="translate(355.761719 0)"/>
      <use xlink:href="#LiberationSans-65" transform="translate(427.978516 0)"/>
      <use xlink:href="#LiberationSans-66" transform="translate(483.59375 0)"/>
      <use xlink:href="#LiberationSans-65" transform="translate(511.376953 0)"/>
      <use xlink:href="#LiberationSans-72" transform="translate(566.992188 0)"/>
      <use xlink:href="#LiberationSans-ea" transform="translate(600.292969 0)"/>
      <use xlink:href="#LiberationSans-6e" transform="translate(655.908203 0)"/>
      <use xlink:href="#LiberationSans-63" transform="translate(711.523438 0)"/>
      <use xlink:href="#LiberationSans-69" transform="translate(761.523438 0)"/>
      <use xlink:href="#LiberationSans-61" transform="translate(783.740234 0)"/>
     </g>
    </g>
    <g id="line2d_16">
     <path d="M 386.898806 31.475625 
L 397.898806 31.475625 
L 408.898806 31.475625 
" style="fill: none; stroke: #21918c; stroke-width: 2; stroke-linecap: square"/>
    </g>
    <g id="text_8">
     <!-- Rural Eficiente -->
     <g transform="translate(417.698806 35.325625) scale(0.11 -0.11)">
      <use xlink:href="#LiberationSans-52"/>
      <use xlink:href="#LiberationSans-75" transform="translate(72.216797 0)"/>
      <use xlink:href="#LiberationSans-72" transform="translate(127.832031 0)"/>
      <use xlink:href="#LiberationSans-61" transform="translate(161.132812 0)"/>
      <use xlink:href="#LiberationSans-6c" transform="translate(216.748047 0)"/>
      <use xlink:href="#LiberationSans-20" transform="translate(238.964844 0)"/>
      <use xlink:href="#LiberationSans-45" transform="translate(266.748047 0)"/>
      <use xlink:href="#LiberationSans-66" transform="translate(333.447266 0)"/>
      <use xlink:href="#LiberationSans-69" transform="translate(361.230469 0)"/>
      <use xlink:href="#LiberationSans-63" transform="translate(383.447266 0)"/>
      <use xlink:href="#LiberationSans-69" transform="translate(433.447266 0)"/>
      <use xlink:href="#LiberationSans-65" transform="translate(455.664062 0)"/>
      <use xlink:href="#LiberationSans-6e" transform="translate(511.279297 0)"/>
      <use xlink:href="#LiberationSans-74" transform="translate(566.894531 0)"/>
      <use xlink:href="#LiberationSans-65" transform="translate(594.677734 0)"/>
     </g>
    </g>
    <g id="line2d_17">
     <path d="M 386.898806 47.229687 
L 397.898806 47.229687 
L 408.898806 47.229687 
" style="fill: none; stroke: #dce319; stroke-width: 2; stroke-linecap: square"/>
    </g>
    <g id="text_9">
     <!-- Urbano Crítico -->
     <g transform="translate(417.698806 51.079687) scale(0.11 -0.11)">
      <defs>
       <path id="LiberationSans-43" d="M 2475 3981 
Q 2100 3981 1811 3856 
Q 1522 3731 1326 3500 
Q 1131 3269 1031 2944 
Q 931 2619 931 2222 
Q 931 1825 1039 1495 
Q 1147 1166 1348 928 
Q 1550 691 1842 559 
Q 2134 428 2500 428 
Q 2756 428 2967 495 
Q 3178 563 3348 684 
Q 3519 806 3653 973 
Q 3788 1141 3891 1344 
L 4378 1100 
Q 4259 853 4084 640 
Q 3909 428 3673 272 
Q 3438 116 3139 26 
Q 2841 -63 2472 -63 
Q 1938 -63 1536 107 
Q 1134 278 864 583 
Q 594 888 459 1306 
Q 325 1725 325 2222 
Q 325 2738 467 3153 
Q 609 3569 882 3861 
Q 1156 4153 1556 4311 
Q 1956 4469 2469 4469 
Q 3172 4469 3644 4194 
Q 4116 3919 4338 3378 
L 3772 3191 
Q 3709 3347 3603 3489 
Q 3497 3631 3337 3740 
Q 3178 3850 2964 3915 
Q 2750 3981 2475 3981 
z
" transform="scale(0.015625)"/>
      </defs>
      <use xlink:href="#LiberationSans-55"/>
      <use xlink:href="#LiberationSans-72" transform="translate(72.216797 0)"/>
      <use xlink:href="#LiberationSans-62" transform="translate(105.517578 0)"/>
      <use xlink:href="#LiberationSans-61" transform="translate(161.132812 0)"/>
      <use xlink:href="#LiberationSans-6e" transform="translate(216.748047 0)"/>
      <use xlink:href="#LiberationSans-6f" transform="translate(272.363281 0)"/>
      <use xlink:href="#LiberationSans-20" transform="translate(327.978516 0)"/>
      <use xlink:href="#LiberationSans-43" transform="translate(355.761719 0)"/>
      <use xlink:href="#LiberationSans-72" transform="translate(427.978516 0)"/>
      <use xlink:href="#LiberationSans-ed" transform="translate(461.279297 0)"/>
      <use xlink:href="#LiberationSans-74" transform="translate(489.0625 0)"/>
      <use xlink:href="#LiberationSans-69" transform="translate(516.845703 0)"/>
      <use xlink:href="#LiberationSans-63" transform="translate(539.0625 0)"/>
      <use xlink:href="#LiberationSans-6f" transform="translate(589.0625 0)"/>
     </g>
    </g>
   </g>
  </g>
 </g>
 <defs>
  <clipPath id="pfcd3d5a95e">
   <path d="M 397.399063 225.1232 
C 397.399063 201.462179 392.738357 178.031232 383.683677 156.171299 
C 374.628996 134.311366 361.356431 114.447568 344.625562 97.7167 
C 327.894694 80.985832 308.030896 67.713266 286.170963 58.658586 
C 264.311031 49.603905 240.880083 44.9432 217.219063 44.9432 
C 193.558042 44.9432 170.127094 49.603905 148.267162 58.658586 
C 126.407229 67.713266 106.543431 80.985832 89.812563 97.7167 
C 73.081694 114.447568 59.809129 134.311366 50.754448 156.171299 
C 41.699768 178.031232 37.039063 201.462179 37.039063 225.1232 
C 37.039063 248.784221 41.699768 272.215168 50.754448 294.075101 
C 59.809129 315.935034 73.081694 335.798832 89.812563 352.5297 
C 106.543431 369.260568 126.407229 382.533134 148.267162 391.587814 
C 170.127094 400.642495 193.558042 405.3032 217.219063 405.3032 
C 240.880083 405.3032 264.311031 400.642495 286.170963 391.587814 
C 308.030896 382.533134 327.894694 369.260568 344.625562 352.5297 
C 361.356431 335.798832 374.628996 315.935034 383.683677 294.075101 
C 392.738357 272.215168 397.399063 248.784221 397.399063 225.1232 
M 217.219063 225.1232 
C 217.219063 225.1232 217.219063 225.1232 217.219063 225.1232 
C 217.219063 225.1232 217.219063 225.1232 217.219063 225.1232 
C 217.219063 225.1232 217.219063 225.1232 217.219063 225.1232 
C 217.219063 225.1232 217.219063 225.1232 217.219063 225.1232 
C 217.219063 225.1232 217.219063 225.1232 217.219063 225.1232 
C 217.219063 225.1232 217.219063 225.1232 217.219063 225.1232 
C 217.219063 225.1232 217.219063 225.1232 217.219063 225.1232 
C 217.219063 225.1232 217.219063 225.1232 217.219063 225.1232 
C 217.219063 225.1232 217.219063 225.1232 217.219063 225.1232 
C 217.219063 225.1232 217.219063 225.1232 217.219063 225.1232 
C 217.219063 225.1232 217.219063 225.1232 217.219063 225.1232 
C 217.219063 225.1232 217.219063 225.1232 217.219063 225.1232 
C 217.219063 225.1232 217.219063 225.1232 217.219063 225.1232 
C 217.219063 225.1232 217.219063 225.1232 217.219063 225.1232 
C 217.219063 225.1232 217.219063 225.1232 217.219063 225.1232 
C 217.219063 225.1232 217.219063 225.1232 217.219063 225.1232 
z
"/>
  </clipPath>
 </defs>
</svg>
