<?xml version="1.0" encoding="utf-8" standalone="no"?>
<!DOCTYPE svg PUBLIC "-//W3C//DTD SVG 1.1//EN"
  "http://www.w3.org/Graphics/SVG/1.1/DTD/svg11.dtd">
<svg xmlns:xlink="http://www.w3.org/1999/xlink" width="905.78pt" height="276.89175pt" viewBox="0 0 905.78 276.89175" xmlns="http://www.w3.org/2000/svg" version="1.1">
 <metadata>
  <rdf:RDF xmlns:dc="http://purl.org/dc/elements/1.1/" xmlns:cc="http://creativecommons.org/ns#" xmlns:rdf="http://www.w3.org/1999/02/22-rdf-syntax-ns#">
   <cc:Work>
    <dc:type rdf:resource="http://purl.org/dc/dcmitype/StillImage"/>
    <dc:date>2026-06-20T20:53:08.837585</dc:date>
    <dc:format>image/svg+xml</dc:format>
    <dc:creator>
     <cc:Agent>
      <dc:title>Matplotlib v3.10.0, https://matplotlib.org/</dc:title>
     </cc:Agent>
    </dc:creator>
   </cc:Work>
  </rdf:RDF>
 </metadata>
 <defs>
  <style type="text/css">*{stroke-linejoin: round; stroke-linecap: butt}</style>
 </defs>
 <g id="figure_1">
  <g id="patch_1">
   <path d="M 0 276.89175 
L 905.78 276.89175 
L 905.78 0 
L 0 0 
z
" style="fill: #ffffff"/>
  </g>
  <g id="axes_1">
   <g id="patch_2">
    <path d="M 28.1 240.048 
L 152.454286 240.048 
L 152.454286 7.2 
L 28.1 7.2 
z
" style="fill: #ffffff"/>
   </g>
   <g id="matplotlib.axis_1">
    <g id="xtick_1">
     <g id="line2d_1">
      <defs>
       <path id="m1dc6294b23" d="M 0 0 
L 0 3.5 
" style="stroke: #000000; stroke-width: 0.8"/>
      </defs>
      <g>
       <use xlink:href="#m1dc6294b23" x="59.188571" y="240.048" style="stroke: #000000; stroke-width: 0.8"/>
      </g>
     </g>
     <g id="text_1">
      <!-- Retidas -->
      <g transform="translate(42.236228 254.294875) scale(0.1 -0.1)">
       <defs>
        <path id="LiberationSans-52" d="M 3638 0 
L 2494 1828 
L 1122 1828 
L 1122 0 
L 525 0 
L 525 4403 
L 2597 4403 
Q 2972 4403 3261 4317 
Q 3550 4231 3747 4068 
Q 3944 3906 4047 3672 
Q 4150 3438 4150 3144 
Q 4150 2934 4089 2731 
Q 4028 2528 3897 2359 
Q 3766 2191 3562 2069 
Q 3359 1947 3075 1897 
L 4325 0 
L 3638 0 
z
M 3550 3138 
Q 3550 3338 3481 3484 
Q 3413 3631 3281 3729 
Q 3150 3828 2962 3876 
Q 2775 3925 2538 3925 
L 1122 3925 
L 1122 2300 
L 2563 2300 
Q 2819 2300 3006 2364 
Q 3194 2428 3314 2540 
Q 3434 2653 3492 2806 
Q 3550 2959 3550 3138 
z
" transform="scale(0.015625)"/>
        <path id="LiberationSans-65" d="M 863 1572 
Q 863 1306 917 1082 
Q 972 859 1086 698 
Q 1200 538 1378 448 
Q 1556 359 1806 359 
Q 2172 359 2392 506 
Q 2613 653 2691 878 
L 3184 738 
Q 3131 597 3036 455 
Q 2941 313 2781 198 
Q 2622 84 2383 10 
Q 2144 -63 1806 -63 
Q 1056 -63 664 384 
Q 272 831 272 1713 
Q 272 2188 390 2517 
Q 509 2847 715 3053 
Q 922 3259 1197 3351 
Q 1472 3444 1784 3444 
Q 2209 3444 2495 3306 
Q 2781 3169 2954 2926 
Q 3128 2684 3201 2356 
Q 3275 2028 3275 1647 
L 3275 1572 
L 863 1572 
z
M 2694 2003 
Q 2647 2538 2422 2783 
Q 2197 3028 1775 3028 
Q 1634 3028 1479 2983 
Q 1325 2938 1194 2822 
Q 1063 2706 972 2507 
Q 881 2309 869 2003 
L 2694 2003 
z
" transform="scale(0.015625)"/>
        <path id="LiberationSans-74" d="M 1731 25 
Q 1603 -9 1470 -29 
Q 1338 -50 1163 -50 
Q 488 -50 488 716 
L 488 2972 
L 97 2972 
L 97 3381 
L 509 3381 
L 675 4138 
L 1050 4138 
L 1050 3381 
L 1675 3381 
L 1675 2972 
L 1050 2972 
L 1050 838 
Q 1050 594 1129 495 
Q 1209 397 1406 397 
Q 1488 397 1564 409 
Q 1641 422 1731 441 
L 1731 25 
z
" transform="scale(0.015625)"/>
        <path id="LiberationSans-69" d="M 428 4100 
L 428 4638 
L 991 4638 
L 991 4100 
L 428 4100 
z
M 428 0 
L 428 3381 
L 991 3381 
L 991 0 
L 428 0 
z
" transform="scale(0.015625)"/>
        <path id="LiberationSans-64" d="M 2566 544 
Q 2409 219 2151 78 
Q 1894 -63 1513 -63 
Q 872 -63 570 368 
Q 269 800 269 1675 
Q 269 3444 1513 3444 
Q 1897 3444 2153 3303 
Q 2409 3163 2566 2856 
L 2572 2856 
Q 2572 2888 2570 2955 
Q 2569 3022 2567 3095 
Q 2566 3169 2566 3234 
Q 2566 3300 2566 3328 
L 2566 4638 
L 3128 4638 
L 3128 697 
Q 3128 575 3129 462 
Q 3131 350 3134 256 
Q 3138 163 3141 95 
Q 3144 28 3147 0 
L 2609 0 
Q 2603 31 2598 89 
Q 2594 147 2589 222 
Q 2584 297 2581 380 
Q 2578 463 2578 544 
L 2566 544 
z
M 859 1694 
Q 859 1344 903 1094 
Q 947 844 1044 683 
Q 1141 522 1291 447 
Q 1441 372 1656 372 
Q 1878 372 2048 444 
Q 2219 516 2333 677 
Q 2447 838 2506 1097 
Q 2566 1356 2566 1731 
Q 2566 2091 2506 2339 
Q 2447 2588 2331 2741 
Q 2216 2894 2048 2961 
Q 1881 3028 1663 3028 
Q 1456 3028 1306 2956 
Q 1156 2884 1056 2725 
Q 956 2566 907 2311 
Q 859 2056 859 1694 
z
" transform="scale(0.015625)"/>
        <path id="LiberationSans-61" d="M 1294 -63 
Q 784 -63 528 206 
Q 272 475 272 944 
Q 272 1278 398 1492 
Q 525 1706 729 1828 
Q 934 1950 1196 1997 
Q 1459 2044 1731 2050 
L 2491 2063 
L 2491 2247 
Q 2491 2456 2447 2603 
Q 2403 2750 2312 2840 
Q 2222 2931 2086 2973 
Q 1950 3016 1766 3016 
Q 1603 3016 1472 2992 
Q 1341 2969 1244 2908 
Q 1147 2847 1087 2742 
Q 1028 2638 1009 2478 
L 422 2531 
Q 453 2731 540 2898 
Q 628 3066 789 3187 
Q 950 3309 1192 3376 
Q 1434 3444 1778 3444 
Q 2416 3444 2737 3151 
Q 3059 2859 3059 2306 
L 3059 850 
Q 3059 600 3125 473 
Q 3191 347 3375 347 
Q 3422 347 3469 353 
Q 3516 359 3559 369 
L 3559 19 
Q 3453 -6 3348 -18 
Q 3244 -31 3125 -31 
Q 2966 -31 2852 11 
Q 2738 53 2666 139 
Q 2594 225 2556 351 
Q 2519 478 2509 647 
L 2491 647 
Q 2400 484 2292 353 
Q 2184 222 2040 130 
Q 1897 38 1714 -12 
Q 1531 -63 1294 -63 
z
M 1422 359 
Q 1691 359 1892 457 
Q 2094 556 2226 709 
Q 2359 863 2425 1044 
Q 2491 1225 2491 1391 
L 2491 1669 
L 1875 1656 
Q 1669 1653 1483 1626 
Q 1297 1600 1156 1522 
Q 1016 1444 933 1303 
Q 850 1163 850 934 
Q 850 659 998 509 
Q 1147 359 1422 359 
z
" transform="scale(0.015625)"/>
        <path id="LiberationSans-73" d="M 2969 934 
Q 2969 697 2876 511 
Q 2784 325 2609 198 
Q 2434 72 2179 4 
Q 1925 -63 1597 -63 
Q 1303 -63 1067 -17 
Q 831 28 653 128 
Q 475 228 354 392 
Q 234 556 178 794 
L 675 891 
Q 747 619 972 492 
Q 1197 366 1597 366 
Q 1778 366 1929 391 
Q 2081 416 2190 477 
Q 2300 538 2361 639 
Q 2422 741 2422 891 
Q 2422 1044 2350 1142 
Q 2278 1241 2150 1306 
Q 2022 1372 1839 1420 
Q 1656 1469 1438 1528 
Q 1234 1581 1034 1647 
Q 834 1713 673 1820 
Q 513 1928 413 2087 
Q 313 2247 313 2488 
Q 313 2950 642 3192 
Q 972 3434 1603 3434 
Q 2163 3434 2492 3237 
Q 2822 3041 2909 2606 
L 2403 2544 
Q 2375 2675 2300 2764 
Q 2225 2853 2119 2908 
Q 2013 2963 1880 2986 
Q 1747 3009 1603 3009 
Q 1222 3009 1040 2893 
Q 859 2778 859 2544 
Q 859 2406 926 2317 
Q 994 2228 1114 2167 
Q 1234 2106 1403 2061 
Q 1572 2016 1775 1966 
Q 1909 1931 2050 1892 
Q 2191 1853 2323 1798 
Q 2456 1744 2573 1670 
Q 2691 1597 2778 1494 
Q 2866 1391 2917 1253 
Q 2969 1116 2969 934 
z
" transform="scale(0.015625)"/>
       </defs>
       <use xlink:href="#LiberationSans-52"/>
       <use xlink:href="#LiberationSans-65" transform="translate(72.216797 0)"/>
       <use xlink:href="#LiberationSans-74" transform="translate(127.832031 0)"/>
       <use xlink:href="#LiberationSans-69" transform="translate(155.615234 0)"/>
       <use xlink:href="#LiberationSans-64" transform="translate(177.832031 0)"/>
       <use xlink:href="#LiberationSans-61" transform="translate(233.447266 0)"/>
       <use xlink:href="#LiberationSans-73" transform="translate(289.0625 0)"/>
      </g>
     </g>
    </g>
    <g id="xtick_2">
     <g id="line2d_2">
      <g>
       <use xlink:href="#m1dc6294b23" x="121.365714" y="240.048" style="stroke: #000000; stroke-width: 0.8"/>
      </g>
     </g>
     <g id="text_2">
      <!-- Excluídas -->
      <g transform="translate(99.689152 254.294875) scale(0.1 -0.1)">
       <defs>
        <path id="LiberationSans-45" d="M 525 0 
L 525 4403 
L 3866 4403 
L 3866 3916 
L 1122 3916 
L 1122 2503 
L 3678 2503 
L 3678 2022 
L 1122 2022 
L 1122 488 
L 3994 488 
L 3994 0 
L 525 0 
z
" transform="scale(0.015625)"/>
        <path id="LiberationSans-78" d="M 2503 0 
L 1594 1388 
L 678 0 
L 72 0 
L 1275 1738 
L 128 3381 
L 750 3381 
L 1594 2066 
L 2431 3381 
L 3059 3381 
L 1913 1744 
L 3131 0 
L 2503 0 
z
" transform="scale(0.015625)"/>
        <path id="LiberationSans-63" d="M 859 1706 
Q 859 1416 901 1172 
Q 944 928 1044 751 
Q 1144 575 1308 478 
Q 1472 381 1713 381 
Q 2013 381 2214 543 
Q 2416 706 2463 1044 
L 3031 1006 
Q 3003 797 2909 603 
Q 2816 409 2655 262 
Q 2494 116 2262 26 
Q 2031 -63 1728 -63 
Q 1331 -63 1053 71 
Q 775 206 601 442 
Q 428 678 350 998 
Q 272 1319 272 1694 
Q 272 2034 328 2295 
Q 384 2556 486 2751 
Q 588 2947 725 3080 
Q 863 3213 1023 3292 
Q 1184 3372 1362 3408 
Q 1541 3444 1722 3444 
Q 2006 3444 2228 3366 
Q 2450 3288 2611 3152 
Q 2772 3016 2872 2831 
Q 2972 2647 3013 2434 
L 2434 2391 
Q 2391 2672 2212 2837 
Q 2034 3003 1706 3003 
Q 1466 3003 1305 2923 
Q 1144 2844 1044 2683 
Q 944 2522 901 2278 
Q 859 2034 859 1706 
z
" transform="scale(0.015625)"/>
        <path id="LiberationSans-6c" d="M 431 0 
L 431 4638 
L 994 4638 
L 994 0 
L 431 0 
z
" transform="scale(0.015625)"/>
        <path id="LiberationSans-75" d="M 981 3381 
L 981 1238 
Q 981 991 1017 825 
Q 1053 659 1134 557 
Q 1216 456 1348 414 
Q 1481 372 1678 372 
Q 1878 372 2039 442 
Q 2200 513 2314 645 
Q 2428 778 2490 973 
Q 2553 1169 2553 1422 
L 2553 3381 
L 3116 3381 
L 3116 722 
Q 3116 616 3117 498 
Q 3119 381 3122 276 
Q 3125 172 3128 97 
Q 3131 22 3134 0 
L 2603 0 
Q 2600 16 2597 84 
Q 2594 153 2589 242 
Q 2584 331 2581 423 
Q 2578 516 2578 578 
L 2569 578 
Q 2488 431 2391 312 
Q 2294 194 2166 111 
Q 2038 28 1872 -17 
Q 1706 -63 1488 -63 
Q 1206 -63 1003 6 
Q 800 75 669 219 
Q 538 363 477 588 
Q 416 813 416 1128 
L 416 3381 
L 981 3381 
z
" transform="scale(0.015625)"/>
        <path id="LiberationSans-ed" d="M 606 0 
L 606 3381 
L 1169 3381 
L 1169 0 
L 606 0 
z
M 425 3753 
L 425 3816 
L 1103 4713 
L 1750 4713 
L 1750 4622 
L 719 3753 
L 425 3753 
z
" transform="scale(0.015625)"/>
       </defs>
       <use xlink:href="#LiberationSans-45"/>
       <use xlink:href="#LiberationSans-78" transform="translate(66.699219 0)"/>
       <use xlink:href="#LiberationSans-63" transform="translate(116.699219 0)"/>
       <use xlink:href="#LiberationSans-6c" transform="translate(166.699219 0)"/>
       <use xlink:href="#LiberationSans-75" transform="translate(188.916016 0)"/>
       <use xlink:href="#LiberationSans-ed" transform="translate(244.53125 0)"/>
       <use xlink:href="#LiberationSans-64" transform="translate(272.314453 0)"/>
       <use xlink:href="#LiberationSans-61" transform="translate(327.929688 0)"/>
       <use xlink:href="#LiberationSans-73" transform="translate(383.544922 0)"/>
      </g>
     </g>
    </g>
    <g id="text_3">
     <!-- MEDIA_INSE -->
     <g transform="translate(59.991205 267.61675) scale(0.1 -0.1)">
      <defs>
       <path id="LiberationSans-4d" d="M 4269 0 
L 4269 2938 
Q 4269 3097 4272 3262 
Q 4275 3428 4281 3566 
Q 4288 3725 4297 3875 
Q 4253 3716 4206 3559 
Q 4166 3425 4117 3273 
Q 4069 3122 4022 3000 
L 2884 0 
L 2466 0 
L 1313 3000 
Q 1294 3047 1273 3109 
Q 1253 3172 1229 3242 
Q 1206 3313 1182 3386 
Q 1159 3459 1138 3531 
Q 1084 3697 1034 3875 
Q 1038 3700 1044 3528 
Q 1050 3381 1053 3220 
Q 1056 3059 1056 2938 
L 1056 0 
L 525 0 
L 525 4403 
L 1309 4403 
L 2481 1350 
Q 2503 1288 2534 1189 
Q 2566 1091 2594 987 
Q 2622 884 2645 792 
Q 2669 700 2678 650 
Q 2688 700 2713 794 
Q 2738 888 2770 991 
Q 2803 1094 2834 1191 
Q 2866 1288 2891 1350 
L 4041 4403 
L 4806 4403 
L 4806 0 
L 4269 0 
z
" transform="scale(0.015625)"/>
       <path id="LiberationSans-44" d="M 4316 2247 
Q 4316 1697 4150 1276 
Q 3984 856 3696 573 
Q 3409 291 3017 145 
Q 2625 0 2172 0 
L 525 0 
L 525 4403 
L 1981 4403 
Q 2491 4403 2920 4276 
Q 3350 4150 3659 3886 
Q 3969 3622 4142 3215 
Q 4316 2809 4316 2247 
z
M 3716 2247 
Q 3716 2694 3587 3011 
Q 3459 3328 3228 3531 
Q 2997 3734 2675 3829 
Q 2353 3925 1969 3925 
L 1122 3925 
L 1122 478 
L 2103 478 
Q 2450 478 2745 590 
Q 3041 703 3256 925 
Q 3472 1147 3594 1478 
Q 3716 1809 3716 2247 
z
" transform="scale(0.015625)"/>
       <path id="LiberationSans-49" d="M 591 0 
L 591 4403 
L 1188 4403 
L 1188 0 
L 591 0 
z
" transform="scale(0.015625)"/>
       <path id="LiberationSans-41" d="M 3647 0 
L 3144 1288 
L 1138 1288 
L 631 0 
L 13 0 
L 1809 4403 
L 2488 4403 
L 4256 0 
L 3647 0 
z
M 2400 3206 
Q 2350 3331 2304 3459 
Q 2259 3588 2225 3692 
Q 2191 3797 2167 3867 
Q 2144 3938 2141 3953 
Q 2134 3938 2112 3866 
Q 2091 3794 2055 3687 
Q 2019 3581 1973 3453 
Q 1928 3325 1881 3200 
L 1319 1753 
L 2966 1753 
L 2400 3206 
z
" transform="scale(0.015625)"/>
       <path id="LiberationSans-5f" d="M -97 -1272 
L -97 -866 
L 3631 -866 
L 3631 -1272 
L -97 -1272 
z
" transform="scale(0.015625)"/>
       <path id="LiberationSans-4e" d="M 3381 0 
L 1025 3750 
Q 1031 3597 1041 3447 
Q 1047 3319 1051 3176 
Q 1056 3034 1056 2925 
L 1056 0 
L 525 0 
L 525 4403 
L 1219 4403 
L 3600 628 
Q 3591 781 3581 934 
Q 3575 1066 3569 1220 
Q 3563 1375 3563 1516 
L 3563 4403 
L 4100 4403 
L 4100 0 
L 3381 0 
z
" transform="scale(0.015625)"/>
       <path id="LiberationSans-53" d="M 3975 1216 
Q 3975 938 3867 703 
Q 3759 469 3534 298 
Q 3309 128 2967 32 
Q 2625 -63 2156 -63 
Q 1334 -63 875 225 
Q 416 513 291 1056 
L 869 1172 
Q 913 1000 1003 859 
Q 1094 719 1248 617 
Q 1403 516 1631 459 
Q 1859 403 2178 403 
Q 2444 403 2666 448 
Q 2888 494 3047 587 
Q 3206 681 3295 829 
Q 3384 978 3384 1184 
Q 3384 1400 3286 1534 
Q 3188 1669 3009 1756 
Q 2831 1844 2584 1903 
Q 2338 1963 2038 2031 
Q 1853 2072 1667 2120 
Q 1481 2169 1311 2236 
Q 1141 2303 991 2393 
Q 841 2484 731 2611 
Q 622 2738 559 2905 
Q 497 3072 497 3291 
Q 497 3603 623 3826 
Q 750 4050 975 4194 
Q 1200 4338 1506 4403 
Q 1813 4469 2169 4469 
Q 2578 4469 2868 4405 
Q 3159 4341 3359 4212 
Q 3559 4084 3679 3895 
Q 3800 3706 3872 3456 
L 3284 3353 
Q 3241 3513 3158 3638 
Q 3075 3763 2940 3847 
Q 2806 3931 2614 3975 
Q 2422 4019 2163 4019 
Q 1856 4019 1648 3964 
Q 1441 3909 1314 3815 
Q 1188 3722 1133 3595 
Q 1078 3469 1078 3322 
Q 1078 3125 1176 2998 
Q 1275 2872 1444 2787 
Q 1613 2703 1834 2647 
Q 2056 2591 2306 2534 
Q 2509 2488 2711 2439 
Q 2913 2391 3097 2323 
Q 3281 2256 3442 2165 
Q 3603 2075 3722 1944 
Q 3841 1813 3908 1634 
Q 3975 1456 3975 1216 
z
" transform="scale(0.015625)"/>
      </defs>
      <use xlink:href="#LiberationSans-4d"/>
      <use xlink:href="#LiberationSans-45" transform="translate(83.300781 0)"/>
      <use xlink:href="#LiberationSans-44" transform="translate(150 0)"/>
      <use xlink:href="#LiberationSans-49" transform="translate(222.216797 0)"/>
      <use xlink:href="#LiberationSans-41" transform="translate(250 0)"/>
      <use xlink:href="#LiberationSans-5f" transform="translate(316.699219 0)"/>
      <use xlink:href="#LiberationSans-49" transform="translate(372.314453 0)"/>
      <use xlink:href="#LiberationSans-4e" transform="translate(400.097656 0)"/>
      <use xlink:href="#LiberationSans-53" transform="translate(472.314453 0)"/>
      <use xlink:href="#LiberationSans-45" transform="translate(539.013672 0)"/>
     </g>
    </g>
   </g>
   <g id="matplotlib.axis_2">
    <g id="ytick_1">
     <g id="line2d_3">
      <defs>
       <path id="mbabe4c5c86" d="M 0 0 
L -3.5 0 
" style="stroke: #000000; stroke-width: 0.8"/>
      </defs>
      <g>
       <use xlink:href="#mbabe4c5c86" x="28.1" y="224.689263" style="stroke: #000000; stroke-width: 0.8"/>
      </g>
     </g>
     <g id="text_4">
      <!-- 4.6 -->
      <g transform="translate(7.2 228.312701) scale(0.1 -0.1)">
       <defs>
        <path id="LiberationSans-34" d="M 2753 997 
L 2753 0 
L 2222 0 
L 2222 997 
L 147 997 
L 147 1434 
L 2163 4403 
L 2753 4403 
L 2753 1441 
L 3372 1441 
L 3372 997 
L 2753 997 
z
M 2222 3769 
Q 2216 3753 2191 3708 
Q 2166 3663 2134 3606 
Q 2103 3550 2070 3492 
Q 2038 3434 2013 3397 
L 884 1734 
Q 869 1709 839 1668 
Q 809 1628 778 1586 
Q 747 1544 715 1503 
Q 684 1463 666 1441 
L 2222 1441 
L 2222 3769 
z
" transform="scale(0.015625)"/>
        <path id="LiberationSans-2e" d="M 584 0 
L 584 684 
L 1194 684 
L 1194 0 
L 584 0 
z
" transform="scale(0.015625)"/>
        <path id="LiberationSans-36" d="M 3278 1441 
Q 3278 1109 3186 832 
Q 3094 556 2914 357 
Q 2734 159 2468 48 
Q 2203 -63 1856 -63 
Q 1472 -63 1184 84 
Q 897 231 706 507 
Q 516 784 420 1186 
Q 325 1588 325 2100 
Q 325 2688 433 3131 
Q 541 3575 744 3872 
Q 947 4169 1239 4319 
Q 1531 4469 1900 4469 
Q 2125 4469 2322 4422 
Q 2519 4375 2680 4270 
Q 2841 4166 2962 3994 
Q 3084 3822 3156 3572 
L 2619 3475 
Q 2531 3759 2339 3886 
Q 2147 4013 1894 4013 
Q 1663 4013 1475 3903 
Q 1288 3794 1156 3576 
Q 1025 3359 954 3031 
Q 884 2703 884 2266 
Q 1038 2550 1316 2698 
Q 1594 2847 1953 2847 
Q 2253 2847 2497 2750 
Q 2741 2653 2914 2470 
Q 3088 2288 3183 2027 
Q 3278 1766 3278 1441 
z
M 2706 1416 
Q 2706 1644 2650 1828 
Q 2594 2013 2481 2142 
Q 2369 2272 2203 2342 
Q 2038 2413 1819 2413 
Q 1666 2413 1509 2367 
Q 1353 2322 1226 2220 
Q 1100 2119 1020 1953 
Q 941 1788 941 1550 
Q 941 1306 1003 1095 
Q 1066 884 1183 728 
Q 1300 572 1465 481 
Q 1631 391 1838 391 
Q 2041 391 2202 461 
Q 2363 531 2475 664 
Q 2588 797 2647 987 
Q 2706 1178 2706 1416 
z
" transform="scale(0.015625)"/>
       </defs>
       <use xlink:href="#LiberationSans-34"/>
       <use xlink:href="#LiberationSans-2e" transform="translate(55.615234 0)"/>
       <use xlink:href="#LiberationSans-36" transform="translate(83.398438 0)"/>
      </g>
     </g>
    </g>
    <g id="ytick_2">
     <g id="line2d_4">
      <g>
       <use xlink:href="#mbabe4c5c86" x="28.1" y="192.857684" style="stroke: #000000; stroke-width: 0.8"/>
      </g>
     </g>
     <g id="text_5">
      <!-- 4.8 -->
      <g transform="translate(7.2 196.481122) scale(0.1 -0.1)">
       <defs>
        <path id="LiberationSans-38" d="M 3281 1228 
Q 3281 947 3192 711 
Q 3103 475 2920 303 
Q 2738 131 2453 34 
Q 2169 -63 1781 -63 
Q 1394 -63 1111 34 
Q 828 131 642 301 
Q 456 472 367 708 
Q 278 944 278 1222 
Q 278 1463 351 1650 
Q 425 1838 548 1973 
Q 672 2109 830 2192 
Q 988 2275 1156 2303 
L 1156 2316 
Q 972 2359 826 2456 
Q 681 2553 582 2689 
Q 484 2825 432 2990 
Q 381 3156 381 3341 
Q 381 3572 470 3776 
Q 559 3981 734 4136 
Q 909 4291 1168 4380 
Q 1428 4469 1769 4469 
Q 2128 4469 2392 4378 
Q 2656 4288 2829 4133 
Q 3003 3978 3087 3772 
Q 3172 3566 3172 3334 
Q 3172 3153 3120 2987 
Q 3069 2822 2970 2686 
Q 2872 2550 2726 2454 
Q 2581 2359 2391 2322 
L 2391 2309 
Q 2581 2278 2743 2195 
Q 2906 2113 3025 1977 
Q 3144 1841 3212 1653 
Q 3281 1466 3281 1228 
z
M 2588 3303 
Q 2588 3469 2545 3606 
Q 2503 3744 2406 3842 
Q 2309 3941 2153 3995 
Q 1997 4050 1769 4050 
Q 1547 4050 1394 3995 
Q 1241 3941 1142 3842 
Q 1044 3744 1000 3606 
Q 956 3469 956 3303 
Q 956 3172 990 3034 
Q 1025 2897 1115 2784 
Q 1206 2672 1365 2600 
Q 1525 2528 1775 2528 
Q 2041 2528 2202 2600 
Q 2363 2672 2448 2784 
Q 2534 2897 2561 3034 
Q 2588 3172 2588 3303 
z
M 2697 1281 
Q 2697 1441 2653 1589 
Q 2609 1738 2503 1852 
Q 2397 1966 2217 2036 
Q 2038 2106 1769 2106 
Q 1522 2106 1348 2036 
Q 1175 1966 1067 1850 
Q 959 1734 909 1582 
Q 859 1431 859 1269 
Q 859 1066 909 898 
Q 959 731 1068 611 
Q 1178 491 1356 425 
Q 1534 359 1788 359 
Q 2044 359 2219 425 
Q 2394 491 2500 611 
Q 2606 731 2651 901 
Q 2697 1072 2697 1281 
z
" transform="scale(0.015625)"/>
       </defs>
       <use xlink:href="#LiberationSans-34"/>
       <use xlink:href="#LiberationSans-2e" transform="translate(55.615234 0)"/>
       <use xlink:href="#LiberationSans-38" transform="translate(83.398438 0)"/>
      </g>
     </g>
    </g>
    <g id="ytick_3">
     <g id="line2d_5">
      <g>
       <use xlink:href="#mbabe4c5c86" x="28.1" y="161.026105" style="stroke: #000000; stroke-width: 0.8"/>
      </g>
     </g>
     <g id="text_6">
      <!-- 5.0 -->
      <g transform="translate(7.2 164.649543) scale(0.1 -0.1)">
       <defs>
        <path id="LiberationSans-35" d="M 3291 1434 
Q 3291 1103 3191 828 
Q 3091 553 2894 354 
Q 2697 156 2405 46 
Q 2113 -63 1728 -63 
Q 1381 -63 1123 18 
Q 866 100 687 242 
Q 509 384 404 575 
Q 300 766 256 984 
L 825 1050 
Q 859 925 921 808 
Q 984 691 1092 598 
Q 1200 506 1358 451 
Q 1516 397 1741 397 
Q 1959 397 2137 464 
Q 2316 531 2442 662 
Q 2569 794 2637 984 
Q 2706 1175 2706 1422 
Q 2706 1625 2640 1795 
Q 2575 1966 2453 2089 
Q 2331 2213 2154 2281 
Q 1978 2350 1753 2350 
Q 1613 2350 1494 2325 
Q 1375 2300 1273 2256 
Q 1172 2213 1089 2155 
Q 1006 2097 934 2034 
L 384 2034 
L 531 4403 
L 3034 4403 
L 3034 3925 
L 1044 3925 
L 959 2528 
Q 1109 2644 1334 2726 
Q 1559 2809 1869 2809 
Q 2197 2809 2459 2709 
Q 2722 2609 2906 2426 
Q 3091 2244 3191 1991 
Q 3291 1738 3291 1434 
z
" transform="scale(0.015625)"/>
        <path id="LiberationSans-30" d="M 3309 2203 
Q 3309 1569 3189 1136 
Q 3069 703 2861 436 
Q 2653 169 2372 53 
Q 2091 -63 1772 -63 
Q 1450 -63 1172 53 
Q 894 169 689 434 
Q 484 700 367 1133 
Q 250 1566 250 2203 
Q 250 2869 367 3305 
Q 484 3741 690 4000 
Q 897 4259 1178 4364 
Q 1459 4469 1791 4469 
Q 2106 4469 2382 4364 
Q 2659 4259 2865 4000 
Q 3072 3741 3190 3305 
Q 3309 2869 3309 2203 
z
M 2738 2203 
Q 2738 2728 2675 3076 
Q 2613 3425 2491 3633 
Q 2369 3841 2192 3927 
Q 2016 4013 1791 4013 
Q 1553 4013 1372 3925 
Q 1191 3838 1067 3630 
Q 944 3422 881 3073 
Q 819 2725 819 2203 
Q 819 1697 883 1350 
Q 947 1003 1070 792 
Q 1194 581 1372 489 
Q 1550 397 1778 397 
Q 2000 397 2178 489 
Q 2356 581 2479 792 
Q 2603 1003 2670 1350 
Q 2738 1697 2738 2203 
z
" transform="scale(0.015625)"/>
       </defs>
       <use xlink:href="#LiberationSans-35"/>
       <use xlink:href="#LiberationSans-2e" transform="translate(55.615234 0)"/>
       <use xlink:href="#LiberationSans-30" transform="translate(83.398438 0)"/>
      </g>
     </g>
    </g>
    <g id="ytick_4">
     <g id="line2d_6">
      <g>
       <use xlink:href="#mbabe4c5c86" x="28.1" y="129.194526" style="stroke: #000000; stroke-width: 0.8"/>
      </g>
     </g>
     <g id="text_7">
      <!-- 5.2 -->
      <g transform="translate(7.2 132.817964) scale(0.1 -0.1)">
       <defs>
        <path id="LiberationSans-32" d="M 322 0 
L 322 397 
Q 481 763 711 1042 
Q 941 1322 1194 1548 
Q 1447 1775 1695 1969 
Q 1944 2163 2144 2356 
Q 2344 2550 2467 2762 
Q 2591 2975 2591 3244 
Q 2591 3431 2534 3573 
Q 2478 3716 2372 3812 
Q 2266 3909 2117 3957 
Q 1969 4006 1788 4006 
Q 1619 4006 1470 3959 
Q 1322 3913 1206 3819 
Q 1091 3725 1017 3586 
Q 944 3447 922 3263 
L 347 3316 
Q 375 3553 478 3762 
Q 581 3972 762 4130 
Q 944 4288 1198 4378 
Q 1453 4469 1788 4469 
Q 2116 4469 2372 4391 
Q 2628 4313 2804 4159 
Q 2981 4006 3075 3781 
Q 3169 3556 3169 3263 
Q 3169 3041 3089 2841 
Q 3009 2641 2876 2459 
Q 2744 2278 2569 2109 
Q 2394 1941 2203 1780 
Q 2013 1619 1819 1461 
Q 1625 1303 1454 1143 
Q 1284 984 1150 820 
Q 1016 656 941 478 
L 3238 478 
L 3238 0 
L 322 0 
z
" transform="scale(0.015625)"/>
       </defs>
       <use xlink:href="#LiberationSans-35"/>
       <use xlink:href="#LiberationSans-2e" transform="translate(55.615234 0)"/>
       <use xlink:href="#LiberationSans-32" transform="translate(83.398438 0)"/>
      </g>
     </g>
    </g>
    <g id="ytick_5">
     <g id="line2d_7">
      <g>
       <use xlink:href="#mbabe4c5c86" x="28.1" y="97.362947" style="stroke: #000000; stroke-width: 0.8"/>
      </g>
     </g>
     <g id="text_8">
      <!-- 5.4 -->
      <g transform="translate(7.2 100.986385) scale(0.1 -0.1)">
       <use xlink:href="#LiberationSans-35"/>
       <use xlink:href="#LiberationSans-2e" transform="translate(55.615234 0)"/>
       <use xlink:href="#LiberationSans-34" transform="translate(83.398438 0)"/>
      </g>
     </g>
    </g>
    <g id="ytick_6">
     <g id="line2d_8">
      <g>
       <use xlink:href="#mbabe4c5c86" x="28.1" y="65.531368" style="stroke: #000000; stroke-width: 0.8"/>
      </g>
     </g>
     <g id="text_9">
      <!-- 5.6 -->
      <g transform="translate(7.2 69.154806) scale(0.1 -0.1)">
       <use xlink:href="#LiberationSans-35"/>
       <use xlink:href="#LiberationSans-2e" transform="translate(55.615234 0)"/>
       <use xlink:href="#LiberationSans-36" transform="translate(83.398438 0)"/>
      </g>
     </g>
    </g>
    <g id="ytick_7">
     <g id="line2d_9">
      <g>
       <use xlink:href="#mbabe4c5c86" x="28.1" y="33.699789" style="stroke: #000000; stroke-width: 0.8"/>
      </g>
     </g>
     <g id="text_10">
      <!-- 5.8 -->
      <g transform="translate(7.2 37.323227) scale(0.1 -0.1)">
       <use xlink:href="#LiberationSans-35"/>
       <use xlink:href="#LiberationSans-2e" transform="translate(55.615234 0)"/>
       <use xlink:href="#LiberationSans-38" transform="translate(83.398438 0)"/>
      </g>
     </g>
    </g>
   </g>
   <g id="patch_3">
    <path d="M 40.535429 143.518737 
L 77.841714 143.518737 
L 77.841714 92.588211 
L 40.535429 92.588211 
L 40.535429 143.518737 
z
" clip-path="url(#p7e6786a782)" style="fill: #440154; opacity: 0.65; stroke: #000000; stroke-linejoin: miter"/>
   </g>
   <g id="line2d_10">
    <path d="M 59.188571 143.518737 
L 59.188571 218.322947 
" clip-path="url(#p7e6786a782)" style="fill: none; stroke: #000000; stroke-linecap: square"/>
   </g>
   <g id="line2d_11">
    <path d="M 59.188571 92.588211 
L 59.188571 17.784 
" clip-path="url(#p7e6786a782)" style="fill: none; stroke: #000000; stroke-linecap: square"/>
   </g>
   <g id="line2d_12">
    <path d="M 49.862 218.322947 
L 68.515143 218.322947 
" clip-path="url(#p7e6786a782)" style="fill: none; stroke: #000000; stroke-linecap: square"/>
   </g>
   <g id="line2d_13">
    <path d="M 49.862 17.784 
L 68.515143 17.784 
" clip-path="url(#p7e6786a782)" style="fill: none; stroke: #000000; stroke-linecap: square"/>
   </g>
   <g id="patch_4">
    <path d="M 102.712571 161.026105 
L 140.018857 161.026105 
L 140.018857 114.074526 
L 102.712571 114.074526 
L 102.712571 161.026105 
z
" clip-path="url(#p7e6786a782)" style="fill: #21918c; opacity: 0.65; stroke: #000000; stroke-linejoin: miter"/>
   </g>
   <g id="line2d_14">
    <path d="M 121.365714 161.026105 
L 121.365714 229.464 
" clip-path="url(#p7e6786a782)" style="fill: none; stroke: #000000; stroke-linecap: square"/>
   </g>
   <g id="line2d_15">
    <path d="M 121.365714 114.074526 
L 121.365714 48.024 
" clip-path="url(#p7e6786a782)" style="fill: none; stroke: #000000; stroke-linecap: square"/>
   </g>
   <g id="line2d_16">
    <path d="M 112.039143 229.464 
L 130.692286 229.464 
" clip-path="url(#p7e6786a782)" style="fill: none; stroke: #000000; stroke-linecap: square"/>
   </g>
   <g id="line2d_17">
    <path d="M 112.039143 48.024 
L 130.692286 48.024 
" clip-path="url(#p7e6786a782)" style="fill: none; stroke: #000000; stroke-linecap: square"/>
   </g>
   <g id="line2d_18">
    <path d="M 40.535429 119.645053 
L 77.841714 119.645053 
" clip-path="url(#p7e6786a782)" style="fill: none; stroke: #000000"/>
   </g>
   <g id="line2d_19">
    <path d="M 102.712571 138.744 
L 140.018857 138.744 
" clip-path="url(#p7e6786a782)" style="fill: none; stroke: #000000"/>
   </g>
   <g id="patch_5">
    <path d="M 28.1 240.048 
L 28.1 7.2 
" style="fill: none; stroke: #000000; stroke-width: 1.5; stroke-linejoin: miter; stroke-linecap: square"/>
   </g>
   <g id="patch_6">
    <path d="M 28.1 240.048 
L 152.454286 240.048 
" style="fill: none; stroke: #000000; stroke-width: 1.5; stroke-linejoin: miter; stroke-linecap: square"/>
   </g>
   <g id="text_11">
    <!-- A -->
    <g transform="translate(30.587086 20.55321) scale(0.12 -0.12)">
     <defs>
      <path id="LiberationSans-Bold-41" d="M 3541 0 
L 3150 1125 
L 1472 1125 
L 1081 0 
L 159 0 
L 1766 4403 
L 2853 4403 
L 4453 0 
L 3541 0 
z
M 2509 3084 
Q 2472 3194 2436 3305 
Q 2400 3416 2373 3508 
Q 2347 3600 2330 3659 
Q 2313 3719 2309 3725 
Q 2306 3716 2290 3656 
Q 2275 3597 2248 3506 
Q 2222 3416 2186 3305 
Q 2150 3194 2113 3084 
L 1678 1819 
L 2944 1819 
L 2509 3084 
z
" transform="scale(0.015625)"/>
     </defs>
     <use xlink:href="#LiberationSans-Bold-41"/>
    </g>
   </g>
  </g>
  <g id="axes_2">
   <g id="patch_7">
    <path d="M 177.325143 240.048 
L 301.679429 240.048 
L 301.679429 7.2 
L 177.325143 7.2 
z
" style="fill: #ffffff"/>
   </g>
   <g id="matplotlib.axis_3">
    <g id="xtick_3">
     <g id="line2d_20">
      <g>
       <use xlink:href="#m1dc6294b23" x="208.413714" y="240.048" style="stroke: #000000; stroke-width: 0.8"/>
      </g>
     </g>
     <g id="text_12">
      <!-- Retidas -->
      <g transform="translate(191.461371 254.294875) scale(0.1 -0.1)">
       <use xlink:href="#LiberationSans-52"/>
       <use xlink:href="#LiberationSans-65" transform="translate(72.216797 0)"/>
       <use xlink:href="#LiberationSans-74" transform="translate(127.832031 0)"/>
       <use xlink:href="#LiberationSans-69" transform="translate(155.615234 0)"/>
       <use xlink:href="#LiberationSans-64" transform="translate(177.832031 0)"/>
       <use xlink:href="#LiberationSans-61" transform="translate(233.447266 0)"/>
       <use xlink:href="#LiberationSans-73" transform="translate(289.0625 0)"/>
      </g>
     </g>
    </g>
    <g id="xtick_4">
     <g id="line2d_21">
      <g>
       <use xlink:href="#m1dc6294b23" x="270.590857" y="240.048" style="stroke: #000000; stroke-width: 0.8"/>
      </g>
     </g>
     <g id="text_13">
      <!-- Excluídas -->
      <g transform="translate(248.914295 254.294875) scale(0.1 -0.1)">
       <use xlink:href="#LiberationSans-45"/>
       <use xlink:href="#LiberationSans-78" transform="translate(66.699219 0)"/>
       <use xlink:href="#LiberationSans-63" transform="translate(116.699219 0)"/>
       <use xlink:href="#LiberationSans-6c" transform="translate(166.699219 0)"/>
       <use xlink:href="#LiberationSans-75" transform="translate(188.916016 0)"/>
       <use xlink:href="#LiberationSans-ed" transform="translate(244.53125 0)"/>
       <use xlink:href="#LiberationSans-64" transform="translate(272.314453 0)"/>
       <use xlink:href="#LiberationSans-61" transform="translate(327.929688 0)"/>
       <use xlink:href="#LiberationSans-73" transform="translate(383.544922 0)"/>
      </g>
     </g>
    </g>
    <g id="text_14">
     <!-- QT_MAT_FUND_AF -->
     <g transform="translate(193.756973 267.61675) scale(0.1 -0.1)">
      <defs>
       <path id="LiberationSans-51" d="M 4672 2222 
Q 4672 1756 4551 1370 
Q 4431 984 4204 693 
Q 3978 403 3648 220 
Q 3319 38 2900 -19 
Q 2966 -219 3048 -359 
Q 3131 -500 3237 -589 
Q 3344 -678 3473 -720 
Q 3603 -763 3763 -763 
Q 3850 -763 3950 -750 
Q 4050 -738 4122 -722 
L 4122 -1141 
Q 4003 -1169 3861 -1189 
Q 3719 -1209 3566 -1209 
Q 3297 -1209 3097 -1129 
Q 2897 -1050 2745 -901 
Q 2594 -753 2484 -537 
Q 2375 -322 2291 -50 
Q 1797 -25 1423 154 
Q 1050 334 801 636 
Q 553 938 428 1342 
Q 303 1747 303 2222 
Q 303 2738 447 3153 
Q 591 3569 869 3861 
Q 1147 4153 1555 4311 
Q 1963 4469 2491 4469 
Q 3016 4469 3423 4309 
Q 3831 4150 4107 3856 
Q 4384 3563 4528 3147 
Q 4672 2731 4672 2222 
z
M 4063 2222 
Q 4063 2619 3961 2944 
Q 3859 3269 3661 3500 
Q 3463 3731 3169 3856 
Q 2875 3981 2491 3981 
Q 2097 3981 1800 3856 
Q 1503 3731 1304 3500 
Q 1106 3269 1007 2944 
Q 909 2619 909 2222 
Q 909 1825 1011 1495 
Q 1113 1166 1311 927 
Q 1509 688 1804 555 
Q 2100 422 2484 422 
Q 2897 422 3195 556 
Q 3494 691 3686 930 
Q 3878 1169 3970 1500 
Q 4063 1831 4063 2222 
z
" transform="scale(0.015625)"/>
       <path id="LiberationSans-54" d="M 2250 3916 
L 2250 0 
L 1656 0 
L 1656 3916 
L 144 3916 
L 144 4403 
L 3763 4403 
L 3763 3916 
L 2250 3916 
z
" transform="scale(0.015625)"/>
       <path id="LiberationSans-46" d="M 1122 3916 
L 1122 2278 
L 3578 2278 
L 3578 1784 
L 1122 1784 
L 1122 0 
L 525 0 
L 525 4403 
L 3653 4403 
L 3653 3916 
L 1122 3916 
z
" transform="scale(0.015625)"/>
       <path id="LiberationSans-55" d="M 2284 -63 
Q 1922 -63 1597 34 
Q 1272 131 1026 336 
Q 781 541 637 855 
Q 494 1169 494 1600 
L 494 4403 
L 1091 4403 
L 1091 1650 
Q 1091 1316 1180 1083 
Q 1269 850 1428 703 
Q 1588 556 1805 489 
Q 2022 422 2281 422 
Q 2538 422 2766 490 
Q 2994 559 3166 709 
Q 3338 859 3436 1101 
Q 3534 1344 3534 1691 
L 3534 4403 
L 4128 4403 
L 4128 1656 
Q 4128 1216 3983 892 
Q 3838 569 3588 356 
Q 3338 144 3002 40 
Q 2666 -63 2284 -63 
z
" transform="scale(0.015625)"/>
      </defs>
      <use xlink:href="#LiberationSans-51"/>
      <use xlink:href="#LiberationSans-54" transform="translate(77.783203 0)"/>
      <use xlink:href="#LiberationSans-5f" transform="translate(138.867188 0)"/>
      <use xlink:href="#LiberationSans-4d" transform="translate(194.482422 0)"/>
      <use xlink:href="#LiberationSans-41" transform="translate(277.783203 0)"/>
      <use xlink:href="#LiberationSans-54" transform="translate(337.107422 0)"/>
      <use xlink:href="#LiberationSans-5f" transform="translate(398.191406 0)"/>
      <use xlink:href="#LiberationSans-46" transform="translate(453.806641 0)"/>
      <use xlink:href="#LiberationSans-55" transform="translate(514.890625 0)"/>
      <use xlink:href="#LiberationSans-4e" transform="translate(587.107422 0)"/>
      <use xlink:href="#LiberationSans-44" transform="translate(659.324219 0)"/>
      <use xlink:href="#LiberationSans-5f" transform="translate(731.541016 0)"/>
      <use xlink:href="#LiberationSans-41" transform="translate(787.15625 0)"/>
      <use xlink:href="#LiberationSans-46" transform="translate(853.855469 0)"/>
     </g>
    </g>
   </g>
   <g id="matplotlib.axis_4">
    <g id="ytick_8">
     <g id="line2d_22">
      <g>
       <use xlink:href="#mbabe4c5c86" x="177.325143" y="229.705093" style="stroke: #000000; stroke-width: 0.8"/>
      </g>
     </g>
     <g id="text_15">
      <!-- 0 -->
      <g transform="translate(164.764205 233.328531) scale(0.1 -0.1)">
       <use xlink:href="#LiberationSans-30"/>
      </g>
     </g>
    </g>
    <g id="ytick_9">
     <g id="line2d_23">
      <g>
       <use xlink:href="#mbabe4c5c86" x="177.325143" y="181.486415" style="stroke: #000000; stroke-width: 0.8"/>
      </g>
     </g>
     <g id="text_16">
      <!-- 200 -->
      <g transform="translate(153.64233 185.109852) scale(0.1 -0.1)">
       <use xlink:href="#LiberationSans-32"/>
       <use xlink:href="#LiberationSans-30" transform="translate(55.615234 0)"/>
       <use xlink:href="#LiberationSans-30" transform="translate(111.230469 0)"/>
      </g>
     </g>
    </g>
    <g id="ytick_10">
     <g id="line2d_24">
      <g>
       <use xlink:href="#mbabe4c5c86" x="177.325143" y="133.267736" style="stroke: #000000; stroke-width: 0.8"/>
      </g>
     </g>
     <g id="text_17">
      <!-- 400 -->
      <g transform="translate(153.64233 136.891173) scale(0.1 -0.1)">
       <use xlink:href="#LiberationSans-34"/>
       <use xlink:href="#LiberationSans-30" transform="translate(55.615234 0)"/>
       <use xlink:href="#LiberationSans-30" transform="translate(111.230469 0)"/>
      </g>
     </g>
    </g>
    <g id="ytick_11">
     <g id="line2d_25">
      <g>
       <use xlink:href="#mbabe4c5c86" x="177.325143" y="85.049057" style="stroke: #000000; stroke-width: 0.8"/>
      </g>
     </g>
     <g id="text_18">
      <!-- 600 -->
      <g transform="translate(153.64233 88.672494) scale(0.1 -0.1)">
       <use xlink:href="#LiberationSans-36"/>
       <use xlink:href="#LiberationSans-30" transform="translate(55.615234 0)"/>
       <use xlink:href="#LiberationSans-30" transform="translate(111.230469 0)"/>
      </g>
     </g>
    </g>
    <g id="ytick_12">
     <g id="line2d_26">
      <g>
       <use xlink:href="#mbabe4c5c86" x="177.325143" y="36.830378" style="stroke: #000000; stroke-width: 0.8"/>
      </g>
     </g>
     <g id="text_19">
      <!-- 800 -->
      <g transform="translate(153.64233 40.453816) scale(0.1 -0.1)">
       <use xlink:href="#LiberationSans-38"/>
       <use xlink:href="#LiberationSans-30" transform="translate(55.615234 0)"/>
       <use xlink:href="#LiberationSans-30" transform="translate(111.230469 0)"/>
      </g>
     </g>
    </g>
   </g>
   <g id="patch_8">
    <path d="M 189.760571 171.842679 
L 227.066857 171.842679 
L 227.066857 120.971973 
L 189.760571 120.971973 
L 189.760571 171.842679 
z
" clip-path="url(#p790249e2ff)" style="fill: #440154; opacity: 0.65; stroke: #000000; stroke-linejoin: miter"/>
   </g>
   <g id="line2d_27">
    <path d="M 208.413714 171.842679 
L 208.413714 223.436665 
" clip-path="url(#p790249e2ff)" style="fill: none; stroke: #000000; stroke-linecap: square"/>
   </g>
   <g id="line2d_28">
    <path d="M 208.413714 120.971973 
L 208.413714 44.78646 
" clip-path="url(#p790249e2ff)" style="fill: none; stroke: #000000; stroke-linecap: square"/>
   </g>
   <g id="line2d_29">
    <path d="M 199.087143 223.436665 
L 217.740286 223.436665 
" clip-path="url(#p790249e2ff)" style="fill: none; stroke: #000000; stroke-linecap: square"/>
   </g>
   <g id="line2d_30">
    <path d="M 199.087143 44.78646 
L 217.740286 44.78646 
" clip-path="url(#p790249e2ff)" style="fill: none; stroke: #000000; stroke-linecap: square"/>
   </g>
   <g id="patch_9">
    <path d="M 251.937714 224.159945 
L 289.244 224.159945 
L 289.244 141.464911 
L 251.937714 141.464911 
L 251.937714 224.159945 
z
" clip-path="url(#p790249e2ff)" style="fill: #21918c; opacity: 0.65; stroke: #000000; stroke-linejoin: miter"/>
   </g>
   <g id="line2d_31">
    <path d="M 270.590857 224.159945 
L 270.590857 229.464 
" clip-path="url(#p790249e2ff)" style="fill: none; stroke: #000000; stroke-linecap: square"/>
   </g>
   <g id="line2d_32">
    <path d="M 270.590857 141.464911 
L 270.590857 17.784 
" clip-path="url(#p790249e2ff)" style="fill: none; stroke: #000000; stroke-linecap: square"/>
   </g>
   <g id="line2d_33">
    <path d="M 261.264286 229.464 
L 279.917429 229.464 
" clip-path="url(#p790249e2ff)" style="fill: none; stroke: #000000; stroke-linecap: square"/>
   </g>
   <g id="line2d_34">
    <path d="M 261.264286 17.784 
L 279.917429 17.784 
" clip-path="url(#p790249e2ff)" style="fill: none; stroke: #000000; stroke-linecap: square"/>
   </g>
   <g id="line2d_35">
    <path d="M 189.760571 150.867554 
L 227.066857 150.867554 
" clip-path="url(#p790249e2ff)" style="fill: none; stroke: #000000"/>
   </g>
   <g id="line2d_36">
    <path d="M 251.937714 194.987645 
L 289.244 194.987645 
" clip-path="url(#p790249e2ff)" style="fill: none; stroke: #000000"/>
   </g>
   <g id="patch_10">
    <path d="M 177.325143 240.048 
L 177.325143 7.2 
" style="fill: none; stroke: #000000; stroke-width: 1.5; stroke-linejoin: miter; stroke-linecap: square"/>
   </g>
   <g id="patch_11">
    <path d="M 177.325143 240.048 
L 301.679429 240.048 
" style="fill: none; stroke: #000000; stroke-width: 1.5; stroke-linejoin: miter; stroke-linecap: square"/>
   </g>
   <g id="text_20">
    <!-- B -->
    <g transform="translate(179.812229 20.55321) scale(0.12 -0.12)">
     <defs>
      <path id="LiberationSans-Bold-42" d="M 4331 1256 
Q 4331 922 4197 683 
Q 4063 444 3830 292 
Q 3597 141 3287 70 
Q 2978 0 2631 0 
L 428 0 
L 428 4403 
L 2444 4403 
Q 2834 4403 3139 4336 
Q 3444 4269 3653 4131 
Q 3863 3994 3970 3786 
Q 4078 3578 4078 3297 
Q 4078 2922 3870 2664 
Q 3663 2406 3238 2316 
Q 3772 2253 4051 1979 
Q 4331 1706 4331 1256 
z
M 3150 3172 
Q 3150 3469 2961 3594 
Q 2772 3719 2400 3719 
L 1350 3719 
L 1350 2628 
L 2406 2628 
Q 2797 2628 2973 2764 
Q 3150 2900 3150 3172 
z
M 3406 1328 
Q 3406 1503 3337 1622 
Q 3269 1741 3148 1812 
Q 3028 1884 2867 1915 
Q 2706 1947 2519 1947 
L 1350 1947 
L 1350 684 
L 2553 684 
Q 2734 684 2890 714 
Q 3047 744 3161 817 
Q 3275 891 3340 1016 
Q 3406 1141 3406 1328 
z
" transform="scale(0.015625)"/>
     </defs>
     <use xlink:href="#LiberationSans-Bold-42"/>
    </g>
   </g>
  </g>
  <g id="axes_3">
   <g id="patch_12">
    <path d="M 326.550286 240.048 
L 450.904571 240.048 
L 450.904571 7.2 
L 326.550286 7.2 
z
" style="fill: #ffffff"/>
   </g>
   <g id="matplotlib.axis_5">
    <g id="xtick_5">
     <g id="line2d_37">
      <g>
       <use xlink:href="#m1dc6294b23" x="357.638857" y="240.048" style="stroke: #000000; stroke-width: 0.8"/>
      </g>
     </g>
     <g id="text_21">
      <!-- Retidas -->
      <g transform="translate(340.686513 254.294875) scale(0.1 -0.1)">
       <use xlink:href="#LiberationSans-52"/>
       <use xlink:href="#LiberationSans-65" transform="translate(72.216797 0)"/>
       <use xlink:href="#LiberationSans-74" transform="translate(127.832031 0)"/>
       <use xlink:href="#LiberationSans-69" transform="translate(155.615234 0)"/>
       <use xlink:href="#LiberationSans-64" transform="translate(177.832031 0)"/>
       <use xlink:href="#LiberationSans-61" transform="translate(233.447266 0)"/>
       <use xlink:href="#LiberationSans-73" transform="translate(289.0625 0)"/>
      </g>
     </g>
    </g>
    <g id="xtick_6">
     <g id="line2d_38">
      <g>
       <use xlink:href="#m1dc6294b23" x="419.816" y="240.048" style="stroke: #000000; stroke-width: 0.8"/>
      </g>
     </g>
     <g id="text_22">
      <!-- Excluídas -->
      <g transform="translate(398.139438 254.294875) scale(0.1 -0.1)">
       <use xlink:href="#LiberationSans-45"/>
       <use xlink:href="#LiberationSans-78" transform="translate(66.699219 0)"/>
       <use xlink:href="#LiberationSans-63" transform="translate(116.699219 0)"/>
       <use xlink:href="#LiberationSans-6c" transform="translate(166.699219 0)"/>
       <use xlink:href="#LiberationSans-75" transform="translate(188.916016 0)"/>
       <use xlink:href="#LiberationSans-ed" transform="translate(244.53125 0)"/>
       <use xlink:href="#LiberationSans-64" transform="translate(272.314453 0)"/>
       <use xlink:href="#LiberationSans-61" transform="translate(327.929688 0)"/>
       <use xlink:href="#LiberationSans-73" transform="translate(383.544922 0)"/>
      </g>
     </g>
    </g>
    <g id="text_23">
     <!-- QT_DOC_FUND_AF -->
     <g transform="translate(342.056335 267.61675) scale(0.1 -0.1)">
      <defs>
       <path id="LiberationSans-4f" d="M 4672 2222 
Q 4672 1706 4523 1284 
Q 4375 863 4094 563 
Q 3813 263 3406 100 
Q 3000 -63 2484 -63 
Q 1941 -63 1531 107 
Q 1122 278 850 583 
Q 578 888 440 1306 
Q 303 1725 303 2222 
Q 303 2738 447 3153 
Q 591 3569 869 3861 
Q 1147 4153 1555 4311 
Q 1963 4469 2491 4469 
Q 3016 4469 3423 4309 
Q 3831 4150 4107 3856 
Q 4384 3563 4528 3147 
Q 4672 2731 4672 2222 
z
M 4063 2222 
Q 4063 2619 3961 2944 
Q 3859 3269 3661 3500 
Q 3463 3731 3169 3856 
Q 2875 3981 2491 3981 
Q 2097 3981 1800 3856 
Q 1503 3731 1304 3500 
Q 1106 3269 1007 2944 
Q 909 2619 909 2222 
Q 909 1825 1011 1495 
Q 1113 1166 1311 927 
Q 1509 688 1804 555 
Q 2100 422 2484 422 
Q 2897 422 3195 556 
Q 3494 691 3686 930 
Q 3878 1169 3970 1500 
Q 4063 1831 4063 2222 
z
" transform="scale(0.015625)"/>
       <path id="LiberationSans-43" d="M 2475 3981 
Q 2100 3981 1811 3856 
Q 1522 3731 1326 3500 
Q 1131 3269 1031 2944 
Q 931 2619 931 2222 
Q 931 1825 1039 1495 
Q 1147 1166 1348 928 
Q 1550 691 1842 559 
Q 2134 428 2500 428 
Q 2756 428 2967 495 
Q 3178 563 3348 684 
Q 3519 806 3653 973 
Q 3788 1141 3891 1344 
L 4378 1100 
Q 4259 853 4084 640 
Q 3909 428 3673 272 
Q 3438 116 3139 26 
Q 2841 -63 2472 -63 
Q 1938 -63 1536 107 
Q 1134 278 864 583 
Q 594 888 459 1306 
Q 325 1725 325 2222 
Q 325 2738 467 3153 
Q 609 3569 882 3861 
Q 1156 4153 1556 4311 
Q 1956 4469 2469 4469 
Q 3172 4469 3644 4194 
Q 4116 3919 4338 3378 
L 3772 3191 
Q 3709 3347 3603 3489 
Q 3497 3631 3337 3740 
Q 3178 3850 2964 3915 
Q 2750 3981 2475 3981 
z
" transform="scale(0.015625)"/>
      </defs>
      <use xlink:href="#LiberationSans-51"/>
      <use xlink:href="#LiberationSans-54" transform="translate(77.783203 0)"/>
      <use xlink:href="#LiberationSans-5f" transform="translate(138.867188 0)"/>
      <use xlink:href="#LiberationSans-44" transform="translate(194.482422 0)"/>
      <use xlink:href="#LiberationSans-4f" transform="translate(266.699219 0)"/>
      <use xlink:href="#LiberationSans-43" transform="translate(344.482422 0)"/>
      <use xlink:href="#LiberationSans-5f" transform="translate(416.699219 0)"/>
      <use xlink:href="#LiberationSans-46" transform="translate(472.314453 0)"/>
      <use xlink:href="#LiberationSans-55" transform="translate(533.398438 0)"/>
      <use xlink:href="#LiberationSans-4e" transform="translate(605.615234 0)"/>
      <use xlink:href="#LiberationSans-44" transform="translate(677.832031 0)"/>
      <use xlink:href="#LiberationSans-5f" transform="translate(750.048828 0)"/>
      <use xlink:href="#LiberationSans-41" transform="translate(805.664062 0)"/>
      <use xlink:href="#LiberationSans-46" transform="translate(872.363281 0)"/>
     </g>
    </g>
   </g>
   <g id="matplotlib.axis_6">
    <g id="ytick_13">
     <g id="line2d_39">
      <g>
       <use xlink:href="#mbabe4c5c86" x="326.550286" y="233.457962" style="stroke: #000000; stroke-width: 0.8"/>
      </g>
     </g>
     <g id="text_24">
      <!-- 0 -->
      <g transform="translate(313.989348 237.0814) scale(0.1 -0.1)">
       <use xlink:href="#LiberationSans-30"/>
      </g>
     </g>
    </g>
    <g id="ytick_14">
     <g id="line2d_40">
      <g>
       <use xlink:href="#mbabe4c5c86" x="326.550286" y="193.51834" style="stroke: #000000; stroke-width: 0.8"/>
      </g>
     </g>
     <g id="text_25">
      <!-- 10 -->
      <g transform="translate(308.428411 197.141777) scale(0.1 -0.1)">
       <defs>
        <path id="LiberationSans-31" d="M 488 0 
L 488 478 
L 1609 478 
L 1609 3866 
L 616 3156 
L 616 3688 
L 1656 4403 
L 2175 4403 
L 2175 478 
L 3247 478 
L 3247 0 
L 488 0 
z
" transform="scale(0.015625)"/>
       </defs>
       <use xlink:href="#LiberationSans-31"/>
       <use xlink:href="#LiberationSans-30" transform="translate(55.615234 0)"/>
      </g>
     </g>
    </g>
    <g id="ytick_15">
     <g id="line2d_41">
      <g>
       <use xlink:href="#mbabe4c5c86" x="326.550286" y="153.578717" style="stroke: #000000; stroke-width: 0.8"/>
      </g>
     </g>
     <g id="text_26">
      <!-- 20 -->
      <g transform="translate(308.428411 157.202154) scale(0.1 -0.1)">
       <use xlink:href="#LiberationSans-32"/>
       <use xlink:href="#LiberationSans-30" transform="translate(55.615234 0)"/>
      </g>
     </g>
    </g>
    <g id="ytick_16">
     <g id="line2d_42">
      <g>
       <use xlink:href="#mbabe4c5c86" x="326.550286" y="113.639094" style="stroke: #000000; stroke-width: 0.8"/>
      </g>
     </g>
     <g id="text_27">
      <!-- 30 -->
      <g transform="translate(308.428411 117.262532) scale(0.1 -0.1)">
       <defs>
        <path id="LiberationSans-33" d="M 3278 1216 
Q 3278 913 3179 675 
Q 3081 438 2892 273 
Q 2703 109 2423 23 
Q 2144 -63 1784 -63 
Q 1375 -63 1095 39 
Q 816 141 634 308 
Q 453 475 362 689 
Q 272 903 244 1131 
L 825 1184 
Q 850 1009 917 865 
Q 984 722 1100 619 
Q 1216 516 1384 459 
Q 1553 403 1784 403 
Q 2209 403 2451 612 
Q 2694 822 2694 1234 
Q 2694 1478 2586 1626 
Q 2478 1775 2317 1858 
Q 2156 1941 1967 1969 
Q 1778 1997 1619 1997 
L 1300 1997 
L 1300 2484 
L 1606 2484 
Q 1766 2484 1937 2517 
Q 2109 2550 2251 2636 
Q 2394 2722 2486 2869 
Q 2578 3016 2578 3244 
Q 2578 3597 2370 3801 
Q 2163 4006 1753 4006 
Q 1381 4006 1151 3815 
Q 922 3625 884 3278 
L 319 3322 
Q 353 3613 478 3828 
Q 603 4044 795 4186 
Q 988 4328 1234 4398 
Q 1481 4469 1759 4469 
Q 2128 4469 2393 4376 
Q 2659 4284 2828 4126 
Q 2997 3969 3076 3756 
Q 3156 3544 3156 3303 
Q 3156 3109 3103 2940 
Q 3050 2772 2937 2637 
Q 2825 2503 2651 2406 
Q 2478 2309 2234 2259 
L 2234 2247 
Q 2500 2219 2697 2126 
Q 2894 2034 3022 1896 
Q 3150 1759 3214 1584 
Q 3278 1409 3278 1216 
z
" transform="scale(0.015625)"/>
       </defs>
       <use xlink:href="#LiberationSans-33"/>
       <use xlink:href="#LiberationSans-30" transform="translate(55.615234 0)"/>
      </g>
     </g>
    </g>
    <g id="ytick_17">
     <g id="line2d_43">
      <g>
       <use xlink:href="#mbabe4c5c86" x="326.550286" y="73.699472" style="stroke: #000000; stroke-width: 0.8"/>
      </g>
     </g>
     <g id="text_28">
      <!-- 40 -->
      <g transform="translate(308.428411 77.322909) scale(0.1 -0.1)">
       <use xlink:href="#LiberationSans-34"/>
       <use xlink:href="#LiberationSans-30" transform="translate(55.615234 0)"/>
      </g>
     </g>
    </g>
    <g id="ytick_18">
     <g id="line2d_44">
      <g>
       <use xlink:href="#mbabe4c5c86" x="326.550286" y="33.759849" style="stroke: #000000; stroke-width: 0.8"/>
      </g>
     </g>
     <g id="text_29">
      <!-- 50 -->
      <g transform="translate(308.428411 37.383287) scale(0.1 -0.1)">
       <use xlink:href="#LiberationSans-35"/>
       <use xlink:href="#LiberationSans-30" transform="translate(55.615234 0)"/>
      </g>
     </g>
    </g>
   </g>
   <g id="patch_13">
    <path d="M 338.985714 165.560604 
L 376.292 165.560604 
L 376.292 117.633057 
L 338.985714 117.633057 
L 338.985714 165.560604 
z
" clip-path="url(#p4bf2b904ec)" style="fill: #440154; opacity: 0.65; stroke: #000000; stroke-linejoin: miter"/>
   </g>
   <g id="line2d_45">
    <path d="M 357.638857 165.560604 
L 357.638857 209.494189 
" clip-path="url(#p4bf2b904ec)" style="fill: none; stroke: #000000; stroke-linecap: square"/>
   </g>
   <g id="line2d_46">
    <path d="M 357.638857 117.633057 
L 357.638857 45.741736 
" clip-path="url(#p4bf2b904ec)" style="fill: none; stroke: #000000; stroke-linecap: square"/>
   </g>
   <g id="line2d_47">
    <path d="M 348.312286 209.494189 
L 366.965429 209.494189 
" clip-path="url(#p4bf2b904ec)" style="fill: none; stroke: #000000; stroke-linecap: square"/>
   </g>
   <g id="line2d_48">
    <path d="M 348.312286 45.741736 
L 366.965429 45.741736 
" clip-path="url(#p4bf2b904ec)" style="fill: none; stroke: #000000; stroke-linecap: square"/>
   </g>
   <g id="patch_14">
    <path d="M 401.162857 197.512302 
L 438.469143 197.512302 
L 438.469143 125.620981 
L 401.162857 125.620981 
L 401.162857 197.512302 
z
" clip-path="url(#p4bf2b904ec)" style="fill: #21918c; opacity: 0.65; stroke: #000000; stroke-linejoin: miter"/>
   </g>
   <g id="line2d_49">
    <path d="M 419.816 197.512302 
L 419.816 229.464 
" clip-path="url(#p4bf2b904ec)" style="fill: none; stroke: #000000; stroke-linecap: square"/>
   </g>
   <g id="line2d_50">
    <path d="M 419.816 125.620981 
L 419.816 17.784 
" clip-path="url(#p4bf2b904ec)" style="fill: none; stroke: #000000; stroke-linecap: square"/>
   </g>
   <g id="line2d_51">
    <path d="M 410.489429 229.464 
L 429.142571 229.464 
" clip-path="url(#p4bf2b904ec)" style="fill: none; stroke: #000000; stroke-linecap: square"/>
   </g>
   <g id="line2d_52">
    <path d="M 410.489429 17.784 
L 429.142571 17.784 
" clip-path="url(#p4bf2b904ec)" style="fill: none; stroke: #000000; stroke-linecap: square"/>
   </g>
   <g id="line2d_53">
    <path d="M 338.985714 145.590792 
L 376.292 145.590792 
" clip-path="url(#p4bf2b904ec)" style="fill: none; stroke: #000000"/>
   </g>
   <g id="line2d_54">
    <path d="M 401.162857 173.548528 
L 438.469143 173.548528 
" clip-path="url(#p4bf2b904ec)" style="fill: none; stroke: #000000"/>
   </g>
   <g id="patch_15">
    <path d="M 326.550286 240.048 
L 326.550286 7.2 
" style="fill: none; stroke: #000000; stroke-width: 1.5; stroke-linejoin: miter; stroke-linecap: square"/>
   </g>
   <g id="patch_16">
    <path d="M 326.550286 240.048 
L 450.904571 240.048 
" style="fill: none; stroke: #000000; stroke-width: 1.5; stroke-linejoin: miter; stroke-linecap: square"/>
   </g>
   <g id="text_30">
    <!-- C -->
    <g transform="translate(329.037371 20.55321) scale(0.12 -0.12)">
     <defs>
      <path id="LiberationSans-Bold-43" d="M 2484 663 
Q 2744 663 2933 736 
Q 3122 809 3261 928 
Q 3400 1047 3492 1197 
Q 3584 1347 3644 1500 
L 4447 1197 
Q 4350 959 4194 731 
Q 4038 503 3803 328 
Q 3569 153 3245 45 
Q 2922 -63 2484 -63 
Q 1913 -63 1494 107 
Q 1075 278 801 583 
Q 528 888 395 1306 
Q 263 1725 263 2222 
Q 263 2738 395 3153 
Q 528 3569 797 3861 
Q 1066 4153 1477 4311 
Q 1888 4469 2444 4469 
Q 2875 4469 3198 4378 
Q 3522 4288 3758 4123 
Q 3994 3959 4148 3736 
Q 4303 3513 4391 3244 
L 3578 3022 
Q 3534 3163 3443 3292 
Q 3353 3422 3214 3522 
Q 3075 3622 2887 3683 
Q 2700 3744 2463 3744 
Q 2128 3744 1887 3636 
Q 1647 3528 1492 3328 
Q 1338 3128 1264 2848 
Q 1191 2569 1191 2222 
Q 1191 1878 1264 1592 
Q 1338 1306 1494 1100 
Q 1650 894 1895 778 
Q 2141 663 2484 663 
z
" transform="scale(0.015625)"/>
     </defs>
     <use xlink:href="#LiberationSans-Bold-43"/>
    </g>
   </g>
  </g>
  <g id="axes_4">
   <g id="patch_17">
    <path d="M 475.775429 240.048 
L 600.129714 240.048 
L 600.129714 7.2 
L 475.775429 7.2 
z
" style="fill: #ffffff"/>
   </g>
   <g id="matplotlib.axis_7">
    <g id="xtick_7">
     <g id="line2d_55">
      <g>
       <use xlink:href="#m1dc6294b23" x="506.864" y="240.048" style="stroke: #000000; stroke-width: 0.8"/>
      </g>
     </g>
     <g id="text_31">
      <!-- Retidas -->
      <g transform="translate(489.911656 254.294875) scale(0.1 -0.1)">
       <use xlink:href="#LiberationSans-52"/>
       <use xlink:href="#LiberationSans-65" transform="translate(72.216797 0)"/>
       <use xlink:href="#LiberationSans-74" transform="translate(127.832031 0)"/>
       <use xlink:href="#LiberationSans-69" transform="translate(155.615234 0)"/>
       <use xlink:href="#LiberationSans-64" transform="translate(177.832031 0)"/>
       <use xlink:href="#LiberationSans-61" transform="translate(233.447266 0)"/>
       <use xlink:href="#LiberationSans-73" transform="translate(289.0625 0)"/>
      </g>
     </g>
    </g>
    <g id="xtick_8">
     <g id="line2d_56">
      <g>
       <use xlink:href="#m1dc6294b23" x="569.041143" y="240.048" style="stroke: #000000; stroke-width: 0.8"/>
      </g>
     </g>
     <g id="text_32">
      <!-- Excluídas -->
      <g transform="translate(547.36458 254.294875) scale(0.1 -0.1)">
       <use xlink:href="#LiberationSans-45"/>
       <use xlink:href="#LiberationSans-78" transform="translate(66.699219 0)"/>
       <use xlink:href="#LiberationSans-63" transform="translate(116.699219 0)"/>
       <use xlink:href="#LiberationSans-6c" transform="translate(166.699219 0)"/>
       <use xlink:href="#LiberationSans-75" transform="translate(188.916016 0)"/>
       <use xlink:href="#LiberationSans-ed" transform="translate(244.53125 0)"/>
       <use xlink:href="#LiberationSans-64" transform="translate(272.314453 0)"/>
       <use xlink:href="#LiberationSans-61" transform="translate(327.929688 0)"/>
       <use xlink:href="#LiberationSans-73" transform="translate(383.544922 0)"/>
      </g>
     </g>
    </g>
    <g id="text_33">
     <!-- TP_LOCALIZACAO -->
     <g transform="translate(493.773665 267.61675) scale(0.1 -0.1)">
      <defs>
       <path id="LiberationSans-50" d="M 3931 3078 
Q 3931 2791 3836 2542 
Q 3741 2294 3552 2111 
Q 3363 1928 3078 1822 
Q 2794 1716 2416 1716 
L 1122 1716 
L 1122 0 
L 525 0 
L 525 4403 
L 2378 4403 
Q 2769 4403 3059 4308 
Q 3350 4213 3544 4039 
Q 3738 3866 3834 3620 
Q 3931 3375 3931 3078 
z
M 3331 3072 
Q 3331 3491 3075 3708 
Q 2819 3925 2306 3925 
L 1122 3925 
L 1122 2188 
L 2331 2188 
Q 2847 2188 3089 2416 
Q 3331 2644 3331 3072 
z
" transform="scale(0.015625)"/>
       <path id="LiberationSans-4c" d="M 525 0 
L 525 4403 
L 1122 4403 
L 1122 488 
L 3347 488 
L 3347 0 
L 525 0 
z
" transform="scale(0.015625)"/>
       <path id="LiberationSans-5a" d="M 3709 0 
L 203 0 
L 203 447 
L 2884 3916 
L 431 3916 
L 431 4403 
L 3563 4403 
L 3563 3969 
L 881 488 
L 3709 488 
L 3709 0 
z
" transform="scale(0.015625)"/>
      </defs>
      <use xlink:href="#LiberationSans-54"/>
      <use xlink:href="#LiberationSans-50" transform="translate(61.083984 0)"/>
      <use xlink:href="#LiberationSans-5f" transform="translate(127.783203 0)"/>
      <use xlink:href="#LiberationSans-4c" transform="translate(183.398438 0)"/>
      <use xlink:href="#LiberationSans-4f" transform="translate(239.013672 0)"/>
      <use xlink:href="#LiberationSans-43" transform="translate(316.796875 0)"/>
      <use xlink:href="#LiberationSans-41" transform="translate(389.013672 0)"/>
      <use xlink:href="#LiberationSans-4c" transform="translate(455.712891 0)"/>
      <use xlink:href="#LiberationSans-49" transform="translate(511.328125 0)"/>
      <use xlink:href="#LiberationSans-5a" transform="translate(539.111328 0)"/>
      <use xlink:href="#LiberationSans-41" transform="translate(600.195312 0)"/>
      <use xlink:href="#LiberationSans-43" transform="translate(666.894531 0)"/>
      <use xlink:href="#LiberationSans-41" transform="translate(739.111328 0)"/>
      <use xlink:href="#LiberationSans-4f" transform="translate(805.810547 0)"/>
     </g>
    </g>
   </g>
   <g id="matplotlib.axis_8">
    <g id="ytick_19">
     <g id="line2d_57">
      <g>
       <use xlink:href="#mbabe4c5c86" x="475.775429" y="208.296" style="stroke: #000000; stroke-width: 0.8"/>
      </g>
     </g>
     <g id="text_34">
      <!-- 0.96 -->
      <g transform="translate(449.314491 211.919437) scale(0.1 -0.1)">
       <defs>
        <path id="LiberationSans-39" d="M 3256 2291 
Q 3256 1703 3145 1261 
Q 3034 819 2828 525 
Q 2622 231 2326 84 
Q 2031 -63 1663 -63 
Q 1409 -63 1206 -11 
Q 1003 41 843 150 
Q 684 259 571 434 
Q 459 609 391 856 
L 928 941 
Q 1016 656 1202 523 
Q 1388 391 1672 391 
Q 1900 391 2089 498 
Q 2278 606 2411 822 
Q 2544 1038 2619 1363 
Q 2694 1688 2700 2125 
Q 2634 1978 2520 1862 
Q 2406 1747 2261 1667 
Q 2116 1588 1947 1545 
Q 1778 1503 1606 1503 
Q 1306 1503 1064 1611 
Q 822 1719 653 1912 
Q 484 2106 392 2379 
Q 300 2653 300 2988 
Q 300 3328 398 3603 
Q 497 3878 684 4070 
Q 872 4263 1145 4366 
Q 1419 4469 1766 4469 
Q 2500 4469 2878 3925 
Q 3256 3381 3256 2291 
z
M 2644 2834 
Q 2644 3078 2586 3293 
Q 2528 3509 2414 3668 
Q 2300 3828 2133 3920 
Q 1966 4013 1747 4013 
Q 1544 4013 1381 3941 
Q 1219 3869 1106 3736 
Q 994 3603 933 3412 
Q 872 3222 872 2988 
Q 872 2766 926 2575 
Q 981 2384 1090 2245 
Q 1200 2106 1362 2026 
Q 1525 1947 1741 1947 
Q 1897 1947 2058 2000 
Q 2219 2053 2348 2162 
Q 2478 2272 2561 2439 
Q 2644 2606 2644 2834 
z
" transform="scale(0.015625)"/>
       </defs>
       <use xlink:href="#LiberationSans-30"/>
       <use xlink:href="#LiberationSans-2e" transform="translate(55.615234 0)"/>
       <use xlink:href="#LiberationSans-39" transform="translate(83.398438 0)"/>
       <use xlink:href="#LiberationSans-36" transform="translate(139.013672 0)"/>
      </g>
     </g>
    </g>
    <g id="ytick_20">
     <g id="line2d_58">
      <g>
       <use xlink:href="#mbabe4c5c86" x="475.775429" y="165.96" style="stroke: #000000; stroke-width: 0.8"/>
      </g>
     </g>
     <g id="text_35">
      <!-- 0.98 -->
      <g transform="translate(449.314491 169.583437) scale(0.1 -0.1)">
       <use xlink:href="#LiberationSans-30"/>
       <use xlink:href="#LiberationSans-2e" transform="translate(55.615234 0)"/>
       <use xlink:href="#LiberationSans-39" transform="translate(83.398438 0)"/>
       <use xlink:href="#LiberationSans-38" transform="translate(139.013672 0)"/>
      </g>
     </g>
    </g>
    <g id="ytick_21">
     <g id="line2d_59">
      <g>
       <use xlink:href="#mbabe4c5c86" x="475.775429" y="123.624" style="stroke: #000000; stroke-width: 0.8"/>
      </g>
     </g>
     <g id="text_36">
      <!-- 1.00 -->
      <g transform="translate(449.314491 127.247438) scale(0.1 -0.1)">
       <use xlink:href="#LiberationSans-31"/>
       <use xlink:href="#LiberationSans-2e" transform="translate(55.615234 0)"/>
       <use xlink:href="#LiberationSans-30" transform="translate(83.398438 0)"/>
       <use xlink:href="#LiberationSans-30" transform="translate(139.013672 0)"/>
      </g>
     </g>
    </g>
    <g id="ytick_22">
     <g id="line2d_60">
      <g>
       <use xlink:href="#mbabe4c5c86" x="475.775429" y="81.288" style="stroke: #000000; stroke-width: 0.8"/>
      </g>
     </g>
     <g id="text_37">
      <!-- 1.02 -->
      <g transform="translate(449.314491 84.911438) scale(0.1 -0.1)">
       <use xlink:href="#LiberationSans-31"/>
       <use xlink:href="#LiberationSans-2e" transform="translate(55.615234 0)"/>
       <use xlink:href="#LiberationSans-30" transform="translate(83.398438 0)"/>
       <use xlink:href="#LiberationSans-32" transform="translate(139.013672 0)"/>
      </g>
     </g>
    </g>
    <g id="ytick_23">
     <g id="line2d_61">
      <g>
       <use xlink:href="#mbabe4c5c86" x="475.775429" y="38.952" style="stroke: #000000; stroke-width: 0.8"/>
      </g>
     </g>
     <g id="text_38">
      <!-- 1.04 -->
      <g transform="translate(449.314491 42.575438) scale(0.1 -0.1)">
       <use xlink:href="#LiberationSans-31"/>
       <use xlink:href="#LiberationSans-2e" transform="translate(55.615234 0)"/>
       <use xlink:href="#LiberationSans-30" transform="translate(83.398438 0)"/>
       <use xlink:href="#LiberationSans-34" transform="translate(139.013672 0)"/>
      </g>
     </g>
    </g>
   </g>
   <g id="patch_18">
    <path d="M 488.210857 123.624 
L 525.517143 123.624 
L 525.517143 123.624 
L 488.210857 123.624 
L 488.210857 123.624 
z
" clip-path="url(#pac68a70b24)" style="fill: #440154; opacity: 0.65; stroke: #000000; stroke-linejoin: miter"/>
   </g>
   <g id="line2d_62">
    <path d="M 506.864 123.624 
L 506.864 123.624 
" clip-path="url(#pac68a70b24)" style="fill: none; stroke: #000000; stroke-linecap: square"/>
   </g>
   <g id="line2d_63">
    <path d="M 506.864 123.624 
L 506.864 123.624 
" clip-path="url(#pac68a70b24)" style="fill: none; stroke: #000000; stroke-linecap: square"/>
   </g>
   <g id="line2d_64">
    <path d="M 497.537429 123.624 
L 516.190571 123.624 
" clip-path="url(#pac68a70b24)" style="fill: none; stroke: #000000; stroke-linecap: square"/>
   </g>
   <g id="line2d_65">
    <path d="M 497.537429 123.624 
L 516.190571 123.624 
" clip-path="url(#pac68a70b24)" style="fill: none; stroke: #000000; stroke-linecap: square"/>
   </g>
   <g id="patch_19">
    <path d="M 550.388 123.624 
L 587.694286 123.624 
L 587.694286 123.624 
L 550.388 123.624 
L 550.388 123.624 
z
" clip-path="url(#pac68a70b24)" style="fill: #21918c; opacity: 0.65; stroke: #000000; stroke-linejoin: miter"/>
   </g>
   <g id="line2d_66">
    <path d="M 569.041143 123.624 
L 569.041143 123.624 
" clip-path="url(#pac68a70b24)" style="fill: none; stroke: #000000; stroke-linecap: square"/>
   </g>
   <g id="line2d_67">
    <path d="M 569.041143 123.624 
L 569.041143 123.624 
" clip-path="url(#pac68a70b24)" style="fill: none; stroke: #000000; stroke-linecap: square"/>
   </g>
   <g id="line2d_68">
    <path d="M 559.714571 123.624 
L 578.367714 123.624 
" clip-path="url(#pac68a70b24)" style="fill: none; stroke: #000000; stroke-linecap: square"/>
   </g>
   <g id="line2d_69">
    <path d="M 559.714571 123.624 
L 578.367714 123.624 
" clip-path="url(#pac68a70b24)" style="fill: none; stroke: #000000; stroke-linecap: square"/>
   </g>
   <g id="line2d_70">
    <path d="M 488.210857 123.624 
L 525.517143 123.624 
" clip-path="url(#pac68a70b24)" style="fill: none; stroke: #000000"/>
   </g>
   <g id="line2d_71">
    <path d="M 550.388 123.624 
L 587.694286 123.624 
" clip-path="url(#pac68a70b24)" style="fill: none; stroke: #000000"/>
   </g>
   <g id="patch_20">
    <path d="M 475.775429 240.048 
L 475.775429 7.2 
" style="fill: none; stroke: #000000; stroke-width: 1.5; stroke-linejoin: miter; stroke-linecap: square"/>
   </g>
   <g id="patch_21">
    <path d="M 475.775429 240.048 
L 600.129714 240.048 
" style="fill: none; stroke: #000000; stroke-width: 1.5; stroke-linejoin: miter; stroke-linecap: square"/>
   </g>
   <g id="text_39">
    <!-- D -->
    <g transform="translate(478.262514 20.55321) scale(0.12 -0.12)">
     <defs>
      <path id="LiberationSans-Bold-44" d="M 4353 2234 
Q 4353 1684 4187 1267 
Q 4022 850 3734 569 
Q 3447 288 3055 144 
Q 2663 0 2209 0 
L 428 0 
L 428 4403 
L 2022 4403 
Q 2534 4403 2962 4275 
Q 3391 4147 3700 3881 
Q 4009 3616 4181 3206 
Q 4353 2797 4353 2234 
z
M 3425 2234 
Q 3425 2619 3320 2894 
Q 3216 3169 3028 3345 
Q 2841 3522 2580 3606 
Q 2319 3691 2003 3691 
L 1350 3691 
L 1350 713 
L 2131 713 
Q 2409 713 2645 809 
Q 2881 906 3054 1098 
Q 3228 1291 3326 1575 
Q 3425 1859 3425 2234 
z
" transform="scale(0.015625)"/>
     </defs>
     <use xlink:href="#LiberationSans-Bold-44"/>
    </g>
   </g>
  </g>
  <g id="axes_5">
   <g id="patch_22">
    <path d="M 625.000571 240.048 
L 749.354857 240.048 
L 749.354857 7.2 
L 625.000571 7.2 
z
" style="fill: #ffffff"/>
   </g>
   <g id="matplotlib.axis_9">
    <g id="xtick_9">
     <g id="line2d_72">
      <g>
       <use xlink:href="#m1dc6294b23" x="656.089143" y="240.048" style="stroke: #000000; stroke-width: 0.8"/>
      </g>
     </g>
     <g id="text_40">
      <!-- Retidas -->
      <g transform="translate(639.136799 254.294875) scale(0.1 -0.1)">
       <use xlink:href="#LiberationSans-52"/>
       <use xlink:href="#LiberationSans-65" transform="translate(72.216797 0)"/>
       <use xlink:href="#LiberationSans-74" transform="translate(127.832031 0)"/>
       <use xlink:href="#LiberationSans-69" transform="translate(155.615234 0)"/>
       <use xlink:href="#LiberationSans-64" transform="translate(177.832031 0)"/>
       <use xlink:href="#LiberationSans-61" transform="translate(233.447266 0)"/>
       <use xlink:href="#LiberationSans-73" transform="translate(289.0625 0)"/>
      </g>
     </g>
    </g>
    <g id="xtick_10">
     <g id="line2d_73">
      <g>
       <use xlink:href="#m1dc6294b23" x="718.266286" y="240.048" style="stroke: #000000; stroke-width: 0.8"/>
      </g>
     </g>
     <g id="text_41">
      <!-- Excluídas -->
      <g transform="translate(696.589723 254.294875) scale(0.1 -0.1)">
       <use xlink:href="#LiberationSans-45"/>
       <use xlink:href="#LiberationSans-78" transform="translate(66.699219 0)"/>
       <use xlink:href="#LiberationSans-63" transform="translate(116.699219 0)"/>
       <use xlink:href="#LiberationSans-6c" transform="translate(166.699219 0)"/>
       <use xlink:href="#LiberationSans-75" transform="translate(188.916016 0)"/>
       <use xlink:href="#LiberationSans-ed" transform="translate(244.53125 0)"/>
       <use xlink:href="#LiberationSans-64" transform="translate(272.314453 0)"/>
       <use xlink:href="#LiberationSans-61" transform="translate(327.929688 0)"/>
       <use xlink:href="#LiberationSans-73" transform="translate(383.544922 0)"/>
      </g>
     </g>
    </g>
    <g id="text_42">
     <!-- QT_TABLET_ALUNO -->
     <g transform="translate(638.922246 267.61675) scale(0.1 -0.1)">
      <defs>
       <path id="LiberationSans-42" d="M 3931 1241 
Q 3931 906 3800 670 
Q 3669 434 3447 286 
Q 3225 138 2931 69 
Q 2638 0 2313 0 
L 525 0 
L 525 4403 
L 2125 4403 
Q 2491 4403 2778 4342 
Q 3066 4281 3266 4150 
Q 3466 4019 3570 3817 
Q 3675 3616 3675 3334 
Q 3675 3150 3623 2987 
Q 3572 2825 3467 2692 
Q 3363 2559 3205 2464 
Q 3047 2369 2838 2322 
Q 3103 2291 3308 2200 
Q 3513 2109 3650 1968 
Q 3788 1828 3859 1642 
Q 3931 1456 3931 1241 
z
M 3075 3263 
Q 3075 3619 2831 3772 
Q 2588 3925 2125 3925 
L 1122 3925 
L 1122 2531 
L 2125 2531 
Q 2388 2531 2569 2582 
Q 2750 2634 2862 2729 
Q 2975 2825 3025 2959 
Q 3075 3094 3075 3263 
z
M 3328 1288 
Q 3328 1497 3251 1644 
Q 3175 1791 3031 1884 
Q 2888 1978 2686 2022 
Q 2484 2066 2234 2066 
L 1122 2066 
L 1122 478 
L 2281 478 
Q 2509 478 2701 515 
Q 2894 553 3033 647 
Q 3172 741 3250 897 
Q 3328 1053 3328 1288 
z
" transform="scale(0.015625)"/>
      </defs>
      <use xlink:href="#LiberationSans-51"/>
      <use xlink:href="#LiberationSans-54" transform="translate(77.783203 0)"/>
      <use xlink:href="#LiberationSans-5f" transform="translate(138.867188 0)"/>
      <use xlink:href="#LiberationSans-54" transform="translate(194.482422 0)"/>
      <use xlink:href="#LiberationSans-41" transform="translate(248.191406 0)"/>
      <use xlink:href="#LiberationSans-42" transform="translate(314.890625 0)"/>
      <use xlink:href="#LiberationSans-4c" transform="translate(381.589844 0)"/>
      <use xlink:href="#LiberationSans-45" transform="translate(437.205078 0)"/>
      <use xlink:href="#LiberationSans-54" transform="translate(503.904297 0)"/>
      <use xlink:href="#LiberationSans-5f" transform="translate(564.988281 0)"/>
      <use xlink:href="#LiberationSans-41" transform="translate(620.603516 0)"/>
      <use xlink:href="#LiberationSans-4c" transform="translate(687.302734 0)"/>
      <use xlink:href="#LiberationSans-55" transform="translate(742.917969 0)"/>
      <use xlink:href="#LiberationSans-4e" transform="translate(815.134766 0)"/>
      <use xlink:href="#LiberationSans-4f" transform="translate(887.351562 0)"/>
     </g>
    </g>
   </g>
   <g id="matplotlib.axis_10">
    <g id="ytick_24">
     <g id="line2d_74">
      <g>
       <use xlink:href="#mbabe4c5c86" x="625.000571" y="229.464" style="stroke: #000000; stroke-width: 0.8"/>
      </g>
     </g>
     <g id="text_43">
      <!-- 0 -->
      <g transform="translate(612.439634 233.087438) scale(0.1 -0.1)">
       <use xlink:href="#LiberationSans-30"/>
      </g>
     </g>
    </g>
    <g id="ytick_25">
     <g id="line2d_75">
      <g>
       <use xlink:href="#mbabe4c5c86" x="625.000571" y="193.279385" style="stroke: #000000; stroke-width: 0.8"/>
      </g>
     </g>
     <g id="text_44">
      <!-- 20 -->
      <g transform="translate(606.878696 196.902822) scale(0.1 -0.1)">
       <use xlink:href="#LiberationSans-32"/>
       <use xlink:href="#LiberationSans-30" transform="translate(55.615234 0)"/>
      </g>
     </g>
    </g>
    <g id="ytick_26">
     <g id="line2d_76">
      <g>
       <use xlink:href="#mbabe4c5c86" x="625.000571" y="157.094769" style="stroke: #000000; stroke-width: 0.8"/>
      </g>
     </g>
     <g id="text_45">
      <!-- 40 -->
      <g transform="translate(606.878696 160.718207) scale(0.1 -0.1)">
       <use xlink:href="#LiberationSans-34"/>
       <use xlink:href="#LiberationSans-30" transform="translate(55.615234 0)"/>
      </g>
     </g>
    </g>
    <g id="ytick_27">
     <g id="line2d_77">
      <g>
       <use xlink:href="#mbabe4c5c86" x="625.000571" y="120.910154" style="stroke: #000000; stroke-width: 0.8"/>
      </g>
     </g>
     <g id="text_46">
      <!-- 60 -->
      <g transform="translate(606.878696 124.533591) scale(0.1 -0.1)">
       <use xlink:href="#LiberationSans-36"/>
       <use xlink:href="#LiberationSans-30" transform="translate(55.615234 0)"/>
      </g>
     </g>
    </g>
    <g id="ytick_28">
     <g id="line2d_78">
      <g>
       <use xlink:href="#mbabe4c5c86" x="625.000571" y="84.725538" style="stroke: #000000; stroke-width: 0.8"/>
      </g>
     </g>
     <g id="text_47">
      <!-- 80 -->
      <g transform="translate(606.878696 88.348976) scale(0.1 -0.1)">
       <use xlink:href="#LiberationSans-38"/>
       <use xlink:href="#LiberationSans-30" transform="translate(55.615234 0)"/>
      </g>
     </g>
    </g>
    <g id="ytick_29">
     <g id="line2d_79">
      <g>
       <use xlink:href="#mbabe4c5c86" x="625.000571" y="48.540923" style="stroke: #000000; stroke-width: 0.8"/>
      </g>
     </g>
     <g id="text_48">
      <!-- 100 -->
      <g transform="translate(601.317759 52.164361) scale(0.1 -0.1)">
       <use xlink:href="#LiberationSans-31"/>
       <use xlink:href="#LiberationSans-30" transform="translate(55.615234 0)"/>
       <use xlink:href="#LiberationSans-30" transform="translate(111.230469 0)"/>
      </g>
     </g>
    </g>
    <g id="ytick_30">
     <g id="line2d_80">
      <g>
       <use xlink:href="#mbabe4c5c86" x="625.000571" y="12.356308" style="stroke: #000000; stroke-width: 0.8"/>
      </g>
     </g>
     <g id="text_49">
      <!-- 120 -->
      <g transform="translate(601.317759 15.979745) scale(0.1 -0.1)">
       <use xlink:href="#LiberationSans-31"/>
       <use xlink:href="#LiberationSans-32" transform="translate(55.615234 0)"/>
       <use xlink:href="#LiberationSans-30" transform="translate(111.230469 0)"/>
      </g>
     </g>
    </g>
   </g>
   <g id="patch_23">
    <path d="M 637.436 229.464 
L 674.742286 229.464 
L 674.742286 144.430154 
L 637.436 144.430154 
L 637.436 229.464 
z
" clip-path="url(#p754e8ab9bd)" style="fill: #440154; opacity: 0.65; stroke: #000000; stroke-linejoin: miter"/>
   </g>
   <g id="line2d_81">
    <path d="M 656.089143 229.464 
L 656.089143 229.464 
" clip-path="url(#p754e8ab9bd)" style="fill: none; stroke: #000000; stroke-linecap: square"/>
   </g>
   <g id="line2d_82">
    <path d="M 656.089143 144.430154 
L 656.089143 17.784 
" clip-path="url(#p754e8ab9bd)" style="fill: none; stroke: #000000; stroke-linecap: square"/>
   </g>
   <g id="line2d_83">
    <path d="M 646.762571 229.464 
L 665.415714 229.464 
" clip-path="url(#p754e8ab9bd)" style="fill: none; stroke: #000000; stroke-linecap: square"/>
   </g>
   <g id="line2d_84">
    <path d="M 646.762571 17.784 
L 665.415714 17.784 
" clip-path="url(#p754e8ab9bd)" style="fill: none; stroke: #000000; stroke-linecap: square"/>
   </g>
   <g id="patch_24">
    <path d="M 699.613143 229.464 
L 736.919429 229.464 
L 736.919429 166.140923 
L 699.613143 166.140923 
L 699.613143 229.464 
z
" clip-path="url(#p754e8ab9bd)" style="fill: #21918c; opacity: 0.65; stroke: #000000; stroke-linejoin: miter"/>
   </g>
   <g id="line2d_85">
    <path d="M 718.266286 229.464 
L 718.266286 229.464 
" clip-path="url(#p754e8ab9bd)" style="fill: none; stroke: #000000; stroke-linecap: square"/>
   </g>
   <g id="line2d_86">
    <path d="M 718.266286 166.140923 
L 718.266286 73.870154 
" clip-path="url(#p754e8ab9bd)" style="fill: none; stroke: #000000; stroke-linecap: square"/>
   </g>
   <g id="line2d_87">
    <path d="M 708.939714 229.464 
L 727.592857 229.464 
" clip-path="url(#p754e8ab9bd)" style="fill: none; stroke: #000000; stroke-linecap: square"/>
   </g>
   <g id="line2d_88">
    <path d="M 708.939714 73.870154 
L 727.592857 73.870154 
" clip-path="url(#p754e8ab9bd)" style="fill: none; stroke: #000000; stroke-linecap: square"/>
   </g>
   <g id="line2d_89">
    <path d="M 637.436 207.753231 
L 674.742286 207.753231 
" clip-path="url(#p754e8ab9bd)" style="fill: none; stroke: #000000"/>
   </g>
   <g id="line2d_90">
    <path d="M 699.613143 229.464 
L 736.919429 229.464 
" clip-path="url(#p754e8ab9bd)" style="fill: none; stroke: #000000"/>
   </g>
   <g id="patch_25">
    <path d="M 625.000571 240.048 
L 625.000571 7.2 
" style="fill: none; stroke: #000000; stroke-width: 1.5; stroke-linejoin: miter; stroke-linecap: square"/>
   </g>
   <g id="patch_26">
    <path d="M 625.000571 240.048 
L 749.354857 240.048 
" style="fill: none; stroke: #000000; stroke-width: 1.5; stroke-linejoin: miter; stroke-linecap: square"/>
   </g>
   <g id="text_50">
    <!-- E -->
    <g transform="translate(627.487657 20.55321) scale(0.12 -0.12)">
     <defs>
      <path id="LiberationSans-Bold-45" d="M 428 0 
L 428 4403 
L 3891 4403 
L 3891 3691 
L 1350 3691 
L 1350 2584 
L 3700 2584 
L 3700 1872 
L 1350 1872 
L 1350 713 
L 4019 713 
L 4019 0 
L 428 0 
z
" transform="scale(0.015625)"/>
     </defs>
     <use xlink:href="#LiberationSans-Bold-45"/>
    </g>
   </g>
  </g>
  <g id="axes_6">
   <g id="patch_27">
    <path d="M 774.225714 240.048 
L 898.58 240.048 
L 898.58 7.2 
L 774.225714 7.2 
z
" style="fill: #ffffff"/>
   </g>
   <g id="matplotlib.axis_11">
    <g id="xtick_11">
     <g id="line2d_91">
      <g>
       <use xlink:href="#m1dc6294b23" x="805.314286" y="240.048" style="stroke: #000000; stroke-width: 0.8"/>
      </g>
     </g>
     <g id="text_51">
      <!-- Retidas -->
      <g transform="translate(788.361942 254.294875) scale(0.1 -0.1)">
       <use xlink:href="#LiberationSans-52"/>
       <use xlink:href="#LiberationSans-65" transform="translate(72.216797 0)"/>
       <use xlink:href="#LiberationSans-74" transform="translate(127.832031 0)"/>
       <use xlink:href="#LiberationSans-69" transform="translate(155.615234 0)"/>
       <use xlink:href="#LiberationSans-64" transform="translate(177.832031 0)"/>
       <use xlink:href="#LiberationSans-61" transform="translate(233.447266 0)"/>
       <use xlink:href="#LiberationSans-73" transform="translate(289.0625 0)"/>
      </g>
     </g>
    </g>
    <g id="xtick_12">
     <g id="line2d_92">
      <g>
       <use xlink:href="#m1dc6294b23" x="867.491429" y="240.048" style="stroke: #000000; stroke-width: 0.8"/>
      </g>
     </g>
     <g id="text_52">
      <!-- Excluídas -->
      <g transform="translate(845.814866 254.294875) scale(0.1 -0.1)">
       <use xlink:href="#LiberationSans-45"/>
       <use xlink:href="#LiberationSans-78" transform="translate(66.699219 0)"/>
       <use xlink:href="#LiberationSans-63" transform="translate(116.699219 0)"/>
       <use xlink:href="#LiberationSans-6c" transform="translate(166.699219 0)"/>
       <use xlink:href="#LiberationSans-75" transform="translate(188.916016 0)"/>
       <use xlink:href="#LiberationSans-ed" transform="translate(244.53125 0)"/>
       <use xlink:href="#LiberationSans-64" transform="translate(272.314453 0)"/>
       <use xlink:href="#LiberationSans-61" transform="translate(327.929688 0)"/>
       <use xlink:href="#LiberationSans-73" transform="translate(383.544922 0)"/>
      </g>
     </g>
    </g>
    <g id="text_53">
     <!-- IN_SALA_LEITURA -->
     <g transform="translate(791.940357 267.61675) scale(0.1 -0.1)">
      <use xlink:href="#LiberationSans-49"/>
      <use xlink:href="#LiberationSans-4e" transform="translate(27.783203 0)"/>
      <use xlink:href="#LiberationSans-5f" transform="translate(100 0)"/>
      <use xlink:href="#LiberationSans-53" transform="translate(155.615234 0)"/>
      <use xlink:href="#LiberationSans-41" transform="translate(222.314453 0)"/>
      <use xlink:href="#LiberationSans-4c" transform="translate(289.013672 0)"/>
      <use xlink:href="#LiberationSans-41" transform="translate(344.628906 0)"/>
      <use xlink:href="#LiberationSans-5f" transform="translate(411.328125 0)"/>
      <use xlink:href="#LiberationSans-4c" transform="translate(466.943359 0)"/>
      <use xlink:href="#LiberationSans-45" transform="translate(522.558594 0)"/>
      <use xlink:href="#LiberationSans-49" transform="translate(589.257812 0)"/>
      <use xlink:href="#LiberationSans-54" transform="translate(617.041016 0)"/>
      <use xlink:href="#LiberationSans-55" transform="translate(678.125 0)"/>
      <use xlink:href="#LiberationSans-52" transform="translate(750.341797 0)"/>
      <use xlink:href="#LiberationSans-41" transform="translate(822.558594 0)"/>
     </g>
    </g>
   </g>
   <g id="matplotlib.axis_12">
    <g id="ytick_31">
     <g id="line2d_93">
      <g>
       <use xlink:href="#mbabe4c5c86" x="774.225714" y="229.464" style="stroke: #000000; stroke-width: 0.8"/>
      </g>
     </g>
     <g id="text_54">
      <!-- 0.0 -->
      <g transform="translate(753.325714 233.087438) scale(0.1 -0.1)">
       <use xlink:href="#LiberationSans-30"/>
       <use xlink:href="#LiberationSans-2e" transform="translate(55.615234 0)"/>
       <use xlink:href="#LiberationSans-30" transform="translate(83.398438 0)"/>
      </g>
     </g>
    </g>
    <g id="ytick_32">
     <g id="line2d_94">
      <g>
       <use xlink:href="#mbabe4c5c86" x="774.225714" y="187.128" style="stroke: #000000; stroke-width: 0.8"/>
      </g>
     </g>
     <g id="text_55">
      <!-- 0.2 -->
      <g transform="translate(753.325714 190.751438) scale(0.1 -0.1)">
       <use xlink:href="#LiberationSans-30"/>
       <use xlink:href="#LiberationSans-2e" transform="translate(55.615234 0)"/>
       <use xlink:href="#LiberationSans-32" transform="translate(83.398438 0)"/>
      </g>
     </g>
    </g>
    <g id="ytick_33">
     <g id="line2d_95">
      <g>
       <use xlink:href="#mbabe4c5c86" x="774.225714" y="144.792" style="stroke: #000000; stroke-width: 0.8"/>
      </g>
     </g>
     <g id="text_56">
      <!-- 0.4 -->
      <g transform="translate(753.325714 148.415438) scale(0.1 -0.1)">
       <use xlink:href="#LiberationSans-30"/>
       <use xlink:href="#LiberationSans-2e" transform="translate(55.615234 0)"/>
       <use xlink:href="#LiberationSans-34" transform="translate(83.398438 0)"/>
      </g>
     </g>
    </g>
    <g id="ytick_34">
     <g id="line2d_96">
      <g>
       <use xlink:href="#mbabe4c5c86" x="774.225714" y="102.456" style="stroke: #000000; stroke-width: 0.8"/>
      </g>
     </g>
     <g id="text_57">
      <!-- 0.6 -->
      <g transform="translate(753.325714 106.079438) scale(0.1 -0.1)">
       <use xlink:href="#LiberationSans-30"/>
       <use xlink:href="#LiberationSans-2e" transform="translate(55.615234 0)"/>
       <use xlink:href="#LiberationSans-36" transform="translate(83.398438 0)"/>
      </g>
     </g>
    </g>
    <g id="ytick_35">
     <g id="line2d_97">
      <g>
       <use xlink:href="#mbabe4c5c86" x="774.225714" y="60.12" style="stroke: #000000; stroke-width: 0.8"/>
      </g>
     </g>
     <g id="text_58">
      <!-- 0.8 -->
      <g transform="translate(753.325714 63.743438) scale(0.1 -0.1)">
       <use xlink:href="#LiberationSans-30"/>
       <use xlink:href="#LiberationSans-2e" transform="translate(55.615234 0)"/>
       <use xlink:href="#LiberationSans-38" transform="translate(83.398438 0)"/>
      </g>
     </g>
    </g>
    <g id="ytick_36">
     <g id="line2d_98">
      <g>
       <use xlink:href="#mbabe4c5c86" x="774.225714" y="17.784" style="stroke: #000000; stroke-width: 0.8"/>
      </g>
     </g>
     <g id="text_59">
      <!-- 1.0 -->
      <g transform="translate(753.325714 21.407437) scale(0.1 -0.1)">
       <use xlink:href="#LiberationSans-31"/>
       <use xlink:href="#LiberationSans-2e" transform="translate(55.615234 0)"/>
       <use xlink:href="#LiberationSans-30" transform="translate(83.398438 0)"/>
      </g>
     </g>
    </g>
   </g>
   <g id="patch_28">
    <path d="M 786.661143 17.784 
L 823.967429 17.784 
L 823.967429 17.784 
L 786.661143 17.784 
L 786.661143 17.784 
z
" clip-path="url(#p0b1f38540e)" style="fill: #440154; opacity: 0.65; stroke: #000000; stroke-linejoin: miter"/>
   </g>
   <g id="line2d_99">
    <path d="M 805.314286 17.784 
L 805.314286 17.784 
" clip-path="url(#p0b1f38540e)" style="fill: none; stroke: #000000; stroke-linecap: square"/>
   </g>
   <g id="line2d_100">
    <path d="M 805.314286 17.784 
L 805.314286 17.784 
" clip-path="url(#p0b1f38540e)" style="fill: none; stroke: #000000; stroke-linecap: square"/>
   </g>
   <g id="line2d_101">
    <path d="M 795.987714 17.784 
L 814.640857 17.784 
" clip-path="url(#p0b1f38540e)" style="fill: none; stroke: #000000; stroke-linecap: square"/>
   </g>
   <g id="line2d_102">
    <path d="M 795.987714 17.784 
L 814.640857 17.784 
" clip-path="url(#p0b1f38540e)" style="fill: none; stroke: #000000; stroke-linecap: square"/>
   </g>
   <g id="patch_29">
    <path d="M 848.838286 229.464 
L 886.144571 229.464 
L 886.144571 17.784 
L 848.838286 17.784 
L 848.838286 229.464 
z
" clip-path="url(#p0b1f38540e)" style="fill: #21918c; opacity: 0.65; stroke: #000000; stroke-linejoin: miter"/>
   </g>
   <g id="line2d_103">
    <path d="M 867.491429 229.464 
L 867.491429 229.464 
" clip-path="url(#p0b1f38540e)" style="fill: none; stroke: #000000; stroke-linecap: square"/>
   </g>
   <g id="line2d_104">
    <path d="M 867.491429 17.784 
L 867.491429 17.784 
" clip-path="url(#p0b1f38540e)" style="fill: none; stroke: #000000; stroke-linecap: square"/>
   </g>
   <g id="line2d_105">
    <path d="M 858.164857 229.464 
L 876.818 229.464 
" clip-path="url(#p0b1f38540e)" style="fill: none; stroke: #000000; stroke-linecap: square"/>
   </g>
   <g id="line2d_106">
    <path d="M 858.164857 17.784 
L 876.818 17.784 
" clip-path="url(#p0b1f38540e)" style="fill: none; stroke: #000000; stroke-linecap: square"/>
   </g>
   <g id="line2d_107">
    <path d="M 786.661143 17.784 
L 823.967429 17.784 
" clip-path="url(#p0b1f38540e)" style="fill: none; stroke: #000000"/>
   </g>
   <g id="line2d_108">
    <path d="M 848.838286 17.784 
L 886.144571 17.784 
" clip-path="url(#p0b1f38540e)" style="fill: none; stroke: #000000"/>
   </g>
   <g id="patch_30">
    <path d="M 774.225714 240.048 
L 774.225714 7.2 
" style="fill: none; stroke: #000000; stroke-width: 1.5; stroke-linejoin: miter; stroke-linecap: square"/>
   </g>
   <g id="patch_31">
    <path d="M 774.225714 240.048 
L 898.58 240.048 
" style="fill: none; stroke: #000000; stroke-width: 1.5; stroke-linejoin: miter; stroke-linecap: square"/>
   </g>
   <g id="text_60">
    <!-- F -->
    <g transform="translate(776.7128 20.55321) scale(0.12 -0.12)">
     <defs>
      <path id="LiberationSans-Bold-46" d="M 1350 3691 
L 1350 2328 
L 3603 2328 
L 3603 1616 
L 1350 1616 
L 1350 0 
L 428 0 
L 428 4403 
L 3675 4403 
L 3675 3691 
L 1350 3691 
z
" transform="scale(0.015625)"/>
     </defs>
     <use xlink:href="#LiberationSans-Bold-46"/>
    </g>
   </g>
  </g>
 </g>
 <defs>
  <clipPath id="p7e6786a782">
   <rect x="28.1" y="7.2" width="124.354286" height="232.848"/>
  </clipPath>
  <clipPath id="p790249e2ff">
   <rect x="177.325143" y="7.2" width="124.354286" height="232.848"/>
  </clipPath>
  <clipPath id="p4bf2b904ec">
   <rect x="326.550286" y="7.2" width="124.354286" height="232.848"/>
  </clipPath>
  <clipPath id="pac68a70b24">
   <rect x="475.775429" y="7.2" width="124.354286" height="232.848"/>
  </clipPath>
  <clipPath id="p754e8ab9bd">
   <rect x="625.000571" y="7.2" width="124.354286" height="232.848"/>
  </clipPath>
  <clipPath id="p0b1f38540e">
   <rect x="774.225714" y="7.2" width="124.354286" height="232.848"/>
  </clipPath>
 </defs>
</svg>
