<?xml version="1.0" encoding="utf-8" standalone="no"?>
<!DOCTYPE svg PUBLIC "-//W3C//DTD SVG 1.1//EN"
  "http://www.w3.org/Graphics/SVG/1.1/DTD/svg11.dtd">
<svg xmlns:xlink="http://www.w3.org/1999/xlink" width="494.324231pt" height="314.575774pt" viewBox="0 0 494.324231 314.575774" xmlns="http://www.w3.org/2000/svg" version="1.1">
 <metadata>
  <rdf:RDF xmlns:dc="http://purl.org/dc/elements/1.1/" xmlns:cc="http://creativecommons.org/ns#" xmlns:rdf="http://www.w3.org/1999/02/22-rdf-syntax-ns#">
   <cc:Work>
    <dc:type rdf:resource="http://purl.org/dc/dcmitype/StillImage"/>
    <dc:date>2026-06-20T20:53:09.664786</dc:date>
    <dc:format>image/svg+xml</dc:format>
    <dc:creator>
     <cc:Agent>
      <dc:title>Matplotlib v3.10.0, https://matplotlib.org/</dc:title>
     </cc:Agent>
    </dc:creator>
   </cc:Work>
  </rdf:RDF>
 </metadata>
 <defs>
  <style type="text/css">*{stroke-linejoin: round; stroke-linecap: butt}</style>
 </defs>
 <g id="figure_1">
  <g id="patch_1">
   <path d="M 0 314.575774 
L 494.324231 314.575774 
L 494.324231 0 
L 0 0 
z
" style="fill: #ffffff"/>
  </g>
  <g id="axes_1">
   <g id="patch_2">
    <path d="M 34.015 276.621282 
L 487.124231 276.621282 
L 487.124231 7.2 
L 34.015 7.2 
z
" style="fill: #ffffff"/>
   </g>
   <g id="FillBetweenPolyCollection_1">
    <defs>
     <path id="m2732688ddd" d="M 96.289608 -64.027519 
L 95.315637 -64.027519 
L 95.228788 -66.222219 
L 95.170547 -68.416918 
L 95.141019 -70.611617 
L 95.128474 -72.806316 
L 95.113145 -75.001016 
L 95.074287 -77.195715 
L 94.996814 -79.390414 
L 94.874261 -81.585113 
L 94.706918 -83.779813 
L 94.496241 -85.974512 
L 94.238136 -88.169211 
L 93.918371 -90.363911 
L 93.513119 -92.55861 
L 92.995805 -94.753309 
L 92.347649 -96.948008 
L 91.565786 -99.142708 
L 90.663124 -101.337407 
L 89.659296 -103.532106 
L 88.568806 -105.726805 
L 87.394988 -107.921505 
L 86.134116 -110.116204 
L 84.78569 -112.310903 
L 83.359068 -114.505602 
L 81.868728 -116.700302 
L 80.320428 -118.895001 
L 78.70055 -121.0897 
L 76.980876 -123.2844 
L 75.139062 -125.479099 
L 73.181256 -127.673798 
L 71.150691 -129.868497 
L 69.116759 -132.063197 
L 67.15285 -134.257896 
L 65.316552 -136.452595 
L 63.63999 -138.647294 
L 62.128297 -140.841994 
L 60.760649 -143.036693 
L 59.494948 -145.231392 
L 58.285487 -147.426091 
L 57.117858 -149.620791 
L 56.044061 -151.81549 
L 55.184546 -154.010189 
L 54.679054 -156.204889 
L 54.610874 -158.399588 
L 54.959031 -160.594287 
L 55.615168 -162.788986 
L 56.450282 -164.983686 
L 57.380179 -167.178385 
L 58.38784 -169.373084 
L 59.499145 -171.567783 
L 60.738406 -173.762483 
L 62.094209 -175.957182 
L 63.5128 -178.151881 
L 64.920234 -180.34658 
L 66.261272 -182.54128 
L 67.533449 -184.735979 
L 68.793852 -186.930678 
L 70.129686 -189.125378 
L 71.606724 -191.320077 
L 73.225731 -193.514776 
L 74.912681 -195.709475 
L 76.547985 -197.904175 
L 78.018777 -200.098874 
L 79.2688 -202.293573 
L 80.323374 -204.488272 
L 81.277838 -206.682972 
L 82.25307 -208.877671 
L 83.337949 -211.07237 
L 84.547816 -213.267069 
L 85.821047 -215.461769 
L 87.053258 -217.656468 
L 88.146131 -219.851167 
L 89.043108 -222.045867 
L 89.738955 -224.240566 
L 90.268916 -226.435265 
L 90.69051 -228.629964 
L 91.066505 -230.824664 
L 91.450879 -233.019363 
L 91.877808 -235.214062 
L 92.355328 -237.408761 
L 92.865962 -239.603461 
L 93.374574 -241.79816 
L 93.840929 -243.992859 
L 94.232808 -246.187558 
L 94.535525 -248.382258 
L 94.75488 -250.576957 
L 94.912747 -252.771656 
L 95.03726 -254.966356 
L 95.151877 -257.161055 
L 95.267949 -259.355754 
L 95.383431 -261.550453 
L 95.487274 -263.745153 
L 95.566703 -265.939852 
L 95.614011 -268.134551 
L 95.630306 -270.32925 
L 95.625157 -272.52395 
L 95.612748 -274.718649 
L 95.606445 -276.913348 
L 95.61428 -279.108047 
L 95.637211 -281.302747 
L 95.968034 -281.302747 
L 95.968034 -281.302747 
L 95.990964 -279.108047 
L 95.9988 -276.913348 
L 95.992497 -274.718649 
L 95.980088 -272.52395 
L 95.974939 -270.32925 
L 95.991233 -268.134551 
L 96.038542 -265.939852 
L 96.11797 -263.745153 
L 96.221814 -261.550453 
L 96.337296 -259.355754 
L 96.453367 -257.161055 
L 96.567984 -254.966356 
L 96.692498 -252.771656 
L 96.850365 -250.576957 
L 97.06972 -248.382258 
L 97.372436 -246.187558 
L 97.764315 -243.992859 
L 98.23067 -241.79816 
L 98.739282 -239.603461 
L 99.249916 -237.408761 
L 99.727437 -235.214062 
L 100.154366 -233.019363 
L 100.53874 -230.824664 
L 100.914734 -228.629964 
L 101.336329 -226.435265 
L 101.86629 -224.240566 
L 102.562137 -222.045867 
L 103.459114 -219.851167 
L 104.551987 -217.656468 
L 105.784197 -215.461769 
L 107.057429 -213.267069 
L 108.267296 -211.07237 
L 109.352175 -208.877671 
L 110.327407 -206.682972 
L 111.281871 -204.488272 
L 112.336445 -202.293573 
L 113.586467 -200.098874 
L 115.05726 -197.904175 
L 116.692563 -195.709475 
L 118.379514 -193.514776 
L 119.998521 -191.320077 
L 121.475559 -189.125378 
L 122.811393 -186.930678 
L 124.071796 -184.735979 
L 125.343973 -182.54128 
L 126.685011 -180.34658 
L 128.092445 -178.151881 
L 129.511036 -175.957182 
L 130.866838 -173.762483 
L 132.106099 -171.567783 
L 133.217404 -169.373084 
L 134.225065 -167.178385 
L 135.154963 -164.983686 
L 135.990077 -162.788986 
L 136.646214 -160.594287 
L 136.994371 -158.399588 
L 136.926191 -156.204889 
L 136.420698 -154.010189 
L 135.561184 -151.81549 
L 134.487387 -149.620791 
L 133.319758 -147.426091 
L 132.110297 -145.231392 
L 130.844595 -143.036693 
L 129.476948 -140.841994 
L 127.965255 -138.647294 
L 126.288693 -136.452595 
L 124.452395 -134.257896 
L 122.488485 -132.063197 
L 120.454554 -129.868497 
L 118.423989 -127.673798 
L 116.466183 -125.479099 
L 114.624369 -123.2844 
L 112.904694 -121.0897 
L 111.284816 -118.895001 
L 109.736517 -116.700302 
L 108.246177 -114.505602 
L 106.819554 -112.310903 
L 105.471129 -110.116204 
L 104.210257 -107.921505 
L 103.036438 -105.726805 
L 101.945948 -103.532106 
L 100.942121 -101.337407 
L 100.039459 -99.142708 
L 99.257596 -96.948008 
L 98.609439 -94.753309 
L 98.092126 -92.55861 
L 97.686874 -90.363911 
L 97.367108 -88.169211 
L 97.109004 -85.974512 
L 96.898326 -83.779813 
L 96.730984 -81.585113 
L 96.608431 -79.390414 
L 96.530958 -77.195715 
L 96.492099 -75.001016 
L 96.476771 -72.806316 
L 96.464226 -70.611617 
L 96.434698 -68.416918 
L 96.376457 -66.222219 
L 96.289608 -64.027519 
z
" style="stroke: #000000; stroke-opacity: 0.55"/>
    </defs>
    <g clip-path="url(#pd34c0ef500)">
     <use xlink:href="#m2732688ddd" x="0" y="314.575774" style="fill: #440154; fill-opacity: 0.55; stroke: #000000; stroke-opacity: 0.55"/>
    </g>
   </g>
   <g id="FillBetweenPolyCollection_2">
    <defs>
     <path id="m785aa58f3e" d="M 262.994286 -102.050684 
L 258.144944 -102.050684 
L 257.806951 -103.586974 
L 257.439592 -105.123263 
L 257.039487 -106.659553 
L 256.603415 -108.195842 
L 256.128912 -109.732132 
L 255.6148 -111.268421 
L 255.061549 -112.804711 
L 254.471408 -114.341 
L 253.848253 -115.87729 
L 253.197214 -117.413579 
L 252.524148 -118.949868 
L 251.835061 -120.486158 
L 251.13556 -122.022447 
L 250.430395 -123.558737 
L 249.72307 -125.095026 
L 249.015501 -126.631316 
L 248.307642 -128.167605 
L 247.597058 -129.703895 
L 246.878445 -131.240184 
L 246.143193 -132.776474 
L 245.379126 -134.312763 
L 244.570593 -135.849053 
L 243.69907 -137.385342 
L 242.744349 -138.921632 
L 241.686295 -140.457921 
L 240.507045 -141.994211 
L 239.193407 -143.5305 
L 237.739179 -145.06679 
L 236.14711 -146.603079 
L 234.430258 -148.139369 
L 232.612588 -149.675658 
L 230.728756 -151.211948 
L 228.823073 -152.748237 
L 226.947727 -154.284527 
L 225.160343 -155.820816 
L 223.521006 -157.357106 
L 222.088858 -158.893395 
L 220.918439 -160.429685 
L 220.055981 -161.965974 
L 219.535907 -163.502264 
L 219.377867 -165.038553 
L 219.584633 -166.574843 
L 220.141164 -168.111132 
L 221.01507 -169.647422 
L 222.158568 -171.183711 
L 223.511845 -172.720001 
L 225.007599 -174.25629 
L 226.576323 -175.792579 
L 228.151832 -177.328869 
L 229.67644 -178.865158 
L 231.105263 -180.401448 
L 232.409166 -181.937737 
L 233.576068 -183.474027 
L 234.610477 -185.010316 
L 235.531365 -186.546606 
L 236.368647 -188.082895 
L 237.158742 -189.619185 
L 237.939735 -191.155474 
L 238.746751 -192.691764 
L 239.608048 -194.228053 
L 240.542259 -195.764343 
L 241.55703 -197.300632 
L 242.649082 -198.836922 
L 243.805584 -200.373211 
L 245.006497 -201.909501 
L 246.227517 -203.44579 
L 247.443147 -204.98208 
L 248.629504 -206.518369 
L 249.766531 -208.054659 
L 250.839412 -209.590948 
L 251.839113 -211.127238 
L 252.762136 -212.663527 
L 253.609616 -214.199817 
L 254.386011 -215.736106 
L 255.097635 -217.272396 
L 255.751253 -218.808685 
L 256.352946 -220.344975 
L 256.907347 -221.881264 
L 257.417298 -223.417554 
L 257.883889 -224.953843 
L 258.306802 -226.490133 
L 258.684834 -228.026422 
L 259.016485 -229.562712 
L 259.300509 -231.099001 
L 259.536342 -232.635291 
L 259.724398 -234.17158 
L 259.866213 -235.707869 
L 259.964474 -237.244159 
L 260.02297 -238.780448 
L 260.04649 -240.316738 
L 260.040686 -241.853027 
L 260.01192 -243.389317 
L 259.967054 -244.925606 
L 259.913201 -246.461896 
L 259.85741 -247.998185 
L 259.806294 -249.534475 
L 259.765642 -251.070764 
L 259.740033 -252.607054 
L 259.732539 -254.143343 
L 261.406692 -254.143343 
L 261.406692 -254.143343 
L 261.399197 -252.607054 
L 261.373589 -251.070764 
L 261.332936 -249.534475 
L 261.281821 -247.998185 
L 261.22603 -246.461896 
L 261.172177 -244.925606 
L 261.127311 -243.389317 
L 261.098544 -241.853027 
L 261.092741 -240.316738 
L 261.11626 -238.780448 
L 261.174757 -237.244159 
L 261.273018 -235.707869 
L 261.414833 -234.17158 
L 261.602889 -232.635291 
L 261.838722 -231.099001 
L 262.122746 -229.562712 
L 262.454397 -228.026422 
L 262.832429 -226.490133 
L 263.255342 -224.953843 
L 263.721933 -223.417554 
L 264.231884 -221.881264 
L 264.786285 -220.344975 
L 265.387978 -218.808685 
L 266.041596 -217.272396 
L 266.753219 -215.736106 
L 267.529615 -214.199817 
L 268.377095 -212.663527 
L 269.300118 -211.127238 
L 270.299819 -209.590948 
L 271.372699 -208.054659 
L 272.509727 -206.518369 
L 273.696084 -204.98208 
L 274.911713 -203.44579 
L 276.132733 -201.909501 
L 277.333647 -200.373211 
L 278.490148 -198.836922 
L 279.582201 -197.300632 
L 280.596971 -195.764343 
L 281.531183 -194.228053 
L 282.392479 -192.691764 
L 283.199495 -191.155474 
L 283.980489 -189.619185 
L 284.770583 -188.082895 
L 285.607866 -186.546606 
L 286.528753 -185.010316 
L 287.563163 -183.474027 
L 288.730064 -181.937737 
L 290.033968 -180.401448 
L 291.462791 -178.865158 
L 292.987399 -177.328869 
L 294.562907 -175.792579 
L 296.131632 -174.25629 
L 297.627386 -172.720001 
L 298.980663 -171.183711 
L 300.12416 -169.647422 
L 300.998067 -168.111132 
L 301.554598 -166.574843 
L 301.761364 -165.038553 
L 301.603324 -163.502264 
L 301.08325 -161.965974 
L 300.220791 -160.429685 
L 299.050373 -158.893395 
L 297.618225 -157.357106 
L 295.978888 -155.820816 
L 294.191504 -154.284527 
L 292.316157 -152.748237 
L 290.410474 -151.211948 
L 288.526642 -149.675658 
L 286.708973 -148.139369 
L 284.99212 -146.603079 
L 283.400052 -145.06679 
L 281.945824 -143.5305 
L 280.632185 -141.994211 
L 279.452936 -140.457921 
L 278.394882 -138.921632 
L 277.440161 -137.385342 
L 276.568638 -135.849053 
L 275.760105 -134.312763 
L 274.996038 -132.776474 
L 274.260786 -131.240184 
L 273.542173 -129.703895 
L 272.831589 -128.167605 
L 272.12373 -126.631316 
L 271.41616 -125.095026 
L 270.708836 -123.558737 
L 270.003671 -122.022447 
L 269.30417 -120.486158 
L 268.615083 -118.949868 
L 267.942017 -117.413579 
L 267.290978 -115.87729 
L 266.667822 -114.341 
L 266.077681 -112.804711 
L 265.524431 -111.268421 
L 265.010318 -109.732132 
L 264.535816 -108.195842 
L 264.099744 -106.659553 
L 263.699638 -105.123263 
L 263.33228 -103.586974 
L 262.994286 -102.050684 
z
" style="stroke: #000000; stroke-opacity: 0.55"/>
    </defs>
    <g clip-path="url(#pd34c0ef500)">
     <use xlink:href="#m785aa58f3e" x="0" y="314.575774" style="fill: #21918c; fill-opacity: 0.55; stroke: #000000; stroke-opacity: 0.55"/>
    </g>
   </g>
   <g id="FillBetweenPolyCollection_3">
    <defs>
     <path id="mcebf5c47c9" d="M 426.092606 -64.027519 
L 424.580611 -64.027519 
L 424.451458 -66.222219 
L 424.311002 -68.416918 
L 424.150502 -70.611617 
L 423.959208 -72.806316 
L 423.726668 -75.001016 
L 423.444925 -77.195715 
L 423.109869 -79.390414 
L 422.721391 -81.585113 
L 422.282445 -83.779813 
L 421.797466 -85.974512 
L 421.270705 -88.169211 
L 420.704943 -90.363911 
L 420.100925 -92.55861 
L 419.457687 -94.753309 
L 418.773841 -96.948008 
L 418.049577 -99.142708 
L 417.288712 -101.337407 
L 416.499558 -103.532106 
L 415.693263 -105.726805 
L 414.878844 -107.921505 
L 414.055705 -110.116204 
L 413.206295 -112.310903 
L 412.292778 -114.505602 
L 411.26101 -116.700302 
L 410.05254 -118.895001 
L 408.621727 -121.0897 
L 406.952252 -123.2844 
L 405.066805 -125.479099 
L 403.026112 -127.673798 
L 400.917491 -129.868497 
L 398.836961 -132.063197 
L 396.870814 -134.257896 
L 395.081914 -136.452595 
L 393.503466 -138.647294 
L 392.140145 -140.841994 
L 390.9744 -143.036693 
L 389.97513 -145.231392 
L 389.106394 -147.426091 
L 388.334656 -149.620791 
L 387.633715 -151.81549 
L 386.986924 -154.010189 
L 386.386771 -156.204889 
L 385.832688 -158.399588 
L 385.328823 -160.594287 
L 384.883921 -162.788986 
L 384.51462 -164.983686 
L 384.251514 -167.178385 
L 384.14486 -169.373084 
L 384.265373 -171.567783 
L 384.696334 -173.762483 
L 385.516584 -175.957182 
L 386.778399 -178.151881 
L 388.487765 -180.34658 
L 390.594821 -182.54128 
L 392.998994 -184.735979 
L 395.567806 -186.930678 
L 398.163257 -189.125378 
L 400.66735 -191.320077 
L 402.999517 -193.514776 
L 405.122388 -195.709475 
L 407.036587 -197.904175 
L 408.768271 -200.098874 
L 410.35428 -202.293573 
L 411.829194 -204.488272 
L 413.217048 -206.682972 
L 414.528576 -208.877671 
L 415.763097 -211.07237 
L 416.913048 -213.267069 
L 417.968923 -215.461769 
L 418.923028 -217.656468 
L 419.771539 -219.851167 
L 420.515319 -222.045867 
L 421.160107 -224.240566 
L 421.716394 -226.435265 
L 422.198685 -228.629964 
L 422.623746 -230.824664 
L 423.007848 -233.019363 
L 423.363687 -235.214062 
L 423.698093 -237.408761 
L 424.011469 -239.603461 
L 424.29917 -241.79816 
L 424.554251 -243.992859 
L 424.77048 -246.187558 
L 424.944571 -248.382258 
L 425.07706 -250.576957 
L 425.171846 -252.771656 
L 425.234867 -254.966356 
L 425.27253 -257.161055 
L 425.290429 -259.355754 
L 425.292643 -261.550453 
L 425.281693 -263.745153 
L 425.259064 -265.939852 
L 425.226079 -268.134551 
L 425.184843 -270.32925 
L 425.138921 -272.52395 
L 425.093465 -274.718649 
L 425.054629 -276.913348 
L 425.028386 -279.108047 
L 425.019105 -281.302747 
L 425.654112 -281.302747 
L 425.654112 -281.302747 
L 425.644831 -279.108047 
L 425.618588 -276.913348 
L 425.579752 -274.718649 
L 425.534296 -272.52395 
L 425.488374 -270.32925 
L 425.447138 -268.134551 
L 425.414153 -265.939852 
L 425.391524 -263.745153 
L 425.380574 -261.550453 
L 425.382787 -259.355754 
L 425.400686 -257.161055 
L 425.43835 -254.966356 
L 425.501371 -252.771656 
L 425.596157 -250.576957 
L 425.728646 -248.382258 
L 425.902736 -246.187558 
L 426.118966 -243.992859 
L 426.374047 -241.79816 
L 426.661748 -239.603461 
L 426.975123 -237.408761 
L 427.30953 -235.214062 
L 427.665368 -233.019363 
L 428.049471 -230.824664 
L 428.474532 -228.629964 
L 428.956823 -226.435265 
L 429.51311 -224.240566 
L 430.157898 -222.045867 
L 430.901677 -219.851167 
L 431.750189 -217.656468 
L 432.704293 -215.461769 
L 433.760169 -213.267069 
L 434.91012 -211.07237 
L 436.144641 -208.877671 
L 437.456169 -206.682972 
L 438.844023 -204.488272 
L 440.318936 -202.293573 
L 441.904946 -200.098874 
L 443.63663 -197.904175 
L 445.550829 -195.709475 
L 447.6737 -193.514776 
L 450.005867 -191.320077 
L 452.50996 -189.125378 
L 455.10541 -186.930678 
L 457.674223 -184.735979 
L 460.078396 -182.54128 
L 462.185452 -180.34658 
L 463.894818 -178.151881 
L 465.156633 -175.957182 
L 465.976882 -173.762483 
L 466.407844 -171.567783 
L 466.528357 -169.373084 
L 466.421703 -167.178385 
L 466.158597 -164.983686 
L 465.789295 -162.788986 
L 465.344394 -160.594287 
L 464.840529 -158.399588 
L 464.286445 -156.204889 
L 463.686293 -154.010189 
L 463.039502 -151.81549 
L 462.33856 -149.620791 
L 461.566823 -147.426091 
L 460.698087 -145.231392 
L 459.698817 -143.036693 
L 458.533072 -140.841994 
L 457.169751 -138.647294 
L 455.591303 -136.452595 
L 453.802402 -134.257896 
L 451.836256 -132.063197 
L 449.755726 -129.868497 
L 447.647105 -127.673798 
L 445.606412 -125.479099 
L 443.720965 -123.2844 
L 442.05149 -121.0897 
L 440.620677 -118.895001 
L 439.412206 -116.700302 
L 438.380439 -114.505602 
L 437.466922 -112.310903 
L 436.617512 -110.116204 
L 435.794373 -107.921505 
L 434.979954 -105.726805 
L 434.173659 -103.532106 
L 433.384505 -101.337407 
L 432.62364 -99.142708 
L 431.899376 -96.948008 
L 431.215529 -94.753309 
L 430.572292 -92.55861 
L 429.968274 -90.363911 
L 429.402512 -88.169211 
L 428.87575 -85.974512 
L 428.390772 -83.779813 
L 427.951826 -81.585113 
L 427.563348 -79.390414 
L 427.228292 -77.195715 
L 426.946549 -75.001016 
L 426.714008 -72.806316 
L 426.522714 -70.611617 
L 426.362215 -68.416918 
L 426.221759 -66.222219 
L 426.092606 -64.027519 
z
" style="stroke: #000000; stroke-opacity: 0.55"/>
    </defs>
    <g clip-path="url(#pd34c0ef500)">
     <use xlink:href="#mcebf5c47c9" x="0" y="314.575774" style="fill: #dce319; fill-opacity: 0.55; stroke: #000000; stroke-opacity: 0.55"/>
    </g>
   </g>
   <g id="matplotlib.axis_1">
    <g id="xtick_1">
     <g id="line2d_1">
      <defs>
       <path id="m12d7bb6c63" d="M 0 0 
L 0 3.5 
" style="stroke: #000000; stroke-width: 0.8"/>
      </defs>
      <g>
       <use xlink:href="#m12d7bb6c63" x="95.802622" y="276.621282" style="stroke: #000000; stroke-width: 0.8"/>
      </g>
     </g>
     <g id="text_1">
      <!-- Urbano Referência -->
      <g transform="translate(54.924362 305.332298) rotate(-10) scale(0.1 -0.1)">
       <defs>
        <path id="LiberationSans-55" d="M 2284 -63 
Q 1922 -63 1597 34 
Q 1272 131 1026 336 
Q 781 541 637 855 
Q 494 1169 494 1600 
L 494 4403 
L 1091 4403 
L 1091 1650 
Q 1091 1316 1180 1083 
Q 1269 850 1428 703 
Q 1588 556 1805 489 
Q 2022 422 2281 422 
Q 2538 422 2766 490 
Q 2994 559 3166 709 
Q 3338 859 3436 1101 
Q 3534 1344 3534 1691 
L 3534 4403 
L 4128 4403 
L 4128 1656 
Q 4128 1216 3983 892 
Q 3838 569 3588 356 
Q 3338 144 3002 40 
Q 2666 -63 2284 -63 
z
" transform="scale(0.015625)"/>
        <path id="LiberationSans-72" d="M 444 0 
L 444 2594 
Q 444 2700 442 2811 
Q 441 2922 437 3025 
Q 434 3128 431 3218 
Q 428 3309 425 3381 
L 956 3381 
Q 959 3309 964 3217 
Q 969 3125 973 3028 
Q 978 2931 979 2842 
Q 981 2753 981 2691 
L 994 2691 
Q 1053 2884 1120 3026 
Q 1188 3169 1278 3261 
Q 1369 3353 1494 3398 
Q 1619 3444 1797 3444 
Q 1866 3444 1928 3433 
Q 1991 3422 2025 3413 
L 2025 2897 
Q 1969 2913 1894 2920 
Q 1819 2928 1725 2928 
Q 1531 2928 1395 2840 
Q 1259 2753 1173 2598 
Q 1088 2444 1047 2230 
Q 1006 2016 1006 1763 
L 1006 0 
L 444 0 
z
" transform="scale(0.015625)"/>
        <path id="LiberationSans-62" d="M 3291 1706 
Q 3291 -63 2047 -63 
Q 1663 -63 1408 76 
Q 1153 216 994 525 
L 988 525 
Q 988 444 983 356 
Q 978 269 973 194 
Q 969 119 964 66 
Q 959 13 956 0 
L 413 0 
Q 416 28 419 95 
Q 422 163 425 256 
Q 428 350 429 462 
Q 431 575 431 697 
L 431 4638 
L 994 4638 
L 994 3316 
Q 994 3222 992 3136 
Q 991 3050 988 2984 
Q 984 2906 981 2838 
L 994 2838 
Q 1150 3163 1408 3303 
Q 1666 3444 2047 3444 
Q 2688 3444 2989 3012 
Q 3291 2581 3291 1706 
z
M 2700 1688 
Q 2700 2038 2656 2288 
Q 2613 2538 2516 2698 
Q 2419 2859 2269 2934 
Q 2119 3009 1903 3009 
Q 1681 3009 1511 2937 
Q 1341 2866 1227 2706 
Q 1113 2547 1053 2287 
Q 994 2028 994 1653 
Q 994 1291 1053 1044 
Q 1113 797 1227 642 
Q 1341 488 1509 420 
Q 1678 353 1897 353 
Q 2103 353 2253 425 
Q 2403 497 2503 656 
Q 2603 816 2651 1070 
Q 2700 1325 2700 1688 
z
" transform="scale(0.015625)"/>
        <path id="LiberationSans-61" d="M 1294 -63 
Q 784 -63 528 206 
Q 272 475 272 944 
Q 272 1278 398 1492 
Q 525 1706 729 1828 
Q 934 1950 1196 1997 
Q 1459 2044 1731 2050 
L 2491 2063 
L 2491 2247 
Q 2491 2456 2447 2603 
Q 2403 2750 2312 2840 
Q 2222 2931 2086 2973 
Q 1950 3016 1766 3016 
Q 1603 3016 1472 2992 
Q 1341 2969 1244 2908 
Q 1147 2847 1087 2742 
Q 1028 2638 1009 2478 
L 422 2531 
Q 453 2731 540 2898 
Q 628 3066 789 3187 
Q 950 3309 1192 3376 
Q 1434 3444 1778 3444 
Q 2416 3444 2737 3151 
Q 3059 2859 3059 2306 
L 3059 850 
Q 3059 600 3125 473 
Q 3191 347 3375 347 
Q 3422 347 3469 353 
Q 3516 359 3559 369 
L 3559 19 
Q 3453 -6 3348 -18 
Q 3244 -31 3125 -31 
Q 2966 -31 2852 11 
Q 2738 53 2666 139 
Q 2594 225 2556 351 
Q 2519 478 2509 647 
L 2491 647 
Q 2400 484 2292 353 
Q 2184 222 2040 130 
Q 1897 38 1714 -12 
Q 1531 -63 1294 -63 
z
M 1422 359 
Q 1691 359 1892 457 
Q 2094 556 2226 709 
Q 2359 863 2425 1044 
Q 2491 1225 2491 1391 
L 2491 1669 
L 1875 1656 
Q 1669 1653 1483 1626 
Q 1297 1600 1156 1522 
Q 1016 1444 933 1303 
Q 850 1163 850 934 
Q 850 659 998 509 
Q 1147 359 1422 359 
z
" transform="scale(0.015625)"/>
        <path id="LiberationSans-6e" d="M 2578 0 
L 2578 2144 
Q 2578 2391 2542 2556 
Q 2506 2722 2425 2823 
Q 2344 2925 2211 2967 
Q 2078 3009 1881 3009 
Q 1681 3009 1520 2939 
Q 1359 2869 1245 2736 
Q 1131 2603 1068 2408 
Q 1006 2213 1006 1959 
L 1006 0 
L 444 0 
L 444 2659 
Q 444 2766 442 2883 
Q 441 3000 437 3104 
Q 434 3209 431 3284 
Q 428 3359 425 3381 
L 956 3381 
Q 959 3366 962 3297 
Q 966 3228 970 3139 
Q 975 3050 978 2958 
Q 981 2866 981 2803 
L 991 2803 
Q 1072 2950 1169 3069 
Q 1266 3188 1394 3270 
Q 1522 3353 1687 3398 
Q 1853 3444 2072 3444 
Q 2353 3444 2556 3375 
Q 2759 3306 2890 3162 
Q 3022 3019 3083 2792 
Q 3144 2566 3144 2253 
L 3144 0 
L 2578 0 
z
" transform="scale(0.015625)"/>
        <path id="LiberationSans-6f" d="M 3291 1694 
Q 3291 806 2900 371 
Q 2509 -63 1766 -63 
Q 1413 -63 1134 43 
Q 856 150 664 369 
Q 472 588 370 917 
Q 269 1247 269 1694 
Q 269 3444 1784 3444 
Q 2178 3444 2464 3334 
Q 2750 3225 2933 3006 
Q 3116 2788 3203 2459 
Q 3291 2131 3291 1694 
z
M 2700 1694 
Q 2700 2088 2639 2344 
Q 2578 2600 2461 2753 
Q 2344 2906 2175 2967 
Q 2006 3028 1794 3028 
Q 1578 3028 1404 2964 
Q 1231 2900 1109 2745 
Q 988 2591 923 2334 
Q 859 2078 859 1694 
Q 859 1300 928 1042 
Q 997 784 1117 631 
Q 1238 478 1402 415 
Q 1566 353 1759 353 
Q 1975 353 2150 414 
Q 2325 475 2447 628 
Q 2569 781 2634 1040 
Q 2700 1300 2700 1694 
z
" transform="scale(0.015625)"/>
        <path id="LiberationSans-20" transform="scale(0.015625)"/>
        <path id="LiberationSans-52" d="M 3638 0 
L 2494 1828 
L 1122 1828 
L 1122 0 
L 525 0 
L 525 4403 
L 2597 4403 
Q 2972 4403 3261 4317 
Q 3550 4231 3747 4068 
Q 3944 3906 4047 3672 
Q 4150 3438 4150 3144 
Q 4150 2934 4089 2731 
Q 4028 2528 3897 2359 
Q 3766 2191 3562 2069 
Q 3359 1947 3075 1897 
L 4325 0 
L 3638 0 
z
M 3550 3138 
Q 3550 3338 3481 3484 
Q 3413 3631 3281 3729 
Q 3150 3828 2962 3876 
Q 2775 3925 2538 3925 
L 1122 3925 
L 1122 2300 
L 2563 2300 
Q 2819 2300 3006 2364 
Q 3194 2428 3314 2540 
Q 3434 2653 3492 2806 
Q 3550 2959 3550 3138 
z
" transform="scale(0.015625)"/>
        <path id="LiberationSans-65" d="M 863 1572 
Q 863 1306 917 1082 
Q 972 859 1086 698 
Q 1200 538 1378 448 
Q 1556 359 1806 359 
Q 2172 359 2392 506 
Q 2613 653 2691 878 
L 3184 738 
Q 3131 597 3036 455 
Q 2941 313 2781 198 
Q 2622 84 2383 10 
Q 2144 -63 1806 -63 
Q 1056 -63 664 384 
Q 272 831 272 1713 
Q 272 2188 390 2517 
Q 509 2847 715 3053 
Q 922 3259 1197 3351 
Q 1472 3444 1784 3444 
Q 2209 3444 2495 3306 
Q 2781 3169 2954 2926 
Q 3128 2684 3201 2356 
Q 3275 2028 3275 1647 
L 3275 1572 
L 863 1572 
z
M 2694 2003 
Q 2647 2538 2422 2783 
Q 2197 3028 1775 3028 
Q 1634 3028 1479 2983 
Q 1325 2938 1194 2822 
Q 1063 2706 972 2507 
Q 881 2309 869 2003 
L 2694 2003 
z
" transform="scale(0.015625)"/>
        <path id="LiberationSans-66" d="M 1128 2972 
L 1128 0 
L 566 0 
L 566 2972 
L 91 2972 
L 91 3381 
L 566 3381 
L 566 3763 
Q 566 3947 600 4105 
Q 634 4263 726 4380 
Q 819 4497 978 4564 
Q 1138 4631 1391 4631 
Q 1491 4631 1598 4622 
Q 1706 4613 1788 4594 
L 1788 4166 
Q 1734 4175 1664 4183 
Q 1594 4191 1538 4191 
Q 1413 4191 1333 4156 
Q 1253 4122 1208 4058 
Q 1163 3994 1145 3900 
Q 1128 3806 1128 3684 
L 1128 3381 
L 1788 3381 
L 1788 2972 
L 1128 2972 
z
" transform="scale(0.015625)"/>
        <path id="LiberationSans-ea" d="M 863 1572 
Q 863 1306 917 1082 
Q 972 859 1086 698 
Q 1200 538 1378 448 
Q 1556 359 1806 359 
Q 2172 359 2392 506 
Q 2613 653 2691 878 
L 3184 738 
Q 3131 597 3036 455 
Q 2941 313 2781 198 
Q 2622 84 2383 10 
Q 2144 -63 1806 -63 
Q 1056 -63 664 384 
Q 272 831 272 1713 
Q 272 2188 390 2517 
Q 509 2847 715 3053 
Q 922 3259 1197 3351 
Q 1472 3444 1784 3444 
Q 2209 3444 2495 3306 
Q 2781 3169 2954 2926 
Q 3128 2684 3201 2356 
Q 3275 2028 3275 1647 
L 3275 1572 
L 863 1572 
z
M 2694 2003 
Q 2647 2538 2422 2783 
Q 2197 3028 1775 3028 
Q 1634 3028 1479 2983 
Q 1325 2938 1194 2822 
Q 1063 2706 972 2507 
Q 881 2309 869 2003 
L 2694 2003 
z
M 2837 3816 
L 2837 3753 
L 2509 3753 
L 1824 4281 
L 1818 4281 
L 1093 3753 
L 768 3753 
L 768 3816 
L 1499 4659 
L 2137 4659 
L 2837 3816 
z
" transform="scale(0.015625)"/>
        <path id="LiberationSans-63" d="M 859 1706 
Q 859 1416 901 1172 
Q 944 928 1044 751 
Q 1144 575 1308 478 
Q 1472 381 1713 381 
Q 2013 381 2214 543 
Q 2416 706 2463 1044 
L 3031 1006 
Q 3003 797 2909 603 
Q 2816 409 2655 262 
Q 2494 116 2262 26 
Q 2031 -63 1728 -63 
Q 1331 -63 1053 71 
Q 775 206 601 442 
Q 428 678 350 998 
Q 272 1319 272 1694 
Q 272 2034 328 2295 
Q 384 2556 486 2751 
Q 588 2947 725 3080 
Q 863 3213 1023 3292 
Q 1184 3372 1362 3408 
Q 1541 3444 1722 3444 
Q 2006 3444 2228 3366 
Q 2450 3288 2611 3152 
Q 2772 3016 2872 2831 
Q 2972 2647 3013 2434 
L 2434 2391 
Q 2391 2672 2212 2837 
Q 2034 3003 1706 3003 
Q 1466 3003 1305 2923 
Q 1144 2844 1044 2683 
Q 944 2522 901 2278 
Q 859 2034 859 1706 
z
" transform="scale(0.015625)"/>
        <path id="LiberationSans-69" d="M 428 4100 
L 428 4638 
L 991 4638 
L 991 4100 
L 428 4100 
z
M 428 0 
L 428 3381 
L 991 3381 
L 991 0 
L 428 0 
z
" transform="scale(0.015625)"/>
       </defs>
       <use xlink:href="#LiberationSans-55"/>
       <use xlink:href="#LiberationSans-72" transform="translate(72.216797 0)"/>
       <use xlink:href="#LiberationSans-62" transform="translate(105.517578 0)"/>
       <use xlink:href="#LiberationSans-61" transform="translate(161.132812 0)"/>
       <use xlink:href="#LiberationSans-6e" transform="translate(216.748047 0)"/>
       <use xlink:href="#LiberationSans-6f" transform="translate(272.363281 0)"/>
       <use xlink:href="#LiberationSans-20" transform="translate(327.978516 0)"/>
       <use xlink:href="#LiberationSans-52" transform="translate(355.761719 0)"/>
       <use xlink:href="#LiberationSans-65" transform="translate(427.978516 0)"/>
       <use xlink:href="#LiberationSans-66" transform="translate(483.59375 0)"/>
       <use xlink:href="#LiberationSans-65" transform="translate(511.376953 0)"/>
       <use xlink:href="#LiberationSans-72" transform="translate(566.992188 0)"/>
       <use xlink:href="#LiberationSans-ea" transform="translate(600.292969 0)"/>
       <use xlink:href="#LiberationSans-6e" transform="translate(655.908203 0)"/>
       <use xlink:href="#LiberationSans-63" transform="translate(711.523438 0)"/>
       <use xlink:href="#LiberationSans-69" transform="translate(761.523438 0)"/>
       <use xlink:href="#LiberationSans-61" transform="translate(783.740234 0)"/>
      </g>
     </g>
    </g>
    <g id="xtick_2">
     <g id="line2d_2">
      <g>
       <use xlink:href="#m12d7bb6c63" x="260.569615" y="276.621282" style="stroke: #000000; stroke-width: 0.8"/>
      </g>
     </g>
     <g id="text_2">
      <!-- Rural Eficiente -->
      <g transform="translate(228.999327 302.049805) rotate(-10) scale(0.1 -0.1)">
       <defs>
        <path id="LiberationSans-75" d="M 981 3381 
L 981 1238 
Q 981 991 1017 825 
Q 1053 659 1134 557 
Q 1216 456 1348 414 
Q 1481 372 1678 372 
Q 1878 372 2039 442 
Q 2200 513 2314 645 
Q 2428 778 2490 973 
Q 2553 1169 2553 1422 
L 2553 3381 
L 3116 3381 
L 3116 722 
Q 3116 616 3117 498 
Q 3119 381 3122 276 
Q 3125 172 3128 97 
Q 3131 22 3134 0 
L 2603 0 
Q 2600 16 2597 84 
Q 2594 153 2589 242 
Q 2584 331 2581 423 
Q 2578 516 2578 578 
L 2569 578 
Q 2488 431 2391 312 
Q 2294 194 2166 111 
Q 2038 28 1872 -17 
Q 1706 -63 1488 -63 
Q 1206 -63 1003 6 
Q 800 75 669 219 
Q 538 363 477 588 
Q 416 813 416 1128 
L 416 3381 
L 981 3381 
z
" transform="scale(0.015625)"/>
        <path id="LiberationSans-6c" d="M 431 0 
L 431 4638 
L 994 4638 
L 994 0 
L 431 0 
z
" transform="scale(0.015625)"/>
        <path id="LiberationSans-45" d="M 525 0 
L 525 4403 
L 3866 4403 
L 3866 3916 
L 1122 3916 
L 1122 2503 
L 3678 2503 
L 3678 2022 
L 1122 2022 
L 1122 488 
L 3994 488 
L 3994 0 
L 525 0 
z
" transform="scale(0.015625)"/>
        <path id="LiberationSans-74" d="M 1731 25 
Q 1603 -9 1470 -29 
Q 1338 -50 1163 -50 
Q 488 -50 488 716 
L 488 2972 
L 97 2972 
L 97 3381 
L 509 3381 
L 675 4138 
L 1050 4138 
L 1050 3381 
L 1675 3381 
L 1675 2972 
L 1050 2972 
L 1050 838 
Q 1050 594 1129 495 
Q 1209 397 1406 397 
Q 1488 397 1564 409 
Q 1641 422 1731 441 
L 1731 25 
z
" transform="scale(0.015625)"/>
       </defs>
       <use xlink:href="#LiberationSans-52"/>
       <use xlink:href="#LiberationSans-75" transform="translate(72.216797 0)"/>
       <use xlink:href="#LiberationSans-72" transform="translate(127.832031 0)"/>
       <use xlink:href="#LiberationSans-61" transform="translate(161.132812 0)"/>
       <use xlink:href="#LiberationSans-6c" transform="translate(216.748047 0)"/>
       <use xlink:href="#LiberationSans-20" transform="translate(238.964844 0)"/>
       <use xlink:href="#LiberationSans-45" transform="translate(266.748047 0)"/>
       <use xlink:href="#LiberationSans-66" transform="translate(333.447266 0)"/>
       <use xlink:href="#LiberationSans-69" transform="translate(361.230469 0)"/>
       <use xlink:href="#LiberationSans-63" transform="translate(383.447266 0)"/>
       <use xlink:href="#LiberationSans-69" transform="translate(433.447266 0)"/>
       <use xlink:href="#LiberationSans-65" transform="translate(455.664062 0)"/>
       <use xlink:href="#LiberationSans-6e" transform="translate(511.279297 0)"/>
       <use xlink:href="#LiberationSans-74" transform="translate(566.894531 0)"/>
       <use xlink:href="#LiberationSans-65" transform="translate(594.677734 0)"/>
      </g>
     </g>
    </g>
    <g id="xtick_3">
     <g id="line2d_3">
      <g>
       <use xlink:href="#m12d7bb6c63" x="425.336608" y="276.621282" style="stroke: #000000; stroke-width: 0.8"/>
      </g>
     </g>
     <g id="text_3">
      <!-- Urbano Crítico -->
      <g transform="translate(394.043297 301.952128) rotate(-10) scale(0.1 -0.1)">
       <defs>
        <path id="LiberationSans-43" d="M 2475 3981 
Q 2100 3981 1811 3856 
Q 1522 3731 1326 3500 
Q 1131 3269 1031 2944 
Q 931 2619 931 2222 
Q 931 1825 1039 1495 
Q 1147 1166 1348 928 
Q 1550 691 1842 559 
Q 2134 428 2500 428 
Q 2756 428 2967 495 
Q 3178 563 3348 684 
Q 3519 806 3653 973 
Q 3788 1141 3891 1344 
L 4378 1100 
Q 4259 853 4084 640 
Q 3909 428 3673 272 
Q 3438 116 3139 26 
Q 2841 -63 2472 -63 
Q 1938 -63 1536 107 
Q 1134 278 864 583 
Q 594 888 459 1306 
Q 325 1725 325 2222 
Q 325 2738 467 3153 
Q 609 3569 882 3861 
Q 1156 4153 1556 4311 
Q 1956 4469 2469 4469 
Q 3172 4469 3644 4194 
Q 4116 3919 4338 3378 
L 3772 3191 
Q 3709 3347 3603 3489 
Q 3497 3631 3337 3740 
Q 3178 3850 2964 3915 
Q 2750 3981 2475 3981 
z
" transform="scale(0.015625)"/>
        <path id="LiberationSans-ed" d="M 606 0 
L 606 3381 
L 1169 3381 
L 1169 0 
L 606 0 
z
M 425 3753 
L 425 3816 
L 1103 4713 
L 1750 4713 
L 1750 4622 
L 719 3753 
L 425 3753 
z
" transform="scale(0.015625)"/>
       </defs>
       <use xlink:href="#LiberationSans-55"/>
       <use xlink:href="#LiberationSans-72" transform="translate(72.216797 0)"/>
       <use xlink:href="#LiberationSans-62" transform="translate(105.517578 0)"/>
       <use xlink:href="#LiberationSans-61" transform="translate(161.132812 0)"/>
       <use xlink:href="#LiberationSans-6e" transform="translate(216.748047 0)"/>
       <use xlink:href="#LiberationSans-6f" transform="translate(272.363281 0)"/>
       <use xlink:href="#LiberationSans-20" transform="translate(327.978516 0)"/>
       <use xlink:href="#LiberationSans-43" transform="translate(355.761719 0)"/>
       <use xlink:href="#LiberationSans-72" transform="translate(427.978516 0)"/>
       <use xlink:href="#LiberationSans-ed" transform="translate(461.279297 0)"/>
       <use xlink:href="#LiberationSans-74" transform="translate(489.0625 0)"/>
       <use xlink:href="#LiberationSans-69" transform="translate(516.845703 0)"/>
       <use xlink:href="#LiberationSans-63" transform="translate(539.0625 0)"/>
       <use xlink:href="#LiberationSans-6f" transform="translate(589.0625 0)"/>
      </g>
     </g>
    </g>
   </g>
   <g id="matplotlib.axis_2">
    <g id="ytick_1">
     <g id="line2d_4">
      <defs>
       <path id="mb62dfb70ee" d="M 0 0 
L -3.5 0 
" style="stroke: #000000; stroke-width: 0.8"/>
      </defs>
      <g>
       <use xlink:href="#mb62dfb70ee" x="34.015" y="272.275777" style="stroke: #000000; stroke-width: 0.8"/>
      </g>
     </g>
     <g id="text_4">
      <!-- 3 -->
      <g transform="translate(21.454062 275.899215) scale(0.1 -0.1)">
       <defs>
        <path id="LiberationSans-33" d="M 3278 1216 
Q 3278 913 3179 675 
Q 3081 438 2892 273 
Q 2703 109 2423 23 
Q 2144 -63 1784 -63 
Q 1375 -63 1095 39 
Q 816 141 634 308 
Q 453 475 362 689 
Q 272 903 244 1131 
L 825 1184 
Q 850 1009 917 865 
Q 984 722 1100 619 
Q 1216 516 1384 459 
Q 1553 403 1784 403 
Q 2209 403 2451 612 
Q 2694 822 2694 1234 
Q 2694 1478 2586 1626 
Q 2478 1775 2317 1858 
Q 2156 1941 1967 1969 
Q 1778 1997 1619 1997 
L 1300 1997 
L 1300 2484 
L 1606 2484 
Q 1766 2484 1937 2517 
Q 2109 2550 2251 2636 
Q 2394 2722 2486 2869 
Q 2578 3016 2578 3244 
Q 2578 3597 2370 3801 
Q 2163 4006 1753 4006 
Q 1381 4006 1151 3815 
Q 922 3625 884 3278 
L 319 3322 
Q 353 3613 478 3828 
Q 603 4044 795 4186 
Q 988 4328 1234 4398 
Q 1481 4469 1759 4469 
Q 2128 4469 2393 4376 
Q 2659 4284 2828 4126 
Q 2997 3969 3076 3756 
Q 3156 3544 3156 3303 
Q 3156 3109 3103 2940 
Q 3050 2772 2937 2637 
Q 2825 2503 2651 2406 
Q 2478 2309 2234 2259 
L 2234 2247 
Q 2500 2219 2697 2126 
Q 2894 2034 3022 1896 
Q 3150 1759 3214 1584 
Q 3278 1409 3278 1216 
z
" transform="scale(0.015625)"/>
       </defs>
       <use xlink:href="#LiberationSans-33"/>
      </g>
     </g>
    </g>
    <g id="ytick_2">
     <g id="line2d_5">
      <g>
       <use xlink:href="#mb62dfb70ee" x="34.015" y="217.956971" style="stroke: #000000; stroke-width: 0.8"/>
      </g>
     </g>
     <g id="text_5">
      <!-- 4 -->
      <g transform="translate(21.454062 221.580408) scale(0.1 -0.1)">
       <defs>
        <path id="LiberationSans-34" d="M 2753 997 
L 2753 0 
L 2222 0 
L 2222 997 
L 147 997 
L 147 1434 
L 2163 4403 
L 2753 4403 
L 2753 1441 
L 3372 1441 
L 3372 997 
L 2753 997 
z
M 2222 3769 
Q 2216 3753 2191 3708 
Q 2166 3663 2134 3606 
Q 2103 3550 2070 3492 
Q 2038 3434 2013 3397 
L 884 1734 
Q 869 1709 839 1668 
Q 809 1628 778 1586 
Q 747 1544 715 1503 
Q 684 1463 666 1441 
L 2222 1441 
L 2222 3769 
z
" transform="scale(0.015625)"/>
       </defs>
       <use xlink:href="#LiberationSans-34"/>
      </g>
     </g>
    </g>
    <g id="ytick_3">
     <g id="line2d_6">
      <g>
       <use xlink:href="#mb62dfb70ee" x="34.015" y="163.638164" style="stroke: #000000; stroke-width: 0.8"/>
      </g>
     </g>
     <g id="text_6">
      <!-- 5 -->
      <g transform="translate(21.454062 167.261601) scale(0.1 -0.1)">
       <defs>
        <path id="LiberationSans-35" d="M 3291 1434 
Q 3291 1103 3191 828 
Q 3091 553 2894 354 
Q 2697 156 2405 46 
Q 2113 -63 1728 -63 
Q 1381 -63 1123 18 
Q 866 100 687 242 
Q 509 384 404 575 
Q 300 766 256 984 
L 825 1050 
Q 859 925 921 808 
Q 984 691 1092 598 
Q 1200 506 1358 451 
Q 1516 397 1741 397 
Q 1959 397 2137 464 
Q 2316 531 2442 662 
Q 2569 794 2637 984 
Q 2706 1175 2706 1422 
Q 2706 1625 2640 1795 
Q 2575 1966 2453 2089 
Q 2331 2213 2154 2281 
Q 1978 2350 1753 2350 
Q 1613 2350 1494 2325 
Q 1375 2300 1273 2256 
Q 1172 2213 1089 2155 
Q 1006 2097 934 2034 
L 384 2034 
L 531 4403 
L 3034 4403 
L 3034 3925 
L 1044 3925 
L 959 2528 
Q 1109 2644 1334 2726 
Q 1559 2809 1869 2809 
Q 2197 2809 2459 2709 
Q 2722 2609 2906 2426 
Q 3091 2244 3191 1991 
Q 3291 1738 3291 1434 
z
" transform="scale(0.015625)"/>
       </defs>
       <use xlink:href="#LiberationSans-35"/>
      </g>
     </g>
    </g>
    <g id="ytick_4">
     <g id="line2d_7">
      <g>
       <use xlink:href="#mb62dfb70ee" x="34.015" y="109.319357" style="stroke: #000000; stroke-width: 0.8"/>
      </g>
     </g>
     <g id="text_7">
      <!-- 6 -->
      <g transform="translate(21.454062 112.942794) scale(0.1 -0.1)">
       <defs>
        <path id="LiberationSans-36" d="M 3278 1441 
Q 3278 1109 3186 832 
Q 3094 556 2914 357 
Q 2734 159 2468 48 
Q 2203 -63 1856 -63 
Q 1472 -63 1184 84 
Q 897 231 706 507 
Q 516 784 420 1186 
Q 325 1588 325 2100 
Q 325 2688 433 3131 
Q 541 3575 744 3872 
Q 947 4169 1239 4319 
Q 1531 4469 1900 4469 
Q 2125 4469 2322 4422 
Q 2519 4375 2680 4270 
Q 2841 4166 2962 3994 
Q 3084 3822 3156 3572 
L 2619 3475 
Q 2531 3759 2339 3886 
Q 2147 4013 1894 4013 
Q 1663 4013 1475 3903 
Q 1288 3794 1156 3576 
Q 1025 3359 954 3031 
Q 884 2703 884 2266 
Q 1038 2550 1316 2698 
Q 1594 2847 1953 2847 
Q 2253 2847 2497 2750 
Q 2741 2653 2914 2470 
Q 3088 2288 3183 2027 
Q 3278 1766 3278 1441 
z
M 2706 1416 
Q 2706 1644 2650 1828 
Q 2594 2013 2481 2142 
Q 2369 2272 2203 2342 
Q 2038 2413 1819 2413 
Q 1666 2413 1509 2367 
Q 1353 2322 1226 2220 
Q 1100 2119 1020 1953 
Q 941 1788 941 1550 
Q 941 1306 1003 1095 
Q 1066 884 1183 728 
Q 1300 572 1465 481 
Q 1631 391 1838 391 
Q 2041 391 2202 461 
Q 2363 531 2475 664 
Q 2588 797 2647 987 
Q 2706 1178 2706 1416 
z
" transform="scale(0.015625)"/>
       </defs>
       <use xlink:href="#LiberationSans-36"/>
      </g>
     </g>
    </g>
    <g id="ytick_5">
     <g id="line2d_8">
      <g>
       <use xlink:href="#mb62dfb70ee" x="34.015" y="55.00055" style="stroke: #000000; stroke-width: 0.8"/>
      </g>
     </g>
     <g id="text_8">
      <!-- 7 -->
      <g transform="translate(21.454062 58.623988) scale(0.1 -0.1)">
       <defs>
        <path id="LiberationSans-37" d="M 3238 3947 
Q 2906 3441 2628 2973 
Q 2350 2506 2150 2032 
Q 1950 1559 1839 1061 
Q 1728 563 1728 0 
L 1141 0 
Q 1141 528 1266 1036 
Q 1391 1544 1603 2033 
Q 1816 2522 2097 2994 
Q 2378 3466 2694 3925 
L 328 3925 
L 328 4403 
L 3238 4403 
L 3238 3947 
z
" transform="scale(0.015625)"/>
       </defs>
       <use xlink:href="#LiberationSans-37"/>
      </g>
     </g>
    </g>
    <g id="text_9">
     <!-- IDEB 2023 -->
     <g transform="translate(15.171562 168.510016) rotate(-90) scale(0.11 -0.11)">
      <defs>
       <path id="LiberationSans-49" d="M 591 0 
L 591 4403 
L 1188 4403 
L 1188 0 
L 591 0 
z
" transform="scale(0.015625)"/>
       <path id="LiberationSans-44" d="M 4316 2247 
Q 4316 1697 4150 1276 
Q 3984 856 3696 573 
Q 3409 291 3017 145 
Q 2625 0 2172 0 
L 525 0 
L 525 4403 
L 1981 4403 
Q 2491 4403 2920 4276 
Q 3350 4150 3659 3886 
Q 3969 3622 4142 3215 
Q 4316 2809 4316 2247 
z
M 3716 2247 
Q 3716 2694 3587 3011 
Q 3459 3328 3228 3531 
Q 2997 3734 2675 3829 
Q 2353 3925 1969 3925 
L 1122 3925 
L 1122 478 
L 2103 478 
Q 2450 478 2745 590 
Q 3041 703 3256 925 
Q 3472 1147 3594 1478 
Q 3716 1809 3716 2247 
z
" transform="scale(0.015625)"/>
       <path id="LiberationSans-42" d="M 3931 1241 
Q 3931 906 3800 670 
Q 3669 434 3447 286 
Q 3225 138 2931 69 
Q 2638 0 2313 0 
L 525 0 
L 525 4403 
L 2125 4403 
Q 2491 4403 2778 4342 
Q 3066 4281 3266 4150 
Q 3466 4019 3570 3817 
Q 3675 3616 3675 3334 
Q 3675 3150 3623 2987 
Q 3572 2825 3467 2692 
Q 3363 2559 3205 2464 
Q 3047 2369 2838 2322 
Q 3103 2291 3308 2200 
Q 3513 2109 3650 1968 
Q 3788 1828 3859 1642 
Q 3931 1456 3931 1241 
z
M 3075 3263 
Q 3075 3619 2831 3772 
Q 2588 3925 2125 3925 
L 1122 3925 
L 1122 2531 
L 2125 2531 
Q 2388 2531 2569 2582 
Q 2750 2634 2862 2729 
Q 2975 2825 3025 2959 
Q 3075 3094 3075 3263 
z
M 3328 1288 
Q 3328 1497 3251 1644 
Q 3175 1791 3031 1884 
Q 2888 1978 2686 2022 
Q 2484 2066 2234 2066 
L 1122 2066 
L 1122 478 
L 2281 478 
Q 2509 478 2701 515 
Q 2894 553 3033 647 
Q 3172 741 3250 897 
Q 3328 1053 3328 1288 
z
" transform="scale(0.015625)"/>
       <path id="LiberationSans-32" d="M 322 0 
L 322 397 
Q 481 763 711 1042 
Q 941 1322 1194 1548 
Q 1447 1775 1695 1969 
Q 1944 2163 2144 2356 
Q 2344 2550 2467 2762 
Q 2591 2975 2591 3244 
Q 2591 3431 2534 3573 
Q 2478 3716 2372 3812 
Q 2266 3909 2117 3957 
Q 1969 4006 1788 4006 
Q 1619 4006 1470 3959 
Q 1322 3913 1206 3819 
Q 1091 3725 1017 3586 
Q 944 3447 922 3263 
L 347 3316 
Q 375 3553 478 3762 
Q 581 3972 762 4130 
Q 944 4288 1198 4378 
Q 1453 4469 1788 4469 
Q 2116 4469 2372 4391 
Q 2628 4313 2804 4159 
Q 2981 4006 3075 3781 
Q 3169 3556 3169 3263 
Q 3169 3041 3089 2841 
Q 3009 2641 2876 2459 
Q 2744 2278 2569 2109 
Q 2394 1941 2203 1780 
Q 2013 1619 1819 1461 
Q 1625 1303 1454 1143 
Q 1284 984 1150 820 
Q 1016 656 941 478 
L 3238 478 
L 3238 0 
L 322 0 
z
" transform="scale(0.015625)"/>
       <path id="LiberationSans-30" d="M 3309 2203 
Q 3309 1569 3189 1136 
Q 3069 703 2861 436 
Q 2653 169 2372 53 
Q 2091 -63 1772 -63 
Q 1450 -63 1172 53 
Q 894 169 689 434 
Q 484 700 367 1133 
Q 250 1566 250 2203 
Q 250 2869 367 3305 
Q 484 3741 690 4000 
Q 897 4259 1178 4364 
Q 1459 4469 1791 4469 
Q 2106 4469 2382 4364 
Q 2659 4259 2865 4000 
Q 3072 3741 3190 3305 
Q 3309 2869 3309 2203 
z
M 2738 2203 
Q 2738 2728 2675 3076 
Q 2613 3425 2491 3633 
Q 2369 3841 2192 3927 
Q 2016 4013 1791 4013 
Q 1553 4013 1372 3925 
Q 1191 3838 1067 3630 
Q 944 3422 881 3073 
Q 819 2725 819 2203 
Q 819 1697 883 1350 
Q 947 1003 1070 792 
Q 1194 581 1372 489 
Q 1550 397 1778 397 
Q 2000 397 2178 489 
Q 2356 581 2479 792 
Q 2603 1003 2670 1350 
Q 2738 1697 2738 2203 
z
" transform="scale(0.015625)"/>
      </defs>
      <use xlink:href="#LiberationSans-49"/>
      <use xlink:href="#LiberationSans-44" transform="translate(27.783203 0)"/>
      <use xlink:href="#LiberationSans-45" transform="translate(100 0)"/>
      <use xlink:href="#LiberationSans-42" transform="translate(166.699219 0)"/>
      <use xlink:href="#LiberationSans-20" transform="translate(233.398438 0)"/>
      <use xlink:href="#LiberationSans-32" transform="translate(261.181641 0)"/>
      <use xlink:href="#LiberationSans-30" transform="translate(316.796875 0)"/>
      <use xlink:href="#LiberationSans-32" transform="translate(372.412109 0)"/>
      <use xlink:href="#LiberationSans-33" transform="translate(428.027344 0)"/>
     </g>
    </g>
   </g>
   <g id="LineCollection_1">
    <path d="M 75.206748 151.882715 
L 116.398497 151.882715 
" clip-path="url(#pd34c0ef500)" style="fill: none; stroke: #000000; stroke-width: 1.5"/>
    <path d="M 239.973741 147.844628 
L 281.16549 147.844628 
" clip-path="url(#pd34c0ef500)" style="fill: none; stroke: #000000; stroke-width: 1.5"/>
    <path d="M 404.740734 155.295477 
L 445.932483 155.295477 
" clip-path="url(#pd34c0ef500)" style="fill: none; stroke: #000000; stroke-width: 1.5"/>
   </g>
   <g id="patch_3">
    <path d="M 34.015 276.621282 
L 34.015 7.2 
" style="fill: none; stroke: #000000; stroke-width: 1.5; stroke-linejoin: miter; stroke-linecap: square"/>
   </g>
   <g id="patch_4">
    <path d="M 34.015 276.621282 
L 487.124231 276.621282 
" style="fill: none; stroke: #000000; stroke-width: 1.5; stroke-linejoin: miter; stroke-linecap: square"/>
   </g>
   <g id="text_10">
    <!-- média = 5,22 -->
    <g transform="translate(69.661138 18.995462) scale(0.09 -0.09)">
     <defs>
      <path id="LiberationSans-6d" d="M 2400 0 
L 2400 2144 
Q 2400 2391 2369 2556 
Q 2338 2722 2264 2823 
Q 2191 2925 2072 2967 
Q 1953 3009 1781 3009 
Q 1603 3009 1459 2939 
Q 1316 2869 1214 2736 
Q 1113 2603 1058 2408 
Q 1003 2213 1003 1959 
L 1003 0 
L 444 0 
L 444 2659 
Q 444 2766 442 2883 
Q 441 3000 437 3104 
Q 434 3209 431 3284 
Q 428 3359 425 3381 
L 956 3381 
Q 959 3366 962 3297 
Q 966 3228 970 3139 
Q 975 3050 978 2958 
Q 981 2866 981 2803 
L 991 2803 
Q 1066 2950 1153 3069 
Q 1241 3188 1358 3270 
Q 1475 3353 1626 3398 
Q 1778 3444 1978 3444 
Q 2363 3444 2586 3291 
Q 2809 3138 2897 2803 
L 2906 2803 
Q 2981 2950 3075 3069 
Q 3169 3188 3294 3270 
Q 3419 3353 3575 3398 
Q 3731 3444 3931 3444 
Q 4188 3444 4373 3375 
Q 4559 3306 4678 3162 
Q 4797 3019 4853 2792 
Q 4909 2566 4909 2253 
L 4909 0 
L 4353 0 
L 4353 2144 
Q 4353 2391 4322 2556 
Q 4291 2722 4217 2823 
Q 4144 2925 4025 2967 
Q 3906 3009 3734 3009 
Q 3556 3009 3412 2942 
Q 3269 2875 3167 2744 
Q 3066 2613 3011 2416 
Q 2956 2219 2956 1959 
L 2956 0 
L 2400 0 
z
" transform="scale(0.015625)"/>
      <path id="LiberationSans-e9" d="M 863 1572 
Q 863 1306 917 1082 
Q 972 859 1086 698 
Q 1200 538 1378 448 
Q 1556 359 1806 359 
Q 2172 359 2392 506 
Q 2613 653 2691 878 
L 3184 738 
Q 3131 597 3036 455 
Q 2941 313 2781 198 
Q 2622 84 2383 10 
Q 2144 -63 1806 -63 
Q 1056 -63 664 384 
Q 272 831 272 1713 
Q 272 2188 390 2517 
Q 509 2847 715 3053 
Q 922 3259 1197 3351 
Q 1472 3444 1784 3444 
Q 2209 3444 2495 3306 
Q 2781 3169 2954 2926 
Q 3128 2684 3201 2356 
Q 3275 2028 3275 1647 
L 3275 1572 
L 863 1572 
z
M 2694 2003 
Q 2647 2538 2422 2783 
Q 2197 3028 1775 3028 
Q 1634 3028 1479 2983 
Q 1325 2938 1194 2822 
Q 1063 2706 972 2507 
Q 881 2309 869 2003 
L 2694 2003 
z
M 1377 3753 
L 1377 3816 
L 2055 4713 
L 2702 4713 
L 2702 4622 
L 1671 3753 
L 1377 3753 
z
" transform="scale(0.015625)"/>
      <path id="LiberationSans-64" d="M 2566 544 
Q 2409 219 2151 78 
Q 1894 -63 1513 -63 
Q 872 -63 570 368 
Q 269 800 269 1675 
Q 269 3444 1513 3444 
Q 1897 3444 2153 3303 
Q 2409 3163 2566 2856 
L 2572 2856 
Q 2572 2888 2570 2955 
Q 2569 3022 2567 3095 
Q 2566 3169 2566 3234 
Q 2566 3300 2566 3328 
L 2566 4638 
L 3128 4638 
L 3128 697 
Q 3128 575 3129 462 
Q 3131 350 3134 256 
Q 3138 163 3141 95 
Q 3144 28 3147 0 
L 2609 0 
Q 2603 31 2598 89 
Q 2594 147 2589 222 
Q 2584 297 2581 380 
Q 2578 463 2578 544 
L 2566 544 
z
M 859 1694 
Q 859 1344 903 1094 
Q 947 844 1044 683 
Q 1141 522 1291 447 
Q 1441 372 1656 372 
Q 1878 372 2048 444 
Q 2219 516 2333 677 
Q 2447 838 2506 1097 
Q 2566 1356 2566 1731 
Q 2566 2091 2506 2339 
Q 2447 2588 2331 2741 
Q 2216 2894 2048 2961 
Q 1881 3028 1663 3028 
Q 1456 3028 1306 2956 
Q 1156 2884 1056 2725 
Q 956 2566 907 2311 
Q 859 2056 859 1694 
z
" transform="scale(0.015625)"/>
      <path id="LiberationSans-3d" d="M 313 2675 
L 313 3138 
L 3422 3138 
L 3422 2675 
L 313 2675 
z
M 313 1075 
L 313 1538 
L 3422 1538 
L 3422 1075 
L 313 1075 
z
" transform="scale(0.015625)"/>
      <path id="LiberationSans-2c" d="M 1203 684 
L 1203 159 
Q 1203 -6 1189 -142 
Q 1175 -278 1144 -395 
Q 1113 -513 1067 -616 
Q 1022 -719 959 -819 
L 575 -819 
Q 716 -616 792 -409 
Q 869 -203 869 0 
L 594 0 
L 594 684 
L 1203 684 
z
" transform="scale(0.015625)"/>
     </defs>
     <use xlink:href="#LiberationSans-6d"/>
     <use xlink:href="#LiberationSans-e9" transform="translate(83.300781 0)"/>
     <use xlink:href="#LiberationSans-64" transform="translate(138.916016 0)"/>
     <use xlink:href="#LiberationSans-69" transform="translate(194.53125 0)"/>
     <use xlink:href="#LiberationSans-61" transform="translate(216.748047 0)"/>
     <use xlink:href="#LiberationSans-20" transform="translate(272.363281 0)"/>
     <use xlink:href="#LiberationSans-3d" transform="translate(300.146484 0)"/>
     <use xlink:href="#LiberationSans-20" transform="translate(358.544922 0)"/>
     <use xlink:href="#LiberationSans-35" transform="translate(386.328125 0)"/>
     <use xlink:href="#LiberationSans-2c" transform="translate(441.943359 0)"/>
     <use xlink:href="#LiberationSans-32" transform="translate(469.726562 0)"/>
     <use xlink:href="#LiberationSans-32" transform="translate(525.341797 0)"/>
    </g>
    <!-- (n = 2857) -->
    <g transform="translate(75.165201 28.689587) scale(0.09 -0.09)">
     <defs>
      <path id="LiberationSans-28" d="M 397 1663 
Q 397 2097 462 2494 
Q 528 2891 668 3256 
Q 809 3622 1028 3965 
Q 1247 4309 1550 4638 
L 2094 4638 
Q 1800 4309 1586 3964 
Q 1372 3619 1234 3251 
Q 1097 2884 1030 2487 
Q 963 2091 963 1656 
Q 963 1222 1030 825 
Q 1097 428 1234 59 
Q 1372 -309 1586 -653 
Q 1800 -997 2094 -1325 
L 1550 -1325 
Q 1247 -997 1028 -653 
Q 809 -309 668 56 
Q 528 422 462 817 
Q 397 1213 397 1650 
L 397 1663 
z
" transform="scale(0.015625)"/>
      <path id="LiberationSans-38" d="M 3281 1228 
Q 3281 947 3192 711 
Q 3103 475 2920 303 
Q 2738 131 2453 34 
Q 2169 -63 1781 -63 
Q 1394 -63 1111 34 
Q 828 131 642 301 
Q 456 472 367 708 
Q 278 944 278 1222 
Q 278 1463 351 1650 
Q 425 1838 548 1973 
Q 672 2109 830 2192 
Q 988 2275 1156 2303 
L 1156 2316 
Q 972 2359 826 2456 
Q 681 2553 582 2689 
Q 484 2825 432 2990 
Q 381 3156 381 3341 
Q 381 3572 470 3776 
Q 559 3981 734 4136 
Q 909 4291 1168 4380 
Q 1428 4469 1769 4469 
Q 2128 4469 2392 4378 
Q 2656 4288 2829 4133 
Q 3003 3978 3087 3772 
Q 3172 3566 3172 3334 
Q 3172 3153 3120 2987 
Q 3069 2822 2970 2686 
Q 2872 2550 2726 2454 
Q 2581 2359 2391 2322 
L 2391 2309 
Q 2581 2278 2743 2195 
Q 2906 2113 3025 1977 
Q 3144 1841 3212 1653 
Q 3281 1466 3281 1228 
z
M 2588 3303 
Q 2588 3469 2545 3606 
Q 2503 3744 2406 3842 
Q 2309 3941 2153 3995 
Q 1997 4050 1769 4050 
Q 1547 4050 1394 3995 
Q 1241 3941 1142 3842 
Q 1044 3744 1000 3606 
Q 956 3469 956 3303 
Q 956 3172 990 3034 
Q 1025 2897 1115 2784 
Q 1206 2672 1365 2600 
Q 1525 2528 1775 2528 
Q 2041 2528 2202 2600 
Q 2363 2672 2448 2784 
Q 2534 2897 2561 3034 
Q 2588 3172 2588 3303 
z
M 2697 1281 
Q 2697 1441 2653 1589 
Q 2609 1738 2503 1852 
Q 2397 1966 2217 2036 
Q 2038 2106 1769 2106 
Q 1522 2106 1348 2036 
Q 1175 1966 1067 1850 
Q 959 1734 909 1582 
Q 859 1431 859 1269 
Q 859 1066 909 898 
Q 959 731 1068 611 
Q 1178 491 1356 425 
Q 1534 359 1788 359 
Q 2044 359 2219 425 
Q 2394 491 2500 611 
Q 2606 731 2651 901 
Q 2697 1072 2697 1281 
z
" transform="scale(0.015625)"/>
      <path id="LiberationSans-29" d="M 1734 1650 
Q 1734 1213 1668 817 
Q 1603 422 1462 56 
Q 1322 -309 1103 -653 
Q 884 -997 581 -1325 
L 38 -1325 
Q 331 -997 545 -653 
Q 759 -309 896 59 
Q 1034 428 1101 825 
Q 1169 1222 1169 1656 
Q 1169 2091 1101 2487 
Q 1034 2884 896 3251 
Q 759 3619 545 3964 
Q 331 4309 38 4638 
L 581 4638 
Q 884 4309 1103 3965 
Q 1322 3622 1462 3256 
Q 1603 2891 1668 2494 
Q 1734 2097 1734 1663 
L 1734 1650 
z
" transform="scale(0.015625)"/>
     </defs>
     <use xlink:href="#LiberationSans-28"/>
     <use xlink:href="#LiberationSans-6e" transform="translate(33.300781 0)"/>
     <use xlink:href="#LiberationSans-20" transform="translate(88.916016 0)"/>
     <use xlink:href="#LiberationSans-3d" transform="translate(116.699219 0)"/>
     <use xlink:href="#LiberationSans-20" transform="translate(175.097656 0)"/>
     <use xlink:href="#LiberationSans-32" transform="translate(202.880859 0)"/>
     <use xlink:href="#LiberationSans-38" transform="translate(258.496094 0)"/>
     <use xlink:href="#LiberationSans-35" transform="translate(314.111328 0)"/>
     <use xlink:href="#LiberationSans-37" transform="translate(369.726562 0)"/>
     <use xlink:href="#LiberationSans-29" transform="translate(425.341797 0)"/>
    </g>
   </g>
   <g id="text_11">
    <!-- média = 5,29 -->
    <g transform="translate(234.428131 46.154865) scale(0.09 -0.09)">
     <defs>
      <path id="LiberationSans-39" d="M 3256 2291 
Q 3256 1703 3145 1261 
Q 3034 819 2828 525 
Q 2622 231 2326 84 
Q 2031 -63 1663 -63 
Q 1409 -63 1206 -11 
Q 1003 41 843 150 
Q 684 259 571 434 
Q 459 609 391 856 
L 928 941 
Q 1016 656 1202 523 
Q 1388 391 1672 391 
Q 1900 391 2089 498 
Q 2278 606 2411 822 
Q 2544 1038 2619 1363 
Q 2694 1688 2700 2125 
Q 2634 1978 2520 1862 
Q 2406 1747 2261 1667 
Q 2116 1588 1947 1545 
Q 1778 1503 1606 1503 
Q 1306 1503 1064 1611 
Q 822 1719 653 1912 
Q 484 2106 392 2379 
Q 300 2653 300 2988 
Q 300 3328 398 3603 
Q 497 3878 684 4070 
Q 872 4263 1145 4366 
Q 1419 4469 1766 4469 
Q 2500 4469 2878 3925 
Q 3256 3381 3256 2291 
z
M 2644 2834 
Q 2644 3078 2586 3293 
Q 2528 3509 2414 3668 
Q 2300 3828 2133 3920 
Q 1966 4013 1747 4013 
Q 1544 4013 1381 3941 
Q 1219 3869 1106 3736 
Q 994 3603 933 3412 
Q 872 3222 872 2988 
Q 872 2766 926 2575 
Q 981 2384 1090 2245 
Q 1200 2106 1362 2026 
Q 1525 1947 1741 1947 
Q 1897 1947 2058 2000 
Q 2219 2053 2348 2162 
Q 2478 2272 2561 2439 
Q 2644 2606 2644 2834 
z
" transform="scale(0.015625)"/>
     </defs>
     <use xlink:href="#LiberationSans-6d"/>
     <use xlink:href="#LiberationSans-e9" transform="translate(83.300781 0)"/>
     <use xlink:href="#LiberationSans-64" transform="translate(138.916016 0)"/>
     <use xlink:href="#LiberationSans-69" transform="translate(194.53125 0)"/>
     <use xlink:href="#LiberationSans-61" transform="translate(216.748047 0)"/>
     <use xlink:href="#LiberationSans-20" transform="translate(272.363281 0)"/>
     <use xlink:href="#LiberationSans-3d" transform="translate(300.146484 0)"/>
     <use xlink:href="#LiberationSans-20" transform="translate(358.544922 0)"/>
     <use xlink:href="#LiberationSans-35" transform="translate(386.328125 0)"/>
     <use xlink:href="#LiberationSans-2c" transform="translate(441.943359 0)"/>
     <use xlink:href="#LiberationSans-32" transform="translate(469.726562 0)"/>
     <use xlink:href="#LiberationSans-39" transform="translate(525.341797 0)"/>
    </g>
    <!-- (n = 119) -->
    <g transform="translate(242.434615 55.84899) scale(0.09 -0.09)">
     <defs>
      <path id="LiberationSans-31" d="M 488 0 
L 488 478 
L 1609 478 
L 1609 3866 
L 616 3156 
L 616 3688 
L 1656 4403 
L 2175 4403 
L 2175 478 
L 3247 478 
L 3247 0 
L 488 0 
z
" transform="scale(0.015625)"/>
     </defs>
     <use xlink:href="#LiberationSans-28"/>
     <use xlink:href="#LiberationSans-6e" transform="translate(33.300781 0)"/>
     <use xlink:href="#LiberationSans-20" transform="translate(88.916016 0)"/>
     <use xlink:href="#LiberationSans-3d" transform="translate(116.699219 0)"/>
     <use xlink:href="#LiberationSans-20" transform="translate(175.097656 0)"/>
     <use xlink:href="#LiberationSans-31" transform="translate(202.880859 0)"/>
     <use xlink:href="#LiberationSans-31" transform="translate(258.496094 0)"/>
     <use xlink:href="#LiberationSans-39" transform="translate(314.111328 0)"/>
     <use xlink:href="#LiberationSans-29" transform="translate(369.726562 0)"/>
    </g>
   </g>
   <g id="text_12">
    <!-- média = 5,15 -->
    <g transform="translate(399.195124 18.995462) scale(0.09 -0.09)">
     <use xlink:href="#LiberationSans-6d"/>
     <use xlink:href="#LiberationSans-e9" transform="translate(83.300781 0)"/>
     <use xlink:href="#LiberationSans-64" transform="translate(138.916016 0)"/>
     <use xlink:href="#LiberationSans-69" transform="translate(194.53125 0)"/>
     <use xlink:href="#LiberationSans-61" transform="translate(216.748047 0)"/>
     <use xlink:href="#LiberationSans-20" transform="translate(272.363281 0)"/>
     <use xlink:href="#LiberationSans-3d" transform="translate(300.146484 0)"/>
     <use xlink:href="#LiberationSans-20" transform="translate(358.544922 0)"/>
     <use xlink:href="#LiberationSans-35" transform="translate(386.328125 0)"/>
     <use xlink:href="#LiberationSans-2c" transform="translate(441.943359 0)"/>
     <use xlink:href="#LiberationSans-31" transform="translate(469.726562 0)"/>
     <use xlink:href="#LiberationSans-35" transform="translate(525.341797 0)"/>
    </g>
    <!-- (n = 446) -->
    <g transform="translate(407.201608 28.689587) scale(0.09 -0.09)">
     <use xlink:href="#LiberationSans-28"/>
     <use xlink:href="#LiberationSans-6e" transform="translate(33.300781 0)"/>
     <use xlink:href="#LiberationSans-20" transform="translate(88.916016 0)"/>
     <use xlink:href="#LiberationSans-3d" transform="translate(116.699219 0)"/>
     <use xlink:href="#LiberationSans-20" transform="translate(175.097656 0)"/>
     <use xlink:href="#LiberationSans-34" transform="translate(202.880859 0)"/>
     <use xlink:href="#LiberationSans-34" transform="translate(258.496094 0)"/>
     <use xlink:href="#LiberationSans-36" transform="translate(314.111328 0)"/>
     <use xlink:href="#LiberationSans-29" transform="translate(369.726562 0)"/>
    </g>
   </g>
  </g>
 </g>
 <defs>
  <clipPath id="pd34c0ef500">
   <rect x="34.015" y="7.2" width="453.109231" height="269.421282"/>
  </clipPath>
 </defs>
</svg>
