<?xml version="1.0" encoding="utf-8" standalone="no"?>
<!DOCTYPE svg PUBLIC "-//W3C//DTD SVG 1.1//EN"
  "http://www.w3.org/Graphics/SVG/1.1/DTD/svg11.dtd">
<svg xmlns:xlink="http://www.w3.org/1999/xlink" width="1072.425725pt" height="711.744162pt" viewBox="0 0 1072.425725 711.744162" xmlns="http://www.w3.org/2000/svg" version="1.1">
 <metadata>
  <rdf:RDF xmlns:dc="http://purl.org/dc/elements/1.1/" xmlns:cc="http://creativecommons.org/ns#" xmlns:rdf="http://www.w3.org/1999/02/22-rdf-syntax-ns#">
   <cc:Work>
    <dc:type rdf:resource="http://purl.org/dc/dcmitype/StillImage"/>
    <dc:date>2026-03-15T00:09:33.039122</dc:date>
    <dc:format>image/svg+xml</dc:format>
    <dc:creator>
     <cc:Agent>
      <dc:title>Matplotlib v3.10.0, https://matplotlib.org/</dc:title>
     </cc:Agent>
    </dc:creator>
   </cc:Work>
  </rdf:RDF>
 </metadata>
 <defs>
  <style type="text/css">*{stroke-linejoin: round; stroke-linecap: butt}</style>
 </defs>
 <g id="figure_1">
  <g id="patch_1">
   <path d="M 0 711.744162 
L 1072.425725 711.744162 
L 1072.425725 0 
L 0 0 
z
" style="fill: #ffffff"/>
  </g>
  <g id="axes_1">
   <g id="patch_2">
    <path d="M 42.615725 331.424062 
L 347.865725 331.424062 
L 347.865725 21.364062 
L 42.615725 21.364062 
z
" style="fill: #ffffff"/>
   </g>
   <g id="matplotlib.axis_1">
    <g id="xtick_1">
     <g id="text_1">
      <!-- Cluster 0 -->
      <g style="fill: #262626" transform="translate(72.356257 347.748012) scale(0.1056 -0.1056)">
       <defs>
        <path id="DejaVuSans-43" d="M 4122 4306 
L 4122 3641 
Q 3803 3938 3442 4084 
Q 3081 4231 2675 4231 
Q 1875 4231 1450 3742 
Q 1025 3253 1025 2328 
Q 1025 1406 1450 917 
Q 1875 428 2675 428 
Q 3081 428 3442 575 
Q 3803 722 4122 1019 
L 4122 359 
Q 3791 134 3420 21 
Q 3050 -91 2638 -91 
Q 1578 -91 968 557 
Q 359 1206 359 2328 
Q 359 3453 968 4101 
Q 1578 4750 2638 4750 
Q 3056 4750 3426 4639 
Q 3797 4528 4122 4306 
z
" transform="scale(0.015625)"/>
        <path id="DejaVuSans-6c" d="M 603 4863 
L 1178 4863 
L 1178 0 
L 603 0 
L 603 4863 
z
" transform="scale(0.015625)"/>
        <path id="DejaVuSans-75" d="M 544 1381 
L 544 3500 
L 1119 3500 
L 1119 1403 
Q 1119 906 1312 657 
Q 1506 409 1894 409 
Q 2359 409 2629 706 
Q 2900 1003 2900 1516 
L 2900 3500 
L 3475 3500 
L 3475 0 
L 2900 0 
L 2900 538 
Q 2691 219 2414 64 
Q 2138 -91 1772 -91 
Q 1169 -91 856 284 
Q 544 659 544 1381 
z
M 1991 3584 
L 1991 3584 
z
" transform="scale(0.015625)"/>
        <path id="DejaVuSans-73" d="M 2834 3397 
L 2834 2853 
Q 2591 2978 2328 3040 
Q 2066 3103 1784 3103 
Q 1356 3103 1142 2972 
Q 928 2841 928 2578 
Q 928 2378 1081 2264 
Q 1234 2150 1697 2047 
L 1894 2003 
Q 2506 1872 2764 1633 
Q 3022 1394 3022 966 
Q 3022 478 2636 193 
Q 2250 -91 1575 -91 
Q 1294 -91 989 -36 
Q 684 19 347 128 
L 347 722 
Q 666 556 975 473 
Q 1284 391 1588 391 
Q 1994 391 2212 530 
Q 2431 669 2431 922 
Q 2431 1156 2273 1281 
Q 2116 1406 1581 1522 
L 1381 1569 
Q 847 1681 609 1914 
Q 372 2147 372 2553 
Q 372 3047 722 3315 
Q 1072 3584 1716 3584 
Q 2034 3584 2315 3537 
Q 2597 3491 2834 3397 
z
" transform="scale(0.015625)"/>
        <path id="DejaVuSans-74" d="M 1172 4494 
L 1172 3500 
L 2356 3500 
L 2356 3053 
L 1172 3053 
L 1172 1153 
Q 1172 725 1289 603 
Q 1406 481 1766 481 
L 2356 481 
L 2356 0 
L 1766 0 
Q 1100 0 847 248 
Q 594 497 594 1153 
L 594 3053 
L 172 3053 
L 172 3500 
L 594 3500 
L 594 4494 
L 1172 4494 
z
" transform="scale(0.015625)"/>
        <path id="DejaVuSans-65" d="M 3597 1894 
L 3597 1613 
L 953 1613 
Q 991 1019 1311 708 
Q 1631 397 2203 397 
Q 2534 397 2845 478 
Q 3156 559 3463 722 
L 3463 178 
Q 3153 47 2828 -22 
Q 2503 -91 2169 -91 
Q 1331 -91 842 396 
Q 353 884 353 1716 
Q 353 2575 817 3079 
Q 1281 3584 2069 3584 
Q 2775 3584 3186 3129 
Q 3597 2675 3597 1894 
z
M 3022 2063 
Q 3016 2534 2758 2815 
Q 2500 3097 2075 3097 
Q 1594 3097 1305 2825 
Q 1016 2553 972 2059 
L 3022 2063 
z
" transform="scale(0.015625)"/>
        <path id="DejaVuSans-72" d="M 2631 2963 
Q 2534 3019 2420 3045 
Q 2306 3072 2169 3072 
Q 1681 3072 1420 2755 
Q 1159 2438 1159 1844 
L 1159 0 
L 581 0 
L 581 3500 
L 1159 3500 
L 1159 2956 
Q 1341 3275 1631 3429 
Q 1922 3584 2338 3584 
Q 2397 3584 2469 3576 
Q 2541 3569 2628 3553 
L 2631 2963 
z
" transform="scale(0.015625)"/>
        <path id="DejaVuSans-20" transform="scale(0.015625)"/>
        <path id="DejaVuSans-30" d="M 2034 4250 
Q 1547 4250 1301 3770 
Q 1056 3291 1056 2328 
Q 1056 1369 1301 889 
Q 1547 409 2034 409 
Q 2525 409 2770 889 
Q 3016 1369 3016 2328 
Q 3016 3291 2770 3770 
Q 2525 4250 2034 4250 
z
M 2034 4750 
Q 2819 4750 3233 4129 
Q 3647 3509 3647 2328 
Q 3647 1150 3233 529 
Q 2819 -91 2034 -91 
Q 1250 -91 836 529 
Q 422 1150 422 2328 
Q 422 3509 836 4129 
Q 1250 4750 2034 4750 
z
" transform="scale(0.015625)"/>
       </defs>
       <use xlink:href="#DejaVuSans-43"/>
       <use xlink:href="#DejaVuSans-6c" transform="translate(69.824219 0)"/>
       <use xlink:href="#DejaVuSans-75" transform="translate(97.607422 0)"/>
       <use xlink:href="#DejaVuSans-73" transform="translate(160.986328 0)"/>
       <use xlink:href="#DejaVuSans-74" transform="translate(213.085938 0)"/>
       <use xlink:href="#DejaVuSans-65" transform="translate(252.294922 0)"/>
       <use xlink:href="#DejaVuSans-72" transform="translate(313.818359 0)"/>
       <use xlink:href="#DejaVuSans-20" transform="translate(354.931641 0)"/>
       <use xlink:href="#DejaVuSans-30" transform="translate(386.71875 0)"/>
      </g>
     </g>
    </g>
    <g id="xtick_2">
     <g id="text_2">
      <!-- Cluster 1 -->
      <g style="fill: #262626" transform="translate(171.4634 347.748012) scale(0.1056 -0.1056)">
       <defs>
        <path id="DejaVuSans-31" d="M 794 531 
L 1825 531 
L 1825 4091 
L 703 3866 
L 703 4441 
L 1819 4666 
L 2450 4666 
L 2450 531 
L 3481 531 
L 3481 0 
L 794 0 
L 794 531 
z
" transform="scale(0.015625)"/>
       </defs>
       <use xlink:href="#DejaVuSans-43"/>
       <use xlink:href="#DejaVuSans-6c" transform="translate(69.824219 0)"/>
       <use xlink:href="#DejaVuSans-75" transform="translate(97.607422 0)"/>
       <use xlink:href="#DejaVuSans-73" transform="translate(160.986328 0)"/>
       <use xlink:href="#DejaVuSans-74" transform="translate(213.085938 0)"/>
       <use xlink:href="#DejaVuSans-65" transform="translate(252.294922 0)"/>
       <use xlink:href="#DejaVuSans-72" transform="translate(313.818359 0)"/>
       <use xlink:href="#DejaVuSans-20" transform="translate(354.931641 0)"/>
       <use xlink:href="#DejaVuSans-31" transform="translate(386.71875 0)"/>
      </g>
     </g>
    </g>
    <g id="xtick_3">
     <g id="text_3">
      <!-- Cluster 2 -->
      <g style="fill: #262626" transform="translate(270.570543 347.748012) scale(0.1056 -0.1056)">
       <defs>
        <path id="DejaVuSans-32" d="M 1228 531 
L 3431 531 
L 3431 0 
L 469 0 
L 469 531 
Q 828 903 1448 1529 
Q 2069 2156 2228 2338 
Q 2531 2678 2651 2914 
Q 2772 3150 2772 3378 
Q 2772 3750 2511 3984 
Q 2250 4219 1831 4219 
Q 1534 4219 1204 4116 
Q 875 4013 500 3803 
L 500 4441 
Q 881 4594 1212 4672 
Q 1544 4750 1819 4750 
Q 2544 4750 2975 4387 
Q 3406 4025 3406 3419 
Q 3406 3131 3298 2873 
Q 3191 2616 2906 2266 
Q 2828 2175 2409 1742 
Q 1991 1309 1228 531 
z
" transform="scale(0.015625)"/>
       </defs>
       <use xlink:href="#DejaVuSans-43"/>
       <use xlink:href="#DejaVuSans-6c" transform="translate(69.824219 0)"/>
       <use xlink:href="#DejaVuSans-75" transform="translate(97.607422 0)"/>
       <use xlink:href="#DejaVuSans-73" transform="translate(160.986328 0)"/>
       <use xlink:href="#DejaVuSans-74" transform="translate(213.085938 0)"/>
       <use xlink:href="#DejaVuSans-65" transform="translate(252.294922 0)"/>
       <use xlink:href="#DejaVuSans-72" transform="translate(313.818359 0)"/>
       <use xlink:href="#DejaVuSans-20" transform="translate(354.931641 0)"/>
       <use xlink:href="#DejaVuSans-32" transform="translate(386.71875 0)"/>
      </g>
     </g>
    </g>
   </g>
   <g id="matplotlib.axis_2">
    <g id="ytick_1">
     <g id="text_4">
      <!-- 0 -->
      <g style="fill: #262626" transform="translate(27.596925 335.436037) scale(0.1056 -0.1056)">
       <use xlink:href="#DejaVuSans-30"/>
      </g>
     </g>
    </g>
    <g id="ytick_2">
     <g id="text_5">
      <!-- 1 -->
      <g style="fill: #262626" transform="translate(27.596925 279.554442) scale(0.1056 -0.1056)">
       <use xlink:href="#DejaVuSans-31"/>
      </g>
     </g>
    </g>
    <g id="ytick_3">
     <g id="text_6">
      <!-- 2 -->
      <g style="fill: #262626" transform="translate(27.596925 223.672846) scale(0.1056 -0.1056)">
       <use xlink:href="#DejaVuSans-32"/>
      </g>
     </g>
    </g>
    <g id="ytick_4">
     <g id="text_7">
      <!-- 3 -->
      <g style="fill: #262626" transform="translate(27.596925 167.791251) scale(0.1056 -0.1056)">
       <defs>
        <path id="DejaVuSans-33" d="M 2597 2516 
Q 3050 2419 3304 2112 
Q 3559 1806 3559 1356 
Q 3559 666 3084 287 
Q 2609 -91 1734 -91 
Q 1441 -91 1130 -33 
Q 819 25 488 141 
L 488 750 
Q 750 597 1062 519 
Q 1375 441 1716 441 
Q 2309 441 2620 675 
Q 2931 909 2931 1356 
Q 2931 1769 2642 2001 
Q 2353 2234 1838 2234 
L 1294 2234 
L 1294 2753 
L 1863 2753 
Q 2328 2753 2575 2939 
Q 2822 3125 2822 3475 
Q 2822 3834 2567 4026 
Q 2313 4219 1838 4219 
Q 1578 4219 1281 4162 
Q 984 4106 628 3988 
L 628 4550 
Q 988 4650 1302 4700 
Q 1616 4750 1894 4750 
Q 2613 4750 3031 4423 
Q 3450 4097 3450 3541 
Q 3450 3153 3228 2886 
Q 3006 2619 2597 2516 
z
" transform="scale(0.015625)"/>
       </defs>
       <use xlink:href="#DejaVuSans-33"/>
      </g>
     </g>
    </g>
    <g id="ytick_5">
     <g id="text_8">
      <!-- 4 -->
      <g style="fill: #262626" transform="translate(27.596925 111.909655) scale(0.1056 -0.1056)">
       <defs>
        <path id="DejaVuSans-34" d="M 2419 4116 
L 825 1625 
L 2419 1625 
L 2419 4116 
z
M 2253 4666 
L 3047 4666 
L 3047 1625 
L 3713 1625 
L 3713 1100 
L 3047 1100 
L 3047 0 
L 2419 0 
L 2419 1100 
L 313 1100 
L 313 1709 
L 2253 4666 
z
" transform="scale(0.015625)"/>
       </defs>
       <use xlink:href="#DejaVuSans-34"/>
      </g>
     </g>
    </g>
    <g id="ytick_6">
     <g id="text_9">
      <!-- 5 -->
      <g style="fill: #262626" transform="translate(27.596925 56.02806) scale(0.1056 -0.1056)">
       <defs>
        <path id="DejaVuSans-35" d="M 691 4666 
L 3169 4666 
L 3169 4134 
L 1269 4134 
L 1269 2991 
Q 1406 3038 1543 3061 
Q 1681 3084 1819 3084 
Q 2600 3084 3056 2656 
Q 3513 2228 3513 1497 
Q 3513 744 3044 326 
Q 2575 -91 1722 -91 
Q 1428 -91 1123 -41 
Q 819 9 494 109 
L 494 744 
Q 775 591 1075 516 
Q 1375 441 1709 441 
Q 2250 441 2565 725 
Q 2881 1009 2881 1497 
Q 2881 1984 2565 2268 
Q 2250 2553 1709 2553 
Q 1456 2553 1204 2497 
Q 953 2441 691 2322 
L 691 4666 
z
" transform="scale(0.015625)"/>
       </defs>
       <use xlink:href="#DejaVuSans-35"/>
      </g>
     </g>
    </g>
    <g id="text_10">
     <!-- Média -->
     <g style="fill: #262626" transform="translate(21.517238 191.412031) rotate(-90) scale(0.1 -0.1)">
      <defs>
       <path id="DejaVuSans-4d" d="M 628 4666 
L 1569 4666 
L 2759 1491 
L 3956 4666 
L 4897 4666 
L 4897 0 
L 4281 0 
L 4281 4097 
L 3078 897 
L 2444 897 
L 1241 4097 
L 1241 0 
L 628 0 
L 628 4666 
z
" transform="scale(0.015625)"/>
       <path id="DejaVuSans-e9" d="M 3597 1894 
L 3597 1613 
L 953 1613 
Q 991 1019 1311 708 
Q 1631 397 2203 397 
Q 2534 397 2845 478 
Q 3156 559 3463 722 
L 3463 178 
Q 3153 47 2828 -22 
Q 2503 -91 2169 -91 
Q 1331 -91 842 396 
Q 353 884 353 1716 
Q 353 2575 817 3079 
Q 1281 3584 2069 3584 
Q 2775 3584 3186 3129 
Q 3597 2675 3597 1894 
z
M 3022 2063 
Q 3016 2534 2758 2815 
Q 2500 3097 2075 3097 
Q 1594 3097 1305 2825 
Q 1016 2553 972 2059 
L 3022 2063 
z
M 2466 5119 
L 3088 5119 
L 2070 3944 
L 1591 3944 
L 2466 5119 
z
" transform="scale(0.015625)"/>
       <path id="DejaVuSans-64" d="M 2906 2969 
L 2906 4863 
L 3481 4863 
L 3481 0 
L 2906 0 
L 2906 525 
Q 2725 213 2448 61 
Q 2172 -91 1784 -91 
Q 1150 -91 751 415 
Q 353 922 353 1747 
Q 353 2572 751 3078 
Q 1150 3584 1784 3584 
Q 2172 3584 2448 3432 
Q 2725 3281 2906 2969 
z
M 947 1747 
Q 947 1113 1208 752 
Q 1469 391 1925 391 
Q 2381 391 2643 752 
Q 2906 1113 2906 1747 
Q 2906 2381 2643 2742 
Q 2381 3103 1925 3103 
Q 1469 3103 1208 2742 
Q 947 2381 947 1747 
z
" transform="scale(0.015625)"/>
       <path id="DejaVuSans-69" d="M 603 3500 
L 1178 3500 
L 1178 0 
L 603 0 
L 603 3500 
z
M 603 4863 
L 1178 4863 
L 1178 4134 
L 603 4134 
L 603 4863 
z
" transform="scale(0.015625)"/>
       <path id="DejaVuSans-61" d="M 2194 1759 
Q 1497 1759 1228 1600 
Q 959 1441 959 1056 
Q 959 750 1161 570 
Q 1363 391 1709 391 
Q 2188 391 2477 730 
Q 2766 1069 2766 1631 
L 2766 1759 
L 2194 1759 
z
M 3341 1997 
L 3341 0 
L 2766 0 
L 2766 531 
Q 2569 213 2275 61 
Q 1981 -91 1556 -91 
Q 1019 -91 701 211 
Q 384 513 384 1019 
Q 384 1609 779 1909 
Q 1175 2209 1959 2209 
L 2766 2209 
L 2766 2266 
Q 2766 2663 2505 2880 
Q 2244 3097 1772 3097 
Q 1472 3097 1187 3025 
Q 903 2953 641 2809 
L 641 3341 
Q 956 3463 1253 3523 
Q 1550 3584 1831 3584 
Q 2591 3584 2966 3190 
Q 3341 2797 3341 1997 
z
" transform="scale(0.015625)"/>
      </defs>
      <use xlink:href="#DejaVuSans-4d"/>
      <use xlink:href="#DejaVuSans-e9" transform="translate(86.279297 0)"/>
      <use xlink:href="#DejaVuSans-64" transform="translate(147.802734 0)"/>
      <use xlink:href="#DejaVuSans-69" transform="translate(211.279297 0)"/>
      <use xlink:href="#DejaVuSans-61" transform="translate(239.0625 0)"/>
     </g>
    </g>
   </g>
   <g id="patch_3">
    <path d="M 56.490725 331.424062 
L 135.776439 331.424062 
L 135.776439 43.975176 
L 56.490725 43.975176 
z
" clip-path="url(#pf9dca3bf56)" style="fill: #3b528b; stroke: #000000; stroke-width: 0.5; stroke-linejoin: miter"/>
   </g>
   <g id="patch_4">
    <path d="M 155.597868 331.424062 
L 234.883582 331.424062 
L 234.883582 36.128824 
L 155.597868 36.128824 
z
" clip-path="url(#pf9dca3bf56)" style="fill: #21918c; stroke: #000000; stroke-width: 0.5; stroke-linejoin: miter"/>
   </g>
   <g id="patch_5">
    <path d="M 254.705011 331.424062 
L 333.990725 331.424062 
L 333.990725 40.700062 
L 254.705011 40.700062 
z
" clip-path="url(#pf9dca3bf56)" style="fill: #5ec962; stroke: #000000; stroke-width: 0.5; stroke-linejoin: miter"/>
   </g>
   <g id="patch_6">
    <path d="M 42.615725 331.424062 
L 42.615725 21.364062 
" style="fill: none; stroke: #262626; stroke-width: 0.5; stroke-linejoin: miter; stroke-linecap: square"/>
   </g>
   <g id="patch_7">
    <path d="M 42.615725 331.424062 
L 347.865725 331.424062 
" style="fill: none; stroke: #262626; stroke-width: 0.5; stroke-linejoin: miter; stroke-linecap: square"/>
   </g>
   <g id="text_11">
    <!-- 5.1 -->
    <g style="fill: #262626" transform="translate(88.977176 42.103458) scale(0.09 -0.09)">
     <defs>
      <path id="DejaVuSans-2e" d="M 684 794 
L 1344 794 
L 1344 0 
L 684 0 
L 684 794 
z
" transform="scale(0.015625)"/>
     </defs>
     <use xlink:href="#DejaVuSans-35"/>
     <use xlink:href="#DejaVuSans-2e" transform="translate(63.623047 0)"/>
     <use xlink:href="#DejaVuSans-31" transform="translate(95.410156 0)"/>
    </g>
   </g>
   <g id="text_12">
    <!-- 5.3 -->
    <g style="fill: #262626" transform="translate(188.084319 34.257106) scale(0.09 -0.09)">
     <use xlink:href="#DejaVuSans-35"/>
     <use xlink:href="#DejaVuSans-2e" transform="translate(63.623047 0)"/>
     <use xlink:href="#DejaVuSans-33" transform="translate(95.410156 0)"/>
    </g>
   </g>
   <g id="text_13">
    <!-- 5.2 -->
    <g style="fill: #262626" transform="translate(287.191462 38.828343) scale(0.09 -0.09)">
     <use xlink:href="#DejaVuSans-35"/>
     <use xlink:href="#DejaVuSans-2e" transform="translate(63.623047 0)"/>
     <use xlink:href="#DejaVuSans-32" transform="translate(95.410156 0)"/>
    </g>
   </g>
   <g id="text_14">
    <!-- MEDIA_INSE -->
    <g style="fill: #262626" transform="translate(158.024631 15.364062) scale(0.11 -0.11)">
     <defs>
      <path id="DejaVuSans-Bold-4d" d="M 588 4666 
L 2119 4666 
L 3181 2169 
L 4250 4666 
L 5778 4666 
L 5778 0 
L 4641 0 
L 4641 3413 
L 3566 897 
L 2803 897 
L 1728 3413 
L 1728 0 
L 588 0 
L 588 4666 
z
" transform="scale(0.015625)"/>
      <path id="DejaVuSans-Bold-45" d="M 588 4666 
L 3834 4666 
L 3834 3756 
L 1791 3756 
L 1791 2888 
L 3713 2888 
L 3713 1978 
L 1791 1978 
L 1791 909 
L 3903 909 
L 3903 0 
L 588 0 
L 588 4666 
z
" transform="scale(0.015625)"/>
      <path id="DejaVuSans-Bold-44" d="M 1791 3756 
L 1791 909 
L 2222 909 
Q 2959 909 3348 1275 
Q 3738 1641 3738 2338 
Q 3738 3031 3350 3393 
Q 2963 3756 2222 3756 
L 1791 3756 
z
M 588 4666 
L 1856 4666 
Q 2919 4666 3439 4514 
Q 3959 4363 4331 4000 
Q 4659 3684 4818 3271 
Q 4978 2859 4978 2338 
Q 4978 1809 4818 1395 
Q 4659 981 4331 666 
Q 3956 303 3431 151 
Q 2906 0 1856 0 
L 588 0 
L 588 4666 
z
" transform="scale(0.015625)"/>
      <path id="DejaVuSans-Bold-49" d="M 588 4666 
L 1791 4666 
L 1791 0 
L 588 0 
L 588 4666 
z
" transform="scale(0.015625)"/>
      <path id="DejaVuSans-Bold-41" d="M 3419 850 
L 1538 850 
L 1241 0 
L 31 0 
L 1759 4666 
L 3194 4666 
L 4922 0 
L 3713 0 
L 3419 850 
z
M 1838 1716 
L 3116 1716 
L 2478 3572 
L 1838 1716 
z
" transform="scale(0.015625)"/>
      <path id="DejaVuSans-Bold-5f" d="M 3200 -916 
L 3200 -1509 
L 0 -1509 
L 0 -916 
L 3200 -916 
z
" transform="scale(0.015625)"/>
      <path id="DejaVuSans-Bold-4e" d="M 588 4666 
L 1931 4666 
L 3628 1466 
L 3628 4666 
L 4769 4666 
L 4769 0 
L 3425 0 
L 1728 3200 
L 1728 0 
L 588 0 
L 588 4666 
z
" transform="scale(0.015625)"/>
      <path id="DejaVuSans-Bold-53" d="M 3834 4519 
L 3834 3531 
Q 3450 3703 3084 3790 
Q 2719 3878 2394 3878 
Q 1963 3878 1756 3759 
Q 1550 3641 1550 3391 
Q 1550 3203 1689 3098 
Q 1828 2994 2194 2919 
L 2706 2816 
Q 3484 2659 3812 2340 
Q 4141 2022 4141 1434 
Q 4141 663 3683 286 
Q 3225 -91 2284 -91 
Q 1841 -91 1394 -6 
Q 947 78 500 244 
L 500 1259 
Q 947 1022 1364 901 
Q 1781 781 2169 781 
Q 2563 781 2772 912 
Q 2981 1044 2981 1288 
Q 2981 1506 2839 1625 
Q 2697 1744 2272 1838 
L 1806 1941 
Q 1106 2091 782 2419 
Q 459 2747 459 3303 
Q 459 4000 909 4375 
Q 1359 4750 2203 4750 
Q 2588 4750 2994 4692 
Q 3400 4634 3834 4519 
z
" transform="scale(0.015625)"/>
     </defs>
     <use xlink:href="#DejaVuSans-Bold-4d"/>
     <use xlink:href="#DejaVuSans-Bold-45" transform="translate(99.511719 0)"/>
     <use xlink:href="#DejaVuSans-Bold-44" transform="translate(167.822266 0)"/>
     <use xlink:href="#DejaVuSans-Bold-49" transform="translate(250.830078 0)"/>
     <use xlink:href="#DejaVuSans-Bold-41" transform="translate(288.037109 0)"/>
     <use xlink:href="#DejaVuSans-Bold-5f" transform="translate(365.429688 0)"/>
     <use xlink:href="#DejaVuSans-Bold-49" transform="translate(415.429688 0)"/>
     <use xlink:href="#DejaVuSans-Bold-4e" transform="translate(452.636719 0)"/>
     <use xlink:href="#DejaVuSans-Bold-53" transform="translate(536.328125 0)"/>
     <use xlink:href="#DejaVuSans-Bold-45" transform="translate(608.349609 0)"/>
    </g>
   </g>
  </g>
  <g id="axes_2">
   <g id="patch_8">
    <path d="M 401.295725 331.424062 
L 706.545725 331.424062 
L 706.545725 21.364062 
L 401.295725 21.364062 
z
" style="fill: #ffffff"/>
   </g>
   <g id="matplotlib.axis_3">
    <g id="xtick_4">
     <g id="text_15">
      <!-- Cluster 0 -->
      <g style="fill: #262626" transform="translate(431.036257 347.748012) scale(0.1056 -0.1056)">
       <use xlink:href="#DejaVuSans-43"/>
       <use xlink:href="#DejaVuSans-6c" transform="translate(69.824219 0)"/>
       <use xlink:href="#DejaVuSans-75" transform="translate(97.607422 0)"/>
       <use xlink:href="#DejaVuSans-73" transform="translate(160.986328 0)"/>
       <use xlink:href="#DejaVuSans-74" transform="translate(213.085938 0)"/>
       <use xlink:href="#DejaVuSans-65" transform="translate(252.294922 0)"/>
       <use xlink:href="#DejaVuSans-72" transform="translate(313.818359 0)"/>
       <use xlink:href="#DejaVuSans-20" transform="translate(354.931641 0)"/>
       <use xlink:href="#DejaVuSans-30" transform="translate(386.71875 0)"/>
      </g>
     </g>
    </g>
    <g id="xtick_5">
     <g id="text_16">
      <!-- Cluster 1 -->
      <g style="fill: #262626" transform="translate(530.1434 347.748012) scale(0.1056 -0.1056)">
       <use xlink:href="#DejaVuSans-43"/>
       <use xlink:href="#DejaVuSans-6c" transform="translate(69.824219 0)"/>
       <use xlink:href="#DejaVuSans-75" transform="translate(97.607422 0)"/>
       <use xlink:href="#DejaVuSans-73" transform="translate(160.986328 0)"/>
       <use xlink:href="#DejaVuSans-74" transform="translate(213.085938 0)"/>
       <use xlink:href="#DejaVuSans-65" transform="translate(252.294922 0)"/>
       <use xlink:href="#DejaVuSans-72" transform="translate(313.818359 0)"/>
       <use xlink:href="#DejaVuSans-20" transform="translate(354.931641 0)"/>
       <use xlink:href="#DejaVuSans-31" transform="translate(386.71875 0)"/>
      </g>
     </g>
    </g>
    <g id="xtick_6">
     <g id="text_17">
      <!-- Cluster 2 -->
      <g style="fill: #262626" transform="translate(629.250543 347.748012) scale(0.1056 -0.1056)">
       <use xlink:href="#DejaVuSans-43"/>
       <use xlink:href="#DejaVuSans-6c" transform="translate(69.824219 0)"/>
       <use xlink:href="#DejaVuSans-75" transform="translate(97.607422 0)"/>
       <use xlink:href="#DejaVuSans-73" transform="translate(160.986328 0)"/>
       <use xlink:href="#DejaVuSans-74" transform="translate(213.085938 0)"/>
       <use xlink:href="#DejaVuSans-65" transform="translate(252.294922 0)"/>
       <use xlink:href="#DejaVuSans-72" transform="translate(313.818359 0)"/>
       <use xlink:href="#DejaVuSans-20" transform="translate(354.931641 0)"/>
       <use xlink:href="#DejaVuSans-32" transform="translate(386.71875 0)"/>
      </g>
     </g>
    </g>
   </g>
   <g id="matplotlib.axis_4">
    <g id="ytick_7">
     <g id="text_18">
      <!-- 0 -->
      <g style="fill: #262626" transform="translate(386.276925 335.436037) scale(0.1056 -0.1056)">
       <use xlink:href="#DejaVuSans-30"/>
      </g>
     </g>
    </g>
    <g id="ytick_8">
     <g id="text_19">
      <!-- 50 -->
      <g style="fill: #262626" transform="translate(379.558125 294.34463) scale(0.1056 -0.1056)">
       <use xlink:href="#DejaVuSans-35"/>
       <use xlink:href="#DejaVuSans-30" transform="translate(63.623047 0)"/>
      </g>
     </g>
    </g>
    <g id="ytick_9">
     <g id="text_20">
      <!-- 100 -->
      <g style="fill: #262626" transform="translate(372.839325 253.253222) scale(0.1056 -0.1056)">
       <use xlink:href="#DejaVuSans-31"/>
       <use xlink:href="#DejaVuSans-30" transform="translate(63.623047 0)"/>
       <use xlink:href="#DejaVuSans-30" transform="translate(127.246094 0)"/>
      </g>
     </g>
    </g>
    <g id="ytick_10">
     <g id="text_21">
      <!-- 150 -->
      <g style="fill: #262626" transform="translate(372.839325 212.161814) scale(0.1056 -0.1056)">
       <use xlink:href="#DejaVuSans-31"/>
       <use xlink:href="#DejaVuSans-35" transform="translate(63.623047 0)"/>
       <use xlink:href="#DejaVuSans-30" transform="translate(127.246094 0)"/>
      </g>
     </g>
    </g>
    <g id="ytick_11">
     <g id="text_22">
      <!-- 200 -->
      <g style="fill: #262626" transform="translate(372.839325 171.070406) scale(0.1056 -0.1056)">
       <use xlink:href="#DejaVuSans-32"/>
       <use xlink:href="#DejaVuSans-30" transform="translate(63.623047 0)"/>
       <use xlink:href="#DejaVuSans-30" transform="translate(127.246094 0)"/>
      </g>
     </g>
    </g>
    <g id="ytick_12">
     <g id="text_23">
      <!-- 250 -->
      <g style="fill: #262626" transform="translate(372.839325 129.978998) scale(0.1056 -0.1056)">
       <use xlink:href="#DejaVuSans-32"/>
       <use xlink:href="#DejaVuSans-35" transform="translate(63.623047 0)"/>
       <use xlink:href="#DejaVuSans-30" transform="translate(127.246094 0)"/>
      </g>
     </g>
    </g>
    <g id="ytick_13">
     <g id="text_24">
      <!-- 300 -->
      <g style="fill: #262626" transform="translate(372.839325 88.88759) scale(0.1056 -0.1056)">
       <use xlink:href="#DejaVuSans-33"/>
       <use xlink:href="#DejaVuSans-30" transform="translate(63.623047 0)"/>
       <use xlink:href="#DejaVuSans-30" transform="translate(127.246094 0)"/>
      </g>
     </g>
    </g>
    <g id="ytick_14">
     <g id="text_25">
      <!-- 350 -->
      <g style="fill: #262626" transform="translate(372.839325 47.796182) scale(0.1056 -0.1056)">
       <use xlink:href="#DejaVuSans-33"/>
       <use xlink:href="#DejaVuSans-35" transform="translate(63.623047 0)"/>
       <use xlink:href="#DejaVuSans-30" transform="translate(127.246094 0)"/>
      </g>
     </g>
    </g>
    <g id="text_26">
     <!-- Média -->
     <g style="fill: #262626" transform="translate(366.759638 191.412031) rotate(-90) scale(0.1 -0.1)">
      <use xlink:href="#DejaVuSans-4d"/>
      <use xlink:href="#DejaVuSans-e9" transform="translate(86.279297 0)"/>
      <use xlink:href="#DejaVuSans-64" transform="translate(147.802734 0)"/>
      <use xlink:href="#DejaVuSans-69" transform="translate(211.279297 0)"/>
      <use xlink:href="#DejaVuSans-61" transform="translate(239.0625 0)"/>
     </g>
    </g>
   </g>
   <g id="patch_9">
    <path d="M 415.170725 331.424062 
L 494.456439 331.424062 
L 494.456439 208.776205 
L 415.170725 208.776205 
z
" clip-path="url(#p65e06d009f)" style="fill: #3b528b; stroke: #000000; stroke-width: 0.5; stroke-linejoin: miter"/>
   </g>
   <g id="patch_10">
    <path d="M 514.277868 331.424062 
L 593.563582 331.424062 
L 593.563582 36.128824 
L 514.277868 36.128824 
z
" clip-path="url(#p65e06d009f)" style="fill: #21918c; stroke: #000000; stroke-width: 0.5; stroke-linejoin: miter"/>
   </g>
   <g id="patch_11">
    <path d="M 613.385011 331.424062 
L 692.670725 331.424062 
L 692.670725 45.01695 
L 613.385011 45.01695 
z
" clip-path="url(#p65e06d009f)" style="fill: #5ec962; stroke: #000000; stroke-width: 0.5; stroke-linejoin: miter"/>
   </g>
   <g id="patch_12">
    <path d="M 401.295725 331.424062 
L 401.295725 21.364062 
" style="fill: none; stroke: #262626; stroke-width: 0.5; stroke-linejoin: miter; stroke-linecap: square"/>
   </g>
   <g id="patch_13">
    <path d="M 401.295725 331.424062 
L 706.545725 331.424062 
" style="fill: none; stroke: #262626; stroke-width: 0.5; stroke-linejoin: miter; stroke-linecap: square"/>
   </g>
   <g id="text_27">
    <!-- 149.2 -->
    <g style="fill: #262626" transform="translate(441.930926 206.904486) scale(0.09 -0.09)">
     <defs>
      <path id="DejaVuSans-39" d="M 703 97 
L 703 672 
Q 941 559 1184 500 
Q 1428 441 1663 441 
Q 2288 441 2617 861 
Q 2947 1281 2994 2138 
Q 2813 1869 2534 1725 
Q 2256 1581 1919 1581 
Q 1219 1581 811 2004 
Q 403 2428 403 3163 
Q 403 3881 828 4315 
Q 1253 4750 1959 4750 
Q 2769 4750 3195 4129 
Q 3622 3509 3622 2328 
Q 3622 1225 3098 567 
Q 2575 -91 1691 -91 
Q 1453 -91 1209 -44 
Q 966 3 703 97 
z
M 1959 2075 
Q 2384 2075 2632 2365 
Q 2881 2656 2881 3163 
Q 2881 3666 2632 3958 
Q 2384 4250 1959 4250 
Q 1534 4250 1286 3958 
Q 1038 3666 1038 3163 
Q 1038 2656 1286 2365 
Q 1534 2075 1959 2075 
z
" transform="scale(0.015625)"/>
     </defs>
     <use xlink:href="#DejaVuSans-31"/>
     <use xlink:href="#DejaVuSans-34" transform="translate(63.623047 0)"/>
     <use xlink:href="#DejaVuSans-39" transform="translate(127.246094 0)"/>
     <use xlink:href="#DejaVuSans-2e" transform="translate(190.869141 0)"/>
     <use xlink:href="#DejaVuSans-32" transform="translate(222.65625 0)"/>
    </g>
   </g>
   <g id="text_28">
    <!-- 359.3 -->
    <g style="fill: #262626" transform="translate(541.038069 34.257106) scale(0.09 -0.09)">
     <use xlink:href="#DejaVuSans-33"/>
     <use xlink:href="#DejaVuSans-35" transform="translate(63.623047 0)"/>
     <use xlink:href="#DejaVuSans-39" transform="translate(127.246094 0)"/>
     <use xlink:href="#DejaVuSans-2e" transform="translate(190.869141 0)"/>
     <use xlink:href="#DejaVuSans-33" transform="translate(222.65625 0)"/>
    </g>
   </g>
   <g id="text_29">
    <!-- 348.5 -->
    <g style="fill: #262626" transform="translate(640.145212 43.145231) scale(0.09 -0.09)">
     <defs>
      <path id="DejaVuSans-38" d="M 2034 2216 
Q 1584 2216 1326 1975 
Q 1069 1734 1069 1313 
Q 1069 891 1326 650 
Q 1584 409 2034 409 
Q 2484 409 2743 651 
Q 3003 894 3003 1313 
Q 3003 1734 2745 1975 
Q 2488 2216 2034 2216 
z
M 1403 2484 
Q 997 2584 770 2862 
Q 544 3141 544 3541 
Q 544 4100 942 4425 
Q 1341 4750 2034 4750 
Q 2731 4750 3128 4425 
Q 3525 4100 3525 3541 
Q 3525 3141 3298 2862 
Q 3072 2584 2669 2484 
Q 3125 2378 3379 2068 
Q 3634 1759 3634 1313 
Q 3634 634 3220 271 
Q 2806 -91 2034 -91 
Q 1263 -91 848 271 
Q 434 634 434 1313 
Q 434 1759 690 2068 
Q 947 2378 1403 2484 
z
M 1172 3481 
Q 1172 3119 1398 2916 
Q 1625 2713 2034 2713 
Q 2441 2713 2670 2916 
Q 2900 3119 2900 3481 
Q 2900 3844 2670 4047 
Q 2441 4250 2034 4250 
Q 1625 4250 1398 4047 
Q 1172 3844 1172 3481 
z
" transform="scale(0.015625)"/>
     </defs>
     <use xlink:href="#DejaVuSans-33"/>
     <use xlink:href="#DejaVuSans-34" transform="translate(63.623047 0)"/>
     <use xlink:href="#DejaVuSans-38" transform="translate(127.246094 0)"/>
     <use xlink:href="#DejaVuSans-2e" transform="translate(190.869141 0)"/>
     <use xlink:href="#DejaVuSans-35" transform="translate(222.65625 0)"/>
    </g>
   </g>
   <g id="text_30">
    <!-- QT_MAT_FUND_AF -->
    <g style="fill: #262626" transform="translate(498.781506 15.364062) scale(0.11 -0.11)">
     <defs>
      <path id="DejaVuSans-Bold-51" d="M 2847 -84 
L 2753 -84 
Q 1600 -84 959 553 
Q 319 1191 319 2328 
Q 319 3463 958 4106 
Q 1597 4750 2719 4750 
Q 3853 4750 4486 4112 
Q 5119 3475 5119 2328 
Q 5119 1541 4783 972 
Q 4447 403 3816 116 
L 4756 -934 
L 3609 -934 
L 2847 -84 
z
M 2719 3878 
Q 2169 3878 1866 3472 
Q 1563 3066 1563 2328 
Q 1563 1578 1859 1179 
Q 2156 781 2719 781 
Q 3272 781 3575 1187 
Q 3878 1594 3878 2328 
Q 3878 3066 3575 3472 
Q 3272 3878 2719 3878 
z
" transform="scale(0.015625)"/>
      <path id="DejaVuSans-Bold-54" d="M 31 4666 
L 4331 4666 
L 4331 3756 
L 2784 3756 
L 2784 0 
L 1581 0 
L 1581 3756 
L 31 3756 
L 31 4666 
z
" transform="scale(0.015625)"/>
      <path id="DejaVuSans-Bold-46" d="M 588 4666 
L 3834 4666 
L 3834 3756 
L 1791 3756 
L 1791 2888 
L 3713 2888 
L 3713 1978 
L 1791 1978 
L 1791 0 
L 588 0 
L 588 4666 
z
" transform="scale(0.015625)"/>
      <path id="DejaVuSans-Bold-55" d="M 588 4666 
L 1791 4666 
L 1791 1869 
Q 1791 1291 1980 1042 
Q 2169 794 2597 794 
Q 3028 794 3217 1042 
Q 3406 1291 3406 1869 
L 3406 4666 
L 4609 4666 
L 4609 1869 
Q 4609 878 4112 393 
Q 3616 -91 2597 -91 
Q 1581 -91 1084 393 
Q 588 878 588 1869 
L 588 4666 
z
" transform="scale(0.015625)"/>
     </defs>
     <use xlink:href="#DejaVuSans-Bold-51"/>
     <use xlink:href="#DejaVuSans-Bold-54" transform="translate(85.009766 0)"/>
     <use xlink:href="#DejaVuSans-Bold-5f" transform="translate(153.222656 0)"/>
     <use xlink:href="#DejaVuSans-Bold-4d" transform="translate(203.222656 0)"/>
     <use xlink:href="#DejaVuSans-Bold-41" transform="translate(302.734375 0)"/>
     <use xlink:href="#DejaVuSans-Bold-54" transform="translate(372.376953 0)"/>
     <use xlink:href="#DejaVuSans-Bold-5f" transform="translate(440.589844 0)"/>
     <use xlink:href="#DejaVuSans-Bold-46" transform="translate(490.589844 0)"/>
     <use xlink:href="#DejaVuSans-Bold-55" transform="translate(558.900391 0)"/>
     <use xlink:href="#DejaVuSans-Bold-4e" transform="translate(640.101562 0)"/>
     <use xlink:href="#DejaVuSans-Bold-44" transform="translate(723.792969 0)"/>
     <use xlink:href="#DejaVuSans-Bold-5f" transform="translate(806.800781 0)"/>
     <use xlink:href="#DejaVuSans-Bold-41" transform="translate(856.800781 0)"/>
     <use xlink:href="#DejaVuSans-Bold-46" transform="translate(934.193359 0)"/>
    </g>
   </g>
  </g>
  <g id="axes_3">
   <g id="patch_14">
    <path d="M 759.975725 331.424062 
L 1065.225725 331.424062 
L 1065.225725 21.364062 
L 759.975725 21.364062 
z
" style="fill: #ffffff"/>
   </g>
   <g id="matplotlib.axis_5">
    <g id="xtick_7">
     <g id="text_31">
      <!-- Cluster 0 -->
      <g style="fill: #262626" transform="translate(789.716257 347.748012) scale(0.1056 -0.1056)">
       <use xlink:href="#DejaVuSans-43"/>
       <use xlink:href="#DejaVuSans-6c" transform="translate(69.824219 0)"/>
       <use xlink:href="#DejaVuSans-75" transform="translate(97.607422 0)"/>
       <use xlink:href="#DejaVuSans-73" transform="translate(160.986328 0)"/>
       <use xlink:href="#DejaVuSans-74" transform="translate(213.085938 0)"/>
       <use xlink:href="#DejaVuSans-65" transform="translate(252.294922 0)"/>
       <use xlink:href="#DejaVuSans-72" transform="translate(313.818359 0)"/>
       <use xlink:href="#DejaVuSans-20" transform="translate(354.931641 0)"/>
       <use xlink:href="#DejaVuSans-30" transform="translate(386.71875 0)"/>
      </g>
     </g>
    </g>
    <g id="xtick_8">
     <g id="text_32">
      <!-- Cluster 1 -->
      <g style="fill: #262626" transform="translate(888.8234 347.748012) scale(0.1056 -0.1056)">
       <use xlink:href="#DejaVuSans-43"/>
       <use xlink:href="#DejaVuSans-6c" transform="translate(69.824219 0)"/>
       <use xlink:href="#DejaVuSans-75" transform="translate(97.607422 0)"/>
       <use xlink:href="#DejaVuSans-73" transform="translate(160.986328 0)"/>
       <use xlink:href="#DejaVuSans-74" transform="translate(213.085938 0)"/>
       <use xlink:href="#DejaVuSans-65" transform="translate(252.294922 0)"/>
       <use xlink:href="#DejaVuSans-72" transform="translate(313.818359 0)"/>
       <use xlink:href="#DejaVuSans-20" transform="translate(354.931641 0)"/>
       <use xlink:href="#DejaVuSans-31" transform="translate(386.71875 0)"/>
      </g>
     </g>
    </g>
    <g id="xtick_9">
     <g id="text_33">
      <!-- Cluster 2 -->
      <g style="fill: #262626" transform="translate(987.930543 347.748012) scale(0.1056 -0.1056)">
       <use xlink:href="#DejaVuSans-43"/>
       <use xlink:href="#DejaVuSans-6c" transform="translate(69.824219 0)"/>
       <use xlink:href="#DejaVuSans-75" transform="translate(97.607422 0)"/>
       <use xlink:href="#DejaVuSans-73" transform="translate(160.986328 0)"/>
       <use xlink:href="#DejaVuSans-74" transform="translate(213.085938 0)"/>
       <use xlink:href="#DejaVuSans-65" transform="translate(252.294922 0)"/>
       <use xlink:href="#DejaVuSans-72" transform="translate(313.818359 0)"/>
       <use xlink:href="#DejaVuSans-20" transform="translate(354.931641 0)"/>
       <use xlink:href="#DejaVuSans-32" transform="translate(386.71875 0)"/>
      </g>
     </g>
    </g>
   </g>
   <g id="matplotlib.axis_6">
    <g id="ytick_15">
     <g id="text_34">
      <!-- 0 -->
      <g style="fill: #262626" transform="translate(744.956925 335.436037) scale(0.1056 -0.1056)">
       <use xlink:href="#DejaVuSans-30"/>
      </g>
     </g>
    </g>
    <g id="ytick_16">
     <g id="text_35">
      <!-- 5 -->
      <g style="fill: #262626" transform="translate(744.956925 271.82074) scale(0.1056 -0.1056)">
       <use xlink:href="#DejaVuSans-35"/>
      </g>
     </g>
    </g>
    <g id="ytick_17">
     <g id="text_36">
      <!-- 10 -->
      <g style="fill: #262626" transform="translate(738.238125 208.205443) scale(0.1056 -0.1056)">
       <use xlink:href="#DejaVuSans-31"/>
       <use xlink:href="#DejaVuSans-30" transform="translate(63.623047 0)"/>
      </g>
     </g>
    </g>
    <g id="ytick_18">
     <g id="text_37">
      <!-- 15 -->
      <g style="fill: #262626" transform="translate(738.238125 144.590145) scale(0.1056 -0.1056)">
       <use xlink:href="#DejaVuSans-31"/>
       <use xlink:href="#DejaVuSans-35" transform="translate(63.623047 0)"/>
      </g>
     </g>
    </g>
    <g id="ytick_19">
     <g id="text_38">
      <!-- 20 -->
      <g style="fill: #262626" transform="translate(738.238125 80.974848) scale(0.1056 -0.1056)">
       <use xlink:href="#DejaVuSans-32"/>
       <use xlink:href="#DejaVuSans-30" transform="translate(63.623047 0)"/>
      </g>
     </g>
    </g>
    <g id="text_39">
     <!-- Média -->
     <g style="fill: #262626" transform="translate(732.158438 191.412031) rotate(-90) scale(0.1 -0.1)">
      <use xlink:href="#DejaVuSans-4d"/>
      <use xlink:href="#DejaVuSans-e9" transform="translate(86.279297 0)"/>
      <use xlink:href="#DejaVuSans-64" transform="translate(147.802734 0)"/>
      <use xlink:href="#DejaVuSans-69" transform="translate(211.279297 0)"/>
      <use xlink:href="#DejaVuSans-61" transform="translate(239.0625 0)"/>
     </g>
    </g>
   </g>
   <g id="patch_15">
    <path d="M 773.850725 331.424062 
L 853.136439 331.424062 
L 853.136439 156.327255 
L 773.850725 156.327255 
z
" clip-path="url(#pb138d94abc)" style="fill: #3b528b; stroke: #000000; stroke-width: 0.5; stroke-linejoin: miter"/>
   </g>
   <g id="patch_16">
    <path d="M 872.957868 331.424062 
L 952.243582 331.424062 
L 952.243582 36.128824 
L 872.957868 36.128824 
z
" clip-path="url(#pb138d94abc)" style="fill: #21918c; stroke: #000000; stroke-width: 0.5; stroke-linejoin: miter"/>
   </g>
   <g id="patch_17">
    <path d="M 972.065011 331.424062 
L 1051.350725 331.424062 
L 1051.350725 92.866697 
L 972.065011 92.866697 
z
" clip-path="url(#pb138d94abc)" style="fill: #5ec962; stroke: #000000; stroke-width: 0.5; stroke-linejoin: miter"/>
   </g>
   <g id="patch_18">
    <path d="M 759.975725 331.424062 
L 759.975725 21.364062 
" style="fill: none; stroke: #262626; stroke-width: 0.5; stroke-linejoin: miter; stroke-linecap: square"/>
   </g>
   <g id="patch_19">
    <path d="M 759.975725 331.424062 
L 1065.225725 331.424062 
" style="fill: none; stroke: #262626; stroke-width: 0.5; stroke-linejoin: miter; stroke-linecap: square"/>
   </g>
   <g id="text_40">
    <!-- 13.8 -->
    <g style="fill: #262626" transform="translate(803.474051 154.455536) scale(0.09 -0.09)">
     <use xlink:href="#DejaVuSans-31"/>
     <use xlink:href="#DejaVuSans-33" transform="translate(63.623047 0)"/>
     <use xlink:href="#DejaVuSans-2e" transform="translate(127.246094 0)"/>
     <use xlink:href="#DejaVuSans-38" transform="translate(159.033203 0)"/>
    </g>
   </g>
   <g id="text_41">
    <!-- 23.2 -->
    <g style="fill: #262626" transform="translate(902.581194 34.257106) scale(0.09 -0.09)">
     <use xlink:href="#DejaVuSans-32"/>
     <use xlink:href="#DejaVuSans-33" transform="translate(63.623047 0)"/>
     <use xlink:href="#DejaVuSans-2e" transform="translate(127.246094 0)"/>
     <use xlink:href="#DejaVuSans-32" transform="translate(159.033203 0)"/>
    </g>
   </g>
   <g id="text_42">
    <!-- 18.8 -->
    <g style="fill: #262626" transform="translate(1001.688337 90.994978) scale(0.09 -0.09)">
     <use xlink:href="#DejaVuSans-31"/>
     <use xlink:href="#DejaVuSans-38" transform="translate(63.623047 0)"/>
     <use xlink:href="#DejaVuSans-2e" transform="translate(127.246094 0)"/>
     <use xlink:href="#DejaVuSans-38" transform="translate(159.033203 0)"/>
    </g>
   </g>
   <g id="text_43">
    <!-- QT_DOC_FUND_AF -->
    <g style="fill: #262626" transform="translate(857.238928 15.364062) scale(0.11 -0.11)">
     <defs>
      <path id="DejaVuSans-Bold-4f" d="M 2719 3878 
Q 2169 3878 1866 3472 
Q 1563 3066 1563 2328 
Q 1563 1594 1866 1187 
Q 2169 781 2719 781 
Q 3272 781 3575 1187 
Q 3878 1594 3878 2328 
Q 3878 3066 3575 3472 
Q 3272 3878 2719 3878 
z
M 2719 4750 
Q 3844 4750 4481 4106 
Q 5119 3463 5119 2328 
Q 5119 1197 4481 553 
Q 3844 -91 2719 -91 
Q 1597 -91 958 553 
Q 319 1197 319 2328 
Q 319 3463 958 4106 
Q 1597 4750 2719 4750 
z
" transform="scale(0.015625)"/>
      <path id="DejaVuSans-Bold-43" d="M 4288 256 
Q 3956 84 3597 -3 
Q 3238 -91 2847 -91 
Q 1681 -91 1000 561 
Q 319 1213 319 2328 
Q 319 3447 1000 4098 
Q 1681 4750 2847 4750 
Q 3238 4750 3597 4662 
Q 3956 4575 4288 4403 
L 4288 3438 
Q 3953 3666 3628 3772 
Q 3303 3878 2944 3878 
Q 2300 3878 1931 3465 
Q 1563 3053 1563 2328 
Q 1563 1606 1931 1193 
Q 2300 781 2944 781 
Q 3303 781 3628 887 
Q 3953 994 4288 1222 
L 4288 256 
z
" transform="scale(0.015625)"/>
     </defs>
     <use xlink:href="#DejaVuSans-Bold-51"/>
     <use xlink:href="#DejaVuSans-Bold-54" transform="translate(85.009766 0)"/>
     <use xlink:href="#DejaVuSans-Bold-5f" transform="translate(153.222656 0)"/>
     <use xlink:href="#DejaVuSans-Bold-44" transform="translate(203.222656 0)"/>
     <use xlink:href="#DejaVuSans-Bold-4f" transform="translate(286.230469 0)"/>
     <use xlink:href="#DejaVuSans-Bold-43" transform="translate(371.240234 0)"/>
     <use xlink:href="#DejaVuSans-Bold-5f" transform="translate(444.628906 0)"/>
     <use xlink:href="#DejaVuSans-Bold-46" transform="translate(494.628906 0)"/>
     <use xlink:href="#DejaVuSans-Bold-55" transform="translate(562.939453 0)"/>
     <use xlink:href="#DejaVuSans-Bold-4e" transform="translate(644.140625 0)"/>
     <use xlink:href="#DejaVuSans-Bold-44" transform="translate(727.832031 0)"/>
     <use xlink:href="#DejaVuSans-Bold-5f" transform="translate(810.839844 0)"/>
     <use xlink:href="#DejaVuSans-Bold-41" transform="translate(860.839844 0)"/>
     <use xlink:href="#DejaVuSans-Bold-46" transform="translate(938.232422 0)"/>
    </g>
   </g>
  </g>
  <g id="axes_4">
   <g id="patch_20">
    <path d="M 42.615725 686.024062 
L 347.865725 686.024062 
L 347.865725 375.964062 
L 42.615725 375.964062 
z
" style="fill: #ffffff"/>
   </g>
   <g id="matplotlib.axis_7">
    <g id="xtick_10">
     <g id="text_44">
      <!-- Cluster 0 -->
      <g style="fill: #262626" transform="translate(72.356257 702.348012) scale(0.1056 -0.1056)">
       <use xlink:href="#DejaVuSans-43"/>
       <use xlink:href="#DejaVuSans-6c" transform="translate(69.824219 0)"/>
       <use xlink:href="#DejaVuSans-75" transform="translate(97.607422 0)"/>
       <use xlink:href="#DejaVuSans-73" transform="translate(160.986328 0)"/>
       <use xlink:href="#DejaVuSans-74" transform="translate(213.085938 0)"/>
       <use xlink:href="#DejaVuSans-65" transform="translate(252.294922 0)"/>
       <use xlink:href="#DejaVuSans-72" transform="translate(313.818359 0)"/>
       <use xlink:href="#DejaVuSans-20" transform="translate(354.931641 0)"/>
       <use xlink:href="#DejaVuSans-30" transform="translate(386.71875 0)"/>
      </g>
     </g>
    </g>
    <g id="xtick_11">
     <g id="text_45">
      <!-- Cluster 1 -->
      <g style="fill: #262626" transform="translate(171.4634 702.348012) scale(0.1056 -0.1056)">
       <use xlink:href="#DejaVuSans-43"/>
       <use xlink:href="#DejaVuSans-6c" transform="translate(69.824219 0)"/>
       <use xlink:href="#DejaVuSans-75" transform="translate(97.607422 0)"/>
       <use xlink:href="#DejaVuSans-73" transform="translate(160.986328 0)"/>
       <use xlink:href="#DejaVuSans-74" transform="translate(213.085938 0)"/>
       <use xlink:href="#DejaVuSans-65" transform="translate(252.294922 0)"/>
       <use xlink:href="#DejaVuSans-72" transform="translate(313.818359 0)"/>
       <use xlink:href="#DejaVuSans-20" transform="translate(354.931641 0)"/>
       <use xlink:href="#DejaVuSans-31" transform="translate(386.71875 0)"/>
      </g>
     </g>
    </g>
    <g id="xtick_12">
     <g id="text_46">
      <!-- Cluster 2 -->
      <g style="fill: #262626" transform="translate(270.570543 702.348012) scale(0.1056 -0.1056)">
       <use xlink:href="#DejaVuSans-43"/>
       <use xlink:href="#DejaVuSans-6c" transform="translate(69.824219 0)"/>
       <use xlink:href="#DejaVuSans-75" transform="translate(97.607422 0)"/>
       <use xlink:href="#DejaVuSans-73" transform="translate(160.986328 0)"/>
       <use xlink:href="#DejaVuSans-74" transform="translate(213.085938 0)"/>
       <use xlink:href="#DejaVuSans-65" transform="translate(252.294922 0)"/>
       <use xlink:href="#DejaVuSans-72" transform="translate(313.818359 0)"/>
       <use xlink:href="#DejaVuSans-20" transform="translate(354.931641 0)"/>
       <use xlink:href="#DejaVuSans-32" transform="translate(386.71875 0)"/>
      </g>
     </g>
    </g>
   </g>
   <g id="matplotlib.axis_8">
    <g id="ytick_20">
     <g id="text_47">
      <!-- 0 -->
      <g style="fill: #262626" transform="translate(27.596925 690.036037) scale(0.1056 -0.1056)">
       <use xlink:href="#DejaVuSans-30"/>
      </g>
     </g>
    </g>
    <g id="ytick_21">
     <g id="text_48">
      <!-- 2 -->
      <g style="fill: #262626" transform="translate(27.596925 654.242675) scale(0.1056 -0.1056)">
       <use xlink:href="#DejaVuSans-32"/>
      </g>
     </g>
    </g>
    <g id="ytick_22">
     <g id="text_49">
      <!-- 4 -->
      <g style="fill: #262626" transform="translate(27.596925 618.449313) scale(0.1056 -0.1056)">
       <use xlink:href="#DejaVuSans-34"/>
      </g>
     </g>
    </g>
    <g id="ytick_23">
     <g id="text_50">
      <!-- 6 -->
      <g style="fill: #262626" transform="translate(27.596925 582.655951) scale(0.1056 -0.1056)">
       <defs>
        <path id="DejaVuSans-36" d="M 2113 2584 
Q 1688 2584 1439 2293 
Q 1191 2003 1191 1497 
Q 1191 994 1439 701 
Q 1688 409 2113 409 
Q 2538 409 2786 701 
Q 3034 994 3034 1497 
Q 3034 2003 2786 2293 
Q 2538 2584 2113 2584 
z
M 3366 4563 
L 3366 3988 
Q 3128 4100 2886 4159 
Q 2644 4219 2406 4219 
Q 1781 4219 1451 3797 
Q 1122 3375 1075 2522 
Q 1259 2794 1537 2939 
Q 1816 3084 2150 3084 
Q 2853 3084 3261 2657 
Q 3669 2231 3669 1497 
Q 3669 778 3244 343 
Q 2819 -91 2113 -91 
Q 1303 -91 875 529 
Q 447 1150 447 2328 
Q 447 3434 972 4092 
Q 1497 4750 2381 4750 
Q 2619 4750 2861 4703 
Q 3103 4656 3366 4563 
z
" transform="scale(0.015625)"/>
       </defs>
       <use xlink:href="#DejaVuSans-36"/>
      </g>
     </g>
    </g>
    <g id="ytick_24">
     <g id="text_51">
      <!-- 8 -->
      <g style="fill: #262626" transform="translate(27.596925 546.862589) scale(0.1056 -0.1056)">
       <use xlink:href="#DejaVuSans-38"/>
      </g>
     </g>
    </g>
    <g id="ytick_25">
     <g id="text_52">
      <!-- 10 -->
      <g style="fill: #262626" transform="translate(20.878125 511.069227) scale(0.1056 -0.1056)">
       <use xlink:href="#DejaVuSans-31"/>
       <use xlink:href="#DejaVuSans-30" transform="translate(63.623047 0)"/>
      </g>
     </g>
    </g>
    <g id="ytick_26">
     <g id="text_53">
      <!-- 12 -->
      <g style="fill: #262626" transform="translate(20.878125 475.275864) scale(0.1056 -0.1056)">
       <use xlink:href="#DejaVuSans-31"/>
       <use xlink:href="#DejaVuSans-32" transform="translate(63.623047 0)"/>
      </g>
     </g>
    </g>
    <g id="ytick_27">
     <g id="text_54">
      <!-- 14 -->
      <g style="fill: #262626" transform="translate(20.878125 439.482502) scale(0.1056 -0.1056)">
       <use xlink:href="#DejaVuSans-31"/>
       <use xlink:href="#DejaVuSans-34" transform="translate(63.623047 0)"/>
      </g>
     </g>
    </g>
    <g id="ytick_28">
     <g id="text_55">
      <!-- 16 -->
      <g style="fill: #262626" transform="translate(20.878125 403.68914) scale(0.1056 -0.1056)">
       <use xlink:href="#DejaVuSans-31"/>
       <use xlink:href="#DejaVuSans-36" transform="translate(63.623047 0)"/>
      </g>
     </g>
    </g>
    <g id="text_56">
     <!-- Média -->
     <g style="fill: #262626" transform="translate(14.798438 546.012031) rotate(-90) scale(0.1 -0.1)">
      <use xlink:href="#DejaVuSans-4d"/>
      <use xlink:href="#DejaVuSans-e9" transform="translate(86.279297 0)"/>
      <use xlink:href="#DejaVuSans-64" transform="translate(147.802734 0)"/>
      <use xlink:href="#DejaVuSans-69" transform="translate(211.279297 0)"/>
      <use xlink:href="#DejaVuSans-61" transform="translate(239.0625 0)"/>
     </g>
    </g>
   </g>
   <g id="patch_21">
    <path d="M 56.490725 686.024062 
L 135.776439 686.024062 
L 135.776439 519.536559 
L 56.490725 519.536559 
z
" clip-path="url(#p454211c47d)" style="fill: #3b528b; stroke: #000000; stroke-width: 0.5; stroke-linejoin: miter"/>
   </g>
   <g id="patch_22">
    <path d="M 155.597868 686.024062 
L 234.883582 686.024062 
L 234.883582 397.798947 
L 155.597868 397.798947 
z
" clip-path="url(#p454211c47d)" style="fill: #21918c; stroke: #000000; stroke-width: 0.5; stroke-linejoin: miter"/>
   </g>
   <g id="patch_23">
    <path d="M 254.705011 686.024062 
L 333.990725 686.024062 
L 333.990725 390.728824 
L 254.705011 390.728824 
z
" clip-path="url(#p454211c47d)" style="fill: #5ec962; stroke: #000000; stroke-width: 0.5; stroke-linejoin: miter"/>
   </g>
   <g id="patch_24">
    <path d="M 42.615725 686.024062 
L 42.615725 375.964063 
" style="fill: none; stroke: #262626; stroke-width: 0.5; stroke-linejoin: miter; stroke-linecap: square"/>
   </g>
   <g id="patch_25">
    <path d="M 42.615725 686.024062 
L 347.865725 686.024062 
" style="fill: none; stroke: #262626; stroke-width: 0.5; stroke-linejoin: miter; stroke-linecap: square"/>
   </g>
   <g id="text_57">
    <!-- 9.3 -->
    <g style="fill: #262626" transform="translate(88.977176 517.66484) scale(0.09 -0.09)">
     <use xlink:href="#DejaVuSans-39"/>
     <use xlink:href="#DejaVuSans-2e" transform="translate(63.623047 0)"/>
     <use xlink:href="#DejaVuSans-33" transform="translate(95.410156 0)"/>
    </g>
   </g>
   <g id="text_58">
    <!-- 16.1 -->
    <g style="fill: #262626" transform="translate(185.221194 395.927228) scale(0.09 -0.09)">
     <use xlink:href="#DejaVuSans-31"/>
     <use xlink:href="#DejaVuSans-36" transform="translate(63.623047 0)"/>
     <use xlink:href="#DejaVuSans-2e" transform="translate(127.246094 0)"/>
     <use xlink:href="#DejaVuSans-31" transform="translate(159.033203 0)"/>
    </g>
   </g>
   <g id="text_59">
    <!-- 16.5 -->
    <g style="fill: #262626" transform="translate(284.328337 388.857106) scale(0.09 -0.09)">
     <use xlink:href="#DejaVuSans-31"/>
     <use xlink:href="#DejaVuSans-36" transform="translate(63.623047 0)"/>
     <use xlink:href="#DejaVuSans-2e" transform="translate(127.246094 0)"/>
     <use xlink:href="#DejaVuSans-35" transform="translate(159.033203 0)"/>
    </g>
   </g>
   <g id="text_60">
    <!-- QT_DESKTOP_ALUNO -->
    <g style="fill: #262626" transform="translate(131.001584 369.964062) scale(0.11 -0.11)">
     <defs>
      <path id="DejaVuSans-Bold-4b" d="M 588 4666 
L 1791 4666 
L 1791 2963 
L 3525 4666 
L 4922 4666 
L 2675 2456 
L 5153 0 
L 3647 0 
L 1791 1838 
L 1791 0 
L 588 0 
L 588 4666 
z
" transform="scale(0.015625)"/>
      <path id="DejaVuSans-Bold-50" d="M 588 4666 
L 2584 4666 
Q 3475 4666 3951 4270 
Q 4428 3875 4428 3144 
Q 4428 2409 3951 2014 
Q 3475 1619 2584 1619 
L 1791 1619 
L 1791 0 
L 588 0 
L 588 4666 
z
M 1791 3794 
L 1791 2491 
L 2456 2491 
Q 2806 2491 2997 2661 
Q 3188 2831 3188 3144 
Q 3188 3456 2997 3625 
Q 2806 3794 2456 3794 
L 1791 3794 
z
" transform="scale(0.015625)"/>
      <path id="DejaVuSans-Bold-4c" d="M 588 4666 
L 1791 4666 
L 1791 909 
L 3903 909 
L 3903 0 
L 588 0 
L 588 4666 
z
" transform="scale(0.015625)"/>
     </defs>
     <use xlink:href="#DejaVuSans-Bold-51"/>
     <use xlink:href="#DejaVuSans-Bold-54" transform="translate(85.009766 0)"/>
     <use xlink:href="#DejaVuSans-Bold-5f" transform="translate(153.222656 0)"/>
     <use xlink:href="#DejaVuSans-Bold-44" transform="translate(203.222656 0)"/>
     <use xlink:href="#DejaVuSans-Bold-45" transform="translate(286.230469 0)"/>
     <use xlink:href="#DejaVuSans-Bold-53" transform="translate(354.541016 0)"/>
     <use xlink:href="#DejaVuSans-Bold-4b" transform="translate(426.5625 0)"/>
     <use xlink:href="#DejaVuSans-Bold-54" transform="translate(504.052734 0)"/>
     <use xlink:href="#DejaVuSans-Bold-4f" transform="translate(572.265625 0)"/>
     <use xlink:href="#DejaVuSans-Bold-50" transform="translate(657.275391 0)"/>
     <use xlink:href="#DejaVuSans-Bold-5f" transform="translate(730.566406 0)"/>
     <use xlink:href="#DejaVuSans-Bold-41" transform="translate(780.566406 0)"/>
     <use xlink:href="#DejaVuSans-Bold-4c" transform="translate(857.958984 0)"/>
     <use xlink:href="#DejaVuSans-Bold-55" transform="translate(918.054688 0)"/>
     <use xlink:href="#DejaVuSans-Bold-4e" transform="translate(999.255859 0)"/>
     <use xlink:href="#DejaVuSans-Bold-4f" transform="translate(1082.947266 0)"/>
    </g>
   </g>
  </g>
  <g id="axes_5">
   <g id="patch_26">
    <path d="M 401.295725 686.024062 
L 706.545725 686.024062 
L 706.545725 375.964062 
L 401.295725 375.964062 
z
" style="fill: #ffffff"/>
   </g>
   <g id="matplotlib.axis_9">
    <g id="xtick_13">
     <g id="text_61">
      <!-- Cluster 0 -->
      <g style="fill: #262626" transform="translate(431.036257 702.348012) scale(0.1056 -0.1056)">
       <use xlink:href="#DejaVuSans-43"/>
       <use xlink:href="#DejaVuSans-6c" transform="translate(69.824219 0)"/>
       <use xlink:href="#DejaVuSans-75" transform="translate(97.607422 0)"/>
       <use xlink:href="#DejaVuSans-73" transform="translate(160.986328 0)"/>
       <use xlink:href="#DejaVuSans-74" transform="translate(213.085938 0)"/>
       <use xlink:href="#DejaVuSans-65" transform="translate(252.294922 0)"/>
       <use xlink:href="#DejaVuSans-72" transform="translate(313.818359 0)"/>
       <use xlink:href="#DejaVuSans-20" transform="translate(354.931641 0)"/>
       <use xlink:href="#DejaVuSans-30" transform="translate(386.71875 0)"/>
      </g>
     </g>
    </g>
    <g id="xtick_14">
     <g id="text_62">
      <!-- Cluster 1 -->
      <g style="fill: #262626" transform="translate(530.1434 702.348012) scale(0.1056 -0.1056)">
       <use xlink:href="#DejaVuSans-43"/>
       <use xlink:href="#DejaVuSans-6c" transform="translate(69.824219 0)"/>
       <use xlink:href="#DejaVuSans-75" transform="translate(97.607422 0)"/>
       <use xlink:href="#DejaVuSans-73" transform="translate(160.986328 0)"/>
       <use xlink:href="#DejaVuSans-74" transform="translate(213.085938 0)"/>
       <use xlink:href="#DejaVuSans-65" transform="translate(252.294922 0)"/>
       <use xlink:href="#DejaVuSans-72" transform="translate(313.818359 0)"/>
       <use xlink:href="#DejaVuSans-20" transform="translate(354.931641 0)"/>
       <use xlink:href="#DejaVuSans-31" transform="translate(386.71875 0)"/>
      </g>
     </g>
    </g>
    <g id="xtick_15">
     <g id="text_63">
      <!-- Cluster 2 -->
      <g style="fill: #262626" transform="translate(629.250543 702.348012) scale(0.1056 -0.1056)">
       <use xlink:href="#DejaVuSans-43"/>
       <use xlink:href="#DejaVuSans-6c" transform="translate(69.824219 0)"/>
       <use xlink:href="#DejaVuSans-75" transform="translate(97.607422 0)"/>
       <use xlink:href="#DejaVuSans-73" transform="translate(160.986328 0)"/>
       <use xlink:href="#DejaVuSans-74" transform="translate(213.085938 0)"/>
       <use xlink:href="#DejaVuSans-65" transform="translate(252.294922 0)"/>
       <use xlink:href="#DejaVuSans-72" transform="translate(313.818359 0)"/>
       <use xlink:href="#DejaVuSans-20" transform="translate(354.931641 0)"/>
       <use xlink:href="#DejaVuSans-32" transform="translate(386.71875 0)"/>
      </g>
     </g>
    </g>
   </g>
   <g id="matplotlib.axis_10">
    <g id="ytick_29">
     <g id="text_64">
      <!-- 0 -->
      <g style="fill: #262626" transform="translate(386.276925 690.036037) scale(0.1056 -0.1056)">
       <use xlink:href="#DejaVuSans-30"/>
      </g>
     </g>
    </g>
    <g id="ytick_30">
     <g id="text_65">
      <!-- 10 -->
      <g style="fill: #262626" transform="translate(379.558125 630.284954) scale(0.1056 -0.1056)">
       <use xlink:href="#DejaVuSans-31"/>
       <use xlink:href="#DejaVuSans-30" transform="translate(63.623047 0)"/>
      </g>
     </g>
    </g>
    <g id="ytick_31">
     <g id="text_66">
      <!-- 20 -->
      <g style="fill: #262626" transform="translate(379.558125 570.53387) scale(0.1056 -0.1056)">
       <use xlink:href="#DejaVuSans-32"/>
       <use xlink:href="#DejaVuSans-30" transform="translate(63.623047 0)"/>
      </g>
     </g>
    </g>
    <g id="ytick_32">
     <g id="text_67">
      <!-- 30 -->
      <g style="fill: #262626" transform="translate(379.558125 510.782786) scale(0.1056 -0.1056)">
       <use xlink:href="#DejaVuSans-33"/>
       <use xlink:href="#DejaVuSans-30" transform="translate(63.623047 0)"/>
      </g>
     </g>
    </g>
    <g id="ytick_33">
     <g id="text_68">
      <!-- 40 -->
      <g style="fill: #262626" transform="translate(379.558125 451.031703) scale(0.1056 -0.1056)">
       <use xlink:href="#DejaVuSans-34"/>
       <use xlink:href="#DejaVuSans-30" transform="translate(63.623047 0)"/>
      </g>
     </g>
    </g>
    <g id="ytick_34">
     <g id="text_69">
      <!-- 50 -->
      <g style="fill: #262626" transform="translate(379.558125 391.280619) scale(0.1056 -0.1056)">
       <use xlink:href="#DejaVuSans-35"/>
       <use xlink:href="#DejaVuSans-30" transform="translate(63.623047 0)"/>
      </g>
     </g>
    </g>
    <g id="text_70">
     <!-- Média -->
     <g style="fill: #262626" transform="translate(373.478438 546.012031) rotate(-90) scale(0.1 -0.1)">
      <use xlink:href="#DejaVuSans-4d"/>
      <use xlink:href="#DejaVuSans-e9" transform="translate(86.279297 0)"/>
      <use xlink:href="#DejaVuSans-64" transform="translate(147.802734 0)"/>
      <use xlink:href="#DejaVuSans-69" transform="translate(211.279297 0)"/>
      <use xlink:href="#DejaVuSans-61" transform="translate(239.0625 0)"/>
     </g>
    </g>
   </g>
   <g id="patch_27">
    <path d="M 415.170725 686.024062 
L 494.456439 686.024062 
L 494.456439 564.842405 
L 415.170725 564.842405 
z
" clip-path="url(#p22a0efcb4c)" style="fill: #3b528b; stroke: #000000; stroke-width: 0.5; stroke-linejoin: miter"/>
   </g>
   <g id="patch_28">
    <path d="M 514.277868 686.024062 
L 593.563582 686.024062 
L 593.563582 390.728824 
L 514.277868 390.728824 
z
" clip-path="url(#p22a0efcb4c)" style="fill: #21918c; stroke: #000000; stroke-width: 0.5; stroke-linejoin: miter"/>
   </g>
   <g id="patch_29">
    <path d="M 613.385011 686.024062 
L 692.670725 686.024062 
L 692.670725 596.397437 
L 613.385011 596.397437 
z
" clip-path="url(#p22a0efcb4c)" style="fill: #5ec962; stroke: #000000; stroke-width: 0.5; stroke-linejoin: miter"/>
   </g>
   <g id="patch_30">
    <path d="M 401.295725 686.024062 
L 401.295725 375.964062 
" style="fill: none; stroke: #262626; stroke-width: 0.5; stroke-linejoin: miter; stroke-linecap: square"/>
   </g>
   <g id="patch_31">
    <path d="M 401.295725 686.024062 
L 706.545725 686.024062 
" style="fill: none; stroke: #262626; stroke-width: 0.5; stroke-linejoin: miter; stroke-linecap: square"/>
   </g>
   <g id="text_71">
    <!-- 20.3 -->
    <g style="fill: #262626" transform="translate(444.794051 562.970686) scale(0.09 -0.09)">
     <use xlink:href="#DejaVuSans-32"/>
     <use xlink:href="#DejaVuSans-30" transform="translate(63.623047 0)"/>
     <use xlink:href="#DejaVuSans-2e" transform="translate(127.246094 0)"/>
     <use xlink:href="#DejaVuSans-33" transform="translate(159.033203 0)"/>
    </g>
   </g>
   <g id="text_72">
    <!-- 49.4 -->
    <g style="fill: #262626" transform="translate(543.901194 388.857106) scale(0.09 -0.09)">
     <use xlink:href="#DejaVuSans-34"/>
     <use xlink:href="#DejaVuSans-39" transform="translate(63.623047 0)"/>
     <use xlink:href="#DejaVuSans-2e" transform="translate(127.246094 0)"/>
     <use xlink:href="#DejaVuSans-34" transform="translate(159.033203 0)"/>
    </g>
   </g>
   <g id="text_73">
    <!-- 15.0 -->
    <g style="fill: #262626" transform="translate(643.008337 594.525718) scale(0.09 -0.09)">
     <use xlink:href="#DejaVuSans-31"/>
     <use xlink:href="#DejaVuSans-35" transform="translate(63.623047 0)"/>
     <use xlink:href="#DejaVuSans-2e" transform="translate(127.246094 0)"/>
     <use xlink:href="#DejaVuSans-30" transform="translate(159.033203 0)"/>
    </g>
   </g>
   <g id="text_74">
    <!-- QT_COMP_PORTATIL_ALUNO -->
    <g style="fill: #262626" transform="translate(468.565881 369.964062) scale(0.11 -0.11)">
     <defs>
      <path id="DejaVuSans-Bold-52" d="M 2297 2597 
Q 2675 2597 2839 2737 
Q 3003 2878 3003 3200 
Q 3003 3519 2839 3656 
Q 2675 3794 2297 3794 
L 1791 3794 
L 1791 2597 
L 2297 2597 
z
M 1791 1766 
L 1791 0 
L 588 0 
L 588 4666 
L 2425 4666 
Q 3347 4666 3776 4356 
Q 4206 4047 4206 3378 
Q 4206 2916 3982 2619 
Q 3759 2322 3309 2181 
Q 3556 2125 3751 1926 
Q 3947 1728 4147 1325 
L 4800 0 
L 3519 0 
L 2950 1159 
Q 2778 1509 2601 1637 
Q 2425 1766 2131 1766 
L 1791 1766 
z
" transform="scale(0.015625)"/>
     </defs>
     <use xlink:href="#DejaVuSans-Bold-51"/>
     <use xlink:href="#DejaVuSans-Bold-54" transform="translate(85.009766 0)"/>
     <use xlink:href="#DejaVuSans-Bold-5f" transform="translate(153.222656 0)"/>
     <use xlink:href="#DejaVuSans-Bold-43" transform="translate(203.222656 0)"/>
     <use xlink:href="#DejaVuSans-Bold-4f" transform="translate(276.611328 0)"/>
     <use xlink:href="#DejaVuSans-Bold-4d" transform="translate(361.621094 0)"/>
     <use xlink:href="#DejaVuSans-Bold-50" transform="translate(461.132812 0)"/>
     <use xlink:href="#DejaVuSans-Bold-5f" transform="translate(534.423828 0)"/>
     <use xlink:href="#DejaVuSans-Bold-50" transform="translate(584.423828 0)"/>
     <use xlink:href="#DejaVuSans-Bold-4f" transform="translate(657.714844 0)"/>
     <use xlink:href="#DejaVuSans-Bold-52" transform="translate(742.724609 0)"/>
     <use xlink:href="#DejaVuSans-Bold-54" transform="translate(815.226562 0)"/>
     <use xlink:href="#DejaVuSans-Bold-41" transform="translate(875.689453 0)"/>
     <use xlink:href="#DejaVuSans-Bold-54" transform="translate(945.332031 0)"/>
     <use xlink:href="#DejaVuSans-Bold-49" transform="translate(1013.544922 0)"/>
     <use xlink:href="#DejaVuSans-Bold-4c" transform="translate(1050.751953 0)"/>
     <use xlink:href="#DejaVuSans-Bold-5f" transform="translate(1114.472656 0)"/>
     <use xlink:href="#DejaVuSans-Bold-41" transform="translate(1164.472656 0)"/>
     <use xlink:href="#DejaVuSans-Bold-4c" transform="translate(1241.865234 0)"/>
     <use xlink:href="#DejaVuSans-Bold-55" transform="translate(1301.960938 0)"/>
     <use xlink:href="#DejaVuSans-Bold-4e" transform="translate(1383.162109 0)"/>
     <use xlink:href="#DejaVuSans-Bold-4f" transform="translate(1466.853516 0)"/>
    </g>
   </g>
  </g>
  <g id="axes_6">
   <g id="patch_32">
    <path d="M 759.975725 686.024062 
L 1065.225725 686.024062 
L 1065.225725 375.964062 
L 759.975725 375.964062 
z
" style="fill: #ffffff"/>
   </g>
   <g id="matplotlib.axis_11">
    <g id="xtick_16">
     <g id="text_75">
      <!-- Cluster 0 -->
      <g style="fill: #262626" transform="translate(789.716257 702.348012) scale(0.1056 -0.1056)">
       <use xlink:href="#DejaVuSans-43"/>
       <use xlink:href="#DejaVuSans-6c" transform="translate(69.824219 0)"/>
       <use xlink:href="#DejaVuSans-75" transform="translate(97.607422 0)"/>
       <use xlink:href="#DejaVuSans-73" transform="translate(160.986328 0)"/>
       <use xlink:href="#DejaVuSans-74" transform="translate(213.085938 0)"/>
       <use xlink:href="#DejaVuSans-65" transform="translate(252.294922 0)"/>
       <use xlink:href="#DejaVuSans-72" transform="translate(313.818359 0)"/>
       <use xlink:href="#DejaVuSans-20" transform="translate(354.931641 0)"/>
       <use xlink:href="#DejaVuSans-30" transform="translate(386.71875 0)"/>
      </g>
     </g>
    </g>
    <g id="xtick_17">
     <g id="text_76">
      <!-- Cluster 1 -->
      <g style="fill: #262626" transform="translate(888.8234 702.348012) scale(0.1056 -0.1056)">
       <use xlink:href="#DejaVuSans-43"/>
       <use xlink:href="#DejaVuSans-6c" transform="translate(69.824219 0)"/>
       <use xlink:href="#DejaVuSans-75" transform="translate(97.607422 0)"/>
       <use xlink:href="#DejaVuSans-73" transform="translate(160.986328 0)"/>
       <use xlink:href="#DejaVuSans-74" transform="translate(213.085938 0)"/>
       <use xlink:href="#DejaVuSans-65" transform="translate(252.294922 0)"/>
       <use xlink:href="#DejaVuSans-72" transform="translate(313.818359 0)"/>
       <use xlink:href="#DejaVuSans-20" transform="translate(354.931641 0)"/>
       <use xlink:href="#DejaVuSans-31" transform="translate(386.71875 0)"/>
      </g>
     </g>
    </g>
    <g id="xtick_18">
     <g id="text_77">
      <!-- Cluster 2 -->
      <g style="fill: #262626" transform="translate(987.930543 702.348012) scale(0.1056 -0.1056)">
       <use xlink:href="#DejaVuSans-43"/>
       <use xlink:href="#DejaVuSans-6c" transform="translate(69.824219 0)"/>
       <use xlink:href="#DejaVuSans-75" transform="translate(97.607422 0)"/>
       <use xlink:href="#DejaVuSans-73" transform="translate(160.986328 0)"/>
       <use xlink:href="#DejaVuSans-74" transform="translate(213.085938 0)"/>
       <use xlink:href="#DejaVuSans-65" transform="translate(252.294922 0)"/>
       <use xlink:href="#DejaVuSans-72" transform="translate(313.818359 0)"/>
       <use xlink:href="#DejaVuSans-20" transform="translate(354.931641 0)"/>
       <use xlink:href="#DejaVuSans-32" transform="translate(386.71875 0)"/>
      </g>
     </g>
    </g>
   </g>
   <g id="matplotlib.axis_12">
    <g id="ytick_35">
     <g id="text_78">
      <!-- 0 -->
      <g style="fill: #262626" transform="translate(744.956925 690.036037) scale(0.1056 -0.1056)">
       <use xlink:href="#DejaVuSans-30"/>
      </g>
     </g>
    </g>
    <g id="ytick_36">
     <g id="text_79">
      <!-- 5 -->
      <g style="fill: #262626" transform="translate(744.956925 641.499695) scale(0.1056 -0.1056)">
       <use xlink:href="#DejaVuSans-35"/>
      </g>
     </g>
    </g>
    <g id="ytick_37">
     <g id="text_80">
      <!-- 10 -->
      <g style="fill: #262626" transform="translate(738.238125 592.963352) scale(0.1056 -0.1056)">
       <use xlink:href="#DejaVuSans-31"/>
       <use xlink:href="#DejaVuSans-30" transform="translate(63.623047 0)"/>
      </g>
     </g>
    </g>
    <g id="ytick_38">
     <g id="text_81">
      <!-- 15 -->
      <g style="fill: #262626" transform="translate(738.238125 544.427009) scale(0.1056 -0.1056)">
       <use xlink:href="#DejaVuSans-31"/>
       <use xlink:href="#DejaVuSans-35" transform="translate(63.623047 0)"/>
      </g>
     </g>
    </g>
    <g id="ytick_39">
     <g id="text_82">
      <!-- 20 -->
      <g style="fill: #262626" transform="translate(738.238125 495.890667) scale(0.1056 -0.1056)">
       <use xlink:href="#DejaVuSans-32"/>
       <use xlink:href="#DejaVuSans-30" transform="translate(63.623047 0)"/>
      </g>
     </g>
    </g>
    <g id="ytick_40">
     <g id="text_83">
      <!-- 25 -->
      <g style="fill: #262626" transform="translate(738.238125 447.354324) scale(0.1056 -0.1056)">
       <use xlink:href="#DejaVuSans-32"/>
       <use xlink:href="#DejaVuSans-35" transform="translate(63.623047 0)"/>
      </g>
     </g>
    </g>
    <g id="ytick_41">
     <g id="text_84">
      <!-- 30 -->
      <g style="fill: #262626" transform="translate(738.238125 398.817981) scale(0.1056 -0.1056)">
       <use xlink:href="#DejaVuSans-33"/>
       <use xlink:href="#DejaVuSans-30" transform="translate(63.623047 0)"/>
      </g>
     </g>
    </g>
    <g id="text_85">
     <!-- Média -->
     <g style="fill: #262626" transform="translate(732.158438 546.012031) rotate(-90) scale(0.1 -0.1)">
      <use xlink:href="#DejaVuSans-4d"/>
      <use xlink:href="#DejaVuSans-e9" transform="translate(86.279297 0)"/>
      <use xlink:href="#DejaVuSans-64" transform="translate(147.802734 0)"/>
      <use xlink:href="#DejaVuSans-69" transform="translate(211.279297 0)"/>
      <use xlink:href="#DejaVuSans-61" transform="translate(239.0625 0)"/>
     </g>
    </g>
   </g>
   <g id="patch_33">
    <path d="M 773.850725 686.024062 
L 853.136439 686.024062 
L 853.136439 519.059044 
L 773.850725 519.059044 
z
" clip-path="url(#p5d39ade7b0)" style="fill: #3b528b; stroke: #000000; stroke-width: 0.5; stroke-linejoin: miter"/>
   </g>
   <g id="patch_34">
    <path d="M 872.957868 686.024062 
L 952.243582 686.024062 
L 952.243582 390.728824 
L 872.957868 390.728824 
z
" clip-path="url(#p5d39ade7b0)" style="fill: #21918c; stroke: #000000; stroke-width: 0.5; stroke-linejoin: miter"/>
   </g>
   <g id="patch_35">
    <path d="M 972.065011 686.024062 
L 1051.350725 686.024062 
L 1051.350725 686.024062 
L 972.065011 686.024062 
z
" clip-path="url(#p5d39ade7b0)" style="fill: #5ec962; stroke: #000000; stroke-width: 0.5; stroke-linejoin: miter"/>
   </g>
   <g id="patch_36">
    <path d="M 759.975725 686.024062 
L 759.975725 375.964062 
" style="fill: none; stroke: #262626; stroke-width: 0.5; stroke-linejoin: miter; stroke-linecap: square"/>
   </g>
   <g id="patch_37">
    <path d="M 759.975725 686.024062 
L 1065.225725 686.024062 
" style="fill: none; stroke: #262626; stroke-width: 0.5; stroke-linejoin: miter; stroke-linecap: square"/>
   </g>
   <g id="text_86">
    <!-- 17.2 -->
    <g style="fill: #262626" transform="translate(803.474051 517.187325) scale(0.09 -0.09)">
     <defs>
      <path id="DejaVuSans-37" d="M 525 4666 
L 3525 4666 
L 3525 4397 
L 1831 0 
L 1172 0 
L 2766 4134 
L 525 4134 
L 525 4666 
z
" transform="scale(0.015625)"/>
     </defs>
     <use xlink:href="#DejaVuSans-31"/>
     <use xlink:href="#DejaVuSans-37" transform="translate(63.623047 0)"/>
     <use xlink:href="#DejaVuSans-2e" transform="translate(127.246094 0)"/>
     <use xlink:href="#DejaVuSans-32" transform="translate(159.033203 0)"/>
    </g>
   </g>
   <g id="text_87">
    <!-- 30.4 -->
    <g style="fill: #262626" transform="translate(902.581194 388.857106) scale(0.09 -0.09)">
     <use xlink:href="#DejaVuSans-33"/>
     <use xlink:href="#DejaVuSans-30" transform="translate(63.623047 0)"/>
     <use xlink:href="#DejaVuSans-2e" transform="translate(127.246094 0)"/>
     <use xlink:href="#DejaVuSans-34" transform="translate(159.033203 0)"/>
    </g>
   </g>
   <g id="text_88">
    <!-- 0.0 -->
    <g style="fill: #262626" transform="translate(1004.551462 684.152344) scale(0.09 -0.09)">
     <use xlink:href="#DejaVuSans-30"/>
     <use xlink:href="#DejaVuSans-2e" transform="translate(63.623047 0)"/>
     <use xlink:href="#DejaVuSans-30" transform="translate(95.410156 0)"/>
    </g>
   </g>
   <g id="text_89">
    <!-- QT_TABLET_ALUNO -->
    <g style="fill: #262626" transform="translate(854.578303 369.964062) scale(0.11 -0.11)">
     <defs>
      <path id="DejaVuSans-Bold-42" d="M 2456 2859 
Q 2741 2859 2887 2984 
Q 3034 3109 3034 3353 
Q 3034 3594 2887 3720 
Q 2741 3847 2456 3847 
L 1791 3847 
L 1791 2859 
L 2456 2859 
z
M 2497 819 
Q 2859 819 3042 972 
Q 3225 1125 3225 1434 
Q 3225 1738 3044 1889 
Q 2863 2041 2497 2041 
L 1791 2041 
L 1791 819 
L 2497 819 
z
M 3616 2497 
Q 4003 2384 4215 2081 
Q 4428 1778 4428 1338 
Q 4428 663 3972 331 
Q 3516 0 2584 0 
L 588 0 
L 588 4666 
L 2394 4666 
Q 3366 4666 3802 4372 
Q 4238 4078 4238 3431 
Q 4238 3091 4078 2852 
Q 3919 2613 3616 2497 
z
" transform="scale(0.015625)"/>
     </defs>
     <use xlink:href="#DejaVuSans-Bold-51"/>
     <use xlink:href="#DejaVuSans-Bold-54" transform="translate(85.009766 0)"/>
     <use xlink:href="#DejaVuSans-Bold-5f" transform="translate(153.222656 0)"/>
     <use xlink:href="#DejaVuSans-Bold-54" transform="translate(203.222656 0)"/>
     <use xlink:href="#DejaVuSans-Bold-41" transform="translate(263.685547 0)"/>
     <use xlink:href="#DejaVuSans-Bold-42" transform="translate(341.078125 0)"/>
     <use xlink:href="#DejaVuSans-Bold-4c" transform="translate(417.298828 0)"/>
     <use xlink:href="#DejaVuSans-Bold-45" transform="translate(481.019531 0)"/>
     <use xlink:href="#DejaVuSans-Bold-54" transform="translate(549.330078 0)"/>
     <use xlink:href="#DejaVuSans-Bold-5f" transform="translate(617.542969 0)"/>
     <use xlink:href="#DejaVuSans-Bold-41" transform="translate(667.542969 0)"/>
     <use xlink:href="#DejaVuSans-Bold-4c" transform="translate(744.935547 0)"/>
     <use xlink:href="#DejaVuSans-Bold-55" transform="translate(805.03125 0)"/>
     <use xlink:href="#DejaVuSans-Bold-4e" transform="translate(886.232422 0)"/>
     <use xlink:href="#DejaVuSans-Bold-4f" transform="translate(969.923828 0)"/>
    </g>
   </g>
  </g>
 </g>
 <defs>
  <clipPath id="pf9dca3bf56">
   <rect x="42.615725" y="21.364062" width="305.25" height="310.06"/>
  </clipPath>
  <clipPath id="p65e06d009f">
   <rect x="401.295725" y="21.364062" width="305.25" height="310.06"/>
  </clipPath>
  <clipPath id="pb138d94abc">
   <rect x="759.975725" y="21.364062" width="305.25" height="310.06"/>
  </clipPath>
  <clipPath id="p454211c47d">
   <rect x="42.615725" y="375.964062" width="305.25" height="310.06"/>
  </clipPath>
  <clipPath id="p22a0efcb4c">
   <rect x="401.295725" y="375.964062" width="305.25" height="310.06"/>
  </clipPath>
  <clipPath id="p5d39ade7b0">
   <rect x="759.975725" y="375.964062" width="305.25" height="310.06"/>
  </clipPath>
 </defs>
</svg>
