<?xml version="1.0" encoding="utf-8" standalone="no"?>
<!DOCTYPE svg PUBLIC "-//W3C//DTD SVG 1.1//EN"
  "http://www.w3.org/Graphics/SVG/1.1/DTD/svg11.dtd">
<svg xmlns:xlink="http://www.w3.org/1999/xlink" width="713.345645pt" height="568.066037pt" viewBox="0 0 713.345645 568.066037" xmlns="http://www.w3.org/2000/svg" version="1.1">
 <metadata>
  <rdf:RDF xmlns:dc="http://purl.org/dc/elements/1.1/" xmlns:cc="http://creativecommons.org/ns#" xmlns:rdf="http://www.w3.org/1999/02/22-rdf-syntax-ns#">
   <cc:Work>
    <dc:type rdf:resource="http://purl.org/dc/dcmitype/StillImage"/>
    <dc:date>2026-03-14T23:06:23.175815</dc:date>
    <dc:format>image/svg+xml</dc:format>
    <dc:creator>
     <cc:Agent>
      <dc:title>Matplotlib v3.10.0, https://matplotlib.org/</dc:title>
     </cc:Agent>
    </dc:creator>
   </cc:Work>
  </rdf:RDF>
 </metadata>
 <defs>
  <style type="text/css">*{stroke-linejoin: round; stroke-linecap: butt}</style>
 </defs>
 <g id="figure_1">
  <g id="patch_1">
   <path d="M 0 568.066037 
L 713.345645 568.066037 
L 713.345645 0 
L 0 0 
z
" style="fill: #ffffff"/>
  </g>
  <g id="axes_1">
   <g id="patch_2">
    <path d="M 160.011875 527.7 
L 704.244345 527.7 
L 704.244345 7.2 
L 160.011875 7.2 
z
" style="fill: #ffffff"/>
   </g>
   <g id="matplotlib.axis_1">
    <g id="xtick_1">
     <g id="text_1">
      <!-- −0.50 -->
      <g style="fill: #262626" transform="translate(155.196115 544.02395) scale(0.1056 -0.1056)">
       <defs>
        <path id="DejaVuSans-2212" d="M 678 2272 
L 4684 2272 
L 4684 1741 
L 678 1741 
L 678 2272 
z
" transform="scale(0.015625)"/>
        <path id="DejaVuSans-30" d="M 2034 4250 
Q 1547 4250 1301 3770 
Q 1056 3291 1056 2328 
Q 1056 1369 1301 889 
Q 1547 409 2034 409 
Q 2525 409 2770 889 
Q 3016 1369 3016 2328 
Q 3016 3291 2770 3770 
Q 2525 4250 2034 4250 
z
M 2034 4750 
Q 2819 4750 3233 4129 
Q 3647 3509 3647 2328 
Q 3647 1150 3233 529 
Q 2819 -91 2034 -91 
Q 1250 -91 836 529 
Q 422 1150 422 2328 
Q 422 3509 836 4129 
Q 1250 4750 2034 4750 
z
" transform="scale(0.015625)"/>
        <path id="DejaVuSans-2e" d="M 684 794 
L 1344 794 
L 1344 0 
L 684 0 
L 684 794 
z
" transform="scale(0.015625)"/>
        <path id="DejaVuSans-35" d="M 691 4666 
L 3169 4666 
L 3169 4134 
L 1269 4134 
L 1269 2991 
Q 1406 3038 1543 3061 
Q 1681 3084 1819 3084 
Q 2600 3084 3056 2656 
Q 3513 2228 3513 1497 
Q 3513 744 3044 326 
Q 2575 -91 1722 -91 
Q 1428 -91 1123 -41 
Q 819 9 494 109 
L 494 744 
Q 775 591 1075 516 
Q 1375 441 1709 441 
Q 2250 441 2565 725 
Q 2881 1009 2881 1497 
Q 2881 1984 2565 2268 
Q 2250 2553 1709 2553 
Q 1456 2553 1204 2497 
Q 953 2441 691 2322 
L 691 4666 
z
" transform="scale(0.015625)"/>
       </defs>
       <use xlink:href="#DejaVuSans-2212"/>
       <use xlink:href="#DejaVuSans-30" transform="translate(83.789062 0)"/>
       <use xlink:href="#DejaVuSans-2e" transform="translate(147.412109 0)"/>
       <use xlink:href="#DejaVuSans-35" transform="translate(179.199219 0)"/>
       <use xlink:href="#DejaVuSans-30" transform="translate(242.822266 0)"/>
      </g>
     </g>
    </g>
    <g id="xtick_2">
     <g id="text_2">
      <!-- −0.25 -->
      <g style="fill: #262626" transform="translate(225.200112 544.02395) scale(0.1056 -0.1056)">
       <defs>
        <path id="DejaVuSans-32" d="M 1228 531 
L 3431 531 
L 3431 0 
L 469 0 
L 469 531 
Q 828 903 1448 1529 
Q 2069 2156 2228 2338 
Q 2531 2678 2651 2914 
Q 2772 3150 2772 3378 
Q 2772 3750 2511 3984 
Q 2250 4219 1831 4219 
Q 1534 4219 1204 4116 
Q 875 4013 500 3803 
L 500 4441 
Q 881 4594 1212 4672 
Q 1544 4750 1819 4750 
Q 2544 4750 2975 4387 
Q 3406 4025 3406 3419 
Q 3406 3131 3298 2873 
Q 3191 2616 2906 2266 
Q 2828 2175 2409 1742 
Q 1991 1309 1228 531 
z
" transform="scale(0.015625)"/>
       </defs>
       <use xlink:href="#DejaVuSans-2212"/>
       <use xlink:href="#DejaVuSans-30" transform="translate(83.789062 0)"/>
       <use xlink:href="#DejaVuSans-2e" transform="translate(147.412109 0)"/>
       <use xlink:href="#DejaVuSans-32" transform="translate(179.199219 0)"/>
       <use xlink:href="#DejaVuSans-35" transform="translate(242.822266 0)"/>
      </g>
     </g>
    </g>
    <g id="xtick_3">
     <g id="text_3">
      <!-- 0.00 -->
      <g style="fill: #262626" transform="translate(299.628585 544.02395) scale(0.1056 -0.1056)">
       <use xlink:href="#DejaVuSans-30"/>
       <use xlink:href="#DejaVuSans-2e" transform="translate(63.623047 0)"/>
       <use xlink:href="#DejaVuSans-30" transform="translate(95.410156 0)"/>
       <use xlink:href="#DejaVuSans-30" transform="translate(159.033203 0)"/>
      </g>
     </g>
    </g>
    <g id="xtick_4">
     <g id="text_4">
      <!-- 0.25 -->
      <g style="fill: #262626" transform="translate(369.632582 544.02395) scale(0.1056 -0.1056)">
       <use xlink:href="#DejaVuSans-30"/>
       <use xlink:href="#DejaVuSans-2e" transform="translate(63.623047 0)"/>
       <use xlink:href="#DejaVuSans-32" transform="translate(95.410156 0)"/>
       <use xlink:href="#DejaVuSans-35" transform="translate(159.033203 0)"/>
      </g>
     </g>
    </g>
    <g id="xtick_5">
     <g id="text_5">
      <!-- 0.50 -->
      <g style="fill: #262626" transform="translate(439.636579 544.02395) scale(0.1056 -0.1056)">
       <use xlink:href="#DejaVuSans-30"/>
       <use xlink:href="#DejaVuSans-2e" transform="translate(63.623047 0)"/>
       <use xlink:href="#DejaVuSans-35" transform="translate(95.410156 0)"/>
       <use xlink:href="#DejaVuSans-30" transform="translate(159.033203 0)"/>
      </g>
     </g>
    </g>
    <g id="xtick_6">
     <g id="text_6">
      <!-- 0.75 -->
      <g style="fill: #262626" transform="translate(509.640577 544.02395) scale(0.1056 -0.1056)">
       <defs>
        <path id="DejaVuSans-37" d="M 525 4666 
L 3525 4666 
L 3525 4397 
L 1831 0 
L 1172 0 
L 2766 4134 
L 525 4134 
L 525 4666 
z
" transform="scale(0.015625)"/>
       </defs>
       <use xlink:href="#DejaVuSans-30"/>
       <use xlink:href="#DejaVuSans-2e" transform="translate(63.623047 0)"/>
       <use xlink:href="#DejaVuSans-37" transform="translate(95.410156 0)"/>
       <use xlink:href="#DejaVuSans-35" transform="translate(159.033203 0)"/>
      </g>
     </g>
    </g>
    <g id="xtick_7">
     <g id="text_7">
      <!-- 1.00 -->
      <g style="fill: #262626" transform="translate(579.644574 544.02395) scale(0.1056 -0.1056)">
       <defs>
        <path id="DejaVuSans-31" d="M 794 531 
L 1825 531 
L 1825 4091 
L 703 3866 
L 703 4441 
L 1819 4666 
L 2450 4666 
L 2450 531 
L 3481 531 
L 3481 0 
L 794 0 
L 794 531 
z
" transform="scale(0.015625)"/>
       </defs>
       <use xlink:href="#DejaVuSans-31"/>
       <use xlink:href="#DejaVuSans-2e" transform="translate(63.623047 0)"/>
       <use xlink:href="#DejaVuSans-30" transform="translate(95.410156 0)"/>
       <use xlink:href="#DejaVuSans-30" transform="translate(159.033203 0)"/>
      </g>
     </g>
    </g>
    <g id="xtick_8">
     <g id="text_8">
      <!-- 1.25 -->
      <g style="fill: #262626" transform="translate(649.648572 544.02395) scale(0.1056 -0.1056)">
       <use xlink:href="#DejaVuSans-31"/>
       <use xlink:href="#DejaVuSans-2e" transform="translate(63.623047 0)"/>
       <use xlink:href="#DejaVuSans-32" transform="translate(95.410156 0)"/>
       <use xlink:href="#DejaVuSans-35" transform="translate(159.033203 0)"/>
      </g>
     </g>
    </g>
    <g id="text_9">
     <!-- Coeficiente -->
     <g style="fill: #262626" transform="translate(401.111547 558.578381) scale(0.11 -0.11)">
      <defs>
       <path id="DejaVuSans-43" d="M 4122 4306 
L 4122 3641 
Q 3803 3938 3442 4084 
Q 3081 4231 2675 4231 
Q 1875 4231 1450 3742 
Q 1025 3253 1025 2328 
Q 1025 1406 1450 917 
Q 1875 428 2675 428 
Q 3081 428 3442 575 
Q 3803 722 4122 1019 
L 4122 359 
Q 3791 134 3420 21 
Q 3050 -91 2638 -91 
Q 1578 -91 968 557 
Q 359 1206 359 2328 
Q 359 3453 968 4101 
Q 1578 4750 2638 4750 
Q 3056 4750 3426 4639 
Q 3797 4528 4122 4306 
z
" transform="scale(0.015625)"/>
       <path id="DejaVuSans-6f" d="M 1959 3097 
Q 1497 3097 1228 2736 
Q 959 2375 959 1747 
Q 959 1119 1226 758 
Q 1494 397 1959 397 
Q 2419 397 2687 759 
Q 2956 1122 2956 1747 
Q 2956 2369 2687 2733 
Q 2419 3097 1959 3097 
z
M 1959 3584 
Q 2709 3584 3137 3096 
Q 3566 2609 3566 1747 
Q 3566 888 3137 398 
Q 2709 -91 1959 -91 
Q 1206 -91 779 398 
Q 353 888 353 1747 
Q 353 2609 779 3096 
Q 1206 3584 1959 3584 
z
" transform="scale(0.015625)"/>
       <path id="DejaVuSans-65" d="M 3597 1894 
L 3597 1613 
L 953 1613 
Q 991 1019 1311 708 
Q 1631 397 2203 397 
Q 2534 397 2845 478 
Q 3156 559 3463 722 
L 3463 178 
Q 3153 47 2828 -22 
Q 2503 -91 2169 -91 
Q 1331 -91 842 396 
Q 353 884 353 1716 
Q 353 2575 817 3079 
Q 1281 3584 2069 3584 
Q 2775 3584 3186 3129 
Q 3597 2675 3597 1894 
z
M 3022 2063 
Q 3016 2534 2758 2815 
Q 2500 3097 2075 3097 
Q 1594 3097 1305 2825 
Q 1016 2553 972 2059 
L 3022 2063 
z
" transform="scale(0.015625)"/>
       <path id="DejaVuSans-66" d="M 2375 4863 
L 2375 4384 
L 1825 4384 
Q 1516 4384 1395 4259 
Q 1275 4134 1275 3809 
L 1275 3500 
L 2222 3500 
L 2222 3053 
L 1275 3053 
L 1275 0 
L 697 0 
L 697 3053 
L 147 3053 
L 147 3500 
L 697 3500 
L 697 3744 
Q 697 4328 969 4595 
Q 1241 4863 1831 4863 
L 2375 4863 
z
" transform="scale(0.015625)"/>
       <path id="DejaVuSans-69" d="M 603 3500 
L 1178 3500 
L 1178 0 
L 603 0 
L 603 3500 
z
M 603 4863 
L 1178 4863 
L 1178 4134 
L 603 4134 
L 603 4863 
z
" transform="scale(0.015625)"/>
       <path id="DejaVuSans-63" d="M 3122 3366 
L 3122 2828 
Q 2878 2963 2633 3030 
Q 2388 3097 2138 3097 
Q 1578 3097 1268 2742 
Q 959 2388 959 1747 
Q 959 1106 1268 751 
Q 1578 397 2138 397 
Q 2388 397 2633 464 
Q 2878 531 3122 666 
L 3122 134 
Q 2881 22 2623 -34 
Q 2366 -91 2075 -91 
Q 1284 -91 818 406 
Q 353 903 353 1747 
Q 353 2603 823 3093 
Q 1294 3584 2113 3584 
Q 2378 3584 2631 3529 
Q 2884 3475 3122 3366 
z
" transform="scale(0.015625)"/>
       <path id="DejaVuSans-6e" d="M 3513 2113 
L 3513 0 
L 2938 0 
L 2938 2094 
Q 2938 2591 2744 2837 
Q 2550 3084 2163 3084 
Q 1697 3084 1428 2787 
Q 1159 2491 1159 1978 
L 1159 0 
L 581 0 
L 581 3500 
L 1159 3500 
L 1159 2956 
Q 1366 3272 1645 3428 
Q 1925 3584 2291 3584 
Q 2894 3584 3203 3211 
Q 3513 2838 3513 2113 
z
" transform="scale(0.015625)"/>
       <path id="DejaVuSans-74" d="M 1172 4494 
L 1172 3500 
L 2356 3500 
L 2356 3053 
L 1172 3053 
L 1172 1153 
Q 1172 725 1289 603 
Q 1406 481 1766 481 
L 2356 481 
L 2356 0 
L 1766 0 
Q 1100 0 847 248 
Q 594 497 594 1153 
L 594 3053 
L 172 3053 
L 172 3500 
L 594 3500 
L 594 4494 
L 1172 4494 
z
" transform="scale(0.015625)"/>
      </defs>
      <use xlink:href="#DejaVuSans-43"/>
      <use xlink:href="#DejaVuSans-6f" transform="translate(69.824219 0)"/>
      <use xlink:href="#DejaVuSans-65" transform="translate(131.005859 0)"/>
      <use xlink:href="#DejaVuSans-66" transform="translate(192.529297 0)"/>
      <use xlink:href="#DejaVuSans-69" transform="translate(227.734375 0)"/>
      <use xlink:href="#DejaVuSans-63" transform="translate(255.517578 0)"/>
      <use xlink:href="#DejaVuSans-69" transform="translate(310.498047 0)"/>
      <use xlink:href="#DejaVuSans-65" transform="translate(338.28125 0)"/>
      <use xlink:href="#DejaVuSans-6e" transform="translate(399.804688 0)"/>
      <use xlink:href="#DejaVuSans-74" transform="translate(463.183594 0)"/>
      <use xlink:href="#DejaVuSans-65" transform="translate(502.392578 0)"/>
     </g>
    </g>
   </g>
   <g id="matplotlib.axis_2">
    <g id="ytick_1">
     <g id="text_10">
      <!-- QT_DESKTOP_ALUNO -->
      <g style="fill: #262626" transform="translate(57.460781 498.524409) scale(0.09 -0.09)">
       <defs>
        <path id="DejaVuSans-51" d="M 2522 4238 
Q 1834 4238 1429 3725 
Q 1025 3213 1025 2328 
Q 1025 1447 1429 934 
Q 1834 422 2522 422 
Q 3209 422 3611 934 
Q 4013 1447 4013 2328 
Q 4013 3213 3611 3725 
Q 3209 4238 2522 4238 
z
M 3406 84 
L 4238 -825 
L 3475 -825 
L 2784 -78 
Q 2681 -84 2626 -87 
Q 2572 -91 2522 -91 
Q 1538 -91 948 567 
Q 359 1225 359 2328 
Q 359 3434 948 4092 
Q 1538 4750 2522 4750 
Q 3503 4750 4090 4092 
Q 4678 3434 4678 2328 
Q 4678 1516 4351 937 
Q 4025 359 3406 84 
z
" transform="scale(0.015625)"/>
        <path id="DejaVuSans-54" d="M -19 4666 
L 3928 4666 
L 3928 4134 
L 2272 4134 
L 2272 0 
L 1638 0 
L 1638 4134 
L -19 4134 
L -19 4666 
z
" transform="scale(0.015625)"/>
        <path id="DejaVuSans-5f" d="M 3263 -1063 
L 3263 -1509 
L -63 -1509 
L -63 -1063 
L 3263 -1063 
z
" transform="scale(0.015625)"/>
        <path id="DejaVuSans-44" d="M 1259 4147 
L 1259 519 
L 2022 519 
Q 2988 519 3436 956 
Q 3884 1394 3884 2338 
Q 3884 3275 3436 3711 
Q 2988 4147 2022 4147 
L 1259 4147 
z
M 628 4666 
L 1925 4666 
Q 3281 4666 3915 4102 
Q 4550 3538 4550 2338 
Q 4550 1131 3912 565 
Q 3275 0 1925 0 
L 628 0 
L 628 4666 
z
" transform="scale(0.015625)"/>
        <path id="DejaVuSans-45" d="M 628 4666 
L 3578 4666 
L 3578 4134 
L 1259 4134 
L 1259 2753 
L 3481 2753 
L 3481 2222 
L 1259 2222 
L 1259 531 
L 3634 531 
L 3634 0 
L 628 0 
L 628 4666 
z
" transform="scale(0.015625)"/>
        <path id="DejaVuSans-53" d="M 3425 4513 
L 3425 3897 
Q 3066 4069 2747 4153 
Q 2428 4238 2131 4238 
Q 1616 4238 1336 4038 
Q 1056 3838 1056 3469 
Q 1056 3159 1242 3001 
Q 1428 2844 1947 2747 
L 2328 2669 
Q 3034 2534 3370 2195 
Q 3706 1856 3706 1288 
Q 3706 609 3251 259 
Q 2797 -91 1919 -91 
Q 1588 -91 1214 -16 
Q 841 59 441 206 
L 441 856 
Q 825 641 1194 531 
Q 1563 422 1919 422 
Q 2459 422 2753 634 
Q 3047 847 3047 1241 
Q 3047 1584 2836 1778 
Q 2625 1972 2144 2069 
L 1759 2144 
Q 1053 2284 737 2584 
Q 422 2884 422 3419 
Q 422 4038 858 4394 
Q 1294 4750 2059 4750 
Q 2388 4750 2728 4690 
Q 3069 4631 3425 4513 
z
" transform="scale(0.015625)"/>
        <path id="DejaVuSans-4b" d="M 628 4666 
L 1259 4666 
L 1259 2694 
L 3353 4666 
L 4166 4666 
L 1850 2491 
L 4331 0 
L 3500 0 
L 1259 2247 
L 1259 0 
L 628 0 
L 628 4666 
z
" transform="scale(0.015625)"/>
        <path id="DejaVuSans-4f" d="M 2522 4238 
Q 1834 4238 1429 3725 
Q 1025 3213 1025 2328 
Q 1025 1447 1429 934 
Q 1834 422 2522 422 
Q 3209 422 3611 934 
Q 4013 1447 4013 2328 
Q 4013 3213 3611 3725 
Q 3209 4238 2522 4238 
z
M 2522 4750 
Q 3503 4750 4090 4092 
Q 4678 3434 4678 2328 
Q 4678 1225 4090 567 
Q 3503 -91 2522 -91 
Q 1538 -91 948 565 
Q 359 1222 359 2328 
Q 359 3434 948 4092 
Q 1538 4750 2522 4750 
z
" transform="scale(0.015625)"/>
        <path id="DejaVuSans-50" d="M 1259 4147 
L 1259 2394 
L 2053 2394 
Q 2494 2394 2734 2622 
Q 2975 2850 2975 3272 
Q 2975 3691 2734 3919 
Q 2494 4147 2053 4147 
L 1259 4147 
z
M 628 4666 
L 2053 4666 
Q 2838 4666 3239 4311 
Q 3641 3956 3641 3272 
Q 3641 2581 3239 2228 
Q 2838 1875 2053 1875 
L 1259 1875 
L 1259 0 
L 628 0 
L 628 4666 
z
" transform="scale(0.015625)"/>
        <path id="DejaVuSans-41" d="M 2188 4044 
L 1331 1722 
L 3047 1722 
L 2188 4044 
z
M 1831 4666 
L 2547 4666 
L 4325 0 
L 3669 0 
L 3244 1197 
L 1141 1197 
L 716 0 
L 50 0 
L 1831 4666 
z
" transform="scale(0.015625)"/>
        <path id="DejaVuSans-4c" d="M 628 4666 
L 1259 4666 
L 1259 531 
L 3531 531 
L 3531 0 
L 628 0 
L 628 4666 
z
" transform="scale(0.015625)"/>
        <path id="DejaVuSans-55" d="M 556 4666 
L 1191 4666 
L 1191 1831 
Q 1191 1081 1462 751 
Q 1734 422 2344 422 
Q 2950 422 3222 751 
Q 3494 1081 3494 1831 
L 3494 4666 
L 4128 4666 
L 4128 1753 
Q 4128 841 3676 375 
Q 3225 -91 2344 -91 
Q 1459 -91 1007 375 
Q 556 841 556 1753 
L 556 4666 
z
" transform="scale(0.015625)"/>
        <path id="DejaVuSans-4e" d="M 628 4666 
L 1478 4666 
L 3547 763 
L 3547 4666 
L 4159 4666 
L 4159 0 
L 3309 0 
L 1241 3903 
L 1241 0 
L 628 0 
L 628 4666 
z
" transform="scale(0.015625)"/>
       </defs>
       <use xlink:href="#DejaVuSans-51"/>
       <use xlink:href="#DejaVuSans-54" transform="translate(78.710938 0)"/>
       <use xlink:href="#DejaVuSans-5f" transform="translate(139.794922 0)"/>
       <use xlink:href="#DejaVuSans-44" transform="translate(189.794922 0)"/>
       <use xlink:href="#DejaVuSans-45" transform="translate(266.796875 0)"/>
       <use xlink:href="#DejaVuSans-53" transform="translate(329.980469 0)"/>
       <use xlink:href="#DejaVuSans-4b" transform="translate(393.457031 0)"/>
       <use xlink:href="#DejaVuSans-54" transform="translate(451.283203 0)"/>
       <use xlink:href="#DejaVuSans-4f" transform="translate(512.367188 0)"/>
       <use xlink:href="#DejaVuSans-50" transform="translate(591.078125 0)"/>
       <use xlink:href="#DejaVuSans-5f" transform="translate(651.380859 0)"/>
       <use xlink:href="#DejaVuSans-41" transform="translate(701.380859 0)"/>
       <use xlink:href="#DejaVuSans-4c" transform="translate(769.789062 0)"/>
       <use xlink:href="#DejaVuSans-55" transform="translate(820.501953 0)"/>
       <use xlink:href="#DejaVuSans-4e" transform="translate(893.695312 0)"/>
       <use xlink:href="#DejaVuSans-4f" transform="translate(968.5 0)"/>
      </g>
     </g>
    </g>
    <g id="ytick_2">
     <g id="text_11">
      <!-- QT_COMP_PORTATIL_ALUNO -->
      <g style="fill: #262626" transform="translate(26.405156 473.220568) scale(0.09 -0.09)">
       <defs>
        <path id="DejaVuSans-4d" d="M 628 4666 
L 1569 4666 
L 2759 1491 
L 3956 4666 
L 4897 4666 
L 4897 0 
L 4281 0 
L 4281 4097 
L 3078 897 
L 2444 897 
L 1241 4097 
L 1241 0 
L 628 0 
L 628 4666 
z
" transform="scale(0.015625)"/>
        <path id="DejaVuSans-52" d="M 2841 2188 
Q 3044 2119 3236 1894 
Q 3428 1669 3622 1275 
L 4263 0 
L 3584 0 
L 2988 1197 
Q 2756 1666 2539 1819 
Q 2322 1972 1947 1972 
L 1259 1972 
L 1259 0 
L 628 0 
L 628 4666 
L 2053 4666 
Q 2853 4666 3247 4331 
Q 3641 3997 3641 3322 
Q 3641 2881 3436 2590 
Q 3231 2300 2841 2188 
z
M 1259 4147 
L 1259 2491 
L 2053 2491 
Q 2509 2491 2742 2702 
Q 2975 2913 2975 3322 
Q 2975 3731 2742 3939 
Q 2509 4147 2053 4147 
L 1259 4147 
z
" transform="scale(0.015625)"/>
        <path id="DejaVuSans-49" d="M 628 4666 
L 1259 4666 
L 1259 0 
L 628 0 
L 628 4666 
z
" transform="scale(0.015625)"/>
       </defs>
       <use xlink:href="#DejaVuSans-51"/>
       <use xlink:href="#DejaVuSans-54" transform="translate(78.710938 0)"/>
       <use xlink:href="#DejaVuSans-5f" transform="translate(139.794922 0)"/>
       <use xlink:href="#DejaVuSans-43" transform="translate(189.794922 0)"/>
       <use xlink:href="#DejaVuSans-4f" transform="translate(259.619141 0)"/>
       <use xlink:href="#DejaVuSans-4d" transform="translate(338.330078 0)"/>
       <use xlink:href="#DejaVuSans-50" transform="translate(424.609375 0)"/>
       <use xlink:href="#DejaVuSans-5f" transform="translate(484.912109 0)"/>
       <use xlink:href="#DejaVuSans-50" transform="translate(534.912109 0)"/>
       <use xlink:href="#DejaVuSans-4f" transform="translate(595.214844 0)"/>
       <use xlink:href="#DejaVuSans-52" transform="translate(673.925781 0)"/>
       <use xlink:href="#DejaVuSans-54" transform="translate(736.158203 0)"/>
       <use xlink:href="#DejaVuSans-41" transform="translate(789.492188 0)"/>
       <use xlink:href="#DejaVuSans-54" transform="translate(850.150391 0)"/>
       <use xlink:href="#DejaVuSans-49" transform="translate(911.234375 0)"/>
       <use xlink:href="#DejaVuSans-4c" transform="translate(940.726562 0)"/>
       <use xlink:href="#DejaVuSans-5f" transform="translate(996.439453 0)"/>
       <use xlink:href="#DejaVuSans-41" transform="translate(1046.439453 0)"/>
       <use xlink:href="#DejaVuSans-4c" transform="translate(1114.847656 0)"/>
       <use xlink:href="#DejaVuSans-55" transform="translate(1165.560547 0)"/>
       <use xlink:href="#DejaVuSans-4e" transform="translate(1238.753906 0)"/>
       <use xlink:href="#DejaVuSans-4f" transform="translate(1313.558594 0)"/>
      </g>
     </g>
    </g>
    <g id="ytick_3">
     <g id="text_12">
      <!-- QT_MAT_FUND_AF -->
      <g style="fill: #262626" transform="translate(70.149375 447.916728) scale(0.09 -0.09)">
       <defs>
        <path id="DejaVuSans-46" d="M 628 4666 
L 3309 4666 
L 3309 4134 
L 1259 4134 
L 1259 2759 
L 3109 2759 
L 3109 2228 
L 1259 2228 
L 1259 0 
L 628 0 
L 628 4666 
z
" transform="scale(0.015625)"/>
       </defs>
       <use xlink:href="#DejaVuSans-51"/>
       <use xlink:href="#DejaVuSans-54" transform="translate(78.710938 0)"/>
       <use xlink:href="#DejaVuSans-5f" transform="translate(139.794922 0)"/>
       <use xlink:href="#DejaVuSans-4d" transform="translate(189.794922 0)"/>
       <use xlink:href="#DejaVuSans-41" transform="translate(276.074219 0)"/>
       <use xlink:href="#DejaVuSans-54" transform="translate(336.732422 0)"/>
       <use xlink:href="#DejaVuSans-5f" transform="translate(397.816406 0)"/>
       <use xlink:href="#DejaVuSans-46" transform="translate(447.816406 0)"/>
       <use xlink:href="#DejaVuSans-55" transform="translate(505.335938 0)"/>
       <use xlink:href="#DejaVuSans-4e" transform="translate(578.529297 0)"/>
       <use xlink:href="#DejaVuSans-44" transform="translate(653.333984 0)"/>
       <use xlink:href="#DejaVuSans-5f" transform="translate(730.335938 0)"/>
       <use xlink:href="#DejaVuSans-41" transform="translate(780.335938 0)"/>
       <use xlink:href="#DejaVuSans-46" transform="translate(848.744141 0)"/>
      </g>
     </g>
    </g>
    <g id="ytick_4">
     <g id="text_13">
      <!-- QT_TABLET_ALUNO -->
      <g style="fill: #262626" transform="translate(65.674687 422.612887) scale(0.09 -0.09)">
       <defs>
        <path id="DejaVuSans-42" d="M 1259 2228 
L 1259 519 
L 2272 519 
Q 2781 519 3026 730 
Q 3272 941 3272 1375 
Q 3272 1813 3026 2020 
Q 2781 2228 2272 2228 
L 1259 2228 
z
M 1259 4147 
L 1259 2741 
L 2194 2741 
Q 2656 2741 2882 2914 
Q 3109 3088 3109 3444 
Q 3109 3797 2882 3972 
Q 2656 4147 2194 4147 
L 1259 4147 
z
M 628 4666 
L 2241 4666 
Q 2963 4666 3353 4366 
Q 3744 4066 3744 3513 
Q 3744 3084 3544 2831 
Q 3344 2578 2956 2516 
Q 3422 2416 3680 2098 
Q 3938 1781 3938 1306 
Q 3938 681 3513 340 
Q 3088 0 2303 0 
L 628 0 
L 628 4666 
z
" transform="scale(0.015625)"/>
       </defs>
       <use xlink:href="#DejaVuSans-51"/>
       <use xlink:href="#DejaVuSans-54" transform="translate(78.710938 0)"/>
       <use xlink:href="#DejaVuSans-5f" transform="translate(139.794922 0)"/>
       <use xlink:href="#DejaVuSans-54" transform="translate(189.794922 0)"/>
       <use xlink:href="#DejaVuSans-41" transform="translate(243.128906 0)"/>
       <use xlink:href="#DejaVuSans-42" transform="translate(311.537109 0)"/>
       <use xlink:href="#DejaVuSans-4c" transform="translate(380.140625 0)"/>
       <use xlink:href="#DejaVuSans-45" transform="translate(435.853516 0)"/>
       <use xlink:href="#DejaVuSans-54" transform="translate(499.037109 0)"/>
       <use xlink:href="#DejaVuSans-5f" transform="translate(560.121094 0)"/>
       <use xlink:href="#DejaVuSans-41" transform="translate(610.121094 0)"/>
       <use xlink:href="#DejaVuSans-4c" transform="translate(678.529297 0)"/>
       <use xlink:href="#DejaVuSans-55" transform="translate(729.242188 0)"/>
       <use xlink:href="#DejaVuSans-4e" transform="translate(802.435547 0)"/>
       <use xlink:href="#DejaVuSans-4f" transform="translate(877.240234 0)"/>
      </g>
     </g>
    </g>
    <g id="ytick_5">
     <g id="text_14">
      <!-- IN_REFEITORIO -->
      <g style="fill: #262626" transform="translate(83.79 397.309046) scale(0.09 -0.09)">
       <use xlink:href="#DejaVuSans-49"/>
       <use xlink:href="#DejaVuSans-4e" transform="translate(29.492188 0)"/>
       <use xlink:href="#DejaVuSans-5f" transform="translate(104.296875 0)"/>
       <use xlink:href="#DejaVuSans-52" transform="translate(154.296875 0)"/>
       <use xlink:href="#DejaVuSans-45" transform="translate(223.779297 0)"/>
       <use xlink:href="#DejaVuSans-46" transform="translate(286.962891 0)"/>
       <use xlink:href="#DejaVuSans-45" transform="translate(344.482422 0)"/>
       <use xlink:href="#DejaVuSans-49" transform="translate(407.666016 0)"/>
       <use xlink:href="#DejaVuSans-54" transform="translate(437.158203 0)"/>
       <use xlink:href="#DejaVuSans-4f" transform="translate(498.242188 0)"/>
       <use xlink:href="#DejaVuSans-52" transform="translate(576.953125 0)"/>
       <use xlink:href="#DejaVuSans-49" transform="translate(646.435547 0)"/>
       <use xlink:href="#DejaVuSans-4f" transform="translate(675.927734 0)"/>
      </g>
     </g>
    </g>
    <g id="ytick_6">
     <g id="text_15">
      <!-- QT_DOC_FUND_AF -->
      <g style="fill: #262626" transform="translate(68.571562 372.005206) scale(0.09 -0.09)">
       <use xlink:href="#DejaVuSans-51"/>
       <use xlink:href="#DejaVuSans-54" transform="translate(78.710938 0)"/>
       <use xlink:href="#DejaVuSans-5f" transform="translate(139.794922 0)"/>
       <use xlink:href="#DejaVuSans-44" transform="translate(189.794922 0)"/>
       <use xlink:href="#DejaVuSans-4f" transform="translate(266.796875 0)"/>
       <use xlink:href="#DejaVuSans-43" transform="translate(345.507812 0)"/>
       <use xlink:href="#DejaVuSans-5f" transform="translate(415.332031 0)"/>
       <use xlink:href="#DejaVuSans-46" transform="translate(465.332031 0)"/>
       <use xlink:href="#DejaVuSans-55" transform="translate(522.851562 0)"/>
       <use xlink:href="#DejaVuSans-4e" transform="translate(596.044922 0)"/>
       <use xlink:href="#DejaVuSans-44" transform="translate(670.849609 0)"/>
       <use xlink:href="#DejaVuSans-5f" transform="translate(747.851562 0)"/>
       <use xlink:href="#DejaVuSans-41" transform="translate(797.851562 0)"/>
       <use xlink:href="#DejaVuSans-46" transform="translate(866.259766 0)"/>
      </g>
     </g>
    </g>
    <g id="ytick_7">
     <g id="text_16">
      <!-- IN_QUADRA_ESPORTES -->
      <g style="fill: #262626" transform="translate(48.105 346.701365) scale(0.09 -0.09)">
       <use xlink:href="#DejaVuSans-49"/>
       <use xlink:href="#DejaVuSans-4e" transform="translate(29.492188 0)"/>
       <use xlink:href="#DejaVuSans-5f" transform="translate(104.296875 0)"/>
       <use xlink:href="#DejaVuSans-51" transform="translate(154.296875 0)"/>
       <use xlink:href="#DejaVuSans-55" transform="translate(233.007812 0)"/>
       <use xlink:href="#DejaVuSans-41" transform="translate(306.201172 0)"/>
       <use xlink:href="#DejaVuSans-44" transform="translate(374.609375 0)"/>
       <use xlink:href="#DejaVuSans-52" transform="translate(451.611328 0)"/>
       <use xlink:href="#DejaVuSans-41" transform="translate(517.09375 0)"/>
       <use xlink:href="#DejaVuSans-5f" transform="translate(585.501953 0)"/>
       <use xlink:href="#DejaVuSans-45" transform="translate(635.501953 0)"/>
       <use xlink:href="#DejaVuSans-53" transform="translate(698.685547 0)"/>
       <use xlink:href="#DejaVuSans-50" transform="translate(762.162109 0)"/>
       <use xlink:href="#DejaVuSans-4f" transform="translate(822.464844 0)"/>
       <use xlink:href="#DejaVuSans-52" transform="translate(901.175781 0)"/>
       <use xlink:href="#DejaVuSans-54" transform="translate(963.408203 0)"/>
       <use xlink:href="#DejaVuSans-45" transform="translate(1024.492188 0)"/>
       <use xlink:href="#DejaVuSans-53" transform="translate(1087.675781 0)"/>
      </g>
     </g>
    </g>
    <g id="ytick_8">
     <g id="text_17">
      <!-- IN_ESGOTO_REDE_PUBLICA -->
      <g style="fill: #262626" transform="translate(27.926719 321.397525) scale(0.09 -0.09)">
       <defs>
        <path id="DejaVuSans-47" d="M 3809 666 
L 3809 1919 
L 2778 1919 
L 2778 2438 
L 4434 2438 
L 4434 434 
Q 4069 175 3628 42 
Q 3188 -91 2688 -91 
Q 1594 -91 976 548 
Q 359 1188 359 2328 
Q 359 3472 976 4111 
Q 1594 4750 2688 4750 
Q 3144 4750 3555 4637 
Q 3966 4525 4313 4306 
L 4313 3634 
Q 3963 3931 3569 4081 
Q 3175 4231 2741 4231 
Q 1884 4231 1454 3753 
Q 1025 3275 1025 2328 
Q 1025 1384 1454 906 
Q 1884 428 2741 428 
Q 3075 428 3337 486 
Q 3600 544 3809 666 
z
" transform="scale(0.015625)"/>
       </defs>
       <use xlink:href="#DejaVuSans-49"/>
       <use xlink:href="#DejaVuSans-4e" transform="translate(29.492188 0)"/>
       <use xlink:href="#DejaVuSans-5f" transform="translate(104.296875 0)"/>
       <use xlink:href="#DejaVuSans-45" transform="translate(154.296875 0)"/>
       <use xlink:href="#DejaVuSans-53" transform="translate(217.480469 0)"/>
       <use xlink:href="#DejaVuSans-47" transform="translate(280.957031 0)"/>
       <use xlink:href="#DejaVuSans-4f" transform="translate(358.447266 0)"/>
       <use xlink:href="#DejaVuSans-54" transform="translate(437.158203 0)"/>
       <use xlink:href="#DejaVuSans-4f" transform="translate(498.242188 0)"/>
       <use xlink:href="#DejaVuSans-5f" transform="translate(576.953125 0)"/>
       <use xlink:href="#DejaVuSans-52" transform="translate(626.953125 0)"/>
       <use xlink:href="#DejaVuSans-45" transform="translate(696.435547 0)"/>
       <use xlink:href="#DejaVuSans-44" transform="translate(759.619141 0)"/>
       <use xlink:href="#DejaVuSans-45" transform="translate(836.621094 0)"/>
       <use xlink:href="#DejaVuSans-5f" transform="translate(899.804688 0)"/>
       <use xlink:href="#DejaVuSans-50" transform="translate(949.804688 0)"/>
       <use xlink:href="#DejaVuSans-55" transform="translate(1010.107422 0)"/>
       <use xlink:href="#DejaVuSans-42" transform="translate(1083.300781 0)"/>
       <use xlink:href="#DejaVuSans-4c" transform="translate(1151.904297 0)"/>
       <use xlink:href="#DejaVuSans-49" transform="translate(1207.617188 0)"/>
       <use xlink:href="#DejaVuSans-43" transform="translate(1237.109375 0)"/>
       <use xlink:href="#DejaVuSans-41" transform="translate(1306.933594 0)"/>
      </g>
     </g>
    </g>
    <g id="ytick_9">
     <g id="text_18">
      <!-- IN_EQUIP_MULTIMIDIA -->
      <g style="fill: #262626" transform="translate(53.440312 296.093684) scale(0.09 -0.09)">
       <use xlink:href="#DejaVuSans-49"/>
       <use xlink:href="#DejaVuSans-4e" transform="translate(29.492188 0)"/>
       <use xlink:href="#DejaVuSans-5f" transform="translate(104.296875 0)"/>
       <use xlink:href="#DejaVuSans-45" transform="translate(154.296875 0)"/>
       <use xlink:href="#DejaVuSans-51" transform="translate(217.480469 0)"/>
       <use xlink:href="#DejaVuSans-55" transform="translate(296.191406 0)"/>
       <use xlink:href="#DejaVuSans-49" transform="translate(369.384766 0)"/>
       <use xlink:href="#DejaVuSans-50" transform="translate(398.876953 0)"/>
       <use xlink:href="#DejaVuSans-5f" transform="translate(459.179688 0)"/>
       <use xlink:href="#DejaVuSans-4d" transform="translate(509.179688 0)"/>
       <use xlink:href="#DejaVuSans-55" transform="translate(595.458984 0)"/>
       <use xlink:href="#DejaVuSans-4c" transform="translate(668.652344 0)"/>
       <use xlink:href="#DejaVuSans-54" transform="translate(710.615234 0)"/>
       <use xlink:href="#DejaVuSans-49" transform="translate(771.699219 0)"/>
       <use xlink:href="#DejaVuSans-4d" transform="translate(801.191406 0)"/>
       <use xlink:href="#DejaVuSans-49" transform="translate(887.470703 0)"/>
       <use xlink:href="#DejaVuSans-44" transform="translate(916.962891 0)"/>
       <use xlink:href="#DejaVuSans-49" transform="translate(993.964844 0)"/>
       <use xlink:href="#DejaVuSans-41" transform="translate(1023.457031 0)"/>
      </g>
     </g>
    </g>
    <g id="ytick_10">
     <g id="text_19">
      <!-- IN_LABORATORIO_CIENCIAS -->
      <g style="fill: #262626" transform="translate(26.751094 270.789844) scale(0.09 -0.09)">
       <use xlink:href="#DejaVuSans-49"/>
       <use xlink:href="#DejaVuSans-4e" transform="translate(29.492188 0)"/>
       <use xlink:href="#DejaVuSans-5f" transform="translate(104.296875 0)"/>
       <use xlink:href="#DejaVuSans-4c" transform="translate(154.296875 0)"/>
       <use xlink:href="#DejaVuSans-41" transform="translate(212.259766 0)"/>
       <use xlink:href="#DejaVuSans-42" transform="translate(280.667969 0)"/>
       <use xlink:href="#DejaVuSans-4f" transform="translate(347.521484 0)"/>
       <use xlink:href="#DejaVuSans-52" transform="translate(426.232422 0)"/>
       <use xlink:href="#DejaVuSans-41" transform="translate(491.714844 0)"/>
       <use xlink:href="#DejaVuSans-54" transform="translate(552.373047 0)"/>
       <use xlink:href="#DejaVuSans-4f" transform="translate(613.457031 0)"/>
       <use xlink:href="#DejaVuSans-52" transform="translate(692.167969 0)"/>
       <use xlink:href="#DejaVuSans-49" transform="translate(761.650391 0)"/>
       <use xlink:href="#DejaVuSans-4f" transform="translate(791.142578 0)"/>
       <use xlink:href="#DejaVuSans-5f" transform="translate(869.853516 0)"/>
       <use xlink:href="#DejaVuSans-43" transform="translate(919.853516 0)"/>
       <use xlink:href="#DejaVuSans-49" transform="translate(989.677734 0)"/>
       <use xlink:href="#DejaVuSans-45" transform="translate(1019.169922 0)"/>
       <use xlink:href="#DejaVuSans-4e" transform="translate(1082.353516 0)"/>
       <use xlink:href="#DejaVuSans-43" transform="translate(1157.158203 0)"/>
       <use xlink:href="#DejaVuSans-49" transform="translate(1226.982422 0)"/>
       <use xlink:href="#DejaVuSans-41" transform="translate(1256.474609 0)"/>
       <use xlink:href="#DejaVuSans-53" transform="translate(1324.882812 0)"/>
      </g>
     </g>
    </g>
    <g id="ytick_11">
     <g id="text_20">
      <!-- IN_LABORATORIO_INFORMATICA -->
      <g style="fill: #262626" transform="translate(7.2 245.486003) scale(0.09 -0.09)">
       <use xlink:href="#DejaVuSans-49"/>
       <use xlink:href="#DejaVuSans-4e" transform="translate(29.492188 0)"/>
       <use xlink:href="#DejaVuSans-5f" transform="translate(104.296875 0)"/>
       <use xlink:href="#DejaVuSans-4c" transform="translate(154.296875 0)"/>
       <use xlink:href="#DejaVuSans-41" transform="translate(212.259766 0)"/>
       <use xlink:href="#DejaVuSans-42" transform="translate(280.667969 0)"/>
       <use xlink:href="#DejaVuSans-4f" transform="translate(347.521484 0)"/>
       <use xlink:href="#DejaVuSans-52" transform="translate(426.232422 0)"/>
       <use xlink:href="#DejaVuSans-41" transform="translate(491.714844 0)"/>
       <use xlink:href="#DejaVuSans-54" transform="translate(552.373047 0)"/>
       <use xlink:href="#DejaVuSans-4f" transform="translate(613.457031 0)"/>
       <use xlink:href="#DejaVuSans-52" transform="translate(692.167969 0)"/>
       <use xlink:href="#DejaVuSans-49" transform="translate(761.650391 0)"/>
       <use xlink:href="#DejaVuSans-4f" transform="translate(791.142578 0)"/>
       <use xlink:href="#DejaVuSans-5f" transform="translate(869.853516 0)"/>
       <use xlink:href="#DejaVuSans-49" transform="translate(919.853516 0)"/>
       <use xlink:href="#DejaVuSans-4e" transform="translate(949.345703 0)"/>
       <use xlink:href="#DejaVuSans-46" transform="translate(1024.150391 0)"/>
       <use xlink:href="#DejaVuSans-4f" transform="translate(1081.669922 0)"/>
       <use xlink:href="#DejaVuSans-52" transform="translate(1160.380859 0)"/>
       <use xlink:href="#DejaVuSans-4d" transform="translate(1229.863281 0)"/>
       <use xlink:href="#DejaVuSans-41" transform="translate(1316.142578 0)"/>
       <use xlink:href="#DejaVuSans-54" transform="translate(1376.800781 0)"/>
       <use xlink:href="#DejaVuSans-49" transform="translate(1437.884766 0)"/>
       <use xlink:href="#DejaVuSans-43" transform="translate(1467.376953 0)"/>
       <use xlink:href="#DejaVuSans-41" transform="translate(1537.201172 0)"/>
      </g>
     </g>
    </g>
    <g id="ytick_12">
     <g id="text_21">
      <!-- IN_SALA_MULTIUSO -->
      <g style="fill: #262626" transform="translate(64.244531 220.182163) scale(0.09 -0.09)">
       <use xlink:href="#DejaVuSans-49"/>
       <use xlink:href="#DejaVuSans-4e" transform="translate(29.492188 0)"/>
       <use xlink:href="#DejaVuSans-5f" transform="translate(104.296875 0)"/>
       <use xlink:href="#DejaVuSans-53" transform="translate(154.296875 0)"/>
       <use xlink:href="#DejaVuSans-41" transform="translate(219.648438 0)"/>
       <use xlink:href="#DejaVuSans-4c" transform="translate(288.056641 0)"/>
       <use xlink:href="#DejaVuSans-41" transform="translate(346.019531 0)"/>
       <use xlink:href="#DejaVuSans-5f" transform="translate(414.427734 0)"/>
       <use xlink:href="#DejaVuSans-4d" transform="translate(464.427734 0)"/>
       <use xlink:href="#DejaVuSans-55" transform="translate(550.707031 0)"/>
       <use xlink:href="#DejaVuSans-4c" transform="translate(623.900391 0)"/>
       <use xlink:href="#DejaVuSans-54" transform="translate(665.863281 0)"/>
       <use xlink:href="#DejaVuSans-49" transform="translate(726.947266 0)"/>
       <use xlink:href="#DejaVuSans-55" transform="translate(756.439453 0)"/>
       <use xlink:href="#DejaVuSans-53" transform="translate(829.632812 0)"/>
       <use xlink:href="#DejaVuSans-4f" transform="translate(893.109375 0)"/>
      </g>
     </g>
    </g>
    <g id="ytick_13">
     <g id="text_22">
      <!-- IN_EQUIP_LOUSA_DIGITAL -->
      <g style="fill: #262626" transform="translate(35.800312 194.878322) scale(0.09 -0.09)">
       <use xlink:href="#DejaVuSans-49"/>
       <use xlink:href="#DejaVuSans-4e" transform="translate(29.492188 0)"/>
       <use xlink:href="#DejaVuSans-5f" transform="translate(104.296875 0)"/>
       <use xlink:href="#DejaVuSans-45" transform="translate(154.296875 0)"/>
       <use xlink:href="#DejaVuSans-51" transform="translate(217.480469 0)"/>
       <use xlink:href="#DejaVuSans-55" transform="translate(296.191406 0)"/>
       <use xlink:href="#DejaVuSans-49" transform="translate(369.384766 0)"/>
       <use xlink:href="#DejaVuSans-50" transform="translate(398.876953 0)"/>
       <use xlink:href="#DejaVuSans-5f" transform="translate(459.179688 0)"/>
       <use xlink:href="#DejaVuSans-4c" transform="translate(509.179688 0)"/>
       <use xlink:href="#DejaVuSans-4f" transform="translate(561.267578 0)"/>
       <use xlink:href="#DejaVuSans-55" transform="translate(639.978516 0)"/>
       <use xlink:href="#DejaVuSans-53" transform="translate(713.171875 0)"/>
       <use xlink:href="#DejaVuSans-41" transform="translate(778.523438 0)"/>
       <use xlink:href="#DejaVuSans-5f" transform="translate(846.931641 0)"/>
       <use xlink:href="#DejaVuSans-44" transform="translate(896.931641 0)"/>
       <use xlink:href="#DejaVuSans-49" transform="translate(973.933594 0)"/>
       <use xlink:href="#DejaVuSans-47" transform="translate(1003.425781 0)"/>
       <use xlink:href="#DejaVuSans-49" transform="translate(1080.916016 0)"/>
       <use xlink:href="#DejaVuSans-54" transform="translate(1110.408203 0)"/>
       <use xlink:href="#DejaVuSans-41" transform="translate(1163.742188 0)"/>
       <use xlink:href="#DejaVuSans-4c" transform="translate(1232.150391 0)"/>
      </g>
     </g>
    </g>
    <g id="ytick_14">
     <g id="text_23">
      <!-- IN_BANDA_LARGA -->
      <g style="fill: #262626" transform="translate(70.572656 169.574482) scale(0.09 -0.09)">
       <use xlink:href="#DejaVuSans-49"/>
       <use xlink:href="#DejaVuSans-4e" transform="translate(29.492188 0)"/>
       <use xlink:href="#DejaVuSans-5f" transform="translate(104.296875 0)"/>
       <use xlink:href="#DejaVuSans-42" transform="translate(154.296875 0)"/>
       <use xlink:href="#DejaVuSans-41" transform="translate(222.900391 0)"/>
       <use xlink:href="#DejaVuSans-4e" transform="translate(291.308594 0)"/>
       <use xlink:href="#DejaVuSans-44" transform="translate(366.113281 0)"/>
       <use xlink:href="#DejaVuSans-41" transform="translate(441.365234 0)"/>
       <use xlink:href="#DejaVuSans-5f" transform="translate(509.773438 0)"/>
       <use xlink:href="#DejaVuSans-4c" transform="translate(559.773438 0)"/>
       <use xlink:href="#DejaVuSans-41" transform="translate(617.736328 0)"/>
       <use xlink:href="#DejaVuSans-52" transform="translate(686.144531 0)"/>
       <use xlink:href="#DejaVuSans-47" transform="translate(755.626953 0)"/>
       <use xlink:href="#DejaVuSans-41" transform="translate(833.117188 0)"/>
      </g>
     </g>
    </g>
    <g id="ytick_15">
     <g id="text_24">
      <!-- IN_SALA_LEITURA -->
      <g style="fill: #262626" transform="translate(72.420469 144.270641) scale(0.09 -0.09)">
       <use xlink:href="#DejaVuSans-49"/>
       <use xlink:href="#DejaVuSans-4e" transform="translate(29.492188 0)"/>
       <use xlink:href="#DejaVuSans-5f" transform="translate(104.296875 0)"/>
       <use xlink:href="#DejaVuSans-53" transform="translate(154.296875 0)"/>
       <use xlink:href="#DejaVuSans-41" transform="translate(219.648438 0)"/>
       <use xlink:href="#DejaVuSans-4c" transform="translate(288.056641 0)"/>
       <use xlink:href="#DejaVuSans-41" transform="translate(346.019531 0)"/>
       <use xlink:href="#DejaVuSans-5f" transform="translate(414.427734 0)"/>
       <use xlink:href="#DejaVuSans-4c" transform="translate(464.427734 0)"/>
       <use xlink:href="#DejaVuSans-45" transform="translate(520.140625 0)"/>
       <use xlink:href="#DejaVuSans-49" transform="translate(583.324219 0)"/>
       <use xlink:href="#DejaVuSans-54" transform="translate(612.816406 0)"/>
       <use xlink:href="#DejaVuSans-55" transform="translate(673.900391 0)"/>
       <use xlink:href="#DejaVuSans-52" transform="translate(747.09375 0)"/>
       <use xlink:href="#DejaVuSans-41" transform="translate(812.576172 0)"/>
      </g>
     </g>
    </g>
    <g id="ytick_16">
     <g id="text_25">
      <!-- TP_LOCALIZACAO -->
      <g style="fill: #262626" transform="translate(72.871875 118.9668) scale(0.09 -0.09)">
       <defs>
        <path id="DejaVuSans-5a" d="M 359 4666 
L 4025 4666 
L 4025 4184 
L 1075 531 
L 4097 531 
L 4097 0 
L 288 0 
L 288 481 
L 3238 4134 
L 359 4134 
L 359 4666 
z
" transform="scale(0.015625)"/>
       </defs>
       <use xlink:href="#DejaVuSans-54"/>
       <use xlink:href="#DejaVuSans-50" transform="translate(61.083984 0)"/>
       <use xlink:href="#DejaVuSans-5f" transform="translate(121.386719 0)"/>
       <use xlink:href="#DejaVuSans-4c" transform="translate(171.386719 0)"/>
       <use xlink:href="#DejaVuSans-4f" transform="translate(223.474609 0)"/>
       <use xlink:href="#DejaVuSans-43" transform="translate(302.185547 0)"/>
       <use xlink:href="#DejaVuSans-41" transform="translate(372.009766 0)"/>
       <use xlink:href="#DejaVuSans-4c" transform="translate(440.417969 0)"/>
       <use xlink:href="#DejaVuSans-49" transform="translate(496.130859 0)"/>
       <use xlink:href="#DejaVuSans-5a" transform="translate(525.623047 0)"/>
       <use xlink:href="#DejaVuSans-41" transform="translate(594.128906 0)"/>
       <use xlink:href="#DejaVuSans-43" transform="translate(660.787109 0)"/>
       <use xlink:href="#DejaVuSans-41" transform="translate(730.611328 0)"/>
       <use xlink:href="#DejaVuSans-4f" transform="translate(797.269531 0)"/>
      </g>
     </g>
    </g>
    <g id="ytick_17">
     <g id="text_26">
      <!-- IN_AGUA_POTAVEL -->
      <g style="fill: #262626" transform="translate(67.855781 93.66296) scale(0.09 -0.09)">
       <defs>
        <path id="DejaVuSans-56" d="M 1831 0 
L 50 4666 
L 709 4666 
L 2188 738 
L 3669 4666 
L 4325 4666 
L 2547 0 
L 1831 0 
z
" transform="scale(0.015625)"/>
       </defs>
       <use xlink:href="#DejaVuSans-49"/>
       <use xlink:href="#DejaVuSans-4e" transform="translate(29.492188 0)"/>
       <use xlink:href="#DejaVuSans-5f" transform="translate(104.296875 0)"/>
       <use xlink:href="#DejaVuSans-41" transform="translate(154.296875 0)"/>
       <use xlink:href="#DejaVuSans-47" transform="translate(220.955078 0)"/>
       <use xlink:href="#DejaVuSans-55" transform="translate(298.445312 0)"/>
       <use xlink:href="#DejaVuSans-41" transform="translate(371.638672 0)"/>
       <use xlink:href="#DejaVuSans-5f" transform="translate(440.046875 0)"/>
       <use xlink:href="#DejaVuSans-50" transform="translate(490.046875 0)"/>
       <use xlink:href="#DejaVuSans-4f" transform="translate(550.349609 0)"/>
       <use xlink:href="#DejaVuSans-54" transform="translate(629.060547 0)"/>
       <use xlink:href="#DejaVuSans-41" transform="translate(682.394531 0)"/>
       <use xlink:href="#DejaVuSans-56" transform="translate(744.427734 0)"/>
       <use xlink:href="#DejaVuSans-45" transform="translate(812.835938 0)"/>
       <use xlink:href="#DejaVuSans-4c" transform="translate(876.019531 0)"/>
      </g>
     </g>
    </g>
    <g id="ytick_18">
     <g id="text_27">
      <!-- IN_ENERGIA_REDE_PUBLICA -->
      <g style="fill: #262626" transform="translate(25.821562 68.359119) scale(0.09 -0.09)">
       <use xlink:href="#DejaVuSans-49"/>
       <use xlink:href="#DejaVuSans-4e" transform="translate(29.492188 0)"/>
       <use xlink:href="#DejaVuSans-5f" transform="translate(104.296875 0)"/>
       <use xlink:href="#DejaVuSans-45" transform="translate(154.296875 0)"/>
       <use xlink:href="#DejaVuSans-4e" transform="translate(217.480469 0)"/>
       <use xlink:href="#DejaVuSans-45" transform="translate(292.285156 0)"/>
       <use xlink:href="#DejaVuSans-52" transform="translate(355.46875 0)"/>
       <use xlink:href="#DejaVuSans-47" transform="translate(424.951172 0)"/>
       <use xlink:href="#DejaVuSans-49" transform="translate(502.441406 0)"/>
       <use xlink:href="#DejaVuSans-41" transform="translate(531.933594 0)"/>
       <use xlink:href="#DejaVuSans-5f" transform="translate(600.341797 0)"/>
       <use xlink:href="#DejaVuSans-52" transform="translate(650.341797 0)"/>
       <use xlink:href="#DejaVuSans-45" transform="translate(719.824219 0)"/>
       <use xlink:href="#DejaVuSans-44" transform="translate(783.007812 0)"/>
       <use xlink:href="#DejaVuSans-45" transform="translate(860.009766 0)"/>
       <use xlink:href="#DejaVuSans-5f" transform="translate(923.193359 0)"/>
       <use xlink:href="#DejaVuSans-50" transform="translate(973.193359 0)"/>
       <use xlink:href="#DejaVuSans-55" transform="translate(1033.496094 0)"/>
       <use xlink:href="#DejaVuSans-42" transform="translate(1106.689453 0)"/>
       <use xlink:href="#DejaVuSans-4c" transform="translate(1175.292969 0)"/>
       <use xlink:href="#DejaVuSans-49" transform="translate(1231.005859 0)"/>
       <use xlink:href="#DejaVuSans-43" transform="translate(1260.498047 0)"/>
       <use xlink:href="#DejaVuSans-41" transform="translate(1330.322266 0)"/>
      </g>
     </g>
    </g>
    <g id="ytick_19">
     <g id="text_28">
      <!-- MEDIA_INSE -->
      <g style="fill: #262626" transform="translate(97.229531 43.055279) scale(0.09 -0.09)">
       <use xlink:href="#DejaVuSans-4d"/>
       <use xlink:href="#DejaVuSans-45" transform="translate(86.279297 0)"/>
       <use xlink:href="#DejaVuSans-44" transform="translate(149.462891 0)"/>
       <use xlink:href="#DejaVuSans-49" transform="translate(226.464844 0)"/>
       <use xlink:href="#DejaVuSans-41" transform="translate(255.957031 0)"/>
       <use xlink:href="#DejaVuSans-5f" transform="translate(324.365234 0)"/>
       <use xlink:href="#DejaVuSans-49" transform="translate(374.365234 0)"/>
       <use xlink:href="#DejaVuSans-4e" transform="translate(403.857422 0)"/>
       <use xlink:href="#DejaVuSans-53" transform="translate(478.662109 0)"/>
       <use xlink:href="#DejaVuSans-45" transform="translate(542.138672 0)"/>
      </g>
     </g>
    </g>
   </g>
   <g id="patch_3">
    <path d="M 311.384835 504.040909 
L 311.394571 504.040909 
L 311.394571 495.184565 
L 311.384835 495.184565 
z
" clip-path="url(#p8c52a647b3)" style="fill: #31688e; opacity: 0.8; stroke: #ffffff; stroke-width: 0.8; stroke-linejoin: miter"/>
   </g>
   <g id="patch_4">
    <path d="M 311.384835 478.737069 
L 311.439909 478.737069 
L 311.439909 469.880724 
L 311.384835 469.880724 
z
" clip-path="url(#p8c52a647b3)" style="fill: #31688e; opacity: 0.8; stroke: #ffffff; stroke-width: 0.8; stroke-linejoin: miter"/>
   </g>
   <g id="patch_5">
    <path d="M 311.384835 453.433228 
L 311.464819 453.433228 
L 311.464819 444.576884 
L 311.384835 444.576884 
z
" clip-path="url(#p8c52a647b3)" style="fill: #31688e; opacity: 0.8; stroke: #ffffff; stroke-width: 0.8; stroke-linejoin: miter"/>
   </g>
   <g id="patch_6">
    <path d="M 311.384835 428.129387 
L 311.285702 428.129387 
L 311.285702 419.273043 
L 311.384835 419.273043 
z
" clip-path="url(#p8c52a647b3)" style="fill: #31688e; opacity: 0.8; stroke: #ffffff; stroke-width: 0.8; stroke-linejoin: miter"/>
   </g>
   <g id="patch_7">
    <path d="M 311.384835 402.825547 
L 312.051519 402.825547 
L 312.051519 393.969203 
L 311.384835 393.969203 
z
" clip-path="url(#p8c52a647b3)" style="fill: #31688e; opacity: 0.8; stroke: #ffffff; stroke-width: 0.8; stroke-linejoin: miter"/>
   </g>
   <g id="patch_8">
    <path d="M 311.384835 377.521706 
L 306.82689 377.521706 
L 306.82689 368.665362 
L 311.384835 368.665362 
z
" clip-path="url(#p8c52a647b3)" style="fill: #31688e; opacity: 0.8; stroke: #ffffff; stroke-width: 0.8; stroke-linejoin: miter"/>
   </g>
   <g id="patch_9">
    <path d="M 311.384835 352.217866 
L 304.665882 352.217866 
L 304.665882 343.361522 
L 311.384835 343.361522 
z
" clip-path="url(#p8c52a647b3)" style="fill: #31688e; opacity: 0.8; stroke: #ffffff; stroke-width: 0.8; stroke-linejoin: miter"/>
   </g>
   <g id="patch_10">
    <path d="M 311.384835 326.914025 
L 320.211221 326.914025 
L 320.211221 318.057681 
L 311.384835 318.057681 
z
" clip-path="url(#p8c52a647b3)" style="fill: #31688e; opacity: 0.8; stroke: #ffffff; stroke-width: 0.8; stroke-linejoin: miter"/>
   </g>
   <g id="patch_11">
    <path d="M 311.384835 301.610185 
L 301.426048 301.610185 
L 301.426048 292.753841 
L 311.384835 292.753841 
z
" clip-path="url(#p8c52a647b3)" style="fill: #31688e; opacity: 0.8; stroke: #ffffff; stroke-width: 0.8; stroke-linejoin: miter"/>
   </g>
   <g id="patch_12">
    <path d="M 311.384835 276.306344 
L 323.548918 276.306344 
L 323.548918 267.45 
L 311.384835 267.45 
z
" clip-path="url(#p8c52a647b3)" style="fill: #31688e; opacity: 0.8; stroke: #ffffff; stroke-width: 0.8; stroke-linejoin: miter"/>
   </g>
   <g id="patch_13">
    <path d="M 311.384835 251.002504 
L 296.436582 251.002504 
L 296.436582 242.146159 
L 311.384835 242.146159 
z
" clip-path="url(#p8c52a647b3)" style="fill: #31688e; opacity: 0.8; stroke: #ffffff; stroke-width: 0.8; stroke-linejoin: miter"/>
   </g>
   <g id="patch_14">
    <path d="M 311.384835 225.698663 
L 326.407896 225.698663 
L 326.407896 216.842319 
L 311.384835 216.842319 
z
" clip-path="url(#p8c52a647b3)" style="fill: #31688e; opacity: 0.8; stroke: #ffffff; stroke-width: 0.8; stroke-linejoin: miter"/>
   </g>
   <g id="patch_15">
    <path d="M 311.384835 200.394823 
L 327.486954 200.394823 
L 327.486954 191.538478 
L 311.384835 191.538478 
z
" clip-path="url(#p8c52a647b3)" style="fill: #31688e; opacity: 0.8; stroke: #ffffff; stroke-width: 0.8; stroke-linejoin: miter"/>
   </g>
   <g id="patch_16">
    <path d="M 311.384835 175.090982 
L 328.266934 175.090982 
L 328.266934 166.234638 
L 311.384835 166.234638 
z
" clip-path="url(#p8c52a647b3)" style="fill: #31688e; opacity: 0.8; stroke: #ffffff; stroke-width: 0.8; stroke-linejoin: miter"/>
   </g>
   <g id="patch_17">
    <path d="M 311.384835 149.787141 
L 329.80035 149.787141 
L 329.80035 140.930797 
L 311.384835 140.930797 
z
" clip-path="url(#p8c52a647b3)" style="fill: #31688e; opacity: 0.8; stroke: #ffffff; stroke-width: 0.8; stroke-linejoin: miter"/>
   </g>
   <g id="patch_18">
    <path d="M 311.384835 124.483301 
L 252.274248 124.483301 
L 252.274248 115.626957 
L 311.384835 115.626957 
z
" clip-path="url(#p8c52a647b3)" style="fill: #31688e; opacity: 0.8; stroke: #ffffff; stroke-width: 0.8; stroke-linejoin: miter"/>
   </g>
   <g id="patch_19">
    <path d="M 311.384835 99.17946 
L 430.430055 99.17946 
L 430.430055 90.323116 
L 311.384835 90.323116 
z
" clip-path="url(#p8c52a647b3)" style="fill: #31688e; opacity: 0.8; stroke: #ffffff; stroke-width: 0.8; stroke-linejoin: miter"/>
   </g>
   <g id="patch_20">
    <path d="M 311.384835 73.87562 
L 182.413154 73.87562 
L 182.413154 65.019276 
L 311.384835 65.019276 
z
" clip-path="url(#p8c52a647b3)" style="fill: #31688e; opacity: 0.8; stroke: #ffffff; stroke-width: 0.8; stroke-linejoin: miter"/>
   </g>
   <g id="patch_21">
    <path d="M 311.384835 48.571779 
L 681.843066 48.571779 
L 681.843066 39.715435 
L 311.384835 39.715435 
z
" clip-path="url(#p8c52a647b3)" style="fill: #31688e; opacity: 0.8; stroke: #ffffff; stroke-width: 0.8; stroke-linejoin: miter"/>
   </g>
   <g id="patch_22">
    <path d="M 311.384835 495.184565 
L 311.57911 495.184565 
L 311.57911 486.328221 
L 311.384835 486.328221 
z
" clip-path="url(#p8c52a647b3)" style="fill: #35b779; opacity: 0.8; stroke: #ffffff; stroke-width: 0.8; stroke-linejoin: miter"/>
   </g>
   <g id="patch_23">
    <path d="M 311.384835 469.880724 
L 315.421725 469.880724 
L 315.421725 461.02438 
L 311.384835 461.02438 
z
" clip-path="url(#p8c52a647b3)" style="fill: #35b779; opacity: 0.8; stroke: #ffffff; stroke-width: 0.8; stroke-linejoin: miter"/>
   </g>
   <g id="patch_24">
    <path d="M 311.384835 444.576884 
L 321.869958 444.576884 
L 321.869958 435.72054 
L 311.384835 435.72054 
z
" clip-path="url(#p8c52a647b3)" style="fill: #35b779; opacity: 0.8; stroke: #ffffff; stroke-width: 0.8; stroke-linejoin: miter"/>
   </g>
   <g id="patch_25">
    <path d="M 311.384835 419.273043 
L 304.12468 419.273043 
L 304.12468 410.416699 
L 311.384835 410.416699 
z
" clip-path="url(#p8c52a647b3)" style="fill: #35b779; opacity: 0.8; stroke: #ffffff; stroke-width: 0.8; stroke-linejoin: miter"/>
   </g>
   <g id="patch_26">
    <path d="M 311.384835 393.969203 
L 311.7509 393.969203 
L 311.7509 385.112859 
L 311.384835 385.112859 
z
" clip-path="url(#p8c52a647b3)" style="fill: #35b779; opacity: 0.8; stroke: #ffffff; stroke-width: 0.8; stroke-linejoin: miter"/>
   </g>
   <g id="patch_27">
    <path d="M 311.384835 368.665362 
L 273.234297 368.665362 
L 273.234297 359.809018 
L 311.384835 359.809018 
z
" clip-path="url(#p8c52a647b3)" style="fill: #35b779; opacity: 0.8; stroke: #ffffff; stroke-width: 0.8; stroke-linejoin: miter"/>
   </g>
   <g id="patch_28">
    <path d="M 311.384835 343.361522 
L 309.889527 343.361522 
L 309.889527 334.505177 
L 311.384835 334.505177 
z
" clip-path="url(#p8c52a647b3)" style="fill: #35b779; opacity: 0.8; stroke: #ffffff; stroke-width: 0.8; stroke-linejoin: miter"/>
   </g>
   <g id="patch_29">
    <path d="M 311.384835 318.057681 
L 313.812668 318.057681 
L 313.812668 309.201337 
L 311.384835 309.201337 
z
" clip-path="url(#p8c52a647b3)" style="fill: #35b779; opacity: 0.8; stroke: #ffffff; stroke-width: 0.8; stroke-linejoin: miter"/>
   </g>
   <g id="patch_30">
    <path d="M 311.384835 292.753841 
L 306.478638 292.753841 
L 306.478638 283.897496 
L 311.384835 283.897496 
z
" clip-path="url(#p8c52a647b3)" style="fill: #35b779; opacity: 0.8; stroke: #ffffff; stroke-width: 0.8; stroke-linejoin: miter"/>
   </g>
   <g id="patch_31">
    <path d="M 311.384835 267.45 
L 316.440757 267.45 
L 316.440757 258.593656 
L 311.384835 258.593656 
z
" clip-path="url(#p8c52a647b3)" style="fill: #35b779; opacity: 0.8; stroke: #ffffff; stroke-width: 0.8; stroke-linejoin: miter"/>
   </g>
   <g id="patch_32">
    <path d="M 311.384835 242.146159 
L 305.539869 242.146159 
L 305.539869 233.289815 
L 311.384835 233.289815 
z
" clip-path="url(#p8c52a647b3)" style="fill: #35b779; opacity: 0.8; stroke: #ffffff; stroke-width: 0.8; stroke-linejoin: miter"/>
   </g>
   <g id="patch_33">
    <path d="M 311.384835 216.842319 
L 316.770716 216.842319 
L 316.770716 207.985975 
L 311.384835 207.985975 
z
" clip-path="url(#p8c52a647b3)" style="fill: #35b779; opacity: 0.8; stroke: #ffffff; stroke-width: 0.8; stroke-linejoin: miter"/>
   </g>
   <g id="patch_34">
    <path d="M 311.384835 191.538478 
L 318.785273 191.538478 
L 318.785273 182.682134 
L 311.384835 182.682134 
z
" clip-path="url(#p8c52a647b3)" style="fill: #35b779; opacity: 0.8; stroke: #ffffff; stroke-width: 0.8; stroke-linejoin: miter"/>
   </g>
   <g id="patch_35">
    <path d="M 311.384835 166.234638 
L 314.668381 166.234638 
L 314.668381 157.378294 
L 311.384835 157.378294 
z
" clip-path="url(#p8c52a647b3)" style="fill: #35b779; opacity: 0.8; stroke: #ffffff; stroke-width: 0.8; stroke-linejoin: miter"/>
   </g>
   <g id="patch_36">
    <path d="M 311.384835 140.930797 
L 318.225755 140.930797 
L 318.225755 132.074453 
L 311.384835 132.074453 
z
" clip-path="url(#p8c52a647b3)" style="fill: #35b779; opacity: 0.8; stroke: #ffffff; stroke-width: 0.8; stroke-linejoin: miter"/>
   </g>
   <g id="patch_37">
    <path d="M 311.384835 115.626957 
L 300.544365 115.626957 
L 300.544365 106.770613 
L 311.384835 106.770613 
z
" clip-path="url(#p8c52a647b3)" style="fill: #35b779; opacity: 0.8; stroke: #ffffff; stroke-width: 0.8; stroke-linejoin: miter"/>
   </g>
   <g id="patch_38">
    <path d="M 311.384835 90.323116 
L 315.158687 90.323116 
L 315.158687 81.466772 
L 311.384835 81.466772 
z
" clip-path="url(#p8c52a647b3)" style="fill: #35b779; opacity: 0.8; stroke: #ffffff; stroke-width: 0.8; stroke-linejoin: miter"/>
   </g>
   <g id="patch_39">
    <path d="M 311.384835 65.019276 
L 307.730951 65.019276 
L 307.730951 56.162931 
L 311.384835 56.162931 
z
" clip-path="url(#p8c52a647b3)" style="fill: #35b779; opacity: 0.8; stroke: #ffffff; stroke-width: 0.8; stroke-linejoin: miter"/>
   </g>
   <g id="patch_40">
    <path d="M 311.384835 39.715435 
L 399.525823 39.715435 
L 399.525823 30.859091 
L 311.384835 30.859091 
z
" clip-path="url(#p8c52a647b3)" style="fill: #35b779; opacity: 0.8; stroke: #ffffff; stroke-width: 0.8; stroke-linejoin: miter"/>
   </g>
   <g id="line2d_1">
    <path d="M 311.384835 527.7 
L 311.384835 7.2 
" clip-path="url(#p8c52a647b3)" style="fill: none; stroke: #000000; stroke-opacity: 0.5; stroke-width: 0.8; stroke-linecap: round"/>
   </g>
   <g id="patch_41">
    <path d="M 160.011875 527.7 
L 160.011875 7.2 
" style="fill: none; stroke: #262626; stroke-linejoin: miter; stroke-linecap: square"/>
   </g>
   <g id="patch_42">
    <path d="M 160.011875 527.7 
L 704.244345 527.7 
" style="fill: none; stroke: #262626; stroke-linejoin: miter; stroke-linecap: square"/>
   </g>
   <g id="text_29">
    <!-- 0.000 -->
    <g style="fill: #262626" transform="translate(312.794651 501.820237) scale(0.08 -0.08)">
     <use xlink:href="#DejaVuSans-30"/>
     <use xlink:href="#DejaVuSans-2e" transform="translate(63.623047 0)"/>
     <use xlink:href="#DejaVuSans-30" transform="translate(95.410156 0)"/>
     <use xlink:href="#DejaVuSans-30" transform="translate(159.033203 0)"/>
     <use xlink:href="#DejaVuSans-30" transform="translate(222.65625 0)"/>
    </g>
   </g>
   <g id="text_30">
    <!-- 0.001 -->
    <g style="fill: #262626" transform="translate(312.97919 492.963893) scale(0.08 -0.08)">
     <use xlink:href="#DejaVuSans-30"/>
     <use xlink:href="#DejaVuSans-2e" transform="translate(63.623047 0)"/>
     <use xlink:href="#DejaVuSans-30" transform="translate(95.410156 0)"/>
     <use xlink:href="#DejaVuSans-30" transform="translate(159.033203 0)"/>
     <use xlink:href="#DejaVuSans-31" transform="translate(222.65625 0)"/>
    </g>
   </g>
   <g id="text_31">
    <!-- 0.000 -->
    <g style="fill: #262626" transform="translate(312.839989 476.516396) scale(0.08 -0.08)">
     <use xlink:href="#DejaVuSans-30"/>
     <use xlink:href="#DejaVuSans-2e" transform="translate(63.623047 0)"/>
     <use xlink:href="#DejaVuSans-30" transform="translate(95.410156 0)"/>
     <use xlink:href="#DejaVuSans-30" transform="translate(159.033203 0)"/>
     <use xlink:href="#DejaVuSans-30" transform="translate(222.65625 0)"/>
    </g>
   </g>
   <g id="text_32">
    <!-- 0.014 -->
    <g style="fill: #262626" transform="translate(316.821805 467.660052) scale(0.08 -0.08)">
     <defs>
      <path id="DejaVuSans-34" d="M 2419 4116 
L 825 1625 
L 2419 1625 
L 2419 4116 
z
M 2253 4666 
L 3047 4666 
L 3047 1625 
L 3713 1625 
L 3713 1100 
L 3047 1100 
L 3047 0 
L 2419 0 
L 2419 1100 
L 313 1100 
L 313 1709 
L 2253 4666 
z
" transform="scale(0.015625)"/>
     </defs>
     <use xlink:href="#DejaVuSans-30"/>
     <use xlink:href="#DejaVuSans-2e" transform="translate(63.623047 0)"/>
     <use xlink:href="#DejaVuSans-30" transform="translate(95.410156 0)"/>
     <use xlink:href="#DejaVuSans-31" transform="translate(159.033203 0)"/>
     <use xlink:href="#DejaVuSans-34" transform="translate(222.65625 0)"/>
    </g>
   </g>
   <g id="text_33">
    <!-- 0.000 -->
    <g style="fill: #262626" transform="translate(312.864899 451.212556) scale(0.08 -0.08)">
     <use xlink:href="#DejaVuSans-30"/>
     <use xlink:href="#DejaVuSans-2e" transform="translate(63.623047 0)"/>
     <use xlink:href="#DejaVuSans-30" transform="translate(95.410156 0)"/>
     <use xlink:href="#DejaVuSans-30" transform="translate(159.033203 0)"/>
     <use xlink:href="#DejaVuSans-30" transform="translate(222.65625 0)"/>
    </g>
   </g>
   <g id="text_34">
    <!-- 0.037 -->
    <g style="fill: #262626" transform="translate(323.270038 442.356212) scale(0.08 -0.08)">
     <defs>
      <path id="DejaVuSans-33" d="M 2597 2516 
Q 3050 2419 3304 2112 
Q 3559 1806 3559 1356 
Q 3559 666 3084 287 
Q 2609 -91 1734 -91 
Q 1441 -91 1130 -33 
Q 819 25 488 141 
L 488 750 
Q 750 597 1062 519 
Q 1375 441 1716 441 
Q 2309 441 2620 675 
Q 2931 909 2931 1356 
Q 2931 1769 2642 2001 
Q 2353 2234 1838 2234 
L 1294 2234 
L 1294 2753 
L 1863 2753 
Q 2328 2753 2575 2939 
Q 2822 3125 2822 3475 
Q 2822 3834 2567 4026 
Q 2313 4219 1838 4219 
Q 1578 4219 1281 4162 
Q 984 4106 628 3988 
L 628 4550 
Q 988 4650 1302 4700 
Q 1616 4750 1894 4750 
Q 2613 4750 3031 4423 
Q 3450 4097 3450 3541 
Q 3450 3153 3228 2886 
Q 3006 2619 2597 2516 
z
" transform="scale(0.015625)"/>
     </defs>
     <use xlink:href="#DejaVuSans-30"/>
     <use xlink:href="#DejaVuSans-2e" transform="translate(63.623047 0)"/>
     <use xlink:href="#DejaVuSans-30" transform="translate(95.410156 0)"/>
     <use xlink:href="#DejaVuSans-33" transform="translate(159.033203 0)"/>
     <use xlink:href="#DejaVuSans-37" transform="translate(222.65625 0)"/>
    </g>
   </g>
   <g id="text_35">
    <!-- -0.000 -->
    <g style="fill: #262626" transform="translate(284.096872 425.908715) scale(0.08 -0.08)">
     <defs>
      <path id="DejaVuSans-2d" d="M 313 2009 
L 1997 2009 
L 1997 1497 
L 313 1497 
L 313 2009 
z
" transform="scale(0.015625)"/>
     </defs>
     <use xlink:href="#DejaVuSans-2d"/>
     <use xlink:href="#DejaVuSans-30" transform="translate(36.083984 0)"/>
     <use xlink:href="#DejaVuSans-2e" transform="translate(99.707031 0)"/>
     <use xlink:href="#DejaVuSans-30" transform="translate(131.494141 0)"/>
     <use xlink:href="#DejaVuSans-30" transform="translate(195.117188 0)"/>
     <use xlink:href="#DejaVuSans-30" transform="translate(258.740234 0)"/>
    </g>
   </g>
   <g id="text_36">
    <!-- -0.026 -->
    <g style="fill: #262626" transform="translate(276.93585 417.052371) scale(0.08 -0.08)">
     <defs>
      <path id="DejaVuSans-36" d="M 2113 2584 
Q 1688 2584 1439 2293 
Q 1191 2003 1191 1497 
Q 1191 994 1439 701 
Q 1688 409 2113 409 
Q 2538 409 2786 701 
Q 3034 994 3034 1497 
Q 3034 2003 2786 2293 
Q 2538 2584 2113 2584 
z
M 3366 4563 
L 3366 3988 
Q 3128 4100 2886 4159 
Q 2644 4219 2406 4219 
Q 1781 4219 1451 3797 
Q 1122 3375 1075 2522 
Q 1259 2794 1537 2939 
Q 1816 3084 2150 3084 
Q 2853 3084 3261 2657 
Q 3669 2231 3669 1497 
Q 3669 778 3244 343 
Q 2819 -91 2113 -91 
Q 1303 -91 875 529 
Q 447 1150 447 2328 
Q 447 3434 972 4092 
Q 1497 4750 2381 4750 
Q 2619 4750 2861 4703 
Q 3103 4656 3366 4563 
z
" transform="scale(0.015625)"/>
     </defs>
     <use xlink:href="#DejaVuSans-2d"/>
     <use xlink:href="#DejaVuSans-30" transform="translate(36.083984 0)"/>
     <use xlink:href="#DejaVuSans-2e" transform="translate(99.707031 0)"/>
     <use xlink:href="#DejaVuSans-30" transform="translate(131.494141 0)"/>
     <use xlink:href="#DejaVuSans-32" transform="translate(195.117188 0)"/>
     <use xlink:href="#DejaVuSans-36" transform="translate(258.740234 0)"/>
    </g>
   </g>
   <g id="text_37">
    <!-- 0.002 -->
    <g style="fill: #262626" transform="translate(313.451599 400.604875) scale(0.08 -0.08)">
     <use xlink:href="#DejaVuSans-30"/>
     <use xlink:href="#DejaVuSans-2e" transform="translate(63.623047 0)"/>
     <use xlink:href="#DejaVuSans-30" transform="translate(95.410156 0)"/>
     <use xlink:href="#DejaVuSans-30" transform="translate(159.033203 0)"/>
     <use xlink:href="#DejaVuSans-32" transform="translate(222.65625 0)"/>
    </g>
   </g>
   <g id="text_38">
    <!-- 0.001 -->
    <g style="fill: #262626" transform="translate(313.15098 391.748531) scale(0.08 -0.08)">
     <use xlink:href="#DejaVuSans-30"/>
     <use xlink:href="#DejaVuSans-2e" transform="translate(63.623047 0)"/>
     <use xlink:href="#DejaVuSans-30" transform="translate(95.410156 0)"/>
     <use xlink:href="#DejaVuSans-30" transform="translate(159.033203 0)"/>
     <use xlink:href="#DejaVuSans-31" transform="translate(222.65625 0)"/>
    </g>
   </g>
   <g id="text_39">
    <!-- -0.016 -->
    <g style="fill: #262626" transform="translate(279.638061 375.301034) scale(0.08 -0.08)">
     <use xlink:href="#DejaVuSans-2d"/>
     <use xlink:href="#DejaVuSans-30" transform="translate(36.083984 0)"/>
     <use xlink:href="#DejaVuSans-2e" transform="translate(99.707031 0)"/>
     <use xlink:href="#DejaVuSans-30" transform="translate(131.494141 0)"/>
     <use xlink:href="#DejaVuSans-31" transform="translate(195.117188 0)"/>
     <use xlink:href="#DejaVuSans-36" transform="translate(258.740234 0)"/>
    </g>
   </g>
   <g id="text_40">
    <!-- -0.136 -->
    <g style="fill: #262626" transform="translate(246.045467 366.44469) scale(0.08 -0.08)">
     <use xlink:href="#DejaVuSans-2d"/>
     <use xlink:href="#DejaVuSans-30" transform="translate(36.083984 0)"/>
     <use xlink:href="#DejaVuSans-2e" transform="translate(99.707031 0)"/>
     <use xlink:href="#DejaVuSans-31" transform="translate(131.494141 0)"/>
     <use xlink:href="#DejaVuSans-33" transform="translate(195.117188 0)"/>
     <use xlink:href="#DejaVuSans-36" transform="translate(258.740234 0)"/>
    </g>
   </g>
   <g id="text_41">
    <!-- -0.024 -->
    <g style="fill: #262626" transform="translate(277.477052 349.997194) scale(0.08 -0.08)">
     <use xlink:href="#DejaVuSans-2d"/>
     <use xlink:href="#DejaVuSans-30" transform="translate(36.083984 0)"/>
     <use xlink:href="#DejaVuSans-2e" transform="translate(99.707031 0)"/>
     <use xlink:href="#DejaVuSans-30" transform="translate(131.494141 0)"/>
     <use xlink:href="#DejaVuSans-32" transform="translate(195.117188 0)"/>
     <use xlink:href="#DejaVuSans-34" transform="translate(258.740234 0)"/>
    </g>
   </g>
   <g id="text_42">
    <!-- -0.005 -->
    <g style="fill: #262626" transform="translate(282.700697 341.14085) scale(0.08 -0.08)">
     <use xlink:href="#DejaVuSans-2d"/>
     <use xlink:href="#DejaVuSans-30" transform="translate(36.083984 0)"/>
     <use xlink:href="#DejaVuSans-2e" transform="translate(99.707031 0)"/>
     <use xlink:href="#DejaVuSans-30" transform="translate(131.494141 0)"/>
     <use xlink:href="#DejaVuSans-30" transform="translate(195.117188 0)"/>
     <use xlink:href="#DejaVuSans-35" transform="translate(258.740234 0)"/>
    </g>
   </g>
   <g id="text_43">
    <!-- 0.032 -->
    <g style="fill: #262626" transform="translate(321.611301 324.693353) scale(0.08 -0.08)">
     <use xlink:href="#DejaVuSans-30"/>
     <use xlink:href="#DejaVuSans-2e" transform="translate(63.623047 0)"/>
     <use xlink:href="#DejaVuSans-30" transform="translate(95.410156 0)"/>
     <use xlink:href="#DejaVuSans-33" transform="translate(159.033203 0)"/>
     <use xlink:href="#DejaVuSans-32" transform="translate(222.65625 0)"/>
    </g>
   </g>
   <g id="text_44">
    <!-- 0.009 -->
    <g style="fill: #262626" transform="translate(315.212748 315.837009) scale(0.08 -0.08)">
     <defs>
      <path id="DejaVuSans-39" d="M 703 97 
L 703 672 
Q 941 559 1184 500 
Q 1428 441 1663 441 
Q 2288 441 2617 861 
Q 2947 1281 2994 2138 
Q 2813 1869 2534 1725 
Q 2256 1581 1919 1581 
Q 1219 1581 811 2004 
Q 403 2428 403 3163 
Q 403 3881 828 4315 
Q 1253 4750 1959 4750 
Q 2769 4750 3195 4129 
Q 3622 3509 3622 2328 
Q 3622 1225 3098 567 
Q 2575 -91 1691 -91 
Q 1453 -91 1209 -44 
Q 966 3 703 97 
z
M 1959 2075 
Q 2384 2075 2632 2365 
Q 2881 2656 2881 3163 
Q 2881 3666 2632 3958 
Q 2384 4250 1959 4250 
Q 1534 4250 1286 3958 
Q 1038 3666 1038 3163 
Q 1038 2656 1286 2365 
Q 1534 2075 1959 2075 
z
" transform="scale(0.015625)"/>
     </defs>
     <use xlink:href="#DejaVuSans-30"/>
     <use xlink:href="#DejaVuSans-2e" transform="translate(63.623047 0)"/>
     <use xlink:href="#DejaVuSans-30" transform="translate(95.410156 0)"/>
     <use xlink:href="#DejaVuSans-30" transform="translate(159.033203 0)"/>
     <use xlink:href="#DejaVuSans-39" transform="translate(222.65625 0)"/>
    </g>
   </g>
   <g id="text_45">
    <!-- -0.036 -->
    <g style="fill: #262626" transform="translate(274.237219 299.389513) scale(0.08 -0.08)">
     <use xlink:href="#DejaVuSans-2d"/>
     <use xlink:href="#DejaVuSans-30" transform="translate(36.083984 0)"/>
     <use xlink:href="#DejaVuSans-2e" transform="translate(99.707031 0)"/>
     <use xlink:href="#DejaVuSans-30" transform="translate(131.494141 0)"/>
     <use xlink:href="#DejaVuSans-33" transform="translate(195.117188 0)"/>
     <use xlink:href="#DejaVuSans-36" transform="translate(258.740234 0)"/>
    </g>
   </g>
   <g id="text_46">
    <!-- -0.018 -->
    <g style="fill: #262626" transform="translate(279.289808 290.533168) scale(0.08 -0.08)">
     <defs>
      <path id="DejaVuSans-38" d="M 2034 2216 
Q 1584 2216 1326 1975 
Q 1069 1734 1069 1313 
Q 1069 891 1326 650 
Q 1584 409 2034 409 
Q 2484 409 2743 651 
Q 3003 894 3003 1313 
Q 3003 1734 2745 1975 
Q 2488 2216 2034 2216 
z
M 1403 2484 
Q 997 2584 770 2862 
Q 544 3141 544 3541 
Q 544 4100 942 4425 
Q 1341 4750 2034 4750 
Q 2731 4750 3128 4425 
Q 3525 4100 3525 3541 
Q 3525 3141 3298 2862 
Q 3072 2584 2669 2484 
Q 3125 2378 3379 2068 
Q 3634 1759 3634 1313 
Q 3634 634 3220 271 
Q 2806 -91 2034 -91 
Q 1263 -91 848 271 
Q 434 634 434 1313 
Q 434 1759 690 2068 
Q 947 2378 1403 2484 
z
M 1172 3481 
Q 1172 3119 1398 2916 
Q 1625 2713 2034 2713 
Q 2441 2713 2670 2916 
Q 2900 3119 2900 3481 
Q 2900 3844 2670 4047 
Q 2441 4250 2034 4250 
Q 1625 4250 1398 4047 
Q 1172 3844 1172 3481 
z
" transform="scale(0.015625)"/>
     </defs>
     <use xlink:href="#DejaVuSans-2d"/>
     <use xlink:href="#DejaVuSans-30" transform="translate(36.083984 0)"/>
     <use xlink:href="#DejaVuSans-2e" transform="translate(99.707031 0)"/>
     <use xlink:href="#DejaVuSans-30" transform="translate(131.494141 0)"/>
     <use xlink:href="#DejaVuSans-31" transform="translate(195.117188 0)"/>
     <use xlink:href="#DejaVuSans-38" transform="translate(258.740234 0)"/>
    </g>
   </g>
   <g id="text_47">
    <!-- 0.043 -->
    <g style="fill: #262626" transform="translate(324.948998 274.085672) scale(0.08 -0.08)">
     <use xlink:href="#DejaVuSans-30"/>
     <use xlink:href="#DejaVuSans-2e" transform="translate(63.623047 0)"/>
     <use xlink:href="#DejaVuSans-30" transform="translate(95.410156 0)"/>
     <use xlink:href="#DejaVuSans-34" transform="translate(159.033203 0)"/>
     <use xlink:href="#DejaVuSans-33" transform="translate(222.65625 0)"/>
    </g>
   </g>
   <g id="text_48">
    <!-- 0.018 -->
    <g style="fill: #262626" transform="translate(317.840837 265.229328) scale(0.08 -0.08)">
     <use xlink:href="#DejaVuSans-30"/>
     <use xlink:href="#DejaVuSans-2e" transform="translate(63.623047 0)"/>
     <use xlink:href="#DejaVuSans-30" transform="translate(95.410156 0)"/>
     <use xlink:href="#DejaVuSans-31" transform="translate(159.033203 0)"/>
     <use xlink:href="#DejaVuSans-38" transform="translate(222.65625 0)"/>
    </g>
   </g>
   <g id="text_49">
    <!-- -0.053 -->
    <g style="fill: #262626" transform="translate(269.247752 248.781832) scale(0.08 -0.08)">
     <use xlink:href="#DejaVuSans-2d"/>
     <use xlink:href="#DejaVuSans-30" transform="translate(36.083984 0)"/>
     <use xlink:href="#DejaVuSans-2e" transform="translate(99.707031 0)"/>
     <use xlink:href="#DejaVuSans-30" transform="translate(131.494141 0)"/>
     <use xlink:href="#DejaVuSans-35" transform="translate(195.117188 0)"/>
     <use xlink:href="#DejaVuSans-33" transform="translate(258.740234 0)"/>
    </g>
   </g>
   <g id="text_50">
    <!-- -0.021 -->
    <g style="fill: #262626" transform="translate(278.351039 239.925487) scale(0.08 -0.08)">
     <use xlink:href="#DejaVuSans-2d"/>
     <use xlink:href="#DejaVuSans-30" transform="translate(36.083984 0)"/>
     <use xlink:href="#DejaVuSans-2e" transform="translate(99.707031 0)"/>
     <use xlink:href="#DejaVuSans-30" transform="translate(131.494141 0)"/>
     <use xlink:href="#DejaVuSans-32" transform="translate(195.117188 0)"/>
     <use xlink:href="#DejaVuSans-31" transform="translate(258.740234 0)"/>
    </g>
   </g>
   <g id="text_51">
    <!-- 0.054 -->
    <g style="fill: #262626" transform="translate(327.807976 223.477991) scale(0.08 -0.08)">
     <use xlink:href="#DejaVuSans-30"/>
     <use xlink:href="#DejaVuSans-2e" transform="translate(63.623047 0)"/>
     <use xlink:href="#DejaVuSans-30" transform="translate(95.410156 0)"/>
     <use xlink:href="#DejaVuSans-35" transform="translate(159.033203 0)"/>
     <use xlink:href="#DejaVuSans-34" transform="translate(222.65625 0)"/>
    </g>
   </g>
   <g id="text_52">
    <!-- 0.019 -->
    <g style="fill: #262626" transform="translate(318.170796 214.621647) scale(0.08 -0.08)">
     <use xlink:href="#DejaVuSans-30"/>
     <use xlink:href="#DejaVuSans-2e" transform="translate(63.623047 0)"/>
     <use xlink:href="#DejaVuSans-30" transform="translate(95.410156 0)"/>
     <use xlink:href="#DejaVuSans-31" transform="translate(159.033203 0)"/>
     <use xlink:href="#DejaVuSans-39" transform="translate(222.65625 0)"/>
    </g>
   </g>
   <g id="text_53">
    <!-- 0.058 -->
    <g style="fill: #262626" transform="translate(328.887034 198.17415) scale(0.08 -0.08)">
     <use xlink:href="#DejaVuSans-30"/>
     <use xlink:href="#DejaVuSans-2e" transform="translate(63.623047 0)"/>
     <use xlink:href="#DejaVuSans-30" transform="translate(95.410156 0)"/>
     <use xlink:href="#DejaVuSans-35" transform="translate(159.033203 0)"/>
     <use xlink:href="#DejaVuSans-38" transform="translate(222.65625 0)"/>
    </g>
   </g>
   <g id="text_54">
    <!-- 0.026 -->
    <g style="fill: #262626" transform="translate(320.185353 189.317806) scale(0.08 -0.08)">
     <use xlink:href="#DejaVuSans-30"/>
     <use xlink:href="#DejaVuSans-2e" transform="translate(63.623047 0)"/>
     <use xlink:href="#DejaVuSans-30" transform="translate(95.410156 0)"/>
     <use xlink:href="#DejaVuSans-32" transform="translate(159.033203 0)"/>
     <use xlink:href="#DejaVuSans-36" transform="translate(222.65625 0)"/>
    </g>
   </g>
   <g id="text_55">
    <!-- 0.060 -->
    <g style="fill: #262626" transform="translate(329.667014 172.87031) scale(0.08 -0.08)">
     <use xlink:href="#DejaVuSans-30"/>
     <use xlink:href="#DejaVuSans-2e" transform="translate(63.623047 0)"/>
     <use xlink:href="#DejaVuSans-30" transform="translate(95.410156 0)"/>
     <use xlink:href="#DejaVuSans-36" transform="translate(159.033203 0)"/>
     <use xlink:href="#DejaVuSans-30" transform="translate(222.65625 0)"/>
    </g>
   </g>
   <g id="text_56">
    <!-- 0.012 -->
    <g style="fill: #262626" transform="translate(316.068461 164.013966) scale(0.08 -0.08)">
     <use xlink:href="#DejaVuSans-30"/>
     <use xlink:href="#DejaVuSans-2e" transform="translate(63.623047 0)"/>
     <use xlink:href="#DejaVuSans-30" transform="translate(95.410156 0)"/>
     <use xlink:href="#DejaVuSans-31" transform="translate(159.033203 0)"/>
     <use xlink:href="#DejaVuSans-32" transform="translate(222.65625 0)"/>
    </g>
   </g>
   <g id="text_57">
    <!-- 0.066 -->
    <g style="fill: #262626" transform="translate(331.20043 147.566469) scale(0.08 -0.08)">
     <use xlink:href="#DejaVuSans-30"/>
     <use xlink:href="#DejaVuSans-2e" transform="translate(63.623047 0)"/>
     <use xlink:href="#DejaVuSans-30" transform="translate(95.410156 0)"/>
     <use xlink:href="#DejaVuSans-36" transform="translate(159.033203 0)"/>
     <use xlink:href="#DejaVuSans-36" transform="translate(222.65625 0)"/>
    </g>
   </g>
   <g id="text_58">
    <!-- 0.024 -->
    <g style="fill: #262626" transform="translate(319.625835 138.710125) scale(0.08 -0.08)">
     <use xlink:href="#DejaVuSans-30"/>
     <use xlink:href="#DejaVuSans-2e" transform="translate(63.623047 0)"/>
     <use xlink:href="#DejaVuSans-30" transform="translate(95.410156 0)"/>
     <use xlink:href="#DejaVuSans-32" transform="translate(159.033203 0)"/>
     <use xlink:href="#DejaVuSans-34" transform="translate(222.65625 0)"/>
    </g>
   </g>
   <g id="text_59">
    <!-- -0.211 -->
    <g style="fill: #262626" transform="translate(225.085418 122.262629) scale(0.08 -0.08)">
     <use xlink:href="#DejaVuSans-2d"/>
     <use xlink:href="#DejaVuSans-30" transform="translate(36.083984 0)"/>
     <use xlink:href="#DejaVuSans-2e" transform="translate(99.707031 0)"/>
     <use xlink:href="#DejaVuSans-32" transform="translate(131.494141 0)"/>
     <use xlink:href="#DejaVuSans-31" transform="translate(195.117188 0)"/>
     <use xlink:href="#DejaVuSans-31" transform="translate(258.740234 0)"/>
    </g>
   </g>
   <g id="text_60">
    <!-- -0.039 -->
    <g style="fill: #262626" transform="translate(273.355535 113.406285) scale(0.08 -0.08)">
     <use xlink:href="#DejaVuSans-2d"/>
     <use xlink:href="#DejaVuSans-30" transform="translate(36.083984 0)"/>
     <use xlink:href="#DejaVuSans-2e" transform="translate(99.707031 0)"/>
     <use xlink:href="#DejaVuSans-30" transform="translate(131.494141 0)"/>
     <use xlink:href="#DejaVuSans-33" transform="translate(195.117188 0)"/>
     <use xlink:href="#DejaVuSans-39" transform="translate(258.740234 0)"/>
    </g>
   </g>
   <g id="text_61">
    <!-- 0.425 -->
    <g style="fill: #262626" transform="translate(431.830135 96.958788) scale(0.08 -0.08)">
     <use xlink:href="#DejaVuSans-30"/>
     <use xlink:href="#DejaVuSans-2e" transform="translate(63.623047 0)"/>
     <use xlink:href="#DejaVuSans-34" transform="translate(95.410156 0)"/>
     <use xlink:href="#DejaVuSans-32" transform="translate(159.033203 0)"/>
     <use xlink:href="#DejaVuSans-35" transform="translate(222.65625 0)"/>
    </g>
   </g>
   <g id="text_62">
    <!-- 0.013 -->
    <g style="fill: #262626" transform="translate(316.558767 88.102444) scale(0.08 -0.08)">
     <use xlink:href="#DejaVuSans-30"/>
     <use xlink:href="#DejaVuSans-2e" transform="translate(63.623047 0)"/>
     <use xlink:href="#DejaVuSans-30" transform="translate(95.410156 0)"/>
     <use xlink:href="#DejaVuSans-31" transform="translate(159.033203 0)"/>
     <use xlink:href="#DejaVuSans-33" transform="translate(222.65625 0)"/>
    </g>
   </g>
   <g id="text_63">
    <!-- -0.461 -->
    <g style="fill: #262626" transform="translate(155.224324 71.654948) scale(0.08 -0.08)">
     <use xlink:href="#DejaVuSans-2d"/>
     <use xlink:href="#DejaVuSans-30" transform="translate(36.083984 0)"/>
     <use xlink:href="#DejaVuSans-2e" transform="translate(99.707031 0)"/>
     <use xlink:href="#DejaVuSans-34" transform="translate(131.494141 0)"/>
     <use xlink:href="#DejaVuSans-36" transform="translate(195.117188 0)"/>
     <use xlink:href="#DejaVuSans-31" transform="translate(258.740234 0)"/>
    </g>
   </g>
   <g id="text_64">
    <!-- -0.013 -->
    <g style="fill: #262626" transform="translate(280.542121 62.798604) scale(0.08 -0.08)">
     <use xlink:href="#DejaVuSans-2d"/>
     <use xlink:href="#DejaVuSans-30" transform="translate(36.083984 0)"/>
     <use xlink:href="#DejaVuSans-2e" transform="translate(99.707031 0)"/>
     <use xlink:href="#DejaVuSans-30" transform="translate(131.494141 0)"/>
     <use xlink:href="#DejaVuSans-31" transform="translate(195.117188 0)"/>
     <use xlink:href="#DejaVuSans-33" transform="translate(258.740234 0)"/>
    </g>
   </g>
   <g id="text_65">
    <!-- 1.323 -->
    <g style="fill: #262626" transform="translate(683.243145 46.351107) scale(0.08 -0.08)">
     <use xlink:href="#DejaVuSans-31"/>
     <use xlink:href="#DejaVuSans-2e" transform="translate(63.623047 0)"/>
     <use xlink:href="#DejaVuSans-33" transform="translate(95.410156 0)"/>
     <use xlink:href="#DejaVuSans-32" transform="translate(159.033203 0)"/>
     <use xlink:href="#DejaVuSans-33" transform="translate(222.65625 0)"/>
    </g>
   </g>
   <g id="text_66">
    <!-- 0.315 -->
    <g style="fill: #262626" transform="translate(400.925903 37.494763) scale(0.08 -0.08)">
     <use xlink:href="#DejaVuSans-30"/>
     <use xlink:href="#DejaVuSans-2e" transform="translate(63.623047 0)"/>
     <use xlink:href="#DejaVuSans-33" transform="translate(95.410156 0)"/>
     <use xlink:href="#DejaVuSans-31" transform="translate(159.033203 0)"/>
     <use xlink:href="#DejaVuSans-35" transform="translate(222.65625 0)"/>
    </g>
   </g>
   <g id="legend_1">
    <g id="patch_43">
     <path d="M 564.637845 500.49975 
L 585.757845 500.49975 
L 585.757845 493.10775 
L 564.637845 493.10775 
z
" style="fill: #31688e; opacity: 0.8; stroke: #ffffff; stroke-width: 0.8; stroke-linejoin: miter"/>
    </g>
    <g id="text_67">
     <!-- OLS -->
     <g style="fill: #262626" transform="translate(594.205845 500.49975) scale(0.1056 -0.1056)">
      <use xlink:href="#DejaVuSans-4f"/>
      <use xlink:href="#DejaVuSans-4c" transform="translate(78.710938 0)"/>
      <use xlink:href="#DejaVuSans-53" transform="translate(134.423828 0)"/>
     </g>
    </g>
    <g id="patch_44">
     <path d="M 564.637845 515.99985 
L 585.757845 515.99985 
L 585.757845 508.60785 
L 564.637845 508.60785 
z
" style="fill: #35b779; opacity: 0.8; stroke: #ffffff; stroke-width: 0.8; stroke-linejoin: miter"/>
    </g>
    <g id="text_68">
     <!-- Ridge (λ = 138.95) -->
     <g style="fill: #262626" transform="translate(594.205845 515.99985) scale(0.1056 -0.1056)">
      <defs>
       <path id="DejaVuSans-64" d="M 2906 2969 
L 2906 4863 
L 3481 4863 
L 3481 0 
L 2906 0 
L 2906 525 
Q 2725 213 2448 61 
Q 2172 -91 1784 -91 
Q 1150 -91 751 415 
Q 353 922 353 1747 
Q 353 2572 751 3078 
Q 1150 3584 1784 3584 
Q 2172 3584 2448 3432 
Q 2725 3281 2906 2969 
z
M 947 1747 
Q 947 1113 1208 752 
Q 1469 391 1925 391 
Q 2381 391 2643 752 
Q 2906 1113 2906 1747 
Q 2906 2381 2643 2742 
Q 2381 3103 1925 3103 
Q 1469 3103 1208 2742 
Q 947 2381 947 1747 
z
" transform="scale(0.015625)"/>
       <path id="DejaVuSans-67" d="M 2906 1791 
Q 2906 2416 2648 2759 
Q 2391 3103 1925 3103 
Q 1463 3103 1205 2759 
Q 947 2416 947 1791 
Q 947 1169 1205 825 
Q 1463 481 1925 481 
Q 2391 481 2648 825 
Q 2906 1169 2906 1791 
z
M 3481 434 
Q 3481 -459 3084 -895 
Q 2688 -1331 1869 -1331 
Q 1566 -1331 1297 -1286 
Q 1028 -1241 775 -1147 
L 775 -588 
Q 1028 -725 1275 -790 
Q 1522 -856 1778 -856 
Q 2344 -856 2625 -561 
Q 2906 -266 2906 331 
L 2906 616 
Q 2728 306 2450 153 
Q 2172 0 1784 0 
Q 1141 0 747 490 
Q 353 981 353 1791 
Q 353 2603 747 3093 
Q 1141 3584 1784 3584 
Q 2172 3584 2450 3431 
Q 2728 3278 2906 2969 
L 2906 3500 
L 3481 3500 
L 3481 434 
z
" transform="scale(0.015625)"/>
       <path id="DejaVuSans-20" transform="scale(0.015625)"/>
       <path id="DejaVuSans-28" d="M 1984 4856 
Q 1566 4138 1362 3434 
Q 1159 2731 1159 2009 
Q 1159 1288 1364 580 
Q 1569 -128 1984 -844 
L 1484 -844 
Q 1016 -109 783 600 
Q 550 1309 550 2009 
Q 550 2706 781 3412 
Q 1013 4119 1484 4856 
L 1984 4856 
z
" transform="scale(0.015625)"/>
       <path id="DejaVuSans-3bb" d="M 1981 4316 
L 3597 0 
L 2988 0 
L 2006 2588 
L 800 0 
L 191 0 
L 1725 3356 
L 1494 3975 
Q 1347 4369 1013 4369 
L 713 4369 
L 713 4863 
L 1078 4856 
Q 1784 4847 1981 4316 
z
" transform="scale(0.015625)"/>
       <path id="DejaVuSans-3d" d="M 678 2906 
L 4684 2906 
L 4684 2381 
L 678 2381 
L 678 2906 
z
M 678 1631 
L 4684 1631 
L 4684 1100 
L 678 1100 
L 678 1631 
z
" transform="scale(0.015625)"/>
       <path id="DejaVuSans-29" d="M 513 4856 
L 1013 4856 
Q 1481 4119 1714 3412 
Q 1947 2706 1947 2009 
Q 1947 1309 1714 600 
Q 1481 -109 1013 -844 
L 513 -844 
Q 928 -128 1133 580 
Q 1338 1288 1338 2009 
Q 1338 2731 1133 3434 
Q 928 4138 513 4856 
z
" transform="scale(0.015625)"/>
      </defs>
      <use xlink:href="#DejaVuSans-52"/>
      <use xlink:href="#DejaVuSans-69" transform="translate(69.482422 0)"/>
      <use xlink:href="#DejaVuSans-64" transform="translate(97.265625 0)"/>
      <use xlink:href="#DejaVuSans-67" transform="translate(160.742188 0)"/>
      <use xlink:href="#DejaVuSans-65" transform="translate(224.21875 0)"/>
      <use xlink:href="#DejaVuSans-20" transform="translate(285.742188 0)"/>
      <use xlink:href="#DejaVuSans-28" transform="translate(317.529297 0)"/>
      <use xlink:href="#DejaVuSans-3bb" transform="translate(356.542969 0)"/>
      <use xlink:href="#DejaVuSans-20" transform="translate(415.722656 0)"/>
      <use xlink:href="#DejaVuSans-3d" transform="translate(447.509766 0)"/>
      <use xlink:href="#DejaVuSans-20" transform="translate(531.298828 0)"/>
      <use xlink:href="#DejaVuSans-31" transform="translate(563.085938 0)"/>
      <use xlink:href="#DejaVuSans-33" transform="translate(626.708984 0)"/>
      <use xlink:href="#DejaVuSans-38" transform="translate(690.332031 0)"/>
      <use xlink:href="#DejaVuSans-2e" transform="translate(753.955078 0)"/>
      <use xlink:href="#DejaVuSans-39" transform="translate(785.742188 0)"/>
      <use xlink:href="#DejaVuSans-35" transform="translate(849.365234 0)"/>
      <use xlink:href="#DejaVuSans-29" transform="translate(912.988281 0)"/>
     </g>
    </g>
   </g>
  </g>
 </g>
 <defs>
  <clipPath id="p8c52a647b3">
   <rect x="160.011875" y="7.2" width="544.23247" height="520.5"/>
  </clipPath>
 </defs>
</svg>
